<svg xmlns="http://www.w3.org/2000/svg" viewBox="0 0 78.36 99.62"><defs><style>.cls-1{fill:#00313c;}.cls-2{fill:#fff;}.cls-3{fill:#b4e6a5;}</style></defs><g id="Layer_2" data-name="Layer 2"><g id="Layer_1-2" data-name="Layer 1"><path class="cls-1" d="M28,99.62a19.55,19.55,0,0,1-11.56-4.15C6.14,88,4.54,80.6,2.84,72.77l-.11-.52A147.49,147.49,0,0,1,0,54.19c0-4.28,2.05-7.12,5.63-7.65a6.71,6.71,0,0,1,4.54.71l.14-.5a148.78,148.78,0,0,1,6.21-17.18c1.95-3.71,4.47-4.48,6.24-4.48a7,7,0,0,1,2.34.43c2.66,1,5.54,3.26,4.16,8.77L26.23,47l6.46-2.91,8.22-10.79a6,6,0,0,1,4.83-2.38,6,6,0,0,1,3.66,1.23l.28.22A5.85,5.85,0,0,1,51.19,34a5.45,5.45,0,0,1,3.62-1.4,5.77,5.77,0,0,1,2.25.48l5.39-2.43a6.08,6.08,0,0,1,8,3l.14.31a6,6,0,0,1,.53,2.21,5.66,5.66,0,0,1,6.54,3.51l.15.32A6.06,6.06,0,0,1,74.92,48a5.79,5.79,0,0,1,1.19,1.74l.14.31a6.07,6.07,0,0,1-3,8l-.85.38a6,6,0,0,1,1.19,1.74l.14.31a5.57,5.57,0,0,1,0,4.59,6.26,6.26,0,0,1-3.2,3.15c-.08,0-7,3.4-13.51,6.49-3.43,4.73-5.64,7.74-6.56,9-.46.6-.92,1.22-1.37,1.85a41.94,41.94,0,0,1-9.4,9.94C35.72,98.26,31.88,99.62,28,99.62ZM4,54H4A146.28,146.28,0,0,0,6.62,71.4l.12.53c1.59,7.37,3,13.73,12,20.33A15.72,15.72,0,0,0,28,95.64c3.07,0,6.14-1.12,9.4-3.42a37.88,37.88,0,0,0,8.51-9L46,83c.43-.6.87-1.19,1.31-1.77.65-.87,2-2.71,4.16-5.66l2.82-3.87c2.89-4,5.87-8.09,7.39-10.2l.18-.25.86-1.19.1-.14v-.11l.16-.17a2.15,2.15,0,0,0,.27-1,1.56,1.56,0,0,0-.65-1.39l-.27-.2a2.13,2.13,0,0,0-2.88.36L49.84,70.08a2,2,0,0,1-3.17-2.41L60.26,49.81a2.08,2.08,0,0,0-.4-2.91l-.26-.2A2.08,2.08,0,0,0,58,46.33a2,2,0,0,0-.91.4,1.7,1.7,0,0,0-.35.36L44,63.76a2,2,0,0,1-1.31.77,2,2,0,0,1-1.48-.39,2,2,0,0,1-.38-2.79L56.88,40.26a2.09,2.09,0,0,0,.4-1.53,2,2,0,0,0-.8-1.37l-.27-.21a3.08,3.08,0,0,0-.82-.46c-.28-.1-1.14-.39-2.09.85L37.18,58.75A2,2,0,0,1,34,56.33l13.32-17.5a3.59,3.59,0,0,0,.6-1.27,1.94,1.94,0,0,0-.67-2.07L47,35.27a2.14,2.14,0,0,0-2.9.41L17.53,70.5a2,2,0,0,1-2,.74A2,2,0,0,1,14,69.8L9.61,53.28a8.29,8.29,0,0,0-.5-1.42A2.08,2.08,0,0,0,7,50.42a5.17,5.17,0,0,0-.76.06C5.54,50.58,4,50.82,4,54Zm62.8,7a6.61,6.61,0,0,1-.85,1.48l-4,5.5,6.71-3.23.21-.1a2.34,2.34,0,0,0,1.23-1.14h0a1.54,1.54,0,0,0,0-1.34l-.14-.31a2.12,2.12,0,0,0-2.74-1ZM13.16,51.29c.11.31.21.64.3,1l3.36,12.59L27.62,50.7l-3.46,1.56A2,2,0,0,1,22.08,52a2,2,0,0,1-.67-2l4-16.64c.74-3-.26-3.57-1.64-4.07a2.91,2.91,0,0,0-1-.2c-1,0-1.87.75-2.65,2.21h0a145.48,145.48,0,0,0-6,16.58l-.15.52C13.7,49.37,13.42,50.33,13.16,51.29Zm50.27,1.88a5.53,5.53,0,0,1,1.31.76l.27.2a5.59,5.59,0,0,1,1.85,2.42l4.73-2.13a2.09,2.09,0,0,0,1-2.75l-.14-.32a2.12,2.12,0,0,0-2.71-1Zm-.65-9a6.1,6.1,0,0,1,1.87,4.08l8.51-3.84a2.05,2.05,0,0,0,1.08-1.16h0a2.09,2.09,0,0,0,0-1.59l-.14-.31a1.81,1.81,0,0,0-2.75-1Zm-2.34-8.25a6,6,0,0,1,.78,2.27,6.13,6.13,0,0,1-.14,2.38l4.42-2c1.38-.65,2-1.84,1.48-2.94l-.14-.32a2.13,2.13,0,0,0-2.75-1ZM45.26,27.54a7,7,0,0,1-6.9-7c0-4.23,4.43-10.31,5.32-11.49L45.26,6.9,46.86,9c.88,1.18,5.31,7.28,5.31,11.49A7,7,0,0,1,45.26,27.54Zm0-13.81c-1.52,2.4-2.93,5.18-2.93,6.77a2.93,2.93,0,1,0,5.85,0C48.19,18.91,46.78,16.13,45.27,13.73Zm-14.43,6.9a7,7,0,0,1-6.9-7c0-4.22,4.42-10.3,5.31-11.48L30.84,0l1.59,2.11c.89,1.17,5.31,7.25,5.31,11.48A7,7,0,0,1,30.84,20.63Zm0-13.8c-1.51,2.4-2.92,5.18-2.92,6.76a2.92,2.92,0,1,0,5.84,0C33.76,12,32.36,9.23,30.84,6.83Zm28.85,13.8a7,7,0,0,1-6.9-7c0-4.21,4.42-10.3,5.31-11.48L59.69,0l1.59,2.11c.89,1.18,5.31,7.27,5.31,11.48A7,7,0,0,1,59.69,20.63Zm0-13.8c-1.52,2.4-2.92,5.18-2.92,6.76a2.92,2.92,0,1,0,5.84,0C62.61,12,61.2,9.23,59.69,6.83Z"/><path class="cls-2" d="M59.69,6.83c-1.52,2.4-2.92,5.18-2.92,6.76a2.92,2.92,0,1,0,5.84,0C62.61,12,61.2,9.23,59.69,6.83Z"/><path class="cls-2" d="M45.27,13.73c-1.52,2.4-2.93,5.18-2.93,6.77a2.93,2.93,0,1,0,5.85,0C48.19,18.91,46.78,16.13,45.27,13.73Z"/><path class="cls-2" d="M30.84,6.83c-1.51,2.4-2.92,5.18-2.92,6.76a2.92,2.92,0,1,0,5.84,0C33.76,12,32.36,9.23,30.84,6.83Z"/><path class="cls-2" d="M4,54H4A146.28,146.28,0,0,0,6.62,71.4l.12.53c1.59,7.37,3,13.73,12,20.33A15.72,15.72,0,0,0,28,95.64c3.07,0,6.14-1.12,9.4-3.42a37.88,37.88,0,0,0,8.51-9L46,83c.43-.6.87-1.19,1.31-1.77.65-.87,2-2.71,4.16-5.66l2.82-3.87c2.89-4,5.87-8.09,7.39-10.2l.18-.25.86-1.19.1-.14v-.11l.16-.17a2.15,2.15,0,0,0,.27-1,1.56,1.56,0,0,0-.65-1.39l-.27-.2a2.13,2.13,0,0,0-2.88.36L49.84,70.08a2,2,0,0,1-3.17-2.41L60.26,49.81a2.08,2.08,0,0,0-.4-2.91l-.26-.2A2.08,2.08,0,0,0,58,46.33a2,2,0,0,0-.91.4,1.7,1.7,0,0,0-.35.36L44,63.76a2,2,0,0,1-1.31.77,2,2,0,0,1-1.48-.39,2,2,0,0,1-.38-2.79L56.88,40.26a2.09,2.09,0,0,0,.4-1.53,2,2,0,0,0-.8-1.37l-.27-.21a3.08,3.08,0,0,0-.82-.46c-.28-.1-1.14-.39-2.09.85L37.18,58.75A2,2,0,0,1,34,56.33l13.32-17.5a3.59,3.59,0,0,0,.6-1.27,1.94,1.94,0,0,0-.67-2.07L47,35.27a2.14,2.14,0,0,0-2.9.41L17.53,70.5a2,2,0,0,1-2,.74A2,2,0,0,1,14,69.8L9.61,53.28a8.29,8.29,0,0,0-.5-1.42A2.08,2.08,0,0,0,7,50.42a5.17,5.17,0,0,0-.76.06C5.54,50.58,4,50.82,4,54Z"/><path class="cls-3" d="M39.76,78.48l1.13-1.14,1.34,1.35,1.35-1.35,1.13,1.14-1.34,1.34,1.34,1.34-1.13,1.13L42.23,81l-1.34,1.34-1.13-1.13,1.34-1.34ZM26.57,68.82l1.34-1.34-1.13-1.14-1.35,1.35-1.34-1.35L23,67.48l1.34,1.34L23,70.16l1.13,1.13L25.43,70l1.35,1.34,1.13-1.13Zm4.8,11,1.34-1.34-1.13-1.14-1.35,1.35-1.34-1.35-1.13,1.14,1.34,1.34-1.34,1.34,1.13,1.13L30.23,81l1.35,1.34,1.13-1.13ZM8.23,78c.08.24.15.48.23.72l.25-.24ZM24.38,88.34,23,89.69l-1.34-1.35-1.13,1.14,1.34,1.34-1.34,1.34,1.13,1.13L23,92l1.35,1.34,1.13-1.13-1.35-1.34,1.35-1.34Zm11.71-17L37.43,70l1.35,1.34,1.13-1.13-1.34-1.34,1.34-1.34-1.13-1.14-1.35,1.35-1.34-1.35L35,67.48l1.34,1.34L35,70.16ZM19.37,79.82l1.34-1.34-1.13-1.14-1.35,1.35-1.34-1.35-1.13,1.14,1.34,1.34-1.34,1.34,1.13,1.13L18.23,81l1.35,1.34,1.13-1.13Zm32.54-9.66L50.7,69l-.86,1.13c0,.06-.09.1-.13.15l1.07,1.06Zm0-2.73-.29.38.34-.33ZM8.63,56.69,7.29,55.34,6.16,56.48,7.5,57.82,6.16,59.16l1.13,1.13L8.63,59,10,60.29l1.13-1.13L9.77,57.82,10.6,57l-.38-1.4L10,55.34Zm45.53-.21.58.58,1-1.28-.43-.44Zm-12,0,1.34,1.34-1.34,1.34.19.2,2.14-2.82-1.2-1.2Zm17,2.68-.55-.54-1,1.28.39.39ZM37.51,89.48l-1.13-1.14L35,89.69l-1.34-1.35-1.13,1.14,1.34,1.34-1.34,1.34,1.13,1.13L35,92,36.13,93c.41-.25.82-.52,1.24-.82l.11-.08-1.32-1.32Zm11-18.63a2,2,0,0,1-1-.13l.58.57Zm3.29-25.16-1.34-1.35-1.13,1.14,1.34,1.34-1.34,1.34.86.86,3.3-4.34-.34-.34Zm-7.27-8.53,1.13,1.13L47,37l.82.82a1.8,1.8,0,0,0,.08-.21,1.94,1.94,0,0,0-.67-2.07L47,35.27A2.1,2.1,0,0,0,45.07,35l.83.83ZM12.09,66.34,11,67.48l1.34,1.34L11,70.16l1.13,1.13L13.43,70l1.35,1.34.24-.24a2,2,0,0,1-1-1.25l-.58-2.13,0,0Zm20.54-9.65-1.34-1.35-1.13,1.14,1.34,1.34-1.34,1.34,1.13,1.13L32.63,59,34,60.29l.9-.9a2.3,2.3,0,0,1-.49-.26,2,2,0,0,1-.77-1.32A2,2,0,0,1,34,56.33l.41-.54L34,55.34Zm7.2-11-1.34-1.35-1.13,1.14,1.34,1.34-1.34,1.34,1.13,1.13L39.83,48l.32.31,1-1.28L41,46.82l1.17-1.18.15-.19-1.11-1.11Z"/><path class="cls-3" d="M13.16,51.29c.11.31.21.64.3,1l3.36,12.59L27.62,50.7l-3.46,1.56A2,2,0,0,1,22.08,52a2,2,0,0,1-.67-2l4-16.64c.74-3-.26-3.57-1.64-4.07a2.91,2.91,0,0,0-1-.2c-1,0-1.87.75-2.65,2.21h0a145.48,145.48,0,0,0-6,16.58l-.15.52C13.7,49.37,13.42,50.33,13.16,51.29ZM66.78,61a6.61,6.61,0,0,1-.85,1.48l-4,5.5,6.71-3.23.21-.1a2.34,2.34,0,0,0,1.23-1.14h0a1.54,1.54,0,0,0,0-1.34l-.14-.31a2.12,2.12,0,0,0-2.74-1Zm-3.35-7.79a5.53,5.53,0,0,1,1.31.76l.27.2a5.59,5.59,0,0,1,1.85,2.42l4.73-2.13a2.09,2.09,0,0,0,1-2.75l-.14-.32a2.12,2.12,0,0,0-2.71-1Zm-.65-9a6.1,6.1,0,0,1,1.87,4.08l8.51-3.84a2.05,2.05,0,0,0,1.08-1.16h0a2.09,2.09,0,0,0,0-1.59l-.14-.31a1.81,1.81,0,0,0-2.75-1Zm-2.34-8.25a6,6,0,0,1,.78,2.27,6.13,6.13,0,0,1-.14,2.38l4.42-2c1.38-.65,2-1.84,1.48-2.94l-.14-.32a2.13,2.13,0,0,0-2.75-1Z"/></g></g></svg>