<svg xmlns="http://www.w3.org/2000/svg" xmlns:xlink="http://www.w3.org/1999/xlink" viewBox="0 0 134.48 119.4"><defs><style>.cls-1{fill:none;}.cls-2{fill:#002531;}.cls-3{fill:#b3e6a6;}.cls-4{fill:#fff;}.cls-5{clip-path:url(#clip-path);}.cls-6{fill:#b4e6a5;}</style><clipPath id="clip-path" transform="translate(57.11)"><path class="cls-1" d="M18.59,65.83A19.49,19.49,0,0,1,9,52.2L2.6,28.65a4,4,0,0,1,2.77-4.86,4.19,4.19,0,0,1,1-.14,4,4,0,0,1,3.81,2.91l1.92,7a1.23,1.23,0,0,0,2.25.28L30.58,5.5a3.95,3.95,0,0,1,6.86,3.91h0L26.69,28.26a1.22,1.22,0,1,0,2.13,1.21L39.58,10.63l3.53-6.18A4,4,0,1,1,50,8.37l-3.53,6.18L35.69,33.39a1.23,1.23,0,0,0,.46,1.68,1.2,1.2,0,0,0,.6.16,1.23,1.23,0,0,0,1.07-.62L48.57,15.77a4,4,0,0,1,6.87,3.92L52,25.76s0,0,0,.06l0,.05L44.69,38.52a1.23,1.23,0,0,0,.45,1.68,1.26,1.26,0,0,0,.61.16,1.23,1.23,0,0,0,1.07-.62L54,27.11a3.95,3.95,0,0,1,6.36,4.59L45.17,58.56a.8.8,0,0,0-.08.16A19.52,19.52,0,0,1,18.59,65.83Z"/></clipPath></defs><g id="Layer_2" data-name="Layer 2"><g id="Layer_1-2" data-name="Layer 1"><path class="cls-2" d="M75.48,38.35a6.43,6.43,0,0,0-3.62-1.79l2-2a6.41,6.41,0,0,0-3.76-10.89l1.47-1.47a6.41,6.41,0,1,0-9.06-9.06l-1.47,1.47a6.4,6.4,0,0,0-8.93-5.09A6.4,6.4,0,0,0,41,3.23L39.94,5a6.4,6.4,0,0,0-11.5-.76L13.73,30.07l-1.14-4.15A6.41,6.41,0,0,0,.23,29.3L6.64,52.74A21.89,21.89,0,0,0,17.37,68a21.63,21.63,0,0,0,6.55,2.45,21.92,21.92,0,0,0,29.83-1.09.21.21,0,0,0,0-.06L75.52,47.41a6.42,6.42,0,0,0,0-9.06Z" transform="translate(57.11)"/><path class="cls-3" d="M73.77,45.68,52,67.57s0,0,0,0l0,.06a19.51,19.51,0,0,1-23.15,3.16,21.94,21.94,0,0,0,18.53-11,1.3,1.3,0,0,0,.08-.17l15.14-26.7a6.34,6.34,0,0,0,.79-2.59,1.27,1.27,0,0,0,.39-.26l2.86-2.86a3.95,3.95,0,0,1,5.59,5.58l-4.94,4.94,0,.06-.06,0-10.3,10.3a1.23,1.23,0,0,0,.87,2.1,1.22,1.22,0,0,0,.87-.36L68.84,39.57a4,4,0,0,1,4.91.53,3.94,3.94,0,0,1,0,5.58Z" transform="translate(57.11)"/><path class="cls-4" d="M18.59,65.83A19.49,19.49,0,0,1,9,52.2L2.6,28.65a4,4,0,0,1,2.77-4.86,4.19,4.19,0,0,1,1-.14,4,4,0,0,1,3.81,2.91l1.92,7a1.23,1.23,0,0,0,2.25.28L30.58,5.5a3.95,3.95,0,0,1,6.86,3.91h0L26.69,28.26a1.22,1.22,0,1,0,2.13,1.21L39.58,10.63l3.53-6.18A4,4,0,1,1,50,8.37l-3.53,6.18L35.69,33.39a1.23,1.23,0,0,0,.46,1.68,1.2,1.2,0,0,0,.6.16,1.23,1.23,0,0,0,1.07-.62L48.57,15.77a4,4,0,0,1,6.87,3.92L52,25.76s0,0,0,.06l0,.05L44.69,38.52a1.23,1.23,0,0,0,.45,1.68,1.26,1.26,0,0,0,.61.16,1.23,1.23,0,0,0,1.07-.62L54,27.11a3.95,3.95,0,0,1,6.36,4.59L45.17,58.56a.8.8,0,0,0-.08.16A19.52,19.52,0,0,1,18.59,65.83Z" transform="translate(57.11)"/><g class="cls-5"><polygon class="cls-6" points="104.88 47.8 103.27 49.41 101.67 47.8 100.32 49.16 101.92 50.76 100.32 52.37 101.67 53.72 103.27 52.11 104.88 53.72 106.23 52.37 104.63 50.76 106.23 49.16 104.88 47.8"/><polygon class="cls-6" points="90.55 47.8 88.94 49.41 87.34 47.8 85.99 49.16 87.59 50.76 85.99 52.37 87.34 53.72 88.94 52.11 90.55 53.72 91.9 52.37 90.29 50.76 91.9 49.16 90.55 47.8"/><polygon class="cls-6" points="76.22 47.8 74.61 49.41 73.01 47.8 71.66 49.16 73.26 50.76 71.66 52.37 73.01 53.72 74.61 52.11 76.22 53.72 77.57 52.37 75.96 50.76 77.57 49.16 76.22 47.8"/><polygon class="cls-6" points="113.48 34.67 111.87 36.27 110.27 34.67 108.92 36.02 110.52 37.62 108.92 39.23 110.27 40.58 111.87 38.98 113.48 40.58 114.83 39.23 113.22 37.62 114.83 36.02 113.48 34.67"/><polygon class="cls-6" points="99.15 34.67 97.54 36.27 95.94 34.67 94.59 36.02 96.19 37.62 94.59 39.23 95.94 40.58 97.54 38.98 99.15 40.58 100.5 39.23 98.89 37.62 100.5 36.02 99.15 34.67"/><polygon class="cls-6" points="84.81 34.67 83.21 36.27 81.61 34.67 80.25 36.02 81.86 37.62 80.25 39.23 81.61 40.58 83.21 38.98 84.81 40.58 86.17 39.23 84.56 37.62 86.17 36.02 84.81 34.67"/><polygon class="cls-6" points="70.48 34.67 68.88 36.27 67.27 34.67 65.92 36.02 67.53 37.62 65.92 39.23 67.27 40.58 68.88 38.98 70.48 40.58 71.83 39.23 70.23 37.62 71.83 36.02 70.48 34.67"/><polygon class="cls-6" points="107.75 21.53 106.14 23.14 104.53 21.53 103.18 22.89 104.79 24.49 103.18 26.09 104.53 27.44 106.14 25.84 107.75 27.44 109.09 26.09 107.49 24.49 109.09 22.88 107.75 21.53"/><polygon class="cls-6" points="93.41 21.53 91.81 23.14 90.2 21.53 88.85 22.89 90.46 24.49 88.85 26.09 90.2 27.44 91.81 25.84 93.41 27.44 94.76 26.09 93.16 24.49 94.76 22.88 93.41 21.53"/><polygon class="cls-6" points="79.08 21.53 77.48 23.14 75.87 21.53 74.52 22.89 76.13 24.49 74.52 26.09 75.87 27.44 77.48 25.84 79.08 27.44 80.43 26.09 78.83 24.49 80.43 22.88 79.08 21.53"/><polygon class="cls-6" points="64.75 21.53 63.15 23.14 61.54 21.53 60.19 22.89 61.8 24.49 60.19 26.09 61.54 27.44 63.15 25.84 64.75 27.44 66.1 26.09 64.5 24.49 66.1 22.88 64.75 21.53"/><polygon class="cls-6" points="102.01 8.39 100.41 10 98.8 8.39 97.45 9.75 99.06 11.35 97.45 12.96 98.8 14.31 100.41 12.7 102.01 14.31 103.36 12.96 101.76 11.35 103.36 9.75 102.01 8.39"/><polygon class="cls-6" points="87.68 8.39 86.08 10 84.47 8.39 83.12 9.75 84.73 11.35 83.12 12.96 84.47 14.31 86.08 12.7 87.68 14.31 89.03 12.96 87.43 11.35 89.03 9.75 87.68 8.39"/><polygon class="cls-6" points="96.28 60.94 94.67 62.55 93.07 60.94 91.72 62.3 93.32 63.9 91.72 65.5 93.07 66.85 94.67 65.25 96.28 66.85 97.63 65.5 96.03 63.9 97.63 62.29 96.28 60.94"/><polygon class="cls-6" points="81.95 60.94 80.34 62.55 78.74 60.94 77.39 62.3 78.99 63.9 77.39 65.5 78.74 66.85 80.34 65.25 81.95 66.85 83.3 65.5 81.69 63.9 83.3 62.29 81.95 60.94"/><polygon class="cls-6" points="64.75 21.53 63.15 23.14 61.54 21.53 60.19 22.89 61.8 24.49 60.19 26.09 61.54 27.44 63.15 25.84 64.75 27.44 66.1 26.09 64.5 24.49 66.1 22.88 64.75 21.53"/><polygon class="cls-6" points="61.88 113.49 60.28 115.09 58.67 113.49 57.33 114.84 58.93 116.44 57.33 118.05 58.67 119.4 60.28 117.8 61.88 119.4 63.23 118.05 61.63 116.44 63.23 114.84 61.88 113.49"/><polygon class="cls-6" points="47.55 113.49 45.95 115.09 44.34 113.49 42.99 114.84 44.6 116.44 42.99 118.05 44.34 119.4 45.95 117.8 47.55 119.4 48.9 118.05 47.3 116.44 48.9 114.84 47.55 113.49"/><polygon class="cls-6" points="33.22 113.49 31.62 115.09 30.01 113.49 28.66 114.84 30.27 116.44 28.66 118.05 30.01 119.4 31.62 117.8 33.22 119.4 34.57 118.05 32.97 116.44 34.57 114.84 33.22 113.49"/><polygon class="cls-6" points="18.89 113.49 17.29 115.09 15.68 113.49 14.33 114.84 15.94 116.44 14.33 118.05 15.68 119.4 17.29 117.8 18.89 119.4 20.24 118.05 18.64 116.44 20.24 114.84 18.89 113.49"/><polygon class="cls-6" points="4.56 113.49 2.96 115.09 1.35 113.49 0 114.84 1.6 116.44 0 118.05 1.35 119.4 2.96 117.8 4.56 119.4 5.91 118.05 4.31 116.44 5.91 114.84 4.56 113.49"/><polygon class="cls-6" points="56.15 100.35 54.55 101.96 52.94 100.35 51.59 101.71 53.2 103.31 51.59 104.91 52.94 106.27 54.55 104.66 56.15 106.27 57.5 104.91 55.9 103.31 57.5 101.7 56.15 100.35"/><polygon class="cls-6" points="41.82 100.35 40.22 101.96 38.61 100.35 37.26 101.71 38.87 103.31 37.26 104.91 38.61 106.27 40.22 104.66 41.82 106.27 43.17 104.91 41.57 103.31 43.17 101.7 41.82 100.35"/><polygon class="cls-6" points="27.49 100.35 25.89 101.96 24.28 100.35 22.93 101.71 24.54 103.31 22.93 104.91 24.28 106.27 25.89 104.66 27.49 106.27 28.84 104.91 27.24 103.31 28.84 101.7 27.49 100.35"/><polygon class="cls-6" points="13.16 100.35 11.55 101.96 9.95 100.35 8.6 101.71 10.2 103.31 8.6 104.91 9.95 106.27 11.55 104.66 13.16 106.27 14.51 104.91 12.91 103.31 14.51 101.7 13.16 100.35"/><polygon class="cls-6" points="64.75 87.22 63.15 88.82 61.54 87.22 60.19 88.57 61.8 90.17 60.19 91.78 61.54 93.13 63.15 91.52 64.75 93.13 66.1 91.78 64.5 90.17 66.1 88.57 64.75 87.22"/><polygon class="cls-6" points="50.42 87.22 48.81 88.82 47.21 87.22 45.86 88.57 47.47 90.17 45.86 91.78 47.21 93.13 48.81 91.52 50.42 93.13 51.77 91.78 50.17 90.17 51.77 88.57 50.42 87.22"/><polygon class="cls-6" points="36.09 87.22 34.48 88.82 32.88 87.22 31.53 88.57 33.13 90.17 31.53 91.78 32.88 93.13 34.48 91.52 36.09 93.13 37.44 91.78 35.84 90.17 37.44 88.57 36.09 87.22"/><polygon class="cls-6" points="21.76 87.22 20.15 88.82 18.55 87.22 17.2 88.57 18.8 90.17 17.2 91.78 18.55 93.13 20.15 91.52 21.76 93.13 23.11 91.78 21.5 90.17 23.11 88.57 21.76 87.22"/><polygon class="cls-6" points="7.43 87.22 5.82 88.82 4.22 87.22 2.87 88.57 4.47 90.17 2.87 91.78 4.22 93.13 5.82 91.52 7.43 93.13 8.78 91.78 7.17 90.17 8.78 88.57 7.43 87.22"/><polygon class="cls-6" points="59.02 74.08 57.41 75.68 55.81 74.08 54.46 75.43 56.06 77.03 54.46 78.64 55.81 79.99 57.41 78.39 59.02 79.99 60.37 78.64 58.77 77.03 60.37 75.43 59.02 74.08"/><polygon class="cls-6" points="44.69 74.08 43.08 75.68 41.48 74.08 40.13 75.43 41.73 77.03 40.13 78.64 41.48 79.99 43.08 78.39 44.69 79.99 46.04 78.64 44.43 77.03 46.04 75.43 44.69 74.08"/><polygon class="cls-6" points="30.36 74.08 28.75 75.68 27.15 74.08 25.8 75.43 27.4 77.03 25.8 78.64 27.15 79.99 28.75 78.39 30.36 79.99 31.71 78.64 30.1 77.03 31.71 75.43 30.36 74.08"/><polygon class="cls-6" points="16.02 74.08 14.42 75.68 12.81 74.08 11.46 75.43 13.07 77.03 11.46 78.64 12.81 79.99 14.42 78.39 16.02 79.99 17.38 78.64 15.77 77.03 17.38 75.43 16.02 74.08"/><polygon class="cls-6" points="67.62 60.94 66.01 62.55 64.41 60.94 63.06 62.3 64.66 63.9 63.06 65.5 64.41 66.85 66.01 65.25 67.62 66.85 68.97 65.5 67.36 63.9 68.97 62.29 67.62 60.94"/><polygon class="cls-6" points="53.29 60.94 51.68 62.55 50.08 60.94 48.73 62.3 50.33 63.9 48.73 65.5 50.08 66.85 51.68 65.25 53.29 66.85 54.64 65.5 53.03 63.9 54.64 62.29 53.29 60.94"/><polygon class="cls-6" points="38.95 60.94 37.35 62.55 35.74 60.94 34.4 62.3 36 63.9 34.4 65.5 35.74 66.85 37.35 65.25 38.95 66.85 40.3 65.5 38.7 63.9 40.3 62.29 38.95 60.94"/><polygon class="cls-6" points="24.62 60.94 23.02 62.55 21.41 60.94 20.06 62.3 21.67 63.9 20.06 65.5 21.41 66.85 23.02 65.25 24.62 66.85 25.97 65.5 24.37 63.9 25.97 62.29 24.62 60.94"/><polygon class="cls-6" points="10.29 60.94 8.69 62.55 7.08 60.94 5.73 62.3 7.34 63.9 5.73 65.5 7.08 66.85 8.69 65.25 10.29 66.85 11.64 65.5 10.04 63.9 11.64 62.29 10.29 60.94"/></g><path class="cls-3" d="M57.51,12.54a4,4,0,0,1,.82,4.37,6.56,6.56,0,0,0-.14-.87,6.3,6.3,0,0,0-4.54-4.49A4,4,0,0,1,57.51,12.54Z" transform="translate(57.11)"/><path class="cls-3" d="M59.24,19.87h0l5-5a4.05,4.05,0,0,1,5.59,0,3.95,3.95,0,0,1,0,5.59l-5,5-2,1.95a6.33,6.33,0,0,0-6.74-4l.8-1.4a1.37,1.37,0,0,0,.3-.19l2-1.94Z" transform="translate(57.11)"/></g></g></svg>