<svg xmlns="http://www.w3.org/2000/svg" viewBox="0 0 73 79.74"><defs><style>.cls-1{fill:#fff;}.cls-2{fill:#b4e6a5;}.cls-3{fill:#032530;}</style></defs><g id="Layer_2" data-name="Layer 2"><g id="Layer_1-2" data-name="Layer 1"><rect class="cls-1" x="4" y="4" width="65" height="71.74" rx="2.3"/><path class="cls-2" d="M56.21,5a2,2,0,0,0,0,2.79,2,2,0,0,0,2.81,0A2,2,0,0,0,59,5,2,2,0,0,0,56.21,5ZM39.32,5a2,2,0,0,0,0,2.79,2,2,0,0,0,2.81,0,2,2,0,0,0,0-2.79A2,2,0,0,0,39.32,5ZM22.43,5a2,2,0,0,0,0,2.79,2,2,0,0,0,2.81,0,2,2,0,0,0,0-2.79A2,2,0,0,0,22.43,5ZM5.54,5a2,2,0,0,0,0,2.79,2,2,0,0,0,2.81,0A2,2,0,0,0,8.35,5,2,2,0,0,0,5.54,5Zm59.11,8.38a2,2,0,0,0,0,2.8,2,2,0,0,0,2.82,0,2,2,0,0,0,0-2.8A2,2,0,0,0,64.65,13.33Zm-16.89,0a2,2,0,0,0,0,2.8,2,2,0,0,0,2.82,0,2,2,0,0,0,0-2.8A2,2,0,0,0,47.76,13.33Zm8.45,8.38a2,2,0,0,0,0,2.8,2,2,0,0,0,2.81,0,2,2,0,0,0,0-2.8A2,2,0,0,0,56.21,21.71ZM30.87,13.33a2,2,0,0,0,0,2.8,2,2,0,0,0,2.82,0,2,2,0,0,0,0-2.8A2,2,0,0,0,30.87,13.33Zm8.45,8.38a2,2,0,0,0,0,2.8,2,2,0,0,0,2.81,0,2,2,0,0,0,0-2.8A2,2,0,0,0,39.32,21.71ZM14,13.33a2,2,0,0,0,0,2.8,2,2,0,0,0,2.82,0,2,2,0,0,0,0-2.8A2,2,0,0,0,14,13.33Zm8.45,8.38a2,2,0,0,0,0,2.8,2,2,0,0,0,2.81,0,2,2,0,0,0,0-2.8A2,2,0,0,0,22.43,21.71Zm-16.89,0a2,2,0,0,0,0,2.8,2,2,0,0,0,2.81,0,2,2,0,0,0,0-2.8A2,2,0,0,0,5.54,21.71Zm59.11,8.38a2,2,0,0,0,0,2.8,2,2,0,0,0,2.82,0,2,2,0,0,0,0-2.8A2,2,0,0,0,64.65,30.09Zm-16.89,0a2,2,0,0,0,0,2.8,2,2,0,0,0,2.82,0,2,2,0,0,0,0-2.8A2,2,0,0,0,47.76,30.09Zm8.45,8.38a2,2,0,0,0,0,2.8,2,2,0,0,0,2.81,0,2,2,0,0,0,0-2.8A2,2,0,0,0,56.21,38.47ZM30.87,30.09a2,2,0,0,0,0,2.8,2,2,0,0,0,2.82,0,2,2,0,0,0,0-2.8A2,2,0,0,0,30.87,30.09Zm8.45,8.38a2,2,0,0,0,0,2.8,2,2,0,0,0,2.81,0,2,2,0,0,0,0-2.8A2,2,0,0,0,39.32,38.47ZM14,30.09a2,2,0,0,0,0,2.8,2,2,0,0,0,2.82,0,2,2,0,0,0,0-2.8A2,2,0,0,0,14,30.09Zm8.45,8.38a2,2,0,0,0,0,2.8,2,2,0,0,0,2.81,0,2,2,0,0,0,0-2.8A2,2,0,0,0,22.43,38.47Zm-16.89,0a2,2,0,0,0,0,2.8,2,2,0,0,0,2.81,0,2,2,0,0,0,0-2.8A2,2,0,0,0,5.54,38.47Zm59.11,8.38a2,2,0,0,0,0,2.8,2,2,0,0,0,2.82,0,2,2,0,0,0,0-2.8A2,2,0,0,0,64.65,46.85Zm-16.89,0a2,2,0,0,0,0,2.8,2,2,0,0,0,2.82,0,2,2,0,0,0,0-2.8A2,2,0,0,0,47.76,46.85Zm8.45,8.39a2,2,0,0,0,0,2.79A2,2,0,0,0,59,58a2,2,0,0,0,0-2.79A2,2,0,0,0,56.21,55.24ZM30.87,46.85a2,2,0,0,0,0,2.8,2,2,0,0,0,2.82,0,2,2,0,0,0,0-2.8A2,2,0,0,0,30.87,46.85Zm8.45,8.39a2,2,0,0,0,0,2.79,2,2,0,0,0,2.81,0,2,2,0,0,0,0-2.79A2,2,0,0,0,39.32,55.24ZM14,46.85a2,2,0,0,0,0,2.8,2,2,0,0,0,2.82,0,2,2,0,0,0,0-2.8A2,2,0,0,0,14,46.85Zm8.45,8.39a2,2,0,0,0,0,2.79,2,2,0,0,0,2.81,0,2,2,0,0,0,0-2.79A2,2,0,0,0,22.43,55.24Zm-16.89,0a2,2,0,0,0,0,2.79,2,2,0,0,0,2.81,0,2,2,0,0,0,0-2.79A2,2,0,0,0,5.54,55.24Zm59.11,8.38a2,2,0,0,0,0,2.79,2,2,0,0,0,2.82,0,2,2,0,0,0,0-2.79A2,2,0,0,0,64.65,63.62Zm-16.89,0a2,2,0,0,0,0,2.79,2,2,0,0,0,2.82,0,2,2,0,0,0,0-2.79A2,2,0,0,0,47.76,63.62ZM56.21,72a2,2,0,0,0,0,2.79,2,2,0,0,0,2.81,0A2,2,0,0,0,59,72,2,2,0,0,0,56.21,72ZM30.87,63.62a2,2,0,0,0,0,2.79,2,2,0,0,0,2.82,0,2,2,0,0,0,0-2.79A2,2,0,0,0,30.87,63.62ZM39.32,72a2,2,0,0,0,0,2.79,2,2,0,0,0,2.81,0,2,2,0,0,0,0-2.79A2,2,0,0,0,39.32,72ZM14,63.62a2,2,0,0,0,0,2.79,2,2,0,0,0,2.82,0,2,2,0,0,0,0-2.79A2,2,0,0,0,14,63.62ZM22.43,72a2,2,0,0,0,0,2.79,2,2,0,0,0,2.81,0,2,2,0,0,0,0-2.79A2,2,0,0,0,22.43,72ZM5.54,72a2,2,0,0,0,0,2.79,2,2,0,0,0,2.81,0,2,2,0,0,0,0-2.79A2,2,0,0,0,5.54,72Z"/><path class="cls-3" d="M66.71,79.74H6.3A6.31,6.31,0,0,1,0,73.44V6.3A6.31,6.31,0,0,1,6.3,0H66.71A6.3,6.3,0,0,1,73,6.3V73.44A6.3,6.3,0,0,1,66.71,79.74ZM6.3,4A2.3,2.3,0,0,0,4,6.3V73.44a2.3,2.3,0,0,0,2.3,2.3H66.71A2.3,2.3,0,0,0,69,73.44V6.3A2.3,2.3,0,0,0,66.71,4ZM19.58,39.41H10.37A4.42,4.42,0,0,1,6,35V30.48a4.42,4.42,0,0,1,4.42-4.42h9.21A4.42,4.42,0,0,1,24,30.48V35A4.42,4.42,0,0,1,19.58,39.41Zm-9.21-9.35a.42.42,0,0,0-.42.42V35a.42.42,0,0,0,.42.42h9.21A.42.42,0,0,0,20,35V30.48a.42.42,0,0,0-.41-.42Zm30.74,9.35H31.9A4.42,4.42,0,0,1,27.48,35V30.48a4.42,4.42,0,0,1,4.42-4.42h9.21a4.43,4.43,0,0,1,4.42,4.42V35A4.43,4.43,0,0,1,41.11,39.41ZM31.9,30.06a.42.42,0,0,0-.42.42V35a.42.42,0,0,0,.42.42h9.21a.43.43,0,0,0,.42-.42V30.48a.43.43,0,0,0-.42-.42Zm30.74,9.35H53.43A4.42,4.42,0,0,1,49,35V30.48a4.42,4.42,0,0,1,4.42-4.42h9.21a4.43,4.43,0,0,1,4.42,4.42V35A4.43,4.43,0,0,1,62.64,39.41Zm-9.21-9.35a.42.42,0,0,0-.42.42V35a.42.42,0,0,0,.42.42h9.21a.43.43,0,0,0,.42-.42V30.48a.43.43,0,0,0-.42-.42ZM19.58,54.38H10.37A4.42,4.42,0,0,1,6,50V45.45A4.43,4.43,0,0,1,10.37,41h9.21A4.43,4.43,0,0,1,24,45.45V50A4.42,4.42,0,0,1,19.58,54.38ZM10.37,45a.43.43,0,0,0-.42.42V50a.42.42,0,0,0,.42.41h9.21A.42.42,0,0,0,20,50V45.45a.43.43,0,0,0-.41-.42Zm30.74,9.35H31.9A4.42,4.42,0,0,1,27.48,50V45.45A4.43,4.43,0,0,1,31.9,41h9.21a4.43,4.43,0,0,1,4.42,4.42V50A4.43,4.43,0,0,1,41.11,54.38ZM31.9,45a.43.43,0,0,0-.42.42V50a.42.42,0,0,0,.42.41h9.21a.43.43,0,0,0,.42-.41V45.45a.44.44,0,0,0-.42-.42Zm30.74,9.35H53.43A4.42,4.42,0,0,1,49,50V45.45A4.43,4.43,0,0,1,53.43,41h9.21a4.43,4.43,0,0,1,4.42,4.42V50A4.43,4.43,0,0,1,62.64,54.38ZM53.43,45a.43.43,0,0,0-.42.42V50a.42.42,0,0,0,.42.41h9.21a.43.43,0,0,0,.42-.41V45.45a.44.44,0,0,0-.42-.42ZM19.58,69.36H10.37A4.42,4.42,0,0,1,6,64.94V60.43A4.42,4.42,0,0,1,10.37,56h9.21A4.42,4.42,0,0,1,24,60.43v4.51A4.42,4.42,0,0,1,19.58,69.36ZM10.37,60a.42.42,0,0,0-.42.42v4.51a.42.42,0,0,0,.42.42h9.21a.42.42,0,0,0,.41-.42V60.43a.42.42,0,0,0-.41-.42Zm30.74,9.35H31.9a4.42,4.42,0,0,1-4.42-4.42V60.43A4.42,4.42,0,0,1,31.9,56h9.21a4.43,4.43,0,0,1,4.42,4.42v4.51A4.43,4.43,0,0,1,41.11,69.36ZM31.9,60a.42.42,0,0,0-.42.42v4.51a.42.42,0,0,0,.42.42h9.21a.43.43,0,0,0,.42-.42V60.43a.43.43,0,0,0-.42-.42Zm30.74,9.35H53.43A4.42,4.42,0,0,1,49,64.94V60.43A4.42,4.42,0,0,1,53.43,56h9.21a4.43,4.43,0,0,1,4.42,4.42v4.51A4.43,4.43,0,0,1,62.64,69.36ZM53.43,60a.42.42,0,0,0-.42.42v4.51a.42.42,0,0,0,.42.42h9.21a.43.43,0,0,0,.42-.42V60.43a.43.43,0,0,0-.42-.42Zm9.21-37.32H10.37A4.43,4.43,0,0,1,6,18.27V13.75a4.42,4.42,0,0,1,4.42-4.41H62.64a4.43,4.43,0,0,1,4.42,4.41v4.52A4.43,4.43,0,0,1,62.64,22.69ZM10.37,13.34a.42.42,0,0,0-.42.41v4.52a.42.42,0,0,0,.42.42H62.64a.42.42,0,0,0,.42-.42V13.75a.42.42,0,0,0-.42-.41Z"/><path class="cls-2" d="M19.58,30.06a.42.42,0,0,1,.41.42V35a.42.42,0,0,1-.41.42H10.37A.42.42,0,0,1,10,35V30.48a.42.42,0,0,1,.42-.42Zm12.32,0a.42.42,0,0,0-.42.42V35a.42.42,0,0,0,.42.42h9.21a.43.43,0,0,0,.42-.42V30.48a.43.43,0,0,0-.42-.42Zm21.53,0a.42.42,0,0,0-.42.42V35a.42.42,0,0,0,.42.42h9.21a.43.43,0,0,0,.42-.42V30.48a.43.43,0,0,0-.42-.42ZM10.37,45a.43.43,0,0,0-.42.42V50a.42.42,0,0,0,.42.41h9.21A.42.42,0,0,0,20,50V45.45a.43.43,0,0,0-.41-.42ZM31.9,45a.43.43,0,0,0-.42.42V50a.42.42,0,0,0,.42.41h9.21a.43.43,0,0,0,.42-.41V45.45a.44.44,0,0,0-.42-.42Zm21.53,0a.43.43,0,0,0-.42.42V50a.42.42,0,0,0,.42.41h9.21a.43.43,0,0,0,.42-.41V45.45a.44.44,0,0,0-.42-.42ZM10.37,60a.42.42,0,0,0-.42.42v4.51a.42.42,0,0,0,.42.42h9.21a.42.42,0,0,0,.41-.42V60.43a.42.42,0,0,0-.41-.42ZM31.9,60a.42.42,0,0,0-.42.42v4.51a.42.42,0,0,0,.42.42h9.21a.43.43,0,0,0,.42-.42V60.43a.43.43,0,0,0-.42-.42Zm21.53,0a.42.42,0,0,0-.42.42v4.51a.42.42,0,0,0,.42.42h9.21a.43.43,0,0,0,.42-.42V60.43a.43.43,0,0,0-.42-.42ZM10.21,13.34a.42.42,0,0,0-.42.41v4.52a.42.42,0,0,0,.42.42H62.48a.42.42,0,0,0,.42-.42V13.75a.42.42,0,0,0-.42-.41Z"/></g></g></svg>