<svg xmlns="http://www.w3.org/2000/svg" viewBox="0 0 220.11 166.43"><defs><style>.cls-1{fill:#f59c00;}</style></defs><g id="Layer_2" data-name="Layer 2"><g id="Layer_1-2" data-name="Layer 1"><path class="cls-1" d="M54.18,131.88,3.1,131.81A2.85,2.85,0,0,1,0,128.7l0-10.84a2.85,2.85,0,0,1,3.11-3.1H6.9v-8.91H4.18a2.86,2.86,0,0,1-3.1-3.11V93.37A2.86,2.86,0,0,1,4.2,90.26H6.93l0-10c0-16.39,12.45-23.83,24-23.82s24,7.5,23.93,23.89v2.6A2.86,2.86,0,0,1,51.74,86L40.28,86a2.86,2.86,0,0,1-3.11-3.11V80.28c0-4.06-2.4-6.59-6.27-6.59s-6.28,2.51-6.28,6.58l0,10,15,0a2.86,2.86,0,0,1,3.11,3.11l0,9.39a2.85,2.85,0,0,1-3.11,3.1l-15,0v8.9l29.62,0a2.85,2.85,0,0,1,3.1,3.11v10.84A2.85,2.85,0,0,1,54.18,131.88ZM3.12,115.76a1.86,1.86,0,0,0-2.1,2.1L1,128.7a1.87,1.87,0,0,0,2.1,2.11l51.08.07a1.86,1.86,0,0,0,2.11-2.1V117.94a1.86,1.86,0,0,0-2.1-2.11l-30.62,0V104.88l16,0a1.87,1.87,0,0,0,2.11-2.11l0-9.38a1.88,1.88,0,0,0-2.11-2.11l-16,0,0-11c0-4.61,2.86-7.58,7.28-7.57s7.27,3,7.27,7.59v2.61A1.87,1.87,0,0,0,40.28,85l11.46,0a1.87,1.87,0,0,0,2.11-2.11v-2.6c0-15.7-11.87-22.87-22.93-22.89S8,64.54,8,80.24l0,11H4.2a1.87,1.87,0,0,0-2.11,2.11v9.38a1.86,1.86,0,0,0,2.1,2.11H7.91v10.91Z"/><path class="cls-1" d="M38.06,62.5l1.34-1.34-1.34-1.34,1-1,.29.1L40.54,60l.5-.5c.52.23,1,.48,1.52.74l-.89.89L43,62.51l-1.13,1.13-1.35-1.35-1.34,1.34ZM27.19,63.62l1.34-1.34,1.35,1.34L31,62.49l-1.34-1.34L31,59.8l-1.13-1.13L28.54,60,27.2,58.67,26.06,59.8l1.34,1.34-1.34,1.34ZM55.9,124.71l-1.13,1.13,1.34,1.34-1.34,1.34,1.13,1.14.35-.35a4.39,4.39,0,0,0,0-.53V125.1Zm-9.31,0L45.24,126l-1.34-1.35-1.13,1.13,1.34,1.35-1.34,1.34,1.13,1.13,1.34-1.34,1.34,1.34,1.14-1.13-1.34-1.34,1.34-1.34Zm-12,0L33.24,126l-1.34-1.35-1.13,1.13,1.34,1.35-1.34,1.34,1.13,1.13,1.34-1.34,1.34,1.35,1.14-1.13-1.34-1.35,1.34-1.34ZM16.53,62.26l1.35,1.34L19,62.47,17.7,61.16a22.15,22.15,0,0,0-2.8,2.15l.29.29ZM5.59,116.11l.35-.35H3l.34.34L2,117.45l1.13,1.13,1.35-1.34,1.34,1.35,1.13-1.13Zm7.22-11,1.34-1.34L13,102.65,11.68,104l-1.35-1.35L9.2,103.77l1.34,1.35L9.2,106.46l1.13,1.13,1.34-1.34L13,107.6l1.14-1.13ZM5.54,96.59l1.35-1.34,1.34,1.34,1.13-1.13L8,94.11l1.35-1.34L8.24,91.64,6.89,93,5.55,91.64,4.42,92.77l1.34,1.34L4.41,95.45ZM13,83.12l-1.34,1.34,1.13,1.14,1.34-1.34,1.35,1.34,1.13-1.13-1.34-1.35,1.34-1.34-1.13-1.13L14.11,82l-1.35-1.34-1.13,1.13Zm-2.31-8.53,1.13-1.13-1.34-1.34,1.35-1.34-1.13-1.14-.86.86a23,23,0,0,0-1.12,3.37l.63-.62Zm11.93,50.07L21.24,126l-1.34-1.34-1.13,1.13,1.34,1.34-1.34,1.34,1.13,1.14,1.34-1.34,1.34,1.34,1.14-1.13-1.34-1.35,1.34-1.34Zm-12,0L9.24,126,7.9,124.64l-1.13,1.13,1.34,1.35-1.34,1.34,1.13,1.13,1.34-1.34,1.34,1.34,1.14-1.13-1.34-1.34,1.34-1.34Zm43-8.46.35-.35H51l.35.35L50,117.52l1.13,1.13,1.35-1.34,1.34,1.34,1.13-1.13Zm-12,0,.35-.35H39l.35.35L38,117.5l1.13,1.13,1.35-1.34,1.34,1.35,1.13-1.13Zm-12,0,.35-.35H27l.35.35L26,117.48l1.13,1.14,1.35-1.34,1.34,1.34,1.13-1.13Zm-12,0,1.35-1.34-1.13-1.14L16.46,115l-1.34-1.35L14,114.78l1.34,1.35L14,117.47l1.13,1.13,1.35-1.34,1.34,1.34,1.13-1.13ZM37,102.68,35.68,104l-1.35-1.34-1.13,1.13,1.09,1.09h2.77l1.09-1.09Zm-12,0L23.68,104l-1.35-1.35-1.13,1.13,1.34,1.35-1.34,1.34,1.13,1.13,1.26-1.26v-1.47h1.47l1.09-1.09Zm16.52-6,.2-.2V94.18L40.41,95.5Zm.21-3.22a2.2,2.2,0,0,0-.46-1.48l-.87.88,1.32,1.33Zm-9.51-1.75L30.89,93l-1.34-1.35L28.42,92.8l1.34,1.35-1.35,1.34,1.13,1.13,1.35-1.34,1.34,1.34,1.13-1.13L32,94.15l1.35-1.34Zm-12,0L18.89,93l-1.34-1.35-1.13,1.13,1.34,1.35-1.35,1.34,1.13,1.13,1.35-1.34,1.34,1.35,1.13-1.13L20,94.13l1.35-1.34ZM50.81,85h.93c.13,0,.25,0,.37,0l.47-.47-1.34-1.34,1.34-1.35L51.45,80.7,50.11,82,48.76,80.7l-1.13,1.13L49,83.17l-1.34,1.34.49.5h1.27l.71-.7ZM39.45,80.68,38.18,82v.93A1.84,1.84,0,0,0,40.09,85l.49-.49-1.34-1.34,1.34-1.34Zm4.74-8.51-1.35,1.34L44,74.64l1.35-1.34,1.34,1.34,1.13-1.13-1.34-1.34,1.35-1.34-1.13-1.14L45.32,71,44,69.69l-1.13,1.13Zm-12,0-.57.57A7.2,7.2,0,0,1,35.3,74l.49-.49-1.34-1.35,1.35-1.34-1.13-1.13L33.32,71,32,69.67,30.85,70.8Zm-12,0-1.35,1.34L20,74.61l1.35-1.34,1.34,1.34,1.13-1.13-1.34-1.34,1.35-1.35-1.13-1.13L21.32,71,20,69.66l-1.13,1.13Z"/><path class="cls-1" d="M120.12,142.71H44.32A4,4,0,0,1,40,138.34V122.26a4,4,0,0,1,4.37-4.37h5.84v-13.7H45.87a4,4,0,0,1-4.37-4.37V85.9a4,4,0,0,1,4.37-4.37h4.29V66.41c0-24.15,18.31-35.15,35.31-35.15s35.31,11,35.31,35.15v3.87a4,4,0,0,1-4.37,4.37h-17A4,4,0,0,1,95,70.28V66.41c0-6.09-3.76-10-9.56-10s-9.56,3.93-9.56,10V81.53H98.46a4,4,0,0,1,4.37,4.37V99.82a4,4,0,0,1-4.37,4.37H75.91v13.7h44.21a4,4,0,0,1,4.37,4.37v16.08A4,4,0,0,1,120.12,142.71Zm-75.8-23.82A3,3,0,0,0,41,122.26v16.08a3,3,0,0,0,3.37,3.37h75.8a3,3,0,0,0,3.37-3.37V122.26a3,3,0,0,0-3.37-3.37H74.91v-15.7H98.46a3,3,0,0,0,3.37-3.37V85.9a3,3,0,0,0-3.37-3.37H74.91V66.41c0-6.69,4.15-11,10.56-11S96,59.72,96,66.41v3.87a3,3,0,0,0,3.36,3.37h17a3,3,0,0,0,3.37-3.37V66.41C119.78,43,102,32.26,85.47,32.26S51.16,43,51.16,66.41V82.53H45.87A3,3,0,0,0,42.5,85.9V99.82a3,3,0,0,0,3.37,3.37h5.29v15.7Z"/><path class="cls-1" d="M41.05,139.29l2.44,2.35A2.73,2.73,0,0,1,41.05,139.29ZM41,128.63l14,13.08h2.93L41,125.89Zm73,13.08L89.72,118.89H86.8l24.27,22.82ZM48.14,82.53l26.77,25.18V105L51.06,82.53Zm-5.64,8.9,54.63,50.28h3l-24.8-22.82h-.38v-.35L42.5,88.71Zm80.8,48.27-21.55-20.81H98.87l23.18,22.38A2.58,2.58,0,0,0,123.3,139.7ZM51.16,72.82l31.46,30.37h2.87L51.16,70Zm72.33,52.58-6.74-6.51h-2.88l9.62,9.29ZM51.82,59l23.09,22.3V78.49L52.32,56.67C52.13,57.42,52,58.19,51.82,59Zm46.64,44.22a4.33,4.33,0,0,0,1.7-.32L79.1,82.53H76.22l21.4,20.66Zm3.37-11.61-9.37-9H89.59l12.24,11.83ZM55.14,49.27l19.77,19.1v-2c0-.27,0-.53,0-.79L56.17,47.49C55.81,48.07,55.47,48.66,55.14,49.27ZM79.5,57,62.3,40.39c-.51.43-1,.88-1.49,1.34L77.93,58.26A8.68,8.68,0,0,1,79.5,57ZM44.32,118.89h-.08l24.45,22.82h2.93L47.17,118.89Zm-.18-16-1.21-1.11A2.56,2.56,0,0,0,44.14,102.85Zm7,9.19,32.22,29.67h3L51.16,109.32Zm68.57-41L80,32.66c-.82.11-1.63.25-2.44.42l41.23,39.81A3,3,0,0,0,119.73,71Zm-24-7.59,11.08,10.22h2.94L69,36c-.64.32-1.26.65-1.87,1l20,18.47A9.65,9.65,0,0,1,95.71,63.43Zm23-6.38L94.05,33.23c-1.18-.26-2.36-.48-3.54-.63l28.85,27.86A33.17,33.17,0,0,0,118.71,57.05Z"/><path class="cls-1" d="M213.82,166.43H100.28c-4,0-6.29-2.29-6.29-6.29V136.05c0-4,2.29-6.3,6.29-6.3h9v-21H102.6c-4,0-6.29-2.29-6.29-6.29V81.6c0-4,2.29-6.3,6.29-6.3h6.68V52.4c0-36,27.29-52.4,52.64-52.4s52.63,16.4,52.63,52.4v5.79c0,4-2.29,6.3-6.29,6.3H182.77c-4,0-6.29-2.3-6.29-6.3V52.4c0-9.27-5.72-15.26-14.56-15.26s-14.56,6-14.56,15.26V75.3h34c4,0,6.29,2.3,6.29,6.3v20.85c0,4-2.29,6.29-6.29,6.29h-34v21h66.46c4,0,6.29,2.3,6.29,6.3v24.09C220.11,164.14,217.82,166.43,213.82,166.43ZM100.28,130.75c-3.41,0-5.29,1.88-5.29,5.3v24.09c0,3.41,1.88,5.29,5.29,5.29H213.82c3.41,0,5.29-1.88,5.29-5.29V136.05c0-3.42-1.88-5.3-5.29-5.3H146.36v-23h35c3.41,0,5.29-1.88,5.29-5.29V81.6c0-3.42-1.88-5.3-5.29-5.3h-35V52.4c0-9.87,6.1-16.26,15.56-16.26s15.56,6.39,15.56,16.26v5.79c0,3.42,1.88,5.3,5.29,5.3h25.49c3.41,0,5.29-1.88,5.29-5.3V52.4c0-35.32-26.77-51.4-51.63-51.4s-51.64,16.08-51.64,51.4V76.3H102.6c-3.41,0-5.29,1.88-5.29,5.3v20.85c0,3.41,1.88,5.29,5.29,5.29h7.68v23Z"/><path class="cls-1" d="M132.89,33.33a2,2,0,1,1-2.83,0A2,2,0,0,1,132.89,33.33Zm-2.83,33.94a2,2,0,1,0,2.83,0A2,2,0,0,0,130.06,67.27Zm0,50.92a2,2,0,1,0,2.83,0A2,2,0,0,0,130.06,118.19Zm0-33.95a2,2,0,1,0,2.83,0A2,2,0,0,0,130.06,84.24Zm0,17a2,2,0,1,0,2.83,0A2,2,0,0,0,130.06,101.21Zm0-50.91a2,2,0,1,0,2.83,0A2,2,0,0,0,130.06,50.3Zm8.49,59.4a2,2,0,1,0,2.83,0A2,2,0,0,0,138.55,109.7Zm0,17a2,2,0,1,0,2.83,0A2,2,0,0,0,138.55,126.67Zm0,17a2,2,0,1,0,2.83,0A2,2,0,0,0,138.55,143.64Zm0,17a2,2,0,1,0,2.83,0A2,2,0,0,0,138.55,160.61ZM113.09,67.27a2,2,0,1,0,2.83,0A2,2,0,0,0,113.09,67.27Zm8.49-25.45a2,2,0,1,0,2.83,0A2,2,0,0,0,121.58,41.82Zm0,101.82a2,2,0,1,0,2.83,0A2,2,0,0,0,121.58,143.64Zm0-17a2,2,0,1,0,2.83,0A2,2,0,0,0,121.58,126.67Zm0-17a2,2,0,1,0,2.83,0A2,2,0,0,0,121.58,109.7Zm0,50.91a2,2,0,1,0,2.83,0A2,2,0,0,0,121.58,160.61ZM113.09,50.3a2,2,0,1,0,2.83,0A2,2,0,0,0,113.09,50.3Zm8.49,42.43a2,2,0,1,0,2.83,0A2,2,0,0,0,121.58,92.73Zm8.48,42.43a2,2,0,1,0,2.83,0A2,2,0,0,0,130.06,135.16ZM121.58,24.85a2,2,0,1,0,2.83,0A2,2,0,0,0,121.58,24.85Zm8.48,127.28a2,2,0,1,0,2.83,0A2,2,0,0,0,130.06,152.13Zm8.49-59.4a2,2,0,1,0,2.83,0A2,2,0,0,0,138.55,92.73Zm-17-33.94a2,2,0,1,0,2.83,0A2,2,0,0,0,121.58,58.79Zm0,17a2,2,0,1,0,2.83,0A2,2,0,0,0,121.58,75.76Zm8.48-59.4a2,2,0,1,0,2.83,0A2,2,0,0,0,130.06,16.36Zm59.4,127.28a2,2,0,1,0,2.83,0A2,2,0,0,0,189.46,143.64Zm0,17a2,2,0,1,0,2.83,0A2,2,0,0,0,189.46,160.61ZM181,152.13a2,2,0,1,0,2.82,0A2,2,0,0,0,181,152.13Zm0-17a2,2,0,1,0,2.82,0A2,2,0,0,0,181,135.16Zm17,17a2,2,0,1,0,2.82,0A2,2,0,0,0,198,152.13Zm8.48-8.49a2,2,0,1,0,2.83,0A2,2,0,0,0,206.43,143.64ZM198,135.16a2,2,0,1,0,2.82,0A2,2,0,0,0,198,135.16Zm17,0a2,2,0,1,0,2.82,0A2,2,0,0,0,214.92,135.16Zm0,17a2,2,0,1,0,2.82,0A2,2,0,0,0,214.92,152.13Zm-8.49,8.48a2,2,0,1,0,2.83,0A2,2,0,0,0,206.43,160.61Zm-33.94-17a2,2,0,1,0,2.83,0A2,2,0,0,0,172.49,143.64Zm-17,0a2,2,0,1,0,2.83,0A2,2,0,0,0,155.52,143.64Zm-17-135.76a2,2,0,1,0,2.83,0A2,2,0,0,0,138.55,7.88Zm0,17a2,2,0,1,0,2.83,0A2,2,0,0,0,138.55,24.85Zm33.94,135.76a2,2,0,1,0,2.83,0A2,2,0,0,0,172.49,160.61ZM138.55,41.82a2,2,0,1,0,2.83,0A2,2,0,0,0,138.55,41.82ZM147,152.13a2,2,0,1,0,2.83,0A2,2,0,0,0,147,152.13Zm-8.48-93.34a2,2,0,1,0,2.83,0A2,2,0,0,0,138.55,58.79ZM164,135.16a2,2,0,1,0,2.83,0A2,2,0,0,0,164,135.16Zm0,17a2,2,0,1,0,2.83,0A2,2,0,0,0,164,152.13Zm-8.48,8.48a2,2,0,1,0,2.83,0A2,2,0,0,0,155.52,160.61Zm-17-84.85a2,2,0,1,0,2.83,0A2,2,0,0,0,138.55,75.76Zm8.48,59.4a2,2,0,1,0,2.83,0A2,2,0,0,0,147,135.16ZM149.86,104a2,2,0,1,0-2.83,0A2,2,0,0,0,149.86,104Zm33.94,0a2,2,0,1,0-2.82,0A2,2,0,0,0,183.8,104Zm-8.48-8.48a2,2,0,1,0-2.83,0A2,2,0,0,0,175.32,95.56ZM99,87.07a2,2,0,0,0-1.64-3.39v4A2,2,0,0,0,99,87.07ZM200.77,36.16a2,2,0,1,0-2.82,0A2,2,0,0,0,200.77,36.16Zm-17,50.91a2,2,0,1,0-2.82,0A2,2,0,0,0,183.8,87.07ZM99,101.21a2,2,0,0,0-1.64-.56v1.8a7.23,7.23,0,0,0,.32,2.17A2,2,0,0,0,99,104,2,2,0,0,0,99,101.21ZM209.26,44.65a2,2,0,1,0-2.83,0A2,2,0,0,0,209.26,44.65ZM166.83,104a2,2,0,1,0-2.83,0A2,2,0,0,0,166.83,104Zm42.43-42.42a2,2,0,1,0-2.83,0A2,2,0,0,0,209.26,61.62Zm-59.4,25.45a2,2,0,1,0-2.83,0A2,2,0,0,0,149.86,87.07Zm8.49,8.49a2,2,0,1,0-2.83,0A2,2,0,0,0,158.35,95.56Zm8.48-8.49a2,2,0,1,0-2.83,0A2,2,0,0,0,166.83,87.07Zm0-53.74A2,2,0,0,0,164,36.16l.16.13a17.06,17.06,0,0,1,1.94.33,1.77,1.77,0,0,0,.73-.46A2,2,0,0,0,166.83,33.33Zm8.49,8.49a2,2,0,0,0-1.5-.58,14.47,14.47,0,0,1,1.87,2.87A2,2,0,0,0,175.32,41.82Zm31.11-14.14a2,2,0,0,0,1.93.5c-.57-1.17-1.17-2.32-1.82-3.42a.48.48,0,0,0-.11.09A2,2,0,0,0,206.43,27.68ZM104.61,78.59a2,2,0,0,0,3.2-2.29h-3.58A2,2,0,0,0,104.61,78.59Zm67.88,0a2,2,0,0,0,3.21-2.29h-3.59A2,2,0,0,0,172.49,78.59Zm-17,0a2,2,0,0,0,3.21-2.29h-3.59A2,2,0,0,0,155.52,78.59Zm-39.6-42.43a2,2,0,0,0-2.48-3.1c-.28.79-.55,1.6-.79,2.42a1.85,1.85,0,0,0,.44.68A2,2,0,0,0,115.92,36.16ZM149.77,2.29l-1.87.43A2,2,0,0,0,149.77,2.29Zm39.69,8.42a2,2,0,0,0,2.83,0,2,2,0,0,0,.39-.58c-1.09-.74-2.21-1.44-3.35-2.09A2,2,0,0,0,189.46,10.71ZM166.83,2.22a1.89,1.89,0,0,0,.53-1c-1.31-.13-2.62-.2-3.92-.24A2,2,0,0,0,164,2.22,2,2,0,0,0,166.83,2.22ZM198,16.36a2,2,0,1,0,3.4,1.33c-.58-.65-1.18-1.28-1.79-1.89A2,2,0,0,0,198,16.36Zm-39.6-5.65a2,2,0,1,0-2.83,0A2,2,0,0,0,158.35,10.71ZM96.12,135.16a2,2,0,1,0,2.83,0A2,2,0,0,0,96.12,135.16Zm0,17a2,2,0,1,0,2.83,0A2,2,0,0,0,96.12,152.13Zm8.49,8.48a2,2,0,1,0,2.83,0A2,2,0,0,0,104.61,160.61Zm0-67.88a2,2,0,1,0,2.83,0A2,2,0,0,0,104.61,92.73Zm45.25-56.57a2,2,0,1,0-2.83,0A2,2,0,0,0,149.86,36.16Zm-36.77,116a2,2,0,1,0,2.83,0A2,2,0,0,0,113.09,152.13Zm87.68-99a2,2,0,1,0-2.82,0A2,2,0,0,0,200.77,53.13Zm-87.68,48.08a2,2,0,1,0,2.83,0A2,2,0,0,0,113.09,101.21Zm0,34a2,2,0,1,0,2.83,0A2,2,0,0,0,113.09,135.16Zm-8.48,8.48a2,2,0,1,0,2.83,0A2,2,0,0,0,104.61,143.64ZM149.86,19.19a2,2,0,1,0-2.83,0A2,2,0,0,0,149.86,19.19Zm-36.77,99a2,2,0,1,0,2.83,0A2,2,0,0,0,113.09,118.19Zm70.71-99a2,2,0,1,0-2.82,0A2,2,0,0,0,183.8,19.19Zm8.49,42.43a2,2,0,1,0-2.83,0A2,2,0,0,0,192.29,61.62Zm0-17a2,2,0,1,0-2.83,0A2,2,0,0,0,192.29,44.65Zm-33.94-17a2,2,0,1,0-2.83,0A2,2,0,0,0,158.35,27.68Zm33.94,0a2,2,0,1,0-2.83,0A2,2,0,0,0,192.29,27.68Zm-8.49,8.48a2,2,0,1,0-2.82,0A2,2,0,0,0,183.8,36.16ZM113.09,84.24a2,2,0,1,0,2.83,0A2,2,0,0,0,113.09,84.24Zm53.74-65a2,2,0,1,0-2.83,0A2,2,0,0,0,166.83,19.19Zm8.49-8.48a2,2,0,1,0-2.83,0A2,2,0,0,0,175.32,10.71Zm8.48,42.42a2,2,0,1,0-2.82,0A2,2,0,0,0,183.8,53.13Zm-8.48-25.45a2,2,0,1,0-2.83,0A2,2,0,0,0,175.32,27.68Z"/></g></g></svg>