<svg xmlns="http://www.w3.org/2000/svg" viewBox="0 0 75.86 99.45"><defs><style>.cls-1{fill:#fff;}.cls-2{fill:none;}.cls-3{fill:#b4e6a5;}.cls-4{fill:#032530;}</style></defs><g id="Layer_2" data-name="Layer 2"><g id="Layer_1-2" data-name="Layer 1"><path class="cls-1" d="M71.78,87.84c0,2.58-12,7.59-33.88,7.59S4,90.43,4,87.86c0-.19,0-12.72,0-12.72.49-13.41,7.3-25.5,17.87-31.9a25.29,25.29,0,0,0,32,0c10.56,6.39,17.37,18.48,17.86,31.81Z"/><path class="cls-2" d="M70.41,86.08a2,2,0,0,1,0-2.79,2,2,0,0,1,1.39-.58l0-7.66a41.18,41.18,0,0,0-.53-5.23,2.09,2.09,0,0,1-.89-.5,2,2,0,0,1,0-2.79l.17-.14A37.68,37.68,0,0,0,54,43.24a25.29,25.29,0,0,1-32,0,37.68,37.68,0,0,0-16.58,23,1.92,1.92,0,0,1,.32.26,2,2,0,0,1,0,2.79,2.07,2.07,0,0,1-1.08.55,41.81,41.81,0,0,0-.53,5.27s0,4.06,0,7.59a2,2,0,0,1,1.63.56,2,2,0,0,1,0,2.79A2,2,0,0,1,4,86.64v1.22c0,1.14,2.39,2.77,7,4.23a1.75,1.75,0,0,1,.31-.42,2,2,0,0,1,2.81,0,1.93,1.93,0,0,1,.58,1.43A103,103,0,0,0,37.9,95.43,101.88,101.88,0,0,0,61.39,93,2,2,0,0,1,62,91.67a2,2,0,0,1,2.81,0,1.44,1.44,0,0,1,.27.34c4.43-1.44,6.73-3,6.73-4.17V86.66A2,2,0,0,1,70.41,86.08ZM14.11,77.7a2,2,0,0,1-2.81,0,2,2,0,0,1,0-2.79,2,2,0,0,1,2.81,0A2,2,0,0,1,14.11,77.7Zm0-16.76a2,2,0,0,1-2.81,0,2,2,0,0,1,0-2.79,2,2,0,0,1,2.81,0A2,2,0,0,1,14.11,60.94Zm8.45,25.14a2,2,0,0,1-2.82,0,2,2,0,0,1,0-2.79,2,2,0,0,1,2.82,0A2,2,0,0,1,22.56,86.08Zm0-16.76a2,2,0,0,1-2.82,0,2,2,0,1,1,2.82,0Zm0-16.76a2,2,0,0,1-2.82,0,2,2,0,0,1,0-2.8,2,2,0,0,1,2.82,0A2,2,0,0,1,22.56,52.56ZM31,94.46a2,2,0,0,1-2.81,0,2,2,0,0,1,0-2.79,2,2,0,0,1,2.81,0A2,2,0,0,1,31,94.46ZM31,77.7a2,2,0,0,1-2.81,0,2,2,0,0,1,0-2.79,2,2,0,0,1,2.81,0A2,2,0,0,1,31,77.7Zm0-16.76a2,2,0,0,1-2.81,0,2,2,0,0,1,0-2.79,2,2,0,0,1,2.81,0A2,2,0,0,1,31,60.94Zm8.45,25.14a2,2,0,0,1-2.82,0,2,2,0,0,1,0-2.79,2,2,0,0,1,2.82,0A2,2,0,0,1,39.45,86.08Zm0-16.76a2,2,0,0,1-2.82,0,2,2,0,1,1,2.82,0Zm0-16.76a2,2,0,0,1-2.82,0,2,2,0,0,1,0-2.8,2,2,0,0,1,2.82,0A2,2,0,0,1,39.45,52.56Zm8.44,41.9a2,2,0,0,1-2.81,0,2,2,0,0,1,0-2.79,2,2,0,0,1,2.81,0A2,2,0,0,1,47.89,94.46Zm0-16.76a2,2,0,0,1-2.81,0,2,2,0,0,1,0-2.79,2,2,0,0,1,2.81,0A2,2,0,0,1,47.89,77.7Zm0-16.76a2,2,0,0,1-2.81,0,2,2,0,0,1,0-2.79,2,2,0,0,1,2.81,0A2,2,0,0,1,47.89,60.94Zm8.45,25.14a2,2,0,0,1-2.82,0,2,2,0,0,1,0-2.79,2,2,0,0,1,2.82,0A2,2,0,0,1,56.34,86.08Zm0-16.76a2,2,0,0,1-2.82,0,2,2,0,1,1,2.82,0Zm0-16.76a2,2,0,0,1-2.82,0,2,2,0,0,1,0-2.8,2,2,0,0,1,2.82,0A2,2,0,0,1,56.34,52.56ZM64.78,77.7a2,2,0,0,1-2.81,0,2,2,0,0,1,0-2.79,2,2,0,0,1,2.81,0A2,2,0,0,1,64.78,77.7Zm0-16.76a2,2,0,0,1-2.81,0,2,2,0,0,1,0-2.79,2,2,0,0,1,2.81,0A2,2,0,0,1,64.78,60.94Z"/><ellipse class="cls-3" cx="29.6" cy="93.07" rx="1.99" ry="1.98"/><path class="cls-3" d="M45.08,58.15a2,2,0,0,0,0,2.79,2,2,0,0,0,2.81,0,2,2,0,0,0,0-2.79A2,2,0,0,0,45.08,58.15Z"/><path class="cls-3" d="M45.08,91.67a2,2,0,0,0,0,2.79,2,2,0,0,0,2.81,0,2,2,0,0,0,0-2.79A2,2,0,0,0,45.08,91.67Z"/><path class="cls-3" d="M45.08,74.91a2,2,0,0,0,0,2.79,2,2,0,0,0,2.81,0,2,2,0,0,0,0-2.79A2,2,0,0,0,45.08,74.91Z"/><path class="cls-3" d="M36.63,49.76a2,2,0,0,0,0,2.8,2,2,0,0,0,2.82,0,2,2,0,0,0,0-2.8A2,2,0,0,0,36.63,49.76Z"/><path class="cls-3" d="M36.63,66.53a2,2,0,0,0,0,2.79,2,2,0,0,0,2.82,0,2,2,0,0,0,0-2.79A2,2,0,0,0,36.63,66.53Z"/><path class="cls-3" d="M36.63,83.29a2,2,0,0,0,0,2.79,2,2,0,0,0,2.82,0,2,2,0,0,0,0-2.79A2,2,0,0,0,36.63,83.29Z"/><path class="cls-3" d="M62,58.15a2,2,0,0,0,0,2.79,2,2,0,0,0,2.81,0,2,2,0,0,0,0-2.79A2,2,0,0,0,62,58.15Z"/><ellipse class="cls-3" cx="54.93" cy="84.69" rx="1.99" ry="1.98"/><ellipse class="cls-3" cx="29.6" cy="59.54" rx="1.99" ry="1.98"/><path class="cls-3" d="M62,74.91a2,2,0,0,0,0,2.79,2,2,0,0,0,2.81,0,2,2,0,0,0,0-2.79A2,2,0,0,0,62,74.91Z"/><path class="cls-3" d="M70.41,86.08a2,2,0,0,0,1.38.58v-4a2,2,0,0,0-1.39.58A2,2,0,0,0,70.41,86.08Z"/><path class="cls-3" d="M53.52,66.53a2,2,0,0,0,0,2.79,2,2,0,0,0,2.82,0,2,2,0,0,0,0-2.79A2,2,0,0,0,53.52,66.53Z"/><path class="cls-3" d="M53.52,49.76a2,2,0,0,0,0,2.8,2,2,0,0,0,2.82,0,2,2,0,0,0,0-2.8A2,2,0,0,0,53.52,49.76Z"/><path class="cls-3" d="M62,91.67A2,2,0,0,0,61.39,93q2-.5,3.66-1a1.44,1.44,0,0,0-.27-.34A2,2,0,0,0,62,91.67Z"/><path class="cls-3" d="M14.11,91.67a2,2,0,0,0-2.81,0,1.75,1.75,0,0,0-.31.42c1.1.35,2.34.69,3.7,1A1.93,1.93,0,0,0,14.11,91.67Z"/><path class="cls-3" d="M5.67,86.08a2,2,0,0,0,0-2.79A2,2,0,0,0,4,82.73c0,1.52,0,3,0,3.91A2,2,0,0,0,5.67,86.08Z"/><path class="cls-3" d="M5.67,66.53a1.92,1.92,0,0,0-.32-.26c-.3,1.18-.56,2.38-.76,3.6a2.07,2.07,0,0,0,1.08-.55A2,2,0,0,0,5.67,66.53Z"/><path class="cls-3" d="M70.41,69.32a2.09,2.09,0,0,0,.89.5c-.19-1.16-.44-2.3-.72-3.43l-.17.14A2,2,0,0,0,70.41,69.32Z"/><path class="cls-3" d="M19.74,66.53a2,2,0,0,0,0,2.79,2,2,0,0,0,2.82,0,2,2,0,0,0,0-2.79A2,2,0,0,0,19.74,66.53Z"/><path class="cls-3" d="M28.19,74.91a2,2,0,0,0,0,2.79,2,2,0,0,0,2.81,0,2,2,0,0,0,0-2.79A2,2,0,0,0,28.19,74.91Z"/><path class="cls-3" d="M19.74,49.76a2,2,0,0,0,0,2.8,2,2,0,0,0,2.82,0,2,2,0,0,0,0-2.8A2,2,0,0,0,19.74,49.76Z"/><path class="cls-3" d="M11.3,58.15a2,2,0,0,0,0,2.79,2,2,0,0,0,2.81,0,2,2,0,0,0,0-2.79A2,2,0,0,0,11.3,58.15Z"/><path class="cls-3" d="M11.3,74.91a2,2,0,0,0,0,2.79,2,2,0,0,0,2.81,0,2,2,0,0,0,0-2.79A2,2,0,0,0,11.3,74.91Z"/><ellipse class="cls-3" cx="21.15" cy="84.69" rx="1.99" ry="1.98"/><circle class="cls-3" cx="37.93" cy="24.39" r="20.37"/><path class="cls-4" d="M56.55,40.12a24.4,24.4,0,1,0-37.23,0C7.91,47.32.57,60.46,0,75.06c0,0,0,12.66,0,12.8,0,3.66,4,6.59,12,8.72C19,98.43,28.15,99.45,37.9,99.45s19-1,25.89-2.87c8-2.13,12-5.07,12-8.73l0-12.86C75.32,60.44,68,47.29,56.55,40.12ZM37.93,4A20.37,20.37,0,1,1,17.56,24.39,20.4,20.4,0,0,1,37.93,4ZM71.78,87.84c0,2.58-12,7.59-33.88,7.59S4,90.43,4,87.86c0-.19,0-12.72,0-12.72.49-13.41,7.3-25.5,17.87-31.9a25.29,25.29,0,0,0,32,0c10.56,6.39,17.37,18.48,17.86,31.81Z"/></g></g></svg>