<svg xmlns="http://www.w3.org/2000/svg" viewBox="0 0 100 70"><defs><style>.cls-1{fill:#fff;}.cls-2{fill:#032530;}.cls-3{fill:#b4e6a5;}</style></defs><g id="Layer_2" data-name="Layer 2"><g id="Layer_1-2" data-name="Layer 1"><path class="cls-1" d="M90,4a6.1,6.1,0,0,1,2.31.46l-37,35.27a7.32,7.32,0,0,1-10.53,0L7.36,4.62A6,6,0,0,1,10,4Z"/><path class="cls-2" d="M90,0H10A10,10,0,0,0,0,10V60A10,10,0,0,0,10,70H90a10,10,0,0,0,10-10V10A10,10,0,0,0,90,0Zm0,4a6.1,6.1,0,0,1,2.31.46l-37,35.27a7.32,7.32,0,0,1-10.53,0L7.36,4.62A6,6,0,0,1,10,4ZM4.86,63.09A6,6,0,0,1,4,60V10a6.07,6.07,0,0,1,.56-2.52L27.34,28.89h0ZM10,66a6,6,0,0,1-2-.36l22.33-34L42,42.69a11.25,11.25,0,0,0,16-.07l11.59-11L92,65.64A6,6,0,0,1,90,66Zm86-6a6,6,0,0,1-.86,3.09L72.67,28.9l-.09-.11L95.28,7.16A5.93,5.93,0,0,1,96,10Z"/><path class="cls-3" d="M4.86,63.09A6,6,0,0,1,4,60V10a6.07,6.07,0,0,1,.56-2.52L27.34,28.89h0ZM10,66a6,6,0,0,1-2-.36l22.33-34L42,42.69a11.25,11.25,0,0,0,16-.07l11.59-11L92,65.64A6,6,0,0,1,90,66Zm86-6a6,6,0,0,1-.86,3.09L72.67,28.9l-.09-.11L95.28,7.16A5.93,5.93,0,0,1,96,10Z"/><path class="cls-3" d="M59.74,8.25a2,2,0,1,1-2.83,0A2,2,0,0,1,59.74,8.25ZM23,8.25a2,2,0,1,0,2.82,0A2,2,0,0,0,23,8.25Zm42.42,8.48a2,2,0,1,0,2.83,0A2,2,0,0,0,65.39,16.73Zm-8.48,8.49a2,2,0,1,0,2.83,0A2,2,0,0,0,56.91,25.22Zm17-17a2,2,0,1,0,2.83,0A2,2,0,0,0,73.88,8.25ZM48.42,16.73a2,2,0,1,0,2.83,0A2,2,0,0,0,48.42,16.73Zm-17,0a2,2,0,1,0,2.83,0A2,2,0,0,0,31.45,16.73Zm8.49,8.49a2,2,0,1,0,2.83,0A2,2,0,0,0,39.94,25.22Zm8.48,8.48a2,2,0,1,0,2.83,0A2,2,0,0,0,48.42,33.7ZM39.94,8.25a2,2,0,1,0,2.83,0A2,2,0,0,0,39.94,8.25Z"/></g></g></svg>