<svg xmlns="http://www.w3.org/2000/svg" viewBox="0 0 96.7 98.12"><defs><style>.cls-1{fill:#b3e6a6;}.cls-2{fill:#00313c;}.cls-3{fill:#fff;}.cls-4{fill:#b4e6a5;}</style></defs><g id="Layer_2" data-name="Layer 2"><g id="Layer_1-2" data-name="Layer 1"><path class="cls-1" d="M56.13,86.48a2,2,0,0,1,2,2v2.44a3.21,3.21,0,0,0,3.2,3.2H71A3.18,3.18,0,0,0,74.16,91l.13-7.45V81.59a2,2,0,0,1,1-1.74C86.51,73.32,92.7,63.11,92.7,51.13A32.47,32.47,0,0,0,84.15,29.5a16.28,16.28,0,0,1-3.29,1.7A32.87,32.87,0,0,1,84,35a2,2,0,0,1-3.24,2.34A35.48,35.48,0,0,0,62.61,24.69a1.79,1.79,0,0,1-.51-.07,39.46,39.46,0,0,0-7.33-1.32,2,2,0,0,1,.15-4,27.47,27.47,0,0,1,4.51.47A17,17,0,0,1,59,16.17a47.46,47.46,0,0,0-19.83,1,2,2,0,0,1-1.61-.26,63.08,63.08,0,0,0-13.19-6.07L25.5,22.24a2,2,0,0,1-.81,1.81A35.09,35.09,0,0,0,11,43.93a2,2,0,0,1-1.95,1.53H7.19A3.2,3.2,0,0,0,4,48.66V58.3a3.19,3.19,0,0,0,3.19,3.19h3.39a2,2,0,0,1,1.86,1.25A37.08,37.08,0,0,0,28.36,80.61a2,2,0,0,1,.94,2.19,2.82,2.82,0,0,0-.09.71v7.41a3.21,3.21,0,0,0,3.19,3.2H42a3.21,3.21,0,0,0,3.2-3.2v-2.4A2,2,0,0,1,45.88,87a2,2,0,0,1,1.53-.52,46.85,46.85,0,0,0,8.54,0Z"/><path class="cls-2" d="M71,98.12H61.33a7.21,7.21,0,0,1-7.2-7.2v-.29c-1.63.09-3.26.09-4.89,0v.27a7.21,7.21,0,0,1-7.2,7.2H32.4a7.21,7.21,0,0,1-7.19-7.2V83.38A41.27,41.27,0,0,1,9.26,65.49H7.19A7.2,7.2,0,0,1,0,58.3V48.66a7.21,7.21,0,0,1,7.19-7.2h.35A39.22,39.22,0,0,1,21.41,21.52L20.32,10.44a3.48,3.48,0,0,1,4.5-3.67A70.47,70.47,0,0,1,39,13.07a51.72,51.72,0,0,1,22.5-.52,2,2,0,0,1,1.6,2.19A11.81,11.81,0,0,0,63,16.13a12,12,0,0,0,1,4.75,38.81,38.81,0,0,1,13.34,7.17,12,12,0,0,0,5.75-2.75,2,2,0,0,1,2.74.11A36.79,36.79,0,0,1,96.7,51.13c0,13.1-6.53,24.28-18.41,31.58v.82L78.16,91A7.19,7.19,0,0,1,71,98.12ZM56.13,86.48a2,2,0,0,1,2,2v2.44a3.21,3.21,0,0,0,3.2,3.2H71A3.18,3.18,0,0,0,74.16,91l.13-7.45V81.59a2,2,0,0,1,1-1.74C86.51,73.32,92.7,63.11,92.7,51.13A32.47,32.47,0,0,0,84.15,29.5a16.28,16.28,0,0,1-3.29,1.7A32.87,32.87,0,0,1,84,35a2,2,0,0,1-3.24,2.34A35.48,35.48,0,0,0,62.61,24.69a1.79,1.79,0,0,1-.51-.07,39.46,39.46,0,0,0-7.33-1.32,2,2,0,0,1,.15-4,27.47,27.47,0,0,1,4.51.47A17,17,0,0,1,59,16.17a47.46,47.46,0,0,0-19.83,1,2,2,0,0,1-1.61-.26,63.08,63.08,0,0,0-13.19-6.07L25.5,22.24a2,2,0,0,1-.81,1.81A35.09,35.09,0,0,0,11,43.93a2,2,0,0,1-1.95,1.53H7.19A3.2,3.2,0,0,0,4,48.66V58.3a3.19,3.19,0,0,0,3.19,3.19h3.39a2,2,0,0,1,1.86,1.25A37.08,37.08,0,0,0,28.36,80.61a2,2,0,0,1,.94,2.19,2.82,2.82,0,0,0-.09.71v7.41a3.21,3.21,0,0,0,3.19,3.2H42a3.21,3.21,0,0,0,3.2-3.2v-2.4A2,2,0,0,1,45.88,87a2,2,0,0,1,1.53-.52,46.85,46.85,0,0,0,8.54,0Z"/><path class="cls-2" d="M76.85,32.15a2,2,0,0,1-1.3-.48,35.52,35.52,0,0,0-13.45-7,2,2,0,0,1-1.24-1,16.13,16.13,0,1,1,16.23,8.51ZM64,21a39.39,39.39,0,0,1,13.39,7A12.12,12.12,0,1,0,64,21Z"/><circle class="cls-2" cx="25.89" cy="36.82" r="2.85"/><path class="cls-3" d="M64,21a39.39,39.39,0,0,1,13.39,7A12.12,12.12,0,1,0,64,21Z"/><path class="cls-4" d="M86.44,19l.61-.61A12.47,12.47,0,0,1,85.76,22l-.67.66L84,21.51l1.35-1.34L84,18.83l1.13-1.14ZM73.31,20.17,72,21.51l1.13,1.13,1.35-1.34,1.34,1.34,1.13-1.13-1.34-1.34,1.34-1.35-1.13-1.13L74.44,19l-1.35-1.35L72,18.83ZM64,21l.56.18-.79-.79C63.89,20.61,64,20.82,64,21Zm-.26-3.33-.57.57a11.35,11.35,0,0,0,.47,1.8l1.23-1.24Zm16.51-11L79.16,7.83l1.35,1.34-1.35,1.34,1.13,1.13,1.35-1.34L83,11.64l1.13-1.13L82.77,9.17,84,7.91A11,11,0,0,0,82.88,6.8L81.64,8Zm-12,5,1.35-1.34L71,11.64l1.13-1.13L70.77,9.17l1.34-1.35L71,6.69,69.64,8,68.29,6.69,67.16,7.83l1.35,1.34-1.35,1.34Z"/></g></g></svg>