<svg xmlns="http://www.w3.org/2000/svg" viewBox="0 0 98.59 86.91"><defs><style>.cls-1{fill:#00313c;}.cls-2{fill:#fff;}.cls-3{fill:#b4e6a5;}.cls-4{fill:#b3e6a6;}</style></defs><g id="Layer_2" data-name="Layer 2"><g id="Layer_1-2" data-name="Layer 1"><path class="cls-1" d="M9.13,31.42h5.72V68.09H11.27a2,2,0,1,0,0,4H87.32a2,2,0,0,0,0-4h-5V31.42h7.18a2,2,0,0,0,0-4H9.13a2,2,0,0,0,0,4Zm9.72,0h5.78V68.09H18.85Zm32.6,36.67H45.68V31.42h5.77Zm4-36.67h13V68.09h-13ZM41.68,68.09h-13V31.42H41.68Zm36.6,0H72.5V31.42h5.78ZM10,24.89H88.59a2,2,0,0,0,.94-3.76L50.24.23a2,2,0,0,0-1.88,0L9.06,21.13A2,2,0,0,0,10,24.89ZM49.3,4.27,80.57,20.89H18ZM4.89,77.5a2,2,0,0,1,2-2H91.71a2,2,0,0,1,0,4H6.89A2,2,0,0,1,4.89,77.5Zm93.7,7.41a2,2,0,0,1-2,2H2a2,2,0,0,1,0-4H96.59A2,2,0,0,1,98.59,84.91Z"/><rect class="cls-2" x="18.85" y="31.42" width="5.78" height="36.67"/><rect class="cls-2" x="45.68" y="31.42" width="5.78" height="36.67"/><rect class="cls-2" x="72.5" y="31.42" width="5.78" height="36.67"/><polygon class="cls-3" points="20.06 33.6 21.4 32.25 22.75 33.6 23.88 32.47 22.83 31.42 19.97 31.42 18.93 32.47 20.06 33.6"/><polygon class="cls-3" points="22.46 61.65 21.33 62.78 22.67 64.12 21.33 65.47 22.46 66.6 23.8 65.25 24.63 66.08 24.63 62.17 23.8 62.99 22.46 61.65"/><polygon class="cls-3" points="20.34 55.6 21.48 54.47 20.13 53.12 21.48 51.78 20.34 50.65 19 51.99 18.85 51.84 18.85 54.41 19 54.25 20.34 55.6"/><polygon class="cls-3" points="74.2 43.25 75.54 44.6 76.67 43.47 75.33 42.12 76.67 40.78 75.54 39.65 74.2 40.99 72.86 39.65 72.5 40 72.5 41.56 73.07 42.12 72.5 42.69 72.5 44.24 72.86 44.6 74.2 43.25"/><polygon class="cls-3" points="48.86 39.65 47.73 40.78 49.07 42.12 47.73 43.47 48.86 44.6 50.2 43.25 51.45 44.51 51.45 42.24 51.33 42.12 51.45 42 51.45 39.74 50.2 40.99 48.86 39.65"/><polygon class="cls-3" points="24.63 41.68 24.63 39.88 23.73 40.78 24.63 41.68"/><polygon class="cls-3" points="24.63 44.37 24.63 42.57 23.73 43.47 24.63 44.37"/><polygon class="cls-3" points="47.88 32.47 46.83 31.42 45.68 31.42 45.68 32.53 46.74 33.6 47.88 32.47"/><polygon class="cls-3" points="74.28 65.47 72.93 64.12 74.28 62.78 73.14 61.65 72.5 62.29 72.5 65.96 73.14 66.6 74.28 65.47"/><polygon class="cls-3" points="47.8 65.25 49.15 66.6 50.27 65.47 48.93 64.12 50.27 62.78 49.15 61.65 47.8 62.99 46.46 61.65 45.68 62.43 45.68 63.13 46.67 64.12 45.68 65.12 45.68 65.82 46.46 66.6 47.8 65.25"/><polygon class="cls-3" points="76.53 51.78 77.87 53.12 76.53 54.47 77.66 55.6 78.28 54.98 78.28 51.27 77.66 50.65 76.53 51.78"/><polygon class="cls-4" points="49.3 4.27 80.57 20.89 18.02 20.89 49.3 4.27"/></g></g></svg>