<svg xmlns="http://www.w3.org/2000/svg" viewBox="0 0 89.54 97.84"><defs><style>.cls-1{fill:#b3e6a6;}.cls-2{fill:#fff;}.cls-3{fill:#b4e6a5;}.cls-4{fill:#00313c;}</style></defs><g id="Layer_2" data-name="Layer 2"><g id="Layer_1-2" data-name="Layer 1"><path class="cls-1" d="M10.73,12.31H26.2v9.52a2,2,0,0,0,4,0V12.31H58.78v9.52a2,2,0,0,0,4,0V12.31h16A6.73,6.73,0,0,1,85.54,19V33.6H4V19A6.73,6.73,0,0,1,10.73,12.31Z"/><path class="cls-2" d="M78.81,93.84H10.73A6.73,6.73,0,0,1,4,87.12V37.6H85.54V87.12A6.73,6.73,0,0,1,78.81,93.84Z"/><path class="cls-3" d="M4,63.44l31.48,30.4H32.6L4,66.22ZM4,40.22,59.53,93.84h2.88l-52.77-51h0L4.19,37.6H4ZM75.77,93.84,17.52,37.6H14.65L72.89,93.84ZM9.69,93.75,4.12,88.38A6.74,6.74,0,0,0,9.69,93.75Zm75.85-18L44.69,37.6H41.76L85.54,78.46Zm0-26.38L72.78,37.6h-3L85.54,52.06ZM4,53.23,46.06,93.84h2.88L4,50.45ZM85.38,88.54,31,37.6H28.08L84.59,90.54A6.53,6.53,0,0,0,85.38,88.54ZM85.54,62,59.05,37.6h-3L85.54,64.71Zm0-24.4h-1.2l1.2,1.12ZM4,80,19,93.84h3L4,77.31Z"/><path class="cls-4" d="M78.81,8.31h-16V2a2,2,0,0,0-4,0V8.31H30.2V2a2,2,0,0,0-4,0V8.31H10.73A10.74,10.74,0,0,0,0,19V87.12A10.74,10.74,0,0,0,10.73,97.84H78.81A10.74,10.74,0,0,0,89.54,87.12V19A10.74,10.74,0,0,0,78.81,8.31Zm-68.08,4H26.2v9.52a2,2,0,0,0,4,0V12.31H58.78v9.52a2,2,0,0,0,4,0V12.31h16A6.73,6.73,0,0,1,85.54,19V33.6H4V19A6.73,6.73,0,0,1,10.73,12.31ZM78.81,93.84H10.73A6.73,6.73,0,0,1,4,87.12V37.6H85.54V87.12A6.73,6.73,0,0,1,78.81,93.84Z"/><path class="cls-4" d="M62.58,49.48,41.23,70.83,32,61.64a4,4,0,0,0-5.66,5.66l12,12a4,4,0,0,0,5.66,0L68.24,55.14a4,4,0,0,0-5.66-5.66Z"/></g></g></svg>