<svg xmlns="http://www.w3.org/2000/svg" viewBox="0 0 63 100"><defs><style>.cls-1{fill:#fff;}.cls-2{fill:#032530;}.cls-3{fill:#b4e6a5;}</style></defs><g id="Layer_2" data-name="Layer 2"><g id="Layer_1-2" data-name="Layer 1"><path class="cls-1" d="M55.36,44.87a2.44,2.44,0,0,0-.14.28L33.5,90.51V47.28a16.08,16.08,0,0,0,0-31.94V4.08A27.42,27.42,0,0,1,59,31.31,27.1,27.1,0,0,1,55.36,44.87Z"/><path class="cls-2" d="M31.5,0A31.4,31.4,0,0,0,0,31.31,31,31,0,0,0,4.17,46.87L28.79,98.3a3,3,0,0,0,5.42,0L58.83,46.87A31,31,0,0,0,63,31.31,31.4,31.4,0,0,0,31.5,0Zm0,43.42A12.11,12.11,0,1,1,43.68,31.31,12.14,12.14,0,0,1,31.5,43.42ZM7.78,45.15a2.44,2.44,0,0,0-.14-.28A27.1,27.1,0,0,1,4,31.31,27.42,27.42,0,0,1,29.5,4.08V15.34a16.08,16.08,0,0,0,0,31.94V90.51Zm47.58-.28a2.44,2.44,0,0,0-.14.28L33.5,90.51V47.28a16.08,16.08,0,0,0,0-31.94V4.08A27.42,27.42,0,0,1,59,31.31,27.1,27.1,0,0,1,55.36,44.87Z"/><path class="cls-3" d="M7.78,45.15a2.44,2.44,0,0,0-.14-.28A27.1,27.1,0,0,1,4,31.31,27.42,27.42,0,0,1,29.5,4.08V15.34a16.08,16.08,0,0,0,0,31.94V90.51Z"/><path class="cls-3" d="M48.2,59.81,35.33,46.93a16.11,16.11,0,0,0,2.17-.69l3.37,3.37,0,0,8.27,8.26Zm-13.78,26,.9.91.93-1.94L33.5,82v2.83l.94.93Zm6.12-10-7-7v2.83l6.12,6.13Zm4.29-9L33.5,55.52v2.83L43.91,68.76Zm8.6-18L49,44.46l0,0-4.12-4.12A15.78,15.78,0,0,1,43.62,42l8.88,8.88Zm-19-42.63L59,30.83a28.8,28.8,0,0,0-.23-3.1L57,26v0L40.85,9.86l0,0L35.3,4.28c-.59-.09-1.19-.16-1.8-.2V5.3l.94.94Zm23.2,33.58-.6-.6,0,0-9.39-9.39c0,.47.07.95.07,1.44s0,.93-.07,1.39l9.22,9.21C57.12,41.23,57.38,40.54,57.62,39.84Z"/></g></g></svg>