<svg xmlns="http://www.w3.org/2000/svg" viewBox="0 0 96.13 92.65"><defs><style>.cls-1{fill:#fff;}.cls-2{fill:#b4e6a5;}.cls-3{fill:#032530;}</style></defs><g id="Layer_2" data-name="Layer 2"><g id="Layer_1-2" data-name="Layer 1"><path class="cls-1" d="M78.21,84.93A4,4,0,0,1,74,88.65H22.18a4,4,0,0,1-4.26-3.72V38.88h0L46,16.41a3,3,0,0,1,3.82,0L78.21,39.09Z"/><path class="cls-2" d="M88.78,43.23A6,6,0,0,1,85,42L51.09,14.84a5.08,5.08,0,0,0-6.32,0L11.12,41.76a6.32,6.32,0,0,1-7.55,0,3.7,3.7,0,0,1,0-6L44.15,3.25a6.34,6.34,0,0,1,7.56,0L92.56,35.93a3.69,3.69,0,0,1,0,6A6,6,0,0,1,88.78,43.23Z"/><path class="cls-2" d="M21.37,75.9l1.35-1.34-1.35-1.34,1.13-1.14,1.35,1.35,1.34-1.35,1.13,1.14L25,74.56l1.34,1.34L25.19,77l-1.34-1.35L22.5,77Zm.15-11-1.34-1.34,1.34-1.34-1.13-1.14-1.34,1.35L17.92,61.3v4.52l1.13-1.13L20.39,66ZM20.1,44l1.35-1.35L22.79,44l1.13-1.14-1.34-1.34,1.34-1.34-1.13-1.14-1.34,1.35L20.1,39.08,19,40.22l1.35,1.34L19,42.9Zm12,0,1.35-1.35L34.79,44l1.13-1.14-1.34-1.34,1.34-1.34-1.13-1.14-1.34,1.35L32.1,39.08,31,40.22l1.35,1.34L31,42.9ZM51.3,33l1.35-1.35L54,33l1.13-1.14-1.34-1.34,1.34-1.34L54,28.08l-1.34,1.35L51.3,28.08l-1.13,1.14,1.35,1.34L50.17,31.9Zm-12,0,1.35-1.35L42,33l1.13-1.14-1.34-1.34,1.34-1.34L42,28.08l-1.34,1.35L39.3,28.08l-1.13,1.14,1.35,1.34L38.17,31.9Zm24.29,17-1.34,1.35L60.9,50.08l-1.13,1.14,1.35,1.34L59.77,53.9,60.9,55l1.35-1.35L63.59,55l1.13-1.14-1.34-1.34,1.34-1.34Zm-36,0-1.34,1.35L24.9,50.08l-1.13,1.14,1.35,1.34L23.77,53.9,24.9,55l1.35-1.35L27.59,55l1.13-1.14-1.34-1.34,1.34-1.34ZM33.52,64.9l-1.34-1.34,1.34-1.34-1.13-1.14-1.34,1.35L29.7,61.08l-1.13,1.14,1.35,1.34L28.57,64.9,29.7,66l1.35-1.35L32.39,66ZM66,83.08l-1.34,1.35L63.3,83.08l-1.13,1.14,1.35,1.34L62.17,86.9,63.3,88l1.35-1.35L66,88l1.13-1.14-1.34-1.34,1.34-1.34Zm7.2-11-1.34,1.35L70.5,72.08l-1.13,1.14,1.35,1.34L69.37,75.9,70.5,77l1.35-1.35L73.19,77l1.13-1.14L73,74.56l1.34-1.34ZM46.72,19.56,45.37,20.9,46.5,22l1.35-1.35L49.19,22l1.13-1.14L49,19.56l1.34-1.34-1.13-1.14-1.34,1.35L46.5,17.08l-1.13,1.14ZM42,83.08l-1.34,1.35L39.3,83.08l-1.13,1.14,1.35,1.34L38.17,86.9,39.3,88l1.35-1.35L42,88l1.13-1.14-1.34-1.34,1.34-1.34Zm12,0-1.34,1.35L51.3,83.08l-1.13,1.14,1.35,1.34L50.17,86.9,51.3,88l1.35-1.35L54,88l1.13-1.14-1.34-1.34,1.34-1.34Zm-24,0-1.34,1.35L27.3,83.08l-1.13,1.14,1.35,1.34L26.17,86.9,27.3,88l1.35-1.35L30,88l1.13-1.14-1.34-1.34,1.34-1.34Zm-12,0-.07.07v1.78a3.29,3.29,0,0,0,0,.44l1.15-1.15ZM68.1,44l1.35-1.35L70.79,44l1.13-1.14-1.34-1.34,1.34-1.34-1.13-1.14-1.34,1.35L68.1,39.08,67,40.22l1.35,1.34L67,42.9Zm9.6,22,.51-.51V61.59l-.51-.51-1.13,1.14,1.35,1.34L76.57,64.9Zm-1-12.14-1.34-1.34,1.34-1.34-1.13-1.14-1.34,1.35L72.9,50.08l-1.13,1.14,1.35,1.34L71.77,53.9,72.9,55l1.35-1.35L75.59,55ZM63.3,28.08l-1.13,1.14,1.35,1.34L62.17,31.9,63.3,33l1.35-1.35L66,33l1.13-1.14-1.34-1.34.78-.78-1.26-1-.65.66ZM58.5,77l1.35-1.35L61.19,77l1.13-1.14L61,74.56l1.34-1.34-1.13-1.14-1.34,1.35L58.5,72.08l-1.13,1.14,1.35,1.34L57.37,75.9Zm11-12.14-1.34-1.34,1.34-1.34-1.13-1.14-1.34,1.35L65.7,61.08l-1.13,1.14,1.35,1.34L64.57,64.9,65.7,66l1.35-1.35L68.39,66ZM27.3,33l1.35-1.35L30,33l1.13-1.14-1.34-1.34,1.34-1.34-.5-.5-4.24,3.39Zm50.76,52.8-.28-.28.4-.4a1.81,1.81,0,0,0,0-.23V83.3L78,83.08l-1.34,1.35L75.3,83.08l-1.13,1.14,1.35,1.34L74.17,86.9,75.3,88l1.35-1.35.58.58A3.39,3.39,0,0,0,78.06,85.84ZM19.12,86.9l-1.05-1.05a3.49,3.49,0,0,0,.76,1.35ZM58.79,39.08l-1.34,1.35L56.1,39.08,55,40.22l1.35,1.34L55,42.9,56.1,44l1.35-1.35L58.79,44l1.13-1.14-1.34-1.34,1.34-1.34Zm-12,0-1.34,1.35L44.1,39.08,43,40.22l1.35,1.34L43,42.9,44.1,44l1.35-1.35L46.79,44l1.13-1.14-1.34-1.34,1.34-1.34Zm-11,12.14,1.35,1.34L35.77,53.9,36.9,55l1.35-1.35L39.59,55l1.13-1.14-1.34-1.34,1.34-1.34-1.13-1.14-1.34,1.35L36.9,50.08Zm12,0,1.35,1.34L47.77,53.9,48.9,55l1.35-1.35L51.59,55l1.13-1.14-1.34-1.34,1.34-1.34-1.13-1.14-1.34,1.35L48.9,50.08ZM57.52,64.9l-1.34-1.34,1.34-1.34-1.13-1.14-1.34,1.35L53.7,61.08l-1.13,1.14,1.35,1.34L52.57,64.9,53.7,66l1.35-1.35L56.39,66ZM34.5,77l1.35-1.35L37.19,77l1.13-1.14L37,74.56l1.34-1.34-1.13-1.14-1.34,1.35L34.5,72.08l-1.13,1.14,1.35,1.34L33.37,75.9Zm12,0,1.35-1.35L49.19,77l1.13-1.14L49,74.56l1.34-1.34-1.13-1.14-1.34,1.35L46.5,72.08l-1.13,1.14,1.35,1.34L45.37,75.9Zm-1-12.14-1.34-1.34,1.34-1.34-1.13-1.14-1.34,1.35L41.7,61.08l-1.13,1.14,1.35,1.34L40.57,64.9,41.7,66l1.35-1.35L44.39,66Z"/><path class="cls-3" d="M57.91,55.29v-4c2.89,0,5.11-.8,6.61-2.38,2.5-2.63,2.38-6.7,2.37-6.74a9.54,9.54,0,1,0-19.07-.1v.16s-.22,3.39,1.56,5.52L46.3,50.32c-2.66-3.19-2.53-7.6-2.48-8.31a13.54,13.54,0,0,1,27.07.06c0,.14.24,5.7-3.47,9.6C65.14,54.07,61.93,55.29,57.91,55.29Z"/><path class="cls-2" d="M63.77,49.66A10.72,10.72,0,1,0,46.9,62.22h0L40.75,80.68v0l2.18,4.56a.06.06,0,0,0,.08,0l5.06-2.42L46.7,80a.06.06,0,0,1,0-.08l2.81-1.34s.05-.05,0-.08l-1.34-2.81a.08.08,0,0,1,0-.09l2.82-1.34a.08.08,0,0,0,0-.08l-1.34-2.81a.05.05,0,0,1,0-.08L52.65,70l1.76-5h0a10.71,10.71,0,0,0,9.36-15.33Z"/><path class="cls-3" d="M65.58,48.8a12.72,12.72,0,1,0-21,14l-5.76,17.3-.25.81,2.52,5.28.39.79,1.61.55,7.62-3.63-1.4-2.92,1.09-.52,1.79-1-1.35-2.84,2.9-1.43L52.4,72.3l1.86-.89,1.61-4.54A12.72,12.72,0,0,0,65.58,48.8ZM48.89,69.54l-1.78,1,1.35,2.83-1.1.52-1.78,1,1.35,2.83L44,79.08,45.4,82l-1.5.72-1-2.11L48,65.39a13,13,0,0,0,3.72,1.36L51,68.51ZM62.32,57.18a8.66,8.66,0,0,1-4.47,5,8.54,8.54,0,0,1-3.5.85,8.79,8.79,0,0,1-6.11-2.25h0a8.72,8.72,0,1,1,14.08-3.56Z"/><path class="cls-2" d="M44.67,40.06A10.72,10.72,0,0,0,33.94,50.78a10.59,10.59,0,0,0,.81,4.07l-13.5,14a.05.05,0,0,0,0,0V74a.07.07,0,0,0,.07.06h5.6V70.85a.06.06,0,0,1,.06-.06h3.12a.06.06,0,0,0,.05-.06V67.61s0,0,.07,0h3.11a.07.07,0,0,0,.06-.07V64.38a.06.06,0,0,1,.06-.06h3.18l3.73-3.73a10.59,10.59,0,0,0,4.33.91,10.72,10.72,0,0,0,0-21.44Z"/><path class="cls-3" d="M44.67,38.06A12.74,12.74,0,0,0,31.94,50.78a12.87,12.87,0,0,0,.51,3.56L19.81,67.48l-.17.18-.41.7V74L19.3,76h9.6V72.79l3.23-.06V69.56l3.24-.07V66.32h2.06l3.41-3.41a12.72,12.72,0,1,0,3.83-24.85ZM33.43,62.32l-2.06.06v3.18l-3.24,0v3.18l-3.23.06V72H23.23V69.69L34.32,58.17A12.65,12.65,0,0,0,37.1,61l-1.32,1.32ZM44.67,59.5a8.66,8.66,0,0,1-3.53-.74,8.81,8.81,0,0,1-4.55-4.67h0a8.73,8.73,0,1,1,8.08,5.41Z"/><path class="cls-3" d="M48.47,46.33A17.23,17.23,0,0,1,48,40.25l-4-.38c-.1,1.06-.42,5.61,1.1,8.75a2.71,2.71,0,0,0,0,.41,2.78,2.78,0,1,0,3.41-2.7Z"/><path class="cls-3" d="M93.81,34.37,53,1.69a8.33,8.33,0,0,0-10.06,0L2.32,34.15a5.69,5.69,0,0,0,0,9.17,8.3,8.3,0,0,0,10,0l1.55-1.24V84.93a8,8,0,0,0,8.26,7.72H74a8,8,0,0,0,8.26-7.72V42.29l1.55,1.25a8.32,8.32,0,0,0,10,0,5.69,5.69,0,0,0,0-9.17ZM78.21,84.93A4,4,0,0,1,74,88.65H22.18a4,4,0,0,1-4.26-3.72V38.88h0L46,16.41a3,3,0,0,1,3.82,0L78.21,39.09Zm13.1-44.52a4.48,4.48,0,0,1-5,0L52.34,13.28a7,7,0,0,0-8.82,0L13.92,37h0L9.87,40.19a4.36,4.36,0,0,1-5.06,0,1.71,1.71,0,0,1,0-2.91L45.4,4.81a4.53,4.53,0,0,1,5.06,0L91.31,37.49a1.71,1.71,0,0,1,0,2.92Z"/></g></g></svg>