<svg xmlns="http://www.w3.org/2000/svg" viewBox="0 0 34.4 53.79"><defs><style>.cls-1{fill:#fff;}.cls-2{fill:#00313c;}.cls-3{fill:#b4e6a5;}</style></defs><g id="Layer_2" data-name="Layer 2"><g id="Layer_1-2" data-name="Layer 1"><path class="cls-1" d="M31.33,38.73l-12,12a2.78,2.78,0,0,1-1,.67V2.26a3,3,0,0,1,2.4,2.92V39.47l5.69-5.69a3,3,0,0,1,4.2,0l.74.74A3,3,0,0,1,31.33,38.73Z"/><path class="cls-2" d="M32.89,33l-.74-.73a5.17,5.17,0,0,0-7.32,0L22.9,34.16v-29A5.19,5.19,0,0,0,17.72,0h-1A5.18,5.18,0,0,0,11.5,5.18v29L9.57,32.23a5.14,5.14,0,0,0-3.66-1.52h0a5.1,5.1,0,0,0-3.65,1.52L1.51,33a5.2,5.2,0,0,0,0,7.32l12,12a5.12,5.12,0,0,0,3.65,1.52h.09a5.09,5.09,0,0,0,3.65-1.52l12-12A5.2,5.2,0,0,0,32.89,33ZM3.07,38.73a3,3,0,0,1,0-4.21l.74-.74a2.94,2.94,0,0,1,2.09-.87h0a3,3,0,0,1,2.1.87l5.69,5.69V5.18a3,3,0,0,1,2.4-2.92V51.39a2.93,2.93,0,0,1-1-.68Zm28.26,0-12,12a2.78,2.78,0,0,1-1,.67V2.26a3,3,0,0,1,2.4,2.92V39.47l5.69-5.69a3,3,0,0,1,4.2,0l.74.74A3,3,0,0,1,31.33,38.73Z"/><path class="cls-3" d="M3.07,38.73a3,3,0,0,1,0-4.21l.74-.74a2.94,2.94,0,0,1,2.09-.87h0a3,3,0,0,1,2.1.87l5.69,5.69V5.18a3,3,0,0,1,2.4-2.92V51.39a2.93,2.93,0,0,1-1-.68Z"/></g></g></svg>