<svg xmlns="http://www.w3.org/2000/svg" viewBox="0 0 98 98"><defs><style>.cls-1{fill:#fff;}.cls-2{fill:#b4e6a5;}.cls-3{fill:#032530;}</style></defs><g id="Layer_2" data-name="Layer 2"><g id="Layer_1-2" data-name="Layer 1"><path class="cls-1" d="M10.06,43.42H42.45V94H10.06ZM87.94,94H55.55V43.42H87.94Z"/><polygon class="cls-2" points="42.45 48.83 36.58 43.42 33.63 43.42 42.45 51.54 42.45 48.83"/><polygon class="cls-2" points="55.55 77.08 73.68 94 76.61 94 55.55 74.34 55.55 77.08"/><polygon class="cls-2" points="42.45 88.53 10.06 57.25 10.06 60.03 42.45 91.31 42.45 88.53"/><polygon class="cls-2" points="42.45 74.95 10.06 44.61 10.06 47.35 42.45 77.69 42.45 74.95"/><polygon class="cls-2" points="42.45 62.11 22.43 43.42 19.49 43.42 42.45 64.85 42.45 62.11"/><polygon class="cls-2" points="55.55 63.61 87.94 93.44 87.94 90.72 55.55 60.89 55.55 63.61"/><polygon class="cls-2" points="10.06 72.94 31.88 94 34.76 94 10.06 70.16 10.06 72.94"/><polygon class="cls-2" points="55.55 50.96 87.94 80.77 87.94 78.06 55.55 48.25 55.55 50.96"/><polygon class="cls-2" points="55.55 89.96 59.86 94 62.78 94 55.55 87.22 55.55 89.96"/><polygon class="cls-2" points="10.06 85.95 18.41 94 21.29 94 10.06 83.17 10.06 85.95"/><polygon class="cls-2" points="74.69 43.42 87.94 56.21 87.94 53.43 77.57 43.42 74.69 43.42"/><polygon class="cls-2" points="62.18 43.42 87.94 67.64 87.94 64.89 65.1 43.42 62.18 43.42"/><path class="cls-2" d="M53.55,25.23h1V39.42H43.42V25.23H53.55ZM79.9,12.16C79.15,7.29,77.68,4.91,77,4,66,4.42,57.59,12.72,55.55,14.9v4.57c4.58-2.81,13.53-7.34,23.77-7.34Zm-28.35,4h-5.1v5.1h5.1ZM30.68,6.39A25.65,25.65,0,0,0,21,4c-.69.87-2.17,3.24-2.92,8.14a5.63,5.63,0,0,1,.58,0c10.24,0,19.19,4.53,23.77,7.34V14.9A39.12,39.12,0,0,0,30.68,6.39ZM4,25.23V39.42H39.42V25.23H4ZM46.45,94h5.1V43.42h-5.1ZM79.32,25.23H58.58V39.42H94V25.23Z"/><path class="cls-3" d="M95,21.23H84.1a11.83,11.83,0,0,0,.25-2.55C84.35,4.81,79.55.81,79,.4a2,2,0,0,0-1.2-.4C64.88,0,55.19,9.41,52.66,12.13H45.34a42.83,42.83,0,0,0-13-9.39A29.39,29.39,0,0,0,20.19,0,2,2,0,0,0,19,.4c-.54.41-5.35,4.41-5.35,18.28a11.78,11.78,0,0,0,.26,2.55H3a3,3,0,0,0-3,3V40.42a3,3,0,0,0,3,3H6.06V95a3,3,0,0,0,3,3H88.94a3,3,0,0,0,3-3V43.42H95a3,3,0,0,0,3-3V24.23A3,3,0,0,0,95,21.23ZM54.58,39.42H43.42V25.23H54.58ZM80.35,18.19v.49c0,2.55-.52,2.55-1,2.55H60.57c4.56-2.39,11.35-5.1,18.75-5.1C79.79,16.13,80.28,16.13,80.35,18.19ZM77,4c.71.89,2.18,3.27,2.93,8.14l-.58,0c-10.24,0-19.19,4.53-23.77,7.34V14.9C57.59,12.72,66,4.42,77,4ZM46.45,16.13h5.1v5.1h-5.1ZM21,4a25.65,25.65,0,0,1,9.66,2.37A39.12,39.12,0,0,1,42.45,14.9v4.57c-4.58-2.81-13.53-7.34-23.77-7.34a5.63,5.63,0,0,0-.58,0C18.85,7.26,20.33,4.89,21,4ZM17.64,18.68c0-.17,0-.33,0-.49.07-2.06.55-2.06,1-2.06,7.37,0,14.17,2.71,18.73,5.1H18.68C18.17,21.23,17.64,21.23,17.64,18.68ZM4,25.23H39.42V39.42H4Zm6.06,18.19H42.45V94H10.06ZM46.45,94V43.42h5.1V94Zm41.49,0H55.55V43.42H87.94ZM94,39.42H58.58V25.23H94Z"/></g></g></svg>