<svg xmlns="http://www.w3.org/2000/svg" viewBox="0 0 97.15 98.27"><defs><style>.cls-1{fill:#00313c;}.cls-2{fill:#b3e6a6;}.cls-3{fill:#fff;}.cls-4{fill:#b4e6a5;}</style></defs><g id="Layer_2" data-name="Layer 2"><g id="Layer_1-2" data-name="Layer 1"><path class="cls-1" d="M81.33,98.27a15.83,15.83,0,0,1-14.8-21.42L42.07,65.27a23.81,23.81,0,0,1-8,6.67A23.11,23.11,0,0,1,23.43,74.5,23.43,23.43,0,1,1,41.27,35.9L59,23.3a16,16,0,0,1-1.87-7.48,15.83,15.83,0,1,1,4.21,10.74L43.61,39.16a23.36,23.36,0,0,1,.62,22.69L68.42,73.3a15.82,15.82,0,1,1,12.91,25ZM81,89.71c-.79,0-4.82.12-6.35,2.46a11.76,11.76,0,0,0,13.37,0c-1.52-2.35-5.55-2.47-6.35-2.47H81Zm.34-15.84a6.93,6.93,0,0,1,4.35,12.32,9.67,9.67,0,0,1,5.23,3.14,11.57,11.57,0,0,0,2.24-6.88,11.82,11.82,0,1,0-23.64,0,11.69,11.69,0,0,0,2.22,6.88A9.64,9.64,0,0,1,77,86.21a6.95,6.95,0,0,1,4.36-12.34Zm0,4a2.93,2.93,0,1,0,2.93,2.93A2.93,2.93,0,0,0,81.33,77.87ZM22.91,61.39c-2.07,0-9,.36-11.32,5.06a19.37,19.37,0,0,0,23.69,0C33,61.75,26.06,61.38,24,61.38h-.61l-.16,0Zm.52-29.75a19.41,19.41,0,0,0-14.84,32,13.36,13.36,0,0,1,8.09-5.4,21.86,21.86,0,0,1,2.79-.56l0-.17a9.76,9.76,0,1,1,7.89,0v.17a23.49,23.49,0,0,1,2.8.57,13.28,13.28,0,0,1,8.07,5.4A19.41,19.41,0,0,0,23.43,31.64Zm0,11.15a5.75,5.75,0,1,0,5.75,5.75A5.76,5.76,0,0,0,23.43,42.79Zm49.16-19.7c-.79,0-4.82.12-6.35,2.46a11.76,11.76,0,0,0,13.37,0c-1.51-2.35-5.51-2.47-6.29-2.47h-.73Zm.34-15.84a6.93,6.93,0,0,1,4.35,12.32,9.59,9.59,0,0,1,5.23,3.14,11.63,11.63,0,0,0,2.24-6.89,11.82,11.82,0,1,0-21.42,6.89,9.55,9.55,0,0,1,5.24-3.12A6.95,6.95,0,0,1,72.93,7.25Zm0,4a2.93,2.93,0,1,0,2.93,2.93A2.93,2.93,0,0,0,72.93,11.25Z"/><path class="cls-2" d="M72.59,23.09c-.79,0-4.82.12-6.35,2.46a11.76,11.76,0,0,0,13.37,0c-1.51-2.35-5.51-2.47-6.29-2.47h-.73Z"/><path class="cls-2" d="M72.93,11.25a2.93,2.93,0,1,0,2.93,2.93A2.93,2.93,0,0,0,72.93,11.25Z"/><path class="cls-2" d="M81.33,73.87a6.93,6.93,0,0,1,4.35,12.32,9.67,9.67,0,0,1,5.23,3.14,11.57,11.57,0,0,0,2.24-6.88,11.82,11.82,0,1,0-23.64,0,11.69,11.69,0,0,0,2.22,6.88A9.64,9.64,0,0,1,77,86.21a6.95,6.95,0,0,1,4.36-12.34Z"/><path class="cls-3" d="M23.43,31.64a19.41,19.41,0,0,0-14.84,32,13.36,13.36,0,0,1,8.09-5.4,21.86,21.86,0,0,1,2.79-.56l0-.17a9.76,9.76,0,1,1,7.89,0v.17a23.49,23.49,0,0,1,2.8.57,13.28,13.28,0,0,1,8.07,5.4A19.41,19.41,0,0,0,23.43,31.64Z"/><path class="cls-4" d="M34.61,49.12,36,47.78l-1.34-1.35,1.13-1.13,1.34,1.34,1.34-1.34,1.14,1.13-1.35,1.35,1.35,1.34-1.14,1.13-1.34-1.34-1.34,1.34ZM30.94,34.3l-1.13,1.13,1.34,1.35-1.34,1.34,1.13,1.13,1.34-1.34,1.34,1.34,1.14-1.13-1.35-1.34,1.35-1.35L34.29,35c-.27-.18-.55-.33-.83-.5l-1.18,1.18Zm-9.53,2.48,1.35-1.35L21.62,34.3l-1.34,1.34L18.94,34.3l-1.13,1.13,1.34,1.35-1.34,1.34,1.13,1.13,1.34-1.34,1.1,1.1.58-.1.8-.79Zm18,20.65,1.34,1.35-1.34,1.34.77.77a20,20,0,0,0,1.57-3.38L40.54,56.3ZM31.22,56.3l-1.34,1.34-1-1a10.08,10.08,0,0,1-1.44.81h0l.22.23a24.1,24.1,0,0,1,2.56.53c.37.1.72.22,1.07.33l1.1-1.09Zm-19.48-11-1.13,1.13L12,47.78l-1.34,1.34,1.13,1.13,1.34-1.34.68.68c0-.35-.07-.7-.07-1.05a9.6,9.6,0,0,1,.46-3l-1.07,1.06Zm-1-7.18-.92-.91c-.38.37-.74.77-1.09,1.17l.87.87ZM16.54,56.3l-1.13,1.13.88.88.39-.12a21.86,21.86,0,0,1,2.79-.56l0-.17c-.32-.15-.62-.32-.93-.5l-.68.68ZM8.36,60.12,7,58.78l1.35-1.35L7.22,56.3,5.88,57.64l-1.06-1a19.31,19.31,0,0,0,1.64,3.9l.76.76Z"/><path class="cls-2" d="M22.91,61.39c-2.07,0-9,.36-11.32,5.06a19.37,19.37,0,0,0,23.69,0C33,61.75,26.06,61.38,24,61.38h-.61l-.16,0Z"/><path class="cls-3" d="M72.93,7.25a6.93,6.93,0,0,1,4.35,12.32,9.59,9.59,0,0,1,5.23,3.14,11.63,11.63,0,0,0,2.24-6.89,11.82,11.82,0,1,0-21.42,6.89,9.55,9.55,0,0,1,5.24-3.12A6.95,6.95,0,0,1,72.93,7.25Z"/><path class="cls-4" d="M78.66,18.06l4.28,4c-.14.22-.28.43-.43.64a9.58,9.58,0,0,0-5.11-3.1l-.08-.07A7.19,7.19,0,0,0,78.66,18.06ZM64.53,7.51l2.78,2.62a7.08,7.08,0,0,1,1.4-1.44L66.07,6.21A13.74,13.74,0,0,0,64.53,7.51Zm-3.42,8.31a12,12,0,0,0,.39,3l3,2.75a8.8,8.8,0,0,1,1.75-1.1l-5.13-4.72Zm17-10.58a11.63,11.63,0,0,0-4.1-1.18L84.63,14.27a11.76,11.76,0,0,0-1.29-4Z"/><path class="cls-3" d="M23.43,42.79a5.75,5.75,0,1,0,5.75,5.75A5.76,5.76,0,0,0,23.43,42.79Z"/><path class="cls-3" d="M81,89.71c-.79,0-4.82.12-6.35,2.46a11.76,11.76,0,0,0,13.37,0c-1.52-2.35-5.55-2.47-6.35-2.47H81Z"/><path class="cls-3" d="M81.33,77.87a2.93,2.93,0,1,0,2.93,2.93A2.93,2.93,0,0,0,81.33,77.87Z"/></g></g></svg>