<svg xmlns="http://www.w3.org/2000/svg" viewBox="0 0 96.13 92.65"><defs><style>.cls-1{fill:#fff;}.cls-2{fill:#b4e6a5;}.cls-3{fill:#032530;}</style></defs><g id="Layer_2" data-name="Layer 2"><g id="Layer_1-2" data-name="Layer 1"><path class="cls-1" d="M78.21,84.93A4,4,0,0,1,74,88.65H22.18a4,4,0,0,1-4.26-3.72V38.88h0L46,16.41a3,3,0,0,1,3.82,0L78.21,39.09Z"/><path class="cls-2" d="M21.37,75.9l1.35-1.34-1.35-1.34,1.13-1.14,1.35,1.35,1.34-1.35,1.13,1.14L25,74.56l1.34,1.34L25.19,77l-1.34-1.35L22.5,77Zm.15-11-1.34-1.34,1.34-1.34-1.13-1.14-1.34,1.35L17.92,61.3v4.52l1.13-1.13L20.39,66ZM20.1,44l1.35-1.35L22.79,44l1.13-1.14-1.34-1.34,1.34-1.34-1.13-1.14-1.34,1.35L20.1,39.08,19,40.22l1.35,1.34L19,42.9Zm12,0,1.35-1.35L34.79,44l1.13-1.14-1.34-1.34,1.34-1.34-1.13-1.14-1.34,1.35L32.1,39.08,31,40.22l1.35,1.34L31,42.9ZM51.3,33l1.35-1.35L54,33l1.13-1.14-1.34-1.34,1.34-1.34L54,28.08l-1.34,1.35L51.3,28.08l-1.13,1.14,1.35,1.34L50.17,31.9Zm-12,0,1.35-1.35L42,33l1.13-1.14-1.34-1.34,1.34-1.34L42,28.08l-1.34,1.35L39.3,28.08l-1.13,1.14,1.35,1.34L38.17,31.9Zm24.29,17-1.34,1.35L60.9,50.08l-1.13,1.14,1.35,1.34L59.77,53.9,60.9,55l1.35-1.35L63.59,55l1.13-1.14-1.34-1.34,1.34-1.34Zm-36,0-1.34,1.35L24.9,50.08l-1.13,1.14,1.35,1.34L23.77,53.9,24.9,55l1.35-1.35L27.59,55l1.13-1.14-1.34-1.34,1.34-1.34ZM33.52,64.9l-1.34-1.34,1.34-1.34-1.13-1.14-1.34,1.35L29.7,61.08l-1.13,1.14,1.35,1.34L28.57,64.9,29.7,66l1.35-1.35L32.39,66ZM66,83.08l-1.34,1.35L63.3,83.08l-1.13,1.14,1.35,1.34L62.17,86.9,63.3,88l1.35-1.35L66,88l1.13-1.14-1.34-1.34,1.34-1.34Zm7.2-11-1.34,1.35L70.5,72.08l-1.13,1.14,1.35,1.34L69.37,75.9,70.5,77l1.35-1.35L73.19,77l1.13-1.14L73,74.56l1.34-1.34ZM46.72,19.56,45.37,20.9,46.5,22l1.35-1.35L49.19,22l1.13-1.14L49,19.56l1.34-1.34-1.13-1.14-1.34,1.35L46.5,17.08l-1.13,1.14ZM42,83.08l-1.34,1.35L39.3,83.08l-1.13,1.14,1.35,1.34L38.17,86.9,39.3,88l1.35-1.35L42,88l1.13-1.14-1.34-1.34,1.34-1.34Zm12,0-1.34,1.35L51.3,83.08l-1.13,1.14,1.35,1.34L50.17,86.9,51.3,88l1.35-1.35L54,88l1.13-1.14-1.34-1.34,1.34-1.34Zm-24,0-1.34,1.35L27.3,83.08l-1.13,1.14,1.35,1.34L26.17,86.9,27.3,88l1.35-1.35L30,88l1.13-1.14-1.34-1.34,1.34-1.34Zm-12,0-.07.07v1.78a3.29,3.29,0,0,0,0,.44l1.15-1.15ZM68.1,44l1.35-1.35L70.79,44l1.13-1.14-1.34-1.34,1.34-1.34-1.13-1.14-1.34,1.35L68.1,39.08,67,40.22l1.35,1.34L67,42.9Zm9.6,22,.51-.51V61.59l-.51-.51-1.13,1.14,1.35,1.34L76.57,64.9Zm-1-12.14-1.34-1.34,1.34-1.34-1.13-1.14-1.34,1.35L72.9,50.08l-1.13,1.14,1.35,1.34L71.77,53.9,72.9,55l1.35-1.35L75.59,55ZM63.3,28.08l-1.13,1.14,1.35,1.34L62.17,31.9,63.3,33l1.35-1.35L66,33l1.13-1.14-1.34-1.34.78-.78-1.26-1-.65.66ZM58.5,77l1.35-1.35L61.19,77l1.13-1.14L61,74.56l1.34-1.34-1.13-1.14-1.34,1.35L58.5,72.08l-1.13,1.14,1.35,1.34L57.37,75.9Zm11-12.14-1.34-1.34,1.34-1.34-1.13-1.14-1.34,1.35L65.7,61.08l-1.13,1.14,1.35,1.34L64.57,64.9,65.7,66l1.35-1.35L68.39,66ZM27.3,33l1.35-1.35L30,33l1.13-1.14-1.34-1.34,1.34-1.34-.5-.5-4.24,3.39Zm50.76,52.8-.28-.28.4-.4a1.81,1.81,0,0,0,0-.23V83.3L78,83.08l-1.34,1.35L75.3,83.08l-1.13,1.14,1.35,1.34L74.17,86.9,75.3,88l1.35-1.35.58.58A3.39,3.39,0,0,0,78.06,85.84ZM19.12,86.9l-1.05-1.05a3.49,3.49,0,0,0,.76,1.35ZM58.79,39.08l-1.34,1.35L56.1,39.08,55,40.22l1.35,1.34L55,42.9,56.1,44l1.35-1.35L58.79,44l1.13-1.14-1.34-1.34,1.34-1.34Zm-12,0-1.34,1.35L44.1,39.08,43,40.22l1.35,1.34L43,42.9,44.1,44l1.35-1.35L46.79,44l1.13-1.14-1.34-1.34,1.34-1.34Zm-11,12.14,1.35,1.34L35.77,53.9,36.9,55l1.35-1.35L39.59,55l1.13-1.14-1.34-1.34,1.34-1.34-1.13-1.14-1.34,1.35L36.9,50.08Zm12,0,1.35,1.34L47.77,53.9,48.9,55l1.35-1.35L51.59,55l1.13-1.14-1.34-1.34,1.34-1.34-1.13-1.14-1.34,1.35L48.9,50.08ZM57.52,64.9l-1.34-1.34,1.34-1.34-1.13-1.14-1.34,1.35L53.7,61.08l-1.13,1.14,1.35,1.34L52.57,64.9,53.7,66l1.35-1.35L56.39,66ZM34.5,77l1.35-1.35L37.19,77l1.13-1.14L37,74.56l1.34-1.34-1.13-1.14-1.34,1.35L34.5,72.08l-1.13,1.14,1.35,1.34L33.37,75.9Zm12,0,1.35-1.35L49.19,77l1.13-1.14L49,74.56l1.34-1.34-1.13-1.14-1.34,1.35L46.5,72.08l-1.13,1.14,1.35,1.34L45.37,75.9Zm-1-12.14-1.34-1.34,1.34-1.34-1.13-1.14-1.34,1.35L41.7,61.08l-1.13,1.14,1.35,1.34L40.57,64.9,41.7,66l1.35-1.35L44.39,66Z"/><path class="cls-3" d="M93.81,34.37,53,1.69a8.33,8.33,0,0,0-10.06,0L2.32,34.15a5.69,5.69,0,0,0,0,9.17,8.3,8.3,0,0,0,10,0l1.55-1.24V84.93a8,8,0,0,0,8.26,7.72H74a8,8,0,0,0,8.26-7.72V42.29l1.55,1.25a8.32,8.32,0,0,0,10,0,5.69,5.69,0,0,0,0-9.17ZM78.21,84.93A4,4,0,0,1,74,88.65H22.18a4,4,0,0,1-4.26-3.72V38.88h0L46,16.41a3,3,0,0,1,3.82,0L78.21,39.09Zm13.1-44.52a4.48,4.48,0,0,1-5,0L52.34,13.28a7,7,0,0,0-8.82,0L13.92,37h0L9.87,40.19a4.36,4.36,0,0,1-5.06,0,1.71,1.71,0,0,1,0-2.91L45.4,4.81a4.53,4.53,0,0,1,5.06,0L91.31,37.49a1.71,1.71,0,0,1,0,2.92ZM67.91,79.92c-7.42,0-17.16-5.91-19.51-7.41-15.25-.2-27.12-8.13-27.12-18.21S33.46,36.1,49,36.1s27.71,8,27.71,18.2c0,6.77-5.51,12.82-14.3,16a75,75,0,0,0,6.72,6.07,2,2,0,0,1,.67,2.22A2,2,0,0,1,67.91,79.92ZM49,40.1c-12.86,0-23.72,6.5-23.72,14.2S36.14,68.51,49,68.51a2,2,0,0,1,1.11.34,60.83,60.83,0,0,0,10.73,5.51c-1.17-1.14-2.4-2.42-3.56-3.77a2,2,0,0,1,1-3.24c8.62-2.24,14.41-7.48,14.41-13C72.71,46.6,61.85,40.1,49,40.1Z"/><path class="cls-2" d="M49,40.1c-12.86,0-23.72,6.5-23.72,14.2S36.14,68.51,49,68.51a2,2,0,0,1,1.11.34,60.83,60.83,0,0,0,10.73,5.51c-1.17-1.14-2.4-2.42-3.56-3.77a2,2,0,0,1,1-3.24c8.62-2.24,14.41-7.48,14.41-13C72.71,46.6,61.85,40.1,49,40.1Zm42.31.31a4.48,4.48,0,0,1-5,0L52.34,13.28a7,7,0,0,0-8.82,0L13.92,37h0L9.87,40.19a4.36,4.36,0,0,1-5.06,0,1.71,1.71,0,0,1,0-2.91L45.4,4.81a4.53,4.53,0,0,1,5.06,0L91.31,37.49a1.71,1.71,0,0,1,0,2.92Z"/></g></g></svg>