<svg xmlns="http://www.w3.org/2000/svg" xmlns:xlink="http://www.w3.org/1999/xlink" version="1.1" class="visually-hidden">
	<!-- Email -->
  <symbol id="icon-email-outline" viewBox="0 0 100 100">
		<path d="M95.09,19.44,55.38,56.79a7.32,7.32,0,0,1-10.53,0L4.9,19.35m93.18,6.71v48a9.6,9.6,0,0,1-9.6,9.6H11.68a9.6,9.6,0,0,1-9.6-9.6v-48a9.6,9.6,0,0,1,9.6-9.6h76.8A10.05,10.05,0,0,1,98.08,26.06ZM30.14,43,5.65,81.11,30.14,43M94.9,81,70.13,43.52"/>
	</symbol>
	<symbol id="icon-email-fill" viewBox="0 0 100 100">
		<path d="M59.82,23.31a2,2,0,1,1-2.83,0A2,2,0,0,1,59.82,23.31Zm-36.77,0a2,2,0,1,0,2.83,0A2,2,0,0,0,23.05,23.31Zm42.42,8.48a2,2,0,1,0,2.83,0A2,2,0,0,0,65.47,31.79ZM57,40.28a2,2,0,1,0,2.83,0A2,2,0,0,0,57,40.28Zm17-17a2,2,0,1,0,2.83,0A2,2,0,0,0,74,23.31ZM48.5,31.79a2,2,0,1,0,2.83,0A2,2,0,0,0,48.5,31.79Zm-17,0a2,2,0,1,0,2.83,0A2,2,0,0,0,31.53,31.79ZM40,40.28a2,2,0,1,0,2.83,0A2,2,0,0,0,40,40.28Zm8.48,8.48a2,2,0,1,0,2.83,0A2,2,0,0,0,48.5,48.76ZM40,23.31a2,2,0,1,0,2.83,0A2,2,0,0,0,40,23.31Zm55-3.94a9.37,9.37,0,0,1,3,6.69v48a9.6,9.6,0,0,1-9.6,9.6H11.68a9.6,9.6,0,0,1-9.6-9.6v-48A9.58,9.58,0,0,1,4.76,19.4l.14,0,40,37.48a7.32,7.32,0,0,0,10.53,0L95.09,19.44M30.14,43"/>
	</symbol>
	<symbol id="icon-email-bg" viewBox="0 0 100 100">
		<path d="M4.9,19.35m90.19.09,3,6.62v48a9.6,9.6,0,0,1-9.6,9.6H11.68a9.6,9.6,0,0,1-9.6-9.6v-48a9.6,9.6,0,0,1,9.6-9.6h76.8A10.05,10.05,0,0,1,98.08,26.06ZM30.14,43"/>
	</symbol>
  
  <symbol id="icon-email" viewBox="0 0 100 100">
    <use xmlns:xlink="http://www.w3.org/1999/xlink" xlink:href="#icon-email-bg" fill="#ffffff" stroke="transparent"></use>
    <use xmlns:xlink="http://www.w3.org/1999/xlink" xlink:href="#icon-email-fill" fill="#b4e6a5" stroke="transparent"></use>
    <use xmlns:xlink="http://www.w3.org/1999/xlink" xlink:href="#icon-email-outline" stroke-width="3px" stroke="#00313c" fill="transparent"></use>
  </symbol>
  <!-- Pin -->
  <symbol id="icon-pin-outline" viewBox="0 0 100 100">
		<path d="M50,3.08A29.43,29.43,0,0,0,20.5,32.43,29.11,29.11,0,0,0,24.41,47L47.47,95.23a2.8,2.8,0,0,0,5.06,0L75.59,47A29.11,29.11,0,0,0,79.5,32.43,29.43,29.43,0,0,0,50,3.08Zm0,43.64A14.41,14.41,0,1,1,64.5,32.31,14.45,14.45,0,0,1,50,46.72ZM50,17.9V3.08m0,43.64V96.83"/>
	</symbol>
	<symbol id="icon-pin-fill" viewBox="0 0 100 100">
		<path d="M66.65,64.84,50.55,48.6c.09-.94-1-1.69,1.31-1.6l6.74,6.64,0,0,9.07,9.08ZM51.51,93.38l1,1,1-2.13-3-3v3.11l1,1Zm6.72-11L50.5,74.68v3.11l6.73,6.73Zm4.71-9.83L50.5,60.13v3.11L61.94,74.68Zm9.45-19.74L67.53,48l0,0-6.17-6.53a18.84,18.84,0,0,1-1.41,1.69L71.37,55ZM51.51,6,79,33.4a30.09,30.09,0,0,0,0-3.29l-2.68-2.44,0,0L58.58,10l0,0L52.24,3.46c-.66-.09-1.07.21-1.74.16V5l1,1ZM77,42.9l-.65-.66,0,0L64.53,30.86c0,.52.47,1.25.47,1.79s0,1,0,1.5l11.13,11C76.45,44.43,76.74,43.67,77,42.9Zm-27-25a14.41,14.41,0,1,0,0,28.82V96.83a2.78,2.78,0,0,1-2.53-1.6L24.41,47A29.11,29.11,0,0,1,20.5,32.43,29.43,29.43,0,0,1,50,3.08Z"/>
	</symbol>
	<symbol id="icon-pin-bg" viewBox="0 0 100 100">
		<path d="M50,96.83a2.78,2.78,0,0,0,2.53-1.6L75.59,47A29.11,29.11,0,0,0,79.5,32.43,29.43,29.43,0,0,0,50,3.08V17.9a14.41,14.41,0,1,1,0,28.82Z"/>
	</symbol>
  
  <symbol id="icon-pin" viewBox="0 0 100 100">
    <use xmlns:xlink="http://www.w3.org/1999/xlink" xlink:href="#icon-pin-bg" fill="#ffffff" stroke="transparent"></use>
    <use xmlns:xlink="http://www.w3.org/1999/xlink" xlink:href="#icon-pin-fill" fill="#b4e6a5" stroke="transparent"></use>
    <use xmlns:xlink="http://www.w3.org/1999/xlink" xlink:href="#icon-pin-outline" stroke-width="3px" stroke="#00313c" fill="transparent"></use>
  </symbol>

  <!-- Chat -->
  <symbol id="icon-chat-outline" viewBox="0 0 100 100">
	  <path d="M31.53,54.21a17.62,17.62,0,0,0-1.42,6.89c0,13.19,15,23.89,33.45,23.89a46,46,0,0,0,5.55-.34l15.31,8.64,0-13.51C92.07,75.4,97,68.66,97,61.1c0-12-12.39-21.93-28.52-23.63l-.43-.08a19.09,19.09,0,0,0,1.84-6.79c.73-13.17-15-23.89-33.45-23.89S3,17.41,3,30.6c0,7.57,4.93,14.31,12.61,18.68l0,13.51,15.31-8.63ZM68.05,37.39c-1.74,4-4.51,8.17-8,10.64-5.94,4.24-13.9,6.58-22.42,6.58a57.85,57.85,0,0,1-6.13-.4m-7.15-25h.12m11.42.13h-.19M46.29,29l.19,0"/>
	</symbol>
	<symbol id="icon-chat-fill" viewBox="0 0 100 100">
		<path d="M78.58,69.36l-1.42,1.42,1.42,1.42-1.19,1.2L76,72,74.54,73.4l-1.19-1.2,1.42-1.42-1.42-1.42,1.19-1.2L76,69.58l1.42-1.42Zm6.85,7.69L84,78.47l-1.42-1.42-1.2,1.2,1.42,1.42-1.42,1.42.57.57v-.9l2.15-1.22q1.23-.71,2.34-1.47ZM74.54,57.17,76,55.75l1.42,1.42L78.58,56l-1.42-1.43,1.42-1.42-1.19-1.19L76,53.36l-1.43-1.42-1.2,1.19,1.43,1.42L73.34,56ZM85.43,60,84,61.4,82.59,60l-1.2,1.2,1.42,1.42L81.39,64l1.2,1.2L84,63.79l1.42,1.43,1.2-1.2L85.2,62.6l1.43-1.42ZM77.16,87.71l1.42-1.42-1.19-1.2L76,86.52l-1.43-1.43-1,1,4.78,2.69ZM66.5,82.29l1.42-1.42,1.42,1.42,1.2-1.2-1.42-1.42,1.42-1.42-1.2-1.2-1.42,1.42L66.5,77.05l-1.2,1.2,1.42,1.42L65.3,81.09ZM94.11,68.16l-1.42,1.42-1.43-1.42-1.19,1.2,1.42,1.42L90.07,72.2l1.19,1.2L92.69,72l0,0a17,17,0,0,0,2.06-2.93ZM82.81,46.37l-1.42,1.42,1.2,1.2L84,47.57,85.43,49l1.2-1.2L85.2,46.37l.11-.11A35.07,35.07,0,0,0,82,44.38l-.56.57ZM66.5,65.22l1.42-1.43,1.42,1.43,1.2-1.2L69.12,62.6l1.42-1.42L69.34,60,67.92,61.4,66.5,60l-1.2,1.2,1.42,1.42L65.3,64Zm2.84-21.47-1.42,1.42L66.5,43.75,65.3,45l1.42,1.42L65.3,47.79,66.5,49l1.42-1.42L69.34,49l1.2-1.2-1.42-1.42L70.54,45ZM61.09,68.16l-1.42,1.42-1.43-1.42-1.19,1.2,1.42,1.42L57.05,72.2l1.19,1.2L59.67,72l1.42,1.42,1.2-1.2-1.43-1.42,1.43-1.42Zm0-16.22-1.42,1.42-1.43-1.42-1.19,1.19,1.42,1.42L57.05,56l1.19,1.19,1.43-1.42,1.42,1.42L62.29,56l-1.43-1.43,1.43-1.42ZM42,73.4,43.37,72l1.42,1.42L46,72.2l-1.42-1.42L46,69.36l-1.2-1.2-1.42,1.42L42,68.16l-1.2,1.2,1.42,1.42L40.75,72.2ZM36.75,60,35.33,61.4,33.9,60l-1.19,1.2,1.42,1.42L32.71,64l1.19,1.2,1.43-1.43,1.42,1.43L37.94,64,36.52,62.6l1.42-1.42Zm56.1-6.78-.16.16-1.43-1.42-1.19,1.19,1.42,1.42L90.07,56l1.19,1.19,1.43-1.42,1.42,1.42.6-.6A19.29,19.29,0,0,0,92.85,53.2ZM42.17,54.55,40.75,56,42,57.17l1.42-1.42,1.42,1.42L46,56l-1.42-1.43ZM53,77.05l-1.42,1.42L50.2,77.05,49,78.25l1.43,1.42L49,81.09l1.2,1.2,1.42-1.42,1.43,1.42,1.19-1.2-1.42-1.42,1.42-1.42Zm0-17.07L51.62,61.4,50.2,60,49,61.18l1.43,1.42L49,64l1.2,1.2,1.42-1.43,1.43,1.43L54.24,64,52.82,62.6l1.42-1.42ZM82.59,49,84,47.57,85.43,49l1.2-1.2-1.42-1.42L86.63,45l-1.2-1.2L84,45.17l-1.42-1.42L81.39,45l1.42,1.42-1.42,1.42Zm-8,8L76,55.61,77.39,57l1.19-1.2-1.42-1.42L78.58,53l-1.19-1.2L76,53.22l-1.43-1.43L73.35,53l1.42,1.42-1.42,1.42Zm.07-18.44-1.26,1,1.19,1.2L76,39.38l1.42,1.43,1.19-1.2M75.93,88.33l1.59,1.13.91-.36L77,87.68l1.42-1.43-1.2-1.19-1.42,1.42-1.42-1.42-1.2,1.19,1.42,1.43m9.49-8.14,2.53-1.29-1.2-1.2L84,78.47l-1.42-1.42-1.2,1.2,1.42,1.42-1.42,1.42,1.2,1.2L84,80.87m-14.82-4-1.42,1.42-1.43-1.42-1.19,1.2,1.42,1.42-1.42,1.42,1.19,1.2,1.43-1.42,1.42,1.42,1.2-1.2L69,79.49l1.43-1.42ZM91.42,57l1.43-1.42L94.27,57l1.19-1.19L94,54.39l1-1.16-.8-1.45L92.85,53.2l-1.43-1.42L90.22,53l1.43,1.42-1.43,1.43Zm-59.89-2.8-.64-.05L15.58,62.79l0-13.51C7.93,44.91,3,38.17,3,30.6,3,17.41,18,6.71,36.44,6.71S70.62,17.43,69.89,30.6a19.09,19.09,0,0,1-1.84,6.79M31.53,54.21a57.85,57.85,0,0,0,6.13.4c8.52,0,16.48-2.34,22.42-6.58,3.46-2.47,6.23-6.6,8-10.64"/>
	</symbol>
	<symbol id="icon-chat-bg" viewBox="0 0 100 100">
		<path d="M68.05,37.39c-1.74,4-4.51,8.17-8,10.64-5.94,4.24-13.9,6.58-22.42,6.58a57.85,57.85,0,0,1-6.13-.4,17.62,17.62,0,0,0-1.42,6.89c0,13.19,15,23.89,33.45,23.89a46,46,0,0,0,5.55-.34l15.31,8.64,0-13.51C92.07,75.4,97,68.66,97,61.1c0-12-12.39-21.93-28.52-23.63l-.43-.08"/>
	</symbol>
  
  <symbol id="icon-chat" viewBox="0 0 100 100">
    <use xmlns:xlink="http://www.w3.org/1999/xlink" xlink:href="#icon-chat-bg" fill="#ffffff" stroke="transparent"></use>
    <use xmlns:xlink="http://www.w3.org/1999/xlink" xlink:href="#icon-chat-fill" fill="#b4e6a5" stroke="transparent"></use>
    <use xmlns:xlink="http://www.w3.org/1999/xlink" xlink:href="#icon-chat-outline" stroke-width="3px" stroke="#00313c" fill="transparent"></use>
  </symbol>
</svg>