<svg xmlns="http://www.w3.org/2000/svg" xmlns:xlink="http://www.w3.org/1999/xlink" version="1.1" class="visually-hidden">
	<!-- Document -->
  <symbol id="icon-document" viewBox="0 0 400 400">
		<path  d="M294.7,318.08a5.68,5.68,0,0,1-5.65,5.65H111a5.76,5.76,0,0,1-5.65-5.65v-159h63.49a19.4,19.4,0,0,0,19.36-19.36V76.27h100.9a5.76,5.76,0,0,1,5.65,5.65ZM175.1,85.51v54.25a6.32,6.32,0,0,1-6.31,6.31H114.54Zm114-22.29H184a12,12,0,0,0-8.59,3.59L95.84,146.4A12,12,0,0,0,92.25,155V318.08a18.7,18.7,0,0,0,18.7,18.7h178.1a18.7,18.7,0,0,0,18.7-18.7V81.92a18.7,18.7,0,0,0-18.7-18.7M265.67,294.27a6.53,6.53,0,1,0,0-13H134.44a6.53,6.53,0,1,0,0,13H265.67m0-43.93a6.53,6.53,0,1,0,0-13.05H134.44a6.53,6.53,0,1,0,0,13.05H265.67m0-43.82a6.52,6.52,0,1,0,0-13H134.44a6.52,6.52,0,1,0,0,13H265.67m0-87.74a6.53,6.53,0,1,0,0-13h-49.9a6.53,6.53,0,1,0,0,13h49.9m0,43.93a6.53,6.53,0,1,0,0-13.05h-49.9a6.53,6.53,0,1,0,0,13.05h49.9"/>
	</symbol>
	<!-- Tick -->
  <symbol id="icon-tick" viewBox="0 0 400 400">
		<path d="M308.46,200A108.46,108.46,0,1,1,200,91.54,108.46,108.46,0,0,1,308.46,200m13,0A121.5,121.5,0,1,0,200,321.5,121.5,121.5,0,0,0,321.5,200M267,154.32a8.1,8.1,0,0,0-11.42,0l-75.25,75.24a2.17,2.17,0,0,1-3,0l-32.89-32.88A8.08,8.08,0,1,0,133,208.1l44.31,44.31a2.19,2.19,0,0,0,3,0L267,166a8.1,8.1,0,0,0,0-11.42Z" />
	</symbol>
	
	<!-- Mobile Phone -->
  <symbol id="icon-mobile" viewBox="0 0 400 400">
		<path d="M109.35,89.78V44.13a19.21,19.21,0,0,1,19.56-19.56H271.09a19.21,19.21,0,0,1,19.56,19.56V89.78Zm181.3,207.39H109.35V102.83h181.3Zm0,58.7a19.21,19.21,0,0,1-19.56,19.56H128.91a19.21,19.21,0,0,1-19.56-19.56V310.22h181.3ZM271.09,11.52H128.91a32.29,32.29,0,0,0-32.6,32.61V355.87a32.29,32.29,0,0,0,32.6,32.61H271.09a32.29,32.29,0,0,0,32.6-32.61V44.13a32.7,32.7,0,0,0-32.6-32.61M200,46.74a9.13,9.13,0,1,0,9.13,9.13A9.13,9.13,0,0,0,200,46.74m-28,300H228a6.54,6.54,0,0,0,6.53-6.52v-.66A6.54,6.54,0,0,0,228,333H172a6.53,6.53,0,0,0-6.52,6.52v.66c.65,3.26,3.26,6.52,6.52,6.52" />
	</symbol>

	<!-- Computer -->
  <symbol id="icon-computer" viewBox="0 0 400 400">
		<path d="M36.68,57.61H363.31a7.91,7.91,0,0,1,7.9,7.89V227.11H28.79V65.5a7.9,7.9,0,0,1,7.89-7.89M28.79,240.15H371.21v46.32a7.9,7.9,0,0,1-7.9,7.89H36.68a7.9,7.9,0,0,1-7.89-7.89V240.15ZM236.71,342.4H163.28v-35h73.43ZM363.32,44.58H36.68A21,21,0,0,0,15.75,65.5v221a21,21,0,0,0,20.93,20.92H150.25v35H118.34a6.51,6.51,0,1,0,0,13H281.66a6.51,6.51,0,1,0,0-13h-31.9v-35H363.32a21,21,0,0,0,20.93-20.92V65.5a21,21,0,0,0-20.93-20.92M200,278.57c7.72,0,11.32-3.59,11.32-11.32s-3.7-11.33-11.32-11.33-11.32,3.71-11.32,11.33,3.59,11.32,11.32,11.32" />
	</symbol>

	<!-- Lock -->
  <symbol id="icon-lock" viewBox="0 0 400 400">
		<path d="M316.36,327.35a44.88,44.88,0,0,1-44.57,44.57h-143a44.89,44.89,0,0,1-44.57-44.57V191.91a45.09,45.09,0,0,1,36-44.06,46.76,46.76,0,0,1,8.91-.83H271.47a42.52,42.52,0,0,1,21.59,5.61,45,45,0,0,1,23.11,39.28ZM249.82,134.42H150.49v-31.2a49.67,49.67,0,1,1,99.33,0ZM125,103.34a75.14,75.14,0,0,1,150.27,0h0v31.2H262.56V103.22a62.4,62.4,0,0,0-124.8,0v31.07H125Zm174.47,38.21A57,57,0,0,0,288,136.9V103.22a87.87,87.87,0,1,0-175.74,0v33.49a57.62,57.62,0,0,0-41.07,55.2V327.35a57.68,57.68,0,0,0,57.62,57.3H271.47a57.68,57.68,0,0,0,57.31-57.3V191.91a57.69,57.69,0,0,0-29.29-50.36m-91.69,114a6.36,6.36,0,0,0-3.5,6.36l3.63,34.9H192.39L196,262a6.36,6.36,0,0,0-3.5-6.36,17.64,17.64,0,1,1,15.28,0m-7.64-46.29A30.44,30.44,0,0,0,183,264.76l-4,37.82a6.35,6.35,0,0,0,6.36,7.07H215a6.35,6.35,0,0,0,6.36-7.07l-4-37.82a30.44,30.44,0,0,0-17.19-55.46" />
	</symbol>

	<!-- calendar -->
  <symbol id="icon-calendar" viewBox="0 0 400 400">
		<path d="M330.59,326.17a10.06,10.06,0,0,1-10,10H79.44a10.06,10.06,0,0,1-10-10V172.48H330.59ZM69.41,99.74A9.73,9.73,0,0,1,79.13,90h49.7v26.58a6.52,6.52,0,0,0,13,0V90H258.13v26.58a6.52,6.52,0,0,0,13,0V90h49.7a9.73,9.73,0,0,1,9.72,9.71v59.69H69.41ZM320.87,77h-49.7V57.27a6.52,6.52,0,0,0-13,0V77H141.87V57.27a6.52,6.52,0,0,0-13,0V77H79.13A22.79,22.79,0,0,0,56.37,99.74V326.17a23.1,23.1,0,0,0,23.07,23.08H320.56a23.1,23.1,0,0,0,23.07-23.08V99.74A22.79,22.79,0,0,0,320.87,77M128.75,211.86H142v13.21h-13.2Zm-6.52,26.25h26.24a6.53,6.53,0,0,0,6.53-6.52h0V205.34a6.52,6.52,0,0,0-6.52-6.52H122.23a6.51,6.51,0,0,0-6.52,6.51h0v26.25a6.51,6.51,0,0,0,6.51,6.52Zm71.17-26.25h13.2v13.21H193.4Zm-6.53,26.25h26.26a6.52,6.52,0,0,0,6.52-6.52h0V205.34a6.52,6.52,0,0,0-6.52-6.52H186.87a6.51,6.51,0,0,0-6.52,6.51h0v26.25a6.52,6.52,0,0,0,6.52,6.52Zm71.18-26.25h13.2v13.21h-13.2Zm-6.52,26.25h26.24a6.52,6.52,0,0,0,6.52-6.52h0V205.34a6.51,6.51,0,0,0-6.51-6.52H251.53a6.51,6.51,0,0,0-6.53,6.51h0v26.25a6.52,6.52,0,0,0,6.52,6.52ZM128.75,281.2H142v13.2h-13.2Zm-6.52,26.24h26.24a6.53,6.53,0,0,0,6.53-6.52h0V274.68a6.52,6.52,0,0,0-6.52-6.53H122.23a6.52,6.52,0,0,0-6.52,6.52h0v26.24a6.51,6.51,0,0,0,6.51,6.52ZM193.4,281.2h13.2v13.2H193.4Zm-6.53,26.24h26.26a6.52,6.52,0,0,0,6.52-6.52h0V274.68a6.52,6.52,0,0,0-6.52-6.53H186.87a6.52,6.52,0,0,0-6.52,6.52h0v26.24a6.52,6.52,0,0,0,6.52,6.52Zm71.18-26.24h13.2v13.2h-13.2Zm-6.52,26.24h26.24a6.52,6.52,0,0,0,6.52-6.52h0V274.68a6.51,6.51,0,0,0-6.51-6.53H251.53a6.53,6.53,0,0,0-6.53,6.52h0v26.24a6.52,6.52,0,0,0,6.52,6.52Z" />
	</symbol>

	<!-- phone -->
  <symbol id="icon-phone" viewBox="0 0 400 400">
		<path d="M130.29,90.61l35.82,35.82c3.65,3.65,4.58,4.84,4.58,8.45s-1.34,5.1-4.58,8.34c0,0-14,14-14.37,14.48A21.29,21.29,0,0,0,146.37,168c-.6,5.57.15,10.43,3.46,13.84l68.38,68.38c3.55,3.28,9.86,4.1,13.84,3.46a20.78,20.78,0,0,0,10-5.23c.51-.44,14.64-14.51,14.64-14.51,3.24-3.24,4.89-4.58,8.44-4.58s4.8.93,8.45,4.58l35.82,35.82c3.14,3.14,4.62,6.18,4.58,8.24-.11,5.11-.33,4.79-4.27,8.24L283.64,309c-3.51,3.07-10.51,5-18.52,5-26.31,0-73.94-21.35-115.9-63.3S86,161.19,86,134.88c0-8,1.8-15,4.88-18.52L113.7,90.3c2.67-3,5.4-4.31,8.15-4.31s5.76,2,8.44,4.62M121.74,73a23.87,23.87,0,0,0-17.8,8.65l-22.8,26.06C74.69,115.08,73,125.16,73,134.88c0,32.84,23.26,81.25,67.06,125.06S232.28,327,265.12,327c9.72,0,19.7-1.69,27.07-8.14l26.05-22.8c4.83-4.21,8.59-10.09,8.76-17.8.16-7.39-4-13.32-8.45-17.81l-35.82-35.82c-4.39-4.39-10.1-8.35-17.61-8.35-8,0-13.72,4.47-17.6,8.35,0,0-13.68,13.63-14,13.89-2.64,2.53-4.77,2.83-7.19,1.37L160,173.54c-2.31-2.3-.46-4.7,1-6.59.34-.45,14.3-14.47,14.3-14.47,3.88-3.88,8.45-9.61,8.45-17.6,0-7.51-4.06-13.32-8.45-17.71L139.45,81.35C135,76.86,129.13,72.84,121.74,73" />
	</symbol>

	<!-- clock -->
  <symbol id="icon-clock" viewBox="0 0 400 400">
		<path d="M200,304.27A104.27,104.27,0,1,1,304.27,200,104.39,104.39,0,0,1,200,304.27M200,82.7A117.3,117.3,0,1,0,317.3,200,117.43,117.43,0,0,0,200,82.7m42.76,134.46-36.24-20.92V128.32a6.52,6.52,0,0,0-13,0V200a6.52,6.52,0,0,0,3.26,5.64l39.51,22.81a6.38,6.38,0,0,0,3.25.88,6.52,6.52,0,0,0,3.26-12.17" />
	</symbol>
  <symbol id="icon-time" viewBox="0 0 400 400">
		<use xlink:href="#icon-clock"></use>
	</symbol>

	<!-- envelope/email -->
  <symbol id="icon-envelope" viewBox="0 0 400 400">
		<path d="M377.44,73.59l0,0,0,0,0,0,0,0a23.49,23.49,0,0,0-16.61-6.92H39.26a23.4,23.4,0,0,0-14.34,4.94,5.16,5.16,0,0,0-.61.43,23.3,23.3,0,0,0-8.56,18.14V309.91a23.41,23.41,0,0,0,8.65,18.22,23.67,23.67,0,0,0,14.86,5.29H360.74a23.49,23.49,0,0,0,23.51-23.51V90.09A23.31,23.31,0,0,0,377.44,73.59Zm-6,14.87a11,11,0,0,1,.12,1.63V309.91a10.51,10.51,0,0,1-.13,1.69L259.87,200.06Zm-10.68-9.18a10.14,10.14,0,0,1,1.74.15L211.66,230.31a14.83,14.83,0,0,1-20.89-.05l-151-151ZM28.46,309.91V90.09a11,11,0,0,1,.59-3.58L142.6,200.06,29.09,313.52A10.75,10.75,0,0,1,28.46,309.91Zm11.4,10.81L151.59,209.05l30.19,30.19c.67.67,1.37,1.3,2.09,1.89l0,0c.35.28.7.56,1.06.82l.36.26.76.53.84.52.31.19a27.61,27.61,0,0,0,33.4-4.16l30.26-30.26L362.43,320.58h0c-.25,0-.49.06-.74.08l-.17,0c-.25,0-.5,0-.76,0Z"/>
	</symbol>
  <symbol id="icon-email" viewBox="0 0 400 400">
		<use xlink:href="#icon-envelope"></use>
	</symbol>

	<!-- paper plane/send -->
  <symbol id="icon-paper-plane" viewBox="0 0 400 400">
		<path d="M390.44,58.74c.07-.23.11-.45.16-.68s.08-.28.1-.42a6,6,0,0,0,.05-.85c0-.09,0-.18,0-.27a6.73,6.73,0,0,0-.13-1.11c0-.11-.07-.22-.09-.33a7.75,7.75,0,0,0-.24-.78l0-.08a5.5,5.5,0,0,0-.36-.73,1.09,1.09,0,0,1-.08-.15,5.52,5.52,0,0,0-.56-.78.76.76,0,0,1-.08-.11,6.9,6.9,0,0,0-.72-.71l0,0-.06,0a5.79,5.79,0,0,0-.82-.58.41.41,0,0,1-.11-.07,8,8,0,0,0-.89-.42l-.11,0a5.26,5.26,0,0,0-1-.27h-.05a6.13,6.13,0,0,0-2.05,0h-.11c-.23,0-.45.08-.68.13L14.11,145.92a6.52,6.52,0,0,0-1.28,12.14l105.59,52.79V316.09a7.32,7.32,0,0,0,.1,1,.59.59,0,0,0,0,.13,6.85,6.85,0,0,0,.28,1l0,.07a6.31,6.31,0,0,0,.45,1l0,0a6.52,6.52,0,0,0,.59.82,1.34,1.34,0,0,1,.11.14l.12.14c.19.2.39.38.59.56l.12.09a7.52,7.52,0,0,0,.82.57l0,0a6.63,6.63,0,0,0,.94.43l.15.06a7.13,7.13,0,0,0,1,.26H124a5.74,5.74,0,0,0,.93.08h0a6.72,6.72,0,0,0,1.1-.1l.35-.08a5.94,5.94,0,0,0,.72-.21,2.78,2.78,0,0,0,.4-.16,6.14,6.14,0,0,0,.63-.31l.37-.22a7.51,7.51,0,0,0,.65-.5l.19-.14,47.17-43.43,52.38,69.84a6.54,6.54,0,0,0,5.22,2.61,4.53,4.53,0,0,0,.52,0,6.52,6.52,0,0,0,5.26-3.47L390,59.72c.08-.16.13-.33.21-.5S390.38,58.9,390.44,58.74ZM148.27,228.94h0c-.17.13-.33.27-.49.41l-.22.23-.22.23a3.92,3.92,0,0,0-.25.32l-.15.18c-.1.14-.19.29-.28.44a.33.33,0,0,0-.06.1,6.6,6.6,0,0,0-.54,1.18v0l-14.6,43.77V210.58l168.06-97.29ZM339.62,75,124.71,199.42,34.22,154.18ZM139.11,294.09,154.48,248l14.18,18.9Zm94,37-50.5-67.33h0l-21.31-28.41L364.8,79.78Z" />
	</symbol>
  <symbol id="icon-send" viewBox="0 0 400 400">
		<use xlink:href="#icon-paper-plane"></use>
	</symbol>

	<!-- Rocket/launch -->
  <symbol id="icon-rocket" viewBox="0 0 400 400">
		<path d="M227.66,108.21a28.33,28.33,0,1,0-28.33,28.33A28.36,28.36,0,0,0,227.66,108.21ZM199.33,123.5a15.29,15.29,0,1,1,15.29-15.29A15.3,15.3,0,0,1,199.33,123.5Zm162.5,258.81c-1.16-11.09-5.64-19.64-13.32-25.41-8.5-6.39-19-7.74-26.3-7.74h-.86c-.91-11.65-5.13-21.46-12.57-29.17-9.75-10.1-22.95-14.31-32.38-16.07l.2-.22a70.69,70.69,0,0,0-16.79-106.29,235,235,0,0,0-5.6-103.27,154.77,154.77,0,0,0-29-55.77L204.39,12.79a6.72,6.72,0,0,0-10.12,0L173.46,38.38a155.08,155.08,0,0,0-29,55.77,235.28,235.28,0,0,0-5.6,103.26,70.7,70.7,0,0,0-16.79,106.3l.39.45c-9.33,1.88-21.87,6.15-31.23,15.84-7.44,7.71-11.66,17.52-12.57,29.17h-.86c-7.3,0-17.79,1.35-26.3,7.74-7.68,5.77-12.16,14.32-13.32,25.41A6.53,6.53,0,0,0,44,389.47a5.07,5.07,0,0,0,.68,0,6.51,6.51,0,0,0,6.48-5.84c.78-7.42,3.44-12.76,8.14-16.32,5.63-4.25,13.14-5.15,18.45-5.15a39.56,39.56,0,0,1,6.16.43,7.21,7.21,0,0,0,1.14.1A6.52,6.52,0,0,0,91.54,356c-.39-11.21,2.64-20.25,9-26.88,9.86-10.25,25.53-12.65,31.93-13.21l4.62,5.39a6.51,6.51,0,0,0,4.95,2.28,6.69,6.69,0,0,0,1.41-.15,6.52,6.52,0,0,0,4.87-4.61l15.72-56.13h18.86c.56,8.87,1.33,17.74,2.27,25.75,3.17,26.93,6.47,35.14,14.14,35.14s11-8.21,14.15-35.14c.94-8,1.71-16.88,2.26-25.75h18.85l15.73,56.13a6.52,6.52,0,0,0,4.87,4.61,6.69,6.69,0,0,0,1.41.15,6.51,6.51,0,0,0,4.95-2.28l4.71-5.5c5.29.32,22.45,2.21,33.14,13.28,6.4,6.63,9.45,15.69,9.06,26.92a6.54,6.54,0,0,0,6.52,6.75,7,7,0,0,0,1.12-.1,41.8,41.8,0,0,1,6.17-.42c5.31,0,12.82.89,18.45,5.14,4.7,3.56,7.36,8.9,8.14,16.32a6.5,6.5,0,0,0,6.48,5.84,5.07,5.07,0,0,0,.68,0A6.53,6.53,0,0,0,361.83,382.31ZM256.61,213.1c.15-.62.29-1.25.43-1.87a57.69,57.69,0,0,1,9.65,84l-7.11,8.3L246.28,256Zm-53.54,43.17c-.77,15-2.2,29.3-3.74,39.64A460.58,460.58,0,0,1,195,234.2c0-13.48.88-22.25,2.6-26a4.57,4.57,0,0,1,.41-.8,9.54,9.54,0,0,1,1.32,0,7.17,7.17,0,0,1,1.37.06c0,.06.21.44.37.78,1.72,3.8,2.59,12.57,2.59,26,0,7-.2,14.12-.54,21.13a5.55,5.55,0,0,0-.06.82S203.07,256.23,203.07,256.27Zm10.08-53.09c-2.59-6.16-6.85-8.91-13.82-8.91s-11.23,2.75-13.81,8.91c-2.49,5.93-3.56,15.2-3.56,31,0,4.84.11,10.06.31,15.43h-18l-11.67-49.52A222,222,0,0,1,157,97.71a141.68,141.68,0,0,1,19-40.89,56.07,56.07,0,0,0,23.16,5,56,56,0,0,0,23.41-5.13,142.06,142.06,0,0,1,19.09,41,222.06,222.06,0,0,1,4.43,102.17l-11.73,49.75h-18c.2-5.37.31-10.59.31-15.43C216.7,218.38,215.64,209.11,213.15,203.18Zm-14-154.39A43.1,43.1,0,0,1,184.06,46l15.27-18.79,15.2,18.68A42.81,42.81,0,0,1,199.16,48.79ZM132,295.23a57.68,57.68,0,0,1,9.65-84c.15.63.29,1.25.44,1.88L152.39,256l-13.31,47.51Zm-4.73,39.09a6.53,6.53,0,0,1-4,8.3,9.79,9.79,0,0,0-6.76,8.85,6.52,6.52,0,1,1-13,0c0-.64.17-15.85,15.53-21.17a6.59,6.59,0,0,1,2.14-.36A6.52,6.52,0,0,1,127.24,334.32Zm152.87,20.34a28.82,28.82,0,0,1,.46,26.42,6.52,6.52,0,0,1-11.69-5.78,15.71,15.71,0,0,0-27.24-15.54,6.52,6.52,0,0,1-10.94-7.08,28.75,28.75,0,0,1,49.41,2Z" />
	</symbol>
  <symbol id="icon-launch" viewBox="0 0 400 400">
		<use xlink:href="#icon-rocket"></use>
	</symbol>
	
	<!-- Tag/offer -->
  <symbol id="icon-tag" viewBox="0 0 400 400">
		<path d="M320.54,226,226,320.55a22.11,22.11,0,0,1-31.22,0L83.58,209.36A21.93,21.93,0,0,1,77.12,194l-.48-53.66a22.22,22.22,0,0,1,6.47-15.81L87.64,120a6.48,6.48,0,1,1,9.16,9.16l-4.54,4.54a9.12,9.12,0,0,0-2.66,6.52l.47,53.66a9.06,9.06,0,0,0,2.67,6.37L203.92,311.39a9.14,9.14,0,0,0,12.9,0l94.56-94.56a9.14,9.14,0,0,0,0-12.91L200.2,92.74a9.06,9.06,0,0,0-6.37-2.67l-53.65-.48a9.17,9.17,0,0,0-6.53,2.68l-4.53,4.53A6.48,6.48,0,1,1,120,87.64l4.54-4.53a22.22,22.22,0,0,1,15.8-6.47l53.65.48a22,22,0,0,1,15.42,6.46L320.54,194.76a22.1,22.1,0,0,1,0,31.22m-185-90.49a13.07,13.07,0,1,1,0,18.48,13.09,13.09,0,0,1,0-18.48m27.63,27.64a26,26,0,1,0-36.79,0,26,26,0,0,0,36.79,0m-27.63-27.64a6.45,6.45,0,0,0,0-9.15L84.06,74.9a6.48,6.48,0,0,0-9.16,9.16l51.43,51.43a6.48,6.48,0,0,0,9.16,0" />
	</symbol>
  <symbol id="icon-offer" viewBox="0 0 400 400">
		<use xlink:href="#icon-tag"></use>
	</symbol>
	
	<!-- sold -->
  <symbol id="icon-sold" viewBox="0 0 400 400">
		<path d="M82.91,341.23a6.52,6.52,0,1,1,0-13H301.67a33.05,33.05,0,0,0,33-33v-81.7a6.53,6.53,0,0,1,13.05,0v81.7a46.12,46.12,0,0,1-46.07,46.06Zm-2-21.42a26.67,26.67,0,0,1-26.64-26.64v-81.7A26.67,26.67,0,0,1,80.9,184.83H299.68a26.67,26.67,0,0,1,26.64,26.64v81.7a26.67,26.67,0,0,1-26.64,26.64Zm0-121.94a13.61,13.61,0,0,0-13.6,13.6v81.7a13.61,13.61,0,0,0,13.6,13.6H299.68a13.61,13.61,0,0,0,13.59-13.6v-81.7a13.61,13.61,0,0,0-13.59-13.6Zm122.91,84a6.53,6.53,0,0,1-6.52-6.52v-44a6.52,6.52,0,1,1,13,0v37.52h18.09a6.52,6.52,0,1,1,0,13Zm-95.28,0a24.58,24.58,0,0,1-7.82-1.25,21,21,0,0,1-6.63-3.57,17.46,17.46,0,0,1-4.77-5.86A6.52,6.52,0,1,1,101,265.42a4.58,4.58,0,0,0,1.25,1.48,8,8,0,0,0,2.58,1.37,11.75,11.75,0,0,0,3.7.58,12.49,12.49,0,0,0,3.84-.6,10.15,10.15,0,0,0,3-1.49A6.26,6.26,0,0,0,117,265a3,3,0,0,0,.5-1.49,2.5,2.5,0,0,0-.27-1.25,4.48,4.48,0,0,0-1.26-1.51,8.45,8.45,0,0,0-2.6-1.37,11.87,11.87,0,0,0-3.68-.56,23.08,23.08,0,0,1-7.28-1.17,19.73,19.73,0,0,1-6.22-3.36,16.5,16.5,0,0,1-4.48-5.5,14.65,14.65,0,0,1-1.52-7.3,15.11,15.11,0,0,1,2.18-7.08,18,18,0,0,1,4.76-5.22,21.62,21.62,0,0,1,6.31-3.22,23.82,23.82,0,0,1,7.31-1.13A22.77,22.77,0,0,1,118,226a20.12,20.12,0,0,1,6.21,3.35,6.52,6.52,0,1,1-8.19,10.15,7,7,0,0,0-2.14-1.13,10.11,10.11,0,0,0-3.16-.48,10.94,10.94,0,0,0-3.3.5,8.29,8.29,0,0,0-2.52,1.27,5,5,0,0,0-1.35,1.43,2.39,2.39,0,0,0-.36,1.06,1.53,1.53,0,0,0,.19.86,3.41,3.41,0,0,0,1,1.15,7.19,7.19,0,0,0,2.15,1.14,10.11,10.11,0,0,0,3.16.48,24.75,24.75,0,0,1,7.81,1.24,21.44,21.44,0,0,1,6.65,3.59,17.45,17.45,0,0,1,4.75,5.84,15.39,15.39,0,0,1,1.62,7.72,16.05,16.05,0,0,1-2.31,7.52,19.27,19.27,0,0,1-5.09,5.56,23.35,23.35,0,0,1-6.76,3.45A25.64,25.64,0,0,1,108.53,281.89Zm140.31,0a6.53,6.53,0,0,1-6.51-6.52v-44a6.53,6.53,0,0,1,6.51-6.52h14.57a28.54,28.54,0,0,1,0,57.08Zm14.57-13a15.5,15.5,0,0,0,0-31h-8.05v31Zm-101,13a28.54,28.54,0,1,1,28.53-28.54A28.58,28.58,0,0,1,162.38,281.89Zm0-44a15.5,15.5,0,1,0,15.5,15.5A15.53,15.53,0,0,0,162.38,237.85Zm105.3-55.22a6.56,6.56,0,0,1-5.65-3.25l-44.92-77.81a6.52,6.52,0,0,1,2.39-8.9,6.39,6.39,0,0,1,3.25-.88,6.55,6.55,0,0,1,5.65,3.26l44.92,77.8a6.55,6.55,0,0,1-2.38,8.91A6.66,6.66,0,0,1,267.68,182.63Zm-154.78,0a6.66,6.66,0,0,1-3.24-.86,6.55,6.55,0,0,1-2.4-8.92L152.19,95a6.52,6.52,0,0,1,11.3,6.52l-44.93,77.82A6.56,6.56,0,0,1,112.9,182.63Zm77.39-71.26a26.3,26.3,0,1,1,26.3-26.3A26.33,26.33,0,0,1,190.29,111.37Zm0-39.56a13.26,13.26,0,1,0,13.26,13.26A13.27,13.27,0,0,0,190.29,71.81Z" />
	</symbol>

	<!-- search -->
  <symbol id="icon-search" viewBox="0 0 400 400">
		<path d="M307.92,328.66a20.65,20.65,0,0,1-14.68-6.07l-65.52-65.53a101.18,101.18,0,1,1,29.35-29.35l65.52,65.53a20.75,20.75,0,0,1-14.67,35.42Zm-5.46-15.29a7.72,7.72,0,1,0,10.91-10.92l-63-63-10.92,10.91Zm-130-229a88.07,88.07,0,1,0,88.08,88.06A88.17,88.17,0,0,0,172.44,84.37ZM111.85,179a6.52,6.52,0,0,1-6.51-6.51,67.19,67.19,0,0,1,67.11-67.13,6.52,6.52,0,0,1,0,13,54.15,54.15,0,0,0-54.09,54.1A6.52,6.52,0,0,1,111.85,179Z" />
	</symbol>

	<!-- tick-list -->
  <symbol id="icon-tick-list" viewBox="0 0 400 400">
		<path d="M269.7,122.73a6.3,6.3,0,1,1,0,12.59H195.81a6.3,6.3,0,0,1,0-12.59H269.7M160.55,253.93a11.62,11.62,0,0,1,11.6,11.6v43.24a11.61,11.61,0,0,1-11.6,11.59H113.73a11.6,11.6,0,0,1-11.59-11.59V265.53a11.61,11.61,0,0,1,11.59-11.6h46.82m-.89,12.5h-45v41.45h45.05ZM79.87,76.18A26.2,26.2,0,0,1,106,50H294a26.22,26.22,0,0,1,26.18,26.18V323.83A26.21,26.21,0,0,1,294,350H106a26.19,26.19,0,0,1-26.17-26.17V76.18M294,337.52a13.7,13.7,0,0,0,13.69-13.69V76.18A13.7,13.7,0,0,0,294,62.48H106a13.71,13.71,0,0,0-13.69,13.7V323.83A13.7,13.7,0,0,0,106,337.52H294M269.7,193.71H195.81a6.3,6.3,0,0,0,0,12.59H269.7a6.3,6.3,0,1,0,0-12.59M160.55,167a11.61,11.61,0,0,1,11.6,11.59v43.24a11.61,11.61,0,0,1-11.6,11.59H113.73a11.6,11.6,0,0,1-11.59-11.59V178.6A11.6,11.6,0,0,1,113.73,167h46.82m-.89,12.48h-45V221h45.05Zm.89-99.4a11.61,11.61,0,0,1,11.6,11.59v43.24a11.61,11.61,0,0,1-11.6,11.59H113.73a11.6,11.6,0,0,1-11.59-11.59V91.68a11.6,11.6,0,0,1,11.59-11.59h46.82m-.89,12.48h-45V134h45.05Zm110,172.12H195.81a6.3,6.3,0,0,0,0,12.59H269.7a6.3,6.3,0,1,0,0-12.59M131,125.86a5.66,5.66,0,0,0,4,1.71,1.46,1.46,0,0,0,.29,0,5.65,5.65,0,0,0,4.13-2.11l14.11-17.65a5.66,5.66,0,1,0-8.84-7.07l-10.12,12.65L129.39,108a5.66,5.66,0,0,0-8.1,7.9Zm0,86.93a5.69,5.69,0,0,0,4,1.7h.29a5.62,5.62,0,0,0,4.13-2.12l14.11-17.65a5.66,5.66,0,1,0-8.84-7.06l-10.12,12.64L129.39,195a5.66,5.66,0,1,0-8.1,7.9Zm0,86.92a5.65,5.65,0,0,0,4,1.7h.29a5.59,5.59,0,0,0,4.13-2.12l14.11-17.64a5.66,5.66,0,1,0-8.84-7.07l-10.12,12.65-5.22-5.34a5.66,5.66,0,0,0-8.1,7.91Z" />
	</symbol>

	<!-- chat -->
  <symbol id="icon-chat" viewBox="0 0 400 400">
		<path d="M158.12,92.3C88.83,92.3,32.47,140.62,32.47,200c0,21.36,7.3,42,21.11,59.74A6,6,0,0,1,54.65,265L41.86,313.49l41.59-23.4a6,6,0,0,1,5.86,0,140.45,140.45,0,0,0,68.81,17.61c69.28,0,125.65-48.32,125.65-107.7S227.4,92.3,158.12,92.3M32.47,331.63a6,6,0,0,1-5.79-7.51l15.65-59.4C28,245.41,20.5,223.09,20.5,200c0-66,61.74-119.67,137.62-119.67S295.73,134,295.73,200,234,319.66,158.12,319.66a153.16,153.16,0,0,1-71.71-17.5l-51,28.7a6.06,6.06,0,0,1-2.94.77M367.8,307.7a6,6,0,0,1-2.92-.77l-48.58-27.2A142.93,142.93,0,0,1,279.72,293a6,6,0,0,1-2.53-11.7,130.23,130.23,0,0,0,36.23-13.6,6,6,0,0,1,5.85,0l39.14,21.91-12.05-45.46a6,6,0,0,1,1.09-5.21c13.13-16.8,20.08-36.37,20.08-56.57,0-56.25-53.69-102-119.66-102A141.42,141.42,0,0,0,226.55,82a6,6,0,1,1-1.81-11.83,153.57,153.57,0,0,1,23.13-1.75c72.57,0,131.63,51.13,131.63,114,0,22-7.19,43.16-20.82,61.54l14.91,56.3a6,6,0,0,1-2.13,6.26,6,6,0,0,1-3.66,1.25M241.88,200a18,18,0,1,1-17.95-18,17.93,17.93,0,0,1,17.95,18m-65.81,0a18,18,0,1,1-18-18,17.93,17.93,0,0,1,18,18m-65.82,0a18,18,0,1,1-18-18,17.93,17.93,0,0,1,18,18" />
	</symbol>

	<!-- documents  -->
  <symbol id="icon-documents" viewBox="0 0 400 400">
		<path d="M137.42,187.31h36a6.51,6.51,0,0,0,0-13h-36a6.51,6.51,0,0,0,0,13Z"/><path d="M130.92,207.41a6.5,6.5,0,0,0,6.5,6.5h83.7a6.51,6.51,0,0,0,0-13h-83.7A6.5,6.5,0,0,0,130.92,207.41Z"/><path d="M38.34,112.35l26.5-7.22a11.32,11.32,0,0,0,7.94-13.87l-6.54-24L191.38,33.18a4.81,4.81,0,0,1,5.88,3.36l2.06,7.55a6.5,6.5,0,1,0,12.54-3.42l-2-7.54A17.83,17.83,0,0,0,188,20.63L58.56,55.87a17.72,17.72,0,0,0-10.78,8.34L27,100.49A17.78,17.78,0,0,0,25.31,114L79.14,311.65a6.52,6.52,0,0,0,6.28,4.8,6.29,6.29,0,0,0,1.71-.23,6.51,6.51,0,0,0,4.57-8Zm17.09-35.3,4.35,16-16,4.35Z"/><path d="M281.34,110H147.22a17.67,17.67,0,0,0-12.58,5.22l-29.55,29.55a17.71,17.71,0,0,0-5.22,12.59V362.19A17.83,17.83,0,0,0,117.67,380H281.34a17.83,17.83,0,0,0,17.81-17.81V127.8A17.83,17.83,0,0,0,281.34,110Zm-142.7,19.62v16.55H122.08ZM286.13,362.19a4.8,4.8,0,0,1-4.79,4.8H117.67a4.8,4.8,0,0,1-4.79-4.8v-203h27.46a11.32,11.32,0,0,0,11.31-11.31V123H281.34a4.8,4.8,0,0,1,4.79,4.79Z"/><path d="M261.59,200.9H244.84a6.51,6.51,0,1,0,0,13h16.75a6.51,6.51,0,0,0,0-13Z"/><path d="M261.59,174.29h-63a6.51,6.51,0,0,0,0,13h63a6.51,6.51,0,0,0,0-13Z"/><path d="M372.21,81.76A17.72,17.72,0,0,0,360.8,74.3L229,49.6a17.64,17.64,0,0,0-2.7-.27l-.7,0a17.78,17.78,0,0,0-9.94,3.11L181.16,76a17.66,17.66,0,0,0-7.45,11.42l-1.83,9.75a6.51,6.51,0,0,0,12.79,2.39l1.49-7.95,27,5.06a11.66,11.66,0,0,0,2.11.19,11.29,11.29,0,0,0,11.09-9.23l4.58-24.43L358.4,87.1a4.8,4.8,0,0,1,3.07,2,4.76,4.76,0,0,1,.75,3.59L319.05,323.07a4.79,4.79,0,0,1-5.59,3.84,6.5,6.5,0,1,0-2.4,12.78,17.79,17.79,0,0,0,20.78-14.22L375,95.09A17.63,17.63,0,0,0,372.21,81.76ZM213.88,83.57l-16.28-3L216.93,67.3Z"/><path d="M218.41,280.7h-81a6.51,6.51,0,1,0,0,13h81a6.51,6.51,0,0,0,0-13Z"/><path d="M261.59,227.5H137.42a6.51,6.51,0,1,0,0,13H261.59a6.51,6.51,0,0,0,0-13Z"/><path d="M137.41,267.11h21.17a6.51,6.51,0,0,0,0-13H137.41a6.51,6.51,0,0,0,0,13Z"/><path d="M261.59,254.1H182.3a6.51,6.51,0,0,0,0,13h79.29a6.51,6.51,0,0,0,0-13Z"/>
	</symbol>

	<!-- in progress -->
  <symbol id="icon-in-progress" viewBox="0 0 400 400">
		<path d="M200,317.44A117.37,117.37,0,0,1,145.39,96.21a115.78,115.78,0,0,1,54.54-13.65,118.26,118.26,0,0,1,68.54,22.22,116.44,116.44,0,0,1,43.3,59.89l2.65,8.39,10.25-31.71a6.48,6.48,0,0,1,6.18-4.5,5.58,5.58,0,0,1,.7,0,6.16,6.16,0,0,1,1.28.27,6.5,6.5,0,0,1,3.81,3.24,6.37,6.37,0,0,1,.4,4.95l-15.35,47.52,0,0c-.07.14-.12.26-.17.38l-.09.26,0,.09-.14.25a5.08,5.08,0,0,1-.35.59c-.15.22-.24.36-.34.49s-.3.34-.45.5-.29.29-.42.4a6.25,6.25,0,0,1-.54.4,5.33,5.33,0,0,1-.48.31,4.89,4.89,0,0,1-.57.27l-.5-.79.37.85a4.07,4.07,0,0,1-.44.18,6,6,0,0,1-.64.16,4.28,4.28,0,0,1-.57.11c-.23,0-.45,0-.68,0H315c-.21,0-.42,0-.64-.08s-.44-.08-.64-.14l-.29-.07-.09,0-.28-.12-.37-.13-.06,0-45.34-20.89A6.5,6.5,0,0,1,270,163.51a5.48,5.48,0,0,1,.7,0,6.21,6.21,0,0,1,2,.56L302,177.56l-1.7-5.9A104.83,104.83,0,0,0,211.38,96.4,106.76,106.76,0,0,0,200,95.78a104.3,104.3,0,0,0-11.26,208,107.91,107.91,0,0,0,11.63.64,102,102,0,0,0,44.83-10.24,6.41,6.41,0,0,1,2.85-.66,6.54,6.54,0,0,1,2.83,12.44A118.5,118.5,0,0,1,200,317.44Zm27-84.73a7.59,7.59,0,0,1-5.17-2L195,205.72a3.08,3.08,0,0,0-.24-.25c-.11-.11-.22-.24-.33-.37l-.44-.53-.19-.22-.05-.07-.3-.55-.15-.27a3.81,3.81,0,0,1-.23-.41l0-.09,0-.1c0-.12-.07-.25-.12-.37l-.11-.31a5.52,5.52,0,0,1-.16-.54l0-.1v-.1c0-.09,0-.21,0-.34a9.42,9.42,0,0,1-.11-1V136.92a7.6,7.6,0,1,1,15.19,0v59.79l24.51,22.83a7.63,7.63,0,0,1,.38,10.75A7.53,7.53,0,0,1,227,232.71Z" />
	</symbol>
	
</svg>