<svg xmlns="http://www.w3.org/2000/svg">

  <symbol id="logo-iam">
    <path d="M133.05,8.54a2.8,2.8,0,0,0,.86-.13,3,3,0,1,0-.86.13ZM134,121.6a3,3,0,1,0-1.69,5.76,3.06,3.06,0,0,0,.85.12,3,3,0,0,0,.84-5.88ZM182.42,15.34a3,3,0,1,0,3.86-4.59,3,3,0,0,0-.63-.41h0a3,3,0,0,0-3.23,5Zm-15.29-7a3.06,3.06,0,0,0,.85.12,3,3,0,1,0-.85-.12ZM117,15.83a3,3,0,1,0-3-3,3.07,3.07,0,0,0,.48,1.62A3,3,0,0,0,117,15.88Zm1.68,98.76a3,3,0,1,0,1.39,2.54,3,3,0,0,0-1.39-2.54Zm80.7-11.32a3,3,0,0,0-4.23.31h0a3,3,0,1,0,4.31-.31Zm-16.91,11.3a1.9,1.9,0,1,1,0,.05Zm14.9-87.28a3,3,0,0,0,2.26-5h0a3,3,0,1,0-2.26,5ZM150.6,124a3,3,0,1,0,3,3A3,3,0,0,0,150.6,124ZM150.52,6a3,3,0,1,0-3-3A3,3,0,0,0,150.52,6Zm16.69,115.6a3,3,0,0,0,.85,5.88,2.7,2.7,0,0,0,.85-.13,3,3,0,0,0-1.49-5.81l-.21.06ZM65,0a65,65,0,1,0,65,65A65,65,0,0,0,65,0ZM27.74,77.6a1.25,1.25,0,0,1-1.25,1.25h-5a1.25,1.25,0,0,1-1.25-1.25V52.35a1.25,1.25,0,0,1,1.25-1.25h5a1.25,1.25,0,0,1,1.25,1.25ZM24.11,47.49a4.66,4.66,0,1,1,4.66-4.66h0A4.66,4.66,0,0,1,24.11,47.49ZM61.47,77.6a1.25,1.25,0,0,1-1.25,1.25h-5A1.25,1.25,0,0,1,54,77.6V75.69a11.61,11.61,0,0,1-8.84,4c-7.39,0-13.63-6.6-13.63-14.75s6.24-14.75,13.63-14.75a11.61,11.61,0,0,1,8.84,4v-1.9A1.25,1.25,0,0,1,55.22,51h5a1.25,1.25,0,0,1,1.25,1.25Zm40-55.13a3,3,0,1,1,2.26,4.93,3,3,0,0,1-2-.73,3,3,0,0,1-.36-4.2Zm-10,15.58a3,3,0,1,1,2.73,4.24A3,3,0,0,1,93,42a3,3,0,0,1-1.52-4h0Zm4,55.46a3,3,0,1,1,1.76-2.72A3,3,0,0,1,95.47,93.51Zm10.24,14.38a2.93,2.93,0,0,1-2,.74,3,3,0,1,1,2-.74Zm6.87-30.29a1.25,1.25,0,0,1-1.25,1.25h-5a1.25,1.25,0,0,1-1.22-1.25V64.54c-.15-5.51-2.81-7.32-6.26-7.32-2.61,0-4.6,1.44-5.52,4.54a11.29,11.29,0,0,0-.25,2.78V77.6a1.25,1.25,0,0,1-1.25,1.25h-5a1.25,1.25,0,0,1-1.25-1.25V64.54c-.16-5.51-2.82-7.32-6.26-7.32-2.58,0-4.66,1.53-5.61,4.54a11.29,11.29,0,0,0-.25,2.78V77.6a1.25,1.25,0,0,1-1.25,1.25h-5A1.25,1.25,0,0,1,66,77.6V52.35a1.25,1.25,0,0,1,1.25-1.25h5a1.25,1.25,0,0,1,1.25,1.25v1.7a11.77,11.77,0,0,1,8.92-3.66,10.58,10.58,0,0,1,8.69,5c2.12-3.65,5.87-5,10.85-5,5.22,0,10.69,4.88,10.69,11.34ZM46.46,57.22a7.76,7.76,0,1,0,7.44,8.06c0-.1,0-.21,0-.31a7.61,7.61,0,0,0-7.46-7.75Z"/>
  </symbol>

  <symbol id="logo-divider">
    <rect x="409.75" y="14.54" width="2.18" height="100.92"/>
  </symbol>

  <symbol id="logo-property" viewBox="0 0 380 130" preserveAspectRatio="xMinYMid meet">
    <use xmlns:xlink="http://www.w3.org/1999/xlink" xlink:href="#logo-iam"></use>
    <path d="M208.2,88a3,3,0,1,0-2.49,5.46,3,3,0,0,0,1.24.27A3,3,0,0,0,208.21,88Zm-4-47.58h0a3,3,0,0,0,5.47-2.49v0h0a3,3,0,1,0-5.54,2.3l.09.2Zm-44,9.79a11.61,11.61,0,0,0-8.84,4v-1.9a1.25,1.25,0,0,0-1.22-1.22h-5a1.25,1.25,0,0,0-1.25,1.25v37.5a1.25,1.25,0,0,0,1.25,1.25h5a1.25,1.25,0,0,0,1.25-1.25V75.69a11.61,11.61,0,0,0,8.84,4c7.39,0,13.63-6.6,13.63-14.75s-6.28-14.72-13.67-14.72Zm-1.37,22.5a7.76,7.76,0,1,1,7.44-8.06c0,.1,0,.21,0,.31a7.6,7.6,0,0,1-7.45,7.75h0Zm90.8-22.5a11.61,11.61,0,0,0-8.84,4v-1.9a1.25,1.25,0,0,0-1.25-1.25h-5a1.25,1.25,0,0,0-1.25,1.25v37.5a1.25,1.25,0,0,0,1.25,1.25h5a1.25,1.25,0,0,0,1.25-1.25V75.69a11.61,11.61,0,0,0,8.84,4c7.39,0,13.63-6.6,13.63-14.75S257,50.22,249.59,50.22Zm-1.37,22.5a7.76,7.76,0,1,1,7.44-8.06c0,.1,0,.21,0,.31a7.6,7.6,0,0,1-7.45,7.75h0ZM214,50.22A14.75,14.75,0,1,0,228.75,65,14.75,14.75,0,0,0,214,50.22h0Zm0,22.5a7.76,7.76,0,1,1,7.44-8.06c0,.1,0,.21,0,.31A7.6,7.6,0,0,1,214,72.72h0Zm130.42-.91a1.25,1.25,0,0,0-1.63-.69l0,0c-2.7,1.21-4.37,1.25-5.06.83s-1.15-2.18-1.13-3v-.29h0V57.35h8a1.25,1.25,0,0,0,1.25-1.25V52.35a1.25,1.25,0,0,0-1.25-1.25h-8V43.48a1.25,1.25,0,0,0-1.25-1.25h-5a1.25,1.25,0,0,0-1.25,1.25V51.1h-3.74a1.25,1.25,0,0,0-1.25,1.25V56.1a1.25,1.25,0,0,0,1.25,1.25h3.78V68.71h0v.23c0,3,1.17,7.23,4.69,9.41a9.39,9.39,0,0,0,5,1.37,17.48,17.48,0,0,0,6.88-1.66,1.26,1.26,0,0,0,.64-1.61ZM377,51.1h-5.27a1.21,1.21,0,0,0-1.18.86l-6.24,19.2L358.05,52a1.26,1.26,0,0,0-1.19-.86H351.6a1.25,1.25,0,0,0-1.25,1.25,1.21,1.21,0,0,0,.06.38l6.07,18.69,2.1,6.51a1.25,1.25,0,0,0,1.19.87h2l-1.19,3.67c-.32.78-.93,1.78-1.67,2s-2.37-.23-4.67-2.1a1.27,1.27,0,0,0-1.78.21h0l-3,4a1.25,1.25,0,0,0,.21,1.72,17.29,17.29,0,0,0,6.22,3.37,9.42,9.42,0,0,0,5.21,0c3.9-1.17,6.14-4.85,6.92-7.73L378.14,52.8a1.25,1.25,0,0,0-.72-1.62,1.33,1.33,0,0,0-.45-.08Zm-95.63-.86A14.75,14.75,0,0,0,282,79.72c4.82,0,9.42-1.91,12.11-5.48a1.25,1.25,0,0,0-.24-1.74l-.05,0-3.46-2.41a1.23,1.23,0,0,0-1.71.29c-1.36,1.84-4.24,2.82-6.65,2.82-3.45,0-6.93-3.41-6.93-6.21H295a1.25,1.25,0,0,0,1.25-1.19V65c0-9-6.46-15.12-14.92-14.73ZM275.46,62c0-2.84,3.49-5.74,6.57-5.74s6.58,2.9,6.58,5.74ZM185.78,77.6V52.35a1.25,1.25,0,0,0-1.25-1.25h-5a1.25,1.25,0,0,0-1.25,1.25V77.6a1.25,1.25,0,0,0,1.25,1.25h5A1.25,1.25,0,0,0,185.78,77.6Zm12-21.84a4.66,4.66,0,1,0-4.66,4.66,4.66,4.66,0,0,0,4.66-4.66v0ZM307,51.1h-5a1.25,1.25,0,0,0-1.25,1.25V77.6A1.25,1.25,0,0,0,302,78.85h5a1.25,1.25,0,0,0,1.25-1.25V52.35A1.25,1.25,0,0,0,307,51.1Zm8.61,0a4.66,4.66,0,1,0,4.66,4.66,4.66,4.66,0,0,0-4.66-4.66Z"/>
  </symbol>

  <symbol id="logo-sold" viewBox="0 0 247 130" preserveAspectRatio="xMinYMid meet">
    <use xmlns:xlink="http://www.w3.org/1999/xlink" xlink:href="#logo-iam"></use>
    <path d="M208.2,88a3,3,0,1,0-2.49,5.46,3,3,0,0,0,1.24.27A3,3,0,0,0,208.21,88Zm37.22-49.83h-5a1.25,1.25,0,0,0-1.25,1.25V54.25a11.59,11.59,0,0,0-8.83-4C223,50.25,216.7,56.86,216.7,65S223,79.75,230.34,79.75a11.59,11.59,0,0,0,8.83-4v1.91a1.25,1.25,0,0,0,1.25,1.25h5a1.25,1.25,0,0,0,1.24-1.24h0V39.43a1.25,1.25,0,0,0-1.23-1.25ZM231.7,72.72a7.76,7.76,0,1,1,7.4-8.1c0,.13,0,.25,0,.38A7.61,7.61,0,0,1,231.7,72.72ZM200.11,65a14.75,14.75,0,1,0-14.75,14.75h0A14.77,14.77,0,0,0,200.11,65ZM177.9,65a7.46,7.46,0,1,1,7.46,7.75,7.61,7.61,0,0,1-7.5-7.72v0Zm33-26.79h-5a1.25,1.25,0,0,0-1.25,1.25V77.6a1.25,1.25,0,0,0,1.25,1.25h5a1.25,1.25,0,0,0,1.21-1.25V39.43a1.25,1.25,0,0,0-1.25-1.25h0ZM156.33,62.29c-2.86-.56-5.33-1-5.33-3.09,0-.74.35-2.47,3.58-2.47a3.3,3.3,0,0,1,3.18,1.79c.39.79.55,1,1.11,1h5.68a1,1,0,0,0,.75-.25.84.84,0,0,0,.15-.7,8.58,8.58,0,0,0-3.71-6.36,12.68,12.68,0,0,0-7.16-2c-5.2,0-11.28,2.36-11.28,9s5.48,7.68,9.87,8.56c2.83.56,5.27,1,5.27,3,0,2.15-2.42,2.47-3.86,2.47-2.38,0-3.35-1-3.75-1.84s-.57-.94-1.12-.94H144a1,1,0,0,0-.74.25.84.84,0,0,0-.15.7c.59,5.24,4.87,8.37,11.45,8.37,5.59,0,11.56-2.36,11.56-9s-5.52-7.66-9.89-8.52Z"/>
  </symbol>

  <symbol id="logo-key" viewBox="0 0 228 130" preserveAspectRatio="xMinYMid meet">
    <use xmlns:xlink="http://www.w3.org/1999/xlink" xlink:href="#logo-iam"></use>
    <path d="M167.58,78.6H161.2a1.86,1.86,0,0,1-1.68-.89l-7.79-11.39V77.2a1.27,1.27,0,0,1-1.4,1.4h-5.6a1.27,1.27,0,0,1-1.4-1.4V40.8a1.27,1.27,0,0,1,1.4-1.4h5.6a1.27,1.27,0,0,1,1.4,1.4v22L159,51.5a1.84,1.84,0,0,1,1.68-.9h6.44c1.12,0,1.51.73.89,1.68L159.74,64.6l8.68,12.32C169.09,77.88,168.7,78.6,167.58,78.6Zm59-28.43h-5.27a1.24,1.24,0,0,0-1.18.86l-6.24,19.2-6.24-19.16a1.26,1.26,0,0,0-1.19-.86h-5.26a1.25,1.25,0,0,0-1.25,1.25,1.21,1.21,0,0,0,.06.38L206,70.53l2.1,6.51a1.25,1.25,0,0,0,1.19.87h2l-1.19,3.67c-.32.78-.93,1.78-1.67,2s-2.37-.23-4.67-2.1a1.26,1.26,0,0,0-1.78.22h0l-3,4a1.25,1.25,0,0,0,.21,1.72,17.29,17.29,0,0,0,6.22,3.37,9.42,9.42,0,0,0,5.21,0c3.9-1.17,6.14-4.85,6.92-7.73L227.7,51.87a1.24,1.24,0,0,0-.71-1.61,1.22,1.22,0,0,0-.46-.09Zm-42.53,0a14.75,14.75,0,0,0,.69,29.48c4.82,0,9.42-1.91,12.11-5.48a1.25,1.25,0,0,0-.24-1.74l0,0L193.06,70a1.23,1.23,0,0,0-1.71.29c-1.36,1.84-4.24,2.82-6.65,2.82-3.45,0-6.93-3.41-6.93-6.21h19.9a1.25,1.25,0,0,0,1.25-1.19v-.8c0-9-6.46-15.12-14.92-14.73Zm-5.89,11.76c0-2.84,3.49-5.74,6.57-5.74s6.58,2.9,6.58,5.74ZM204.2,40.43h0a3,3,0,0,0,5.47-2.49v0h0a3,3,0,1,0-5.54,2.3l.09.2Z"/>
  </symbol>

  <symbol id="logo-compliance" viewBox="0 0 740 130" preserveAspectRatio="xMinYMid meet">
    <use xmlns:xlink="http://www.w3.org/1999/xlink" xlink:href="#logo-property"></use>
    <use xmlns:xlink="http://www.w3.org/1999/xlink" xlink:href="#logo-divider"></use>
    <path d="M555.1,52.34V89.8a1.24,1.24,0,0,0,1.22,1.25h5a1.25,1.25,0,0,0,1.25-1.25V75.68a11.61,11.61,0,0,0,8.83,4c7.39,0,13.64-6.61,13.64-14.76s-6.25-14.74-13.64-14.74a11.64,11.64,0,0,0-8.83,4.05V52.34a1.27,1.27,0,0,0-1.25-1.25h-5a1.25,1.25,0,0,0-1.25,1.25ZM562.61,65a7.45,7.45,0,1,1,7.45,7.76A7.61,7.61,0,0,1,562.61,65Zm79.5-13.87h-5a1.25,1.25,0,0,0-1.25,1.25v1.93a11.75,11.75,0,0,0-8.85-4c-7.39,0-13.62,6.61-13.62,14.74S619.63,79.75,627,79.75a11.62,11.62,0,0,0,8.85-4v1.92a1.25,1.25,0,0,0,1.25,1.25h5a1.27,1.27,0,0,0,1.25-1.25V52.34A1.27,1.27,0,0,0,642.11,51.09ZM628.39,72.72a7.76,7.76,0,1,1,7.46-8V65a7.6,7.6,0,0,1-7.46,7.76ZM484.72,50.22A14.76,14.76,0,1,0,499.48,65v0A14.76,14.76,0,0,0,484.72,50.22Zm0,22.5a7.76,7.76,0,1,1,7.46-8,2.62,2.62,0,0,1,0,.28,7.61,7.61,0,0,1-7.46,7.76Zm65.9,4.88a1.27,1.27,0,0,1-1.25,1.25h-5a1.26,1.26,0,0,1-1.25-1.25V64.53c-.15-5.52-2.81-7.26-6.26-7.26-2.6,0-4.61,1.45-5.52,4.53a11.83,11.83,0,0,0-.25,2.79V77.66a1.27,1.27,0,0,1-1.25,1.25h-5a1.27,1.27,0,0,1-1.27-1.25V64.59c-.14-5.52-2.8-7.27-6.26-7.27a5.82,5.82,0,0,0-5.59,4.54,11.3,11.3,0,0,0-.26,2.78V77.72A1.24,1.24,0,0,1,510.21,79h-5A1.24,1.24,0,0,1,504,77.72V52.34a1.25,1.25,0,0,1,1.25-1.25h5a1.25,1.25,0,0,1,1.25,1.25v1.72a11.75,11.75,0,0,1,8.92-3.66,10.56,10.56,0,0,1,8.71,5c2.11-3.64,5.81-5,10.84-5a11.36,11.36,0,0,1,10.7,11.32Zm170-27.36a14.75,14.75,0,0,0,.7,29.48,15,15,0,0,0,12.11-5.48,1.24,1.24,0,0,0-.27-1.74l0,0-3.44-2.42a1.25,1.25,0,0,0-1.72.29,8.7,8.7,0,0,1-6.65,2.9c-3.46,0-6.93-3.41-6.93-6.21h19.9a1.27,1.27,0,0,0,1.26-1.18V65C735.59,56,729.11,49.92,720.64,50.24ZM714.76,62c0-2.91,3.5-5.81,6.58-5.81s6.58,2.9,6.58,5.81ZM590.82,38.18h5a1.25,1.25,0,0,1,1.25,1.25V77.58a1.25,1.25,0,0,1-1.25,1.25h-5a1.25,1.25,0,0,1-1.25-1.25V39.43A1.25,1.25,0,0,1,590.82,38.18Zm14.43,9.3a4.49,4.49,0,0,1-3.31-1.38,4.67,4.67,0,0,1,0-6.57,4.49,4.49,0,0,1,3.31-1.38,4.37,4.37,0,0,1,3.26,1.38,4.67,4.67,0,0,1,0,6.57A4.37,4.37,0,0,1,605.25,47.48Zm2.47,31.34h-5a1.21,1.21,0,0,1-1.2-1.21V52.3a1.16,1.16,0,0,1,1.2-1.21h5a1.19,1.19,0,0,1,.87.35,1.15,1.15,0,0,1,.33.86V77.61a1.21,1.21,0,0,1-1.2,1.21Zm41.44,0h5a1.27,1.27,0,0,0,1.25-1.25V64.53a11.87,11.87,0,0,1,.24-2.79,5.81,5.81,0,0,1,5.52-4.56h.32c3.26.13,5.74,2,5.88,7.26V77.51a1.27,1.27,0,0,0,1.25,1.25h5a1.26,1.26,0,0,0,1.26-1.25V61.72a11.36,11.36,0,0,0-10.7-11.32,11,11,0,0,0-2,.14H662a11.59,11.59,0,0,0-5.39,2.33h0A11.33,11.33,0,0,0,655.43,54V52.34a1.27,1.27,0,0,0-1.25-1.25h-5a1.27,1.27,0,0,0-1.25,1.25V77.6A1.26,1.26,0,0,0,649.16,78.85ZM468,72.82l-3.82-2.71a1.24,1.24,0,0,0-1.65.17,7.34,7.34,0,0,1-5.46,2.47,7.76,7.76,0,0,1,0-15.5,7.29,7.29,0,0,1,5.44,2.44,1.24,1.24,0,0,0,1.64.16L468,57.18a1.23,1.23,0,0,0,.3-1.72.31.31,0,0,0-.09-.11,14.75,14.75,0,1,0-1.47,20.82,13.69,13.69,0,0,0,1.47-1.48,1.24,1.24,0,0,0-.05-1.76Zm236.6,0-3.82-2.71a1.23,1.23,0,0,0-1.64.17,7.25,7.25,0,0,1-5.45,2.47,7.76,7.76,0,0,1,0-15.5,7.34,7.34,0,0,1,5.43,2.44,1.23,1.23,0,0,0,1.63.16l3.82-2.67a1.24,1.24,0,0,0,.32-1.72l-.09-.11a14.76,14.76,0,1,0-1.47,20.82,13.69,13.69,0,0,0,1.47-1.48,1.24,1.24,0,0,0-.07-1.76A.69.69,0,0,0,704.61,72.82Z"/>
  </symbol>

  <symbol id="logo-movebutler" viewBox="0 0 740 130" preserveAspectRatio="xMinYMid meet">
    <use xmlns:xlink="http://www.w3.org/1999/xlink" xlink:href="#logo-property"></use>
    <use xmlns:xlink="http://www.w3.org/1999/xlink" xlink:href="#logo-divider"></use>
    <path d="M489,77.6a1.25,1.25,0,0,1-1.25,1.25h-5a1.25,1.25,0,0,1-1.25-1.25V64.53c-.16-5.52-2.81-7.26-6.26-7.26-2.61,0-4.6,1.45-5.53,4.53a12.39,12.39,0,0,0-.25,2.79V77.66a1.24,1.24,0,0,1-1.24,1.25h-5a1.25,1.25,0,0,1-1.25-1.25V64.59c-.16-5.52-2.82-7.27-6.26-7.27a5.83,5.83,0,0,0-5.61,4.54,11.79,11.79,0,0,0-.24,2.78V77.72A1.25,1.25,0,0,1,448.56,79h-5a1.25,1.25,0,0,1-1.25-1.24V52.34a1.27,1.27,0,0,1,1.25-1.25h5a1.27,1.27,0,0,1,1.25,1.25v1.72a11.72,11.72,0,0,1,8.92-3.66,10.56,10.56,0,0,1,8.71,5c2.12-3.64,5.81-5,10.85-5A11.37,11.37,0,0,1,489,61.72ZM646.82,51.09h-5a1.25,1.25,0,0,0-1.25,1.25V65.41a10.45,10.45,0,0,1-.26,2.79,5.8,5.8,0,0,1-5.57,4.53h-.31c-3.27-.11-5.74-2-5.9-7.26V52.4a1.24,1.24,0,0,0-1.24-1.25h-5A1.25,1.25,0,0,0,621,52.4V68.22a11.38,11.38,0,0,0,10.69,11.33,13.23,13.23,0,0,0,2-.15h.2a11.48,11.48,0,0,0,5.38-2.34h0a10.44,10.44,0,0,0,1.2-1.1v1.71a1.25,1.25,0,0,0,1.25,1.25h5.07a1.25,1.25,0,0,0,1.25-1.25V52.34A1.25,1.25,0,0,0,646.82,51.09Zm-138.58-.87A14.76,14.76,0,1,0,523,65v0A14.77,14.77,0,0,0,508.24,50.22Zm0,22.5a7.76,7.76,0,1,1,7.44-8.06c0,.1,0,.2,0,.3A7.62,7.62,0,0,1,508.24,72.72ZM738.32,50.57h-.82a7.36,7.36,0,0,0-6.44,3.57v-1.8a1.28,1.28,0,0,0-1.25-1.25h-5a1.27,1.27,0,0,0-1.26,1.25V77.58a1.26,1.26,0,0,0,1.26,1.27h5a1.27,1.27,0,0,0,1.25-1.27V65.08c0-4.36,2-6.62,5.81-6.62h1.45a1.59,1.59,0,0,0,.93-.35,1.32,1.32,0,0,0,.46-1.11V52C739.62,51.05,739.17,50.57,738.32,50.57Zm-34.26-.33a14.75,14.75,0,0,0,.69,29.48,15.08,15.08,0,0,0,12.12-5.48,1.26,1.26,0,0,0-.27-1.74l0,0-3.44-2.42a1.28,1.28,0,0,0-1.73.29,8.61,8.61,0,0,1-6.64,2.9c-3.45,0-6.92-3.41-6.92-6.21h19.89A1.28,1.28,0,0,0,719,65.85V65C719,56,712.52,49.92,704.06,50.24ZM698.25,62c0-2.91,3.48-5.81,6.58-5.81s6.58,2.9,6.58,5.81ZM567.48,50.24a14.75,14.75,0,0,0,.69,29.48,15,15,0,0,0,12.1-5.48A1.24,1.24,0,0,0,580,72.5l0,0-3.45-2.42a1.26,1.26,0,0,0-1.72.29,8.73,8.73,0,0,1-6.64,2.9c-3.45,0-6.94-3.41-6.94-6.21h19.91a1.25,1.25,0,0,0,1.25-1.18V65C582.42,56,575.93,49.92,567.48,50.24ZM561.6,62c0-2.91,3.48-5.81,6.57-5.81s6.57,2.9,6.57,5.81ZM672.13,71.8a1.24,1.24,0,0,0-1.62-.68l0,0c-2.7,1.22-4.35,1.25-5.05.82a3.92,3.92,0,0,1-1.13-2.9V68.8h0V57.34h8a1.25,1.25,0,0,0,1.26-1.24h0V52.34a1.27,1.27,0,0,0-1.26-1.25h-8V43.48A1.25,1.25,0,0,0,663,42.23h-5a1.25,1.25,0,0,0-1.25,1.25v7.61H653a1.27,1.27,0,0,0-1.25,1.25v3.75A1.25,1.25,0,0,0,653,57.34h3.73V68.7h0v.23a11,11,0,0,0,4.69,9.41,9.42,9.42,0,0,0,5,1.37,17.39,17.39,0,0,0,6.87-1.66,1.26,1.26,0,0,0,.64-1.61Zm-59.35,3.77a13.44,13.44,0,0,1-9.88,4.15,9.68,9.68,0,0,1-8.6-4.23v2.25a1.19,1.19,0,0,1-1.16,1.17h-5a1.18,1.18,0,0,1-.87-.35,1.1,1.1,0,0,1-.35-.82V39.42a1.16,1.16,0,0,1,.35-.82,1.22,1.22,0,0,1,.87-.35h5a1.19,1.19,0,0,1,.84.35,1,1,0,0,1,.38.82V54.27a8.19,8.19,0,0,1,3.43-2.9A11.55,11.55,0,0,1,603,50.21a13.39,13.39,0,0,1,9.82,4.06,14.41,14.41,0,0,1,4.12,10.64A14.55,14.55,0,0,1,612.78,75.57Zm-11-18.49a7.08,7.08,0,0,0-5.35,2.26,7.87,7.87,0,0,0-2.15,5.58,8,8,0,0,0,2.15,5.61,7.4,7.4,0,0,0,10.47.24l.25-.24a7.91,7.91,0,0,0,2.18-5.61,7.77,7.77,0,0,0-2.18-5.58A7.13,7.13,0,0,0,601.8,57.08Zm77.46-18.9h5a1.25,1.25,0,0,1,1.25,1.25V77.58a1.25,1.25,0,0,1-1.25,1.25h-5A1.25,1.25,0,0,1,678,77.58V39.43A1.25,1.25,0,0,1,679.26,38.18ZM549.7,51.09h-5.27a1.28,1.28,0,0,0-1.19.88l-5,15.54L533.14,52a1.25,1.25,0,0,0-1.19-.88H526.7a1.26,1.26,0,0,0-1.26,1.25,1.27,1.27,0,0,0,.06.39l6.08,18.73,2.1,6.52a1.28,1.28,0,0,0,1.19.87h6.64A1.28,1.28,0,0,0,542.7,78l.84-2.62L547,64.86h0l4-12.13a1.23,1.23,0,0,0-.79-1.57A1.08,1.08,0,0,0,549.7,51.09Z"/>
  </symbol>

</svg>