<?xml version="1.0" standalone="no"?>
<!DOCTYPE svg PUBLIC "-//W3C//DTD SVG 20010904//EN"
 "http://www.w3.org/TR/2001/REC-SVG-20010904/DTD/svg10.dtd">
<svg version="1.0" xmlns="http://www.w3.org/2000/svg"
 width="512.000000pt" height="512.000000pt" viewBox="0 0 512.000000 512.000000"
 preserveAspectRatio="xMidYMid meet">
<metadata>
Created by potrace 1.14, written by Peter Selinger 2001-2017
</metadata>
<g transform="translate(0.000000,512.000000) scale(0.100000,-0.100000)"
fill="#000000" stroke="none">
<path d="M900 3600 c-87 -24 -144 -96 -143 -181 3 -166 197 -247 314 -130 66
65 74 160 21 235 -42 60 -127 94 -192 76z"/>
<path d="M1663 3115 c-200 -47 -374 -233 -417 -445 -13 -64 -14 -184 -2 -249
34 -178 161 -344 323 -418 61 -28 186 -55 225 -48 13 2 42 6 65 9 60 7 140 43
206 92 31 24 59 44 61 44 2 0 2 -15 1 -32 -2 -18 3 -43 11 -55 14 -22 21 -23
138 -23 102 0 126 3 137 16 11 14 14 112 14 532 1 464 -1 517 -16 536 -15 18
-29 20 -125 21 -149 2 -161 -5 -160 -87 l1 -37 -35 33 c-46 44 -105 80 -166
101 -62 21 -193 27 -261 10z m267 -291 c65 -23 127 -81 160 -149 21 -42 25
-64 24 -135 0 -71 -4 -93 -26 -136 -40 -76 -116 -139 -193 -159 -142 -37 -285
30 -357 167 -18 35 -22 60 -22 128 -1 73 3 92 26 136 76 144 232 204 388 148z"/>
<path d="M3120 3106 c-68 -19 -133 -53 -179 -92 l-41 -36 0 39 c0 71 -10 75
-150 75 -107 -1 -126 -3 -137 -18 -10 -14 -13 -129 -13 -535 0 -457 2 -519 16
-533 23 -23 245 -23 268 0 14 13 16 57 17 317 0 166 3 313 5 327 15 81 92 169
164 188 88 22 197 -9 243 -70 57 -74 60 -96 63 -436 2 -226 6 -317 14 -327 10
-12 40 -15 136 -15 112 0 124 2 137 20 11 16 14 78 14 318 1 323 5 357 54 429
71 102 230 120 328 37 83 -71 90 -110 92 -478 1 -246 4 -299 16 -311 22 -22
245 -21 267 1 14 13 16 61 16 374 0 327 -2 363 -20 421 -60 196 -233 323 -431
318 -158 -4 -263 -42 -350 -129 l-55 -55 -55 56 c-58 61 -115 94 -194 115 -62
17 -165 16 -225 0z"/>
<path d="M820 3088 c-10 -4 -21 -12 -25 -18 -3 -6 -7 -245 -7 -531 0 -392 3
-523 12 -534 10 -12 40 -15 136 -15 117 0 124 1 138 23 13 18 15 100 15 522 0
336 -3 509 -11 528 -8 21 -17 27 -42 28 -166 3 -200 3 -216 -3z"/>
</g>
</svg>
