<svg xmlns="http://www.w3.org/2000/svg" viewBox="0 0 96.96 57.02"><defs><style>.cls-1{fill:#fff;}.cls-2{fill:#b4e6a5;}.cls-3{fill:#032530;}</style></defs><g id="Layer_2" data-name="Layer 2"><g id="Layer_1-2" data-name="Layer 1"><path class="cls-1" d="M55.24,52.4a2.8,2.8,0,0,0,2.24.25,1.86,1.86,0,0,0,.88-1.31l-9.75-9A2,2,0,0,1,48,40.94a2,2,0,0,1,3.38-1.57l10.2,9.41a2.73,2.73,0,0,0,1.75.54h0a2,2,0,0,0,.91-.19.72.72,0,0,0,.35-.38,3.35,3.35,0,0,0-.12-2l-10.6-10.6a2,2,0,0,1,0-2.86,2.07,2.07,0,0,1,2.85,0L67.39,44a5.73,5.73,0,0,0,2.85.58,1.76,1.76,0,0,0,1.09-.46,1.53,1.53,0,0,0,.44-.83h0a1.8,1.8,0,0,0-.1-1.08c-.82-1.91-7.48-9-11.29-12.9l-.21-.23-.31-.39c-7.29-9-11.07-6.18-14.74-3.49-2.63,1.94-5.34,3.94-8.82,2.49l-.17-.07-.59-.27,0,0A5.76,5.76,0,0,1,32.88,24c-1.17-3.7.95-8.74,2.66-11.94-1.95,0-4,0-6.34-.08l-1.28.5-5.48,21c3.79,3.19,19,16,21.62,17.86a4.24,4.24,0,0,0,2.92.37,13.59,13.59,0,0,0,1.54-.27l-3-2.94a2,2,0,0,1,0-2.85,2,2,0,0,1,1.42-.6h0a2,2,0,0,1,1.41.57l5.4,5.25a1.53,1.53,0,0,1,.27.26Z"/><path class="cls-1" d="M51,18.31c3.32,0,7.29,2,12.27,8.24.64.66,6.52,6.69,9.87,10.87l1.16-.81h0l.46-.32L65.94,15.5c-14.89-4.62-16.83-4.43-22-3.91-1,.1-2.21.22-3.67.32-.94,1.48-4.58,7.48-3.71,10.62a2.2,2.2,0,0,0,1.08,1.4l.17.07c1.39.56,3-.63,4.88-2C45.1,20.26,47.74,18.31,51,18.31Z"/><path class="cls-2" d="M4.11,32.15l0,.05a.75.75,0,0,0,.46.36L16.71,35.8a.7.7,0,0,0,.53,0l0,0a.75.75,0,0,0,.36-.46l7.24-27a.77.77,0,0,0,0-.52l0-.06a.79.79,0,0,0-.47-.35L12.24,4.06a.81.81,0,0,0-.53.05l-.05,0a.76.76,0,0,0-.36.46l-7.24,27A.72.72,0,0,0,4.11,32.15Z"/><path class="cls-2" d="M80.93,5.79a.66.66,0,0,0-.3.07l-11.48,5a.78.78,0,0,0-.39,1l.42,1a1.25,1.25,0,0,1,.16.33l.45,1.05L80,37.52a.72.72,0,0,0,.42.4.73.73,0,0,0,.58,0l11.48-5a.72.72,0,0,0,.4-.42h0a.69.69,0,0,0,0-.58L81.64,6.25a.8.8,0,0,0-.71-.46Z"/><path class="cls-3" d="M10.5,25.3a3.86,3.86,0,1,0,2.73,1.13A3.84,3.84,0,0,0,10.5,25.3Zm.77,4.63a1.09,1.09,0,0,1-1.54,0,1,1,0,0,1-.32-.76,1.06,1.06,0,0,1,.32-.77,1.09,1.09,0,0,1,1.54,0,1.1,1.1,0,0,1,.31.77A1.07,1.07,0,0,1,11.27,29.93Z"/><path class="cls-3" d="M88.42,27.3a3.85,3.85,0,0,0-5.4.83,3.86,3.86,0,0,0,3.69,6.1,3.86,3.86,0,0,0,1.71-6.93ZM87,31.06a1.15,1.15,0,0,1-.71.43,1.17,1.17,0,0,1-.82-.2,1,1,0,0,1-.42-.71,1.08,1.08,0,0,1,.19-.81,1.1,1.1,0,0,1,1.53-.23,1,1,0,0,1,.42.71A1.08,1.08,0,0,1,87,31.06Z"/><path class="cls-3" d="M57.33,57a9.45,9.45,0,0,1-4.14-1.14l0,0-.41-.27-.11-.1-.74-.72a26.44,26.44,0,0,1-4.43,1,7.89,7.89,0,0,1-5.77-1.12C39.18,52.82,25.91,41.72,21,37.58a4.68,4.68,0,0,1-1.67,1.64l-.15.08a4.69,4.69,0,0,1-3.48.4L3.56,36.46A4.75,4.75,0,0,1,.65,34.22l-.09-.16a4.78,4.78,0,0,1-.4-3.48l7.25-27A4.74,4.74,0,0,1,9.64.65L9.8.56a4.79,4.79,0,0,1,3.48-.4L25.39,3.41A4.74,4.74,0,0,1,28.3,5.65l.08.15A4.86,4.86,0,0,1,28.93,8h.17a93.57,93.57,0,0,0,14.48-.41C49,7,51.22,6.81,64.72,10.91A4.8,4.8,0,0,1,65,9.84a4.74,4.74,0,0,1,2.55-2.65L79,2.16a4.76,4.76,0,0,1,3.67-.07,4.82,4.82,0,0,1,2.65,2.54L96.56,30.26a4.77,4.77,0,0,1,.07,3.67,4.82,4.82,0,0,1-2.54,2.65l-11.49,5a4.77,4.77,0,0,1-5.9-1.75l-.11.08c-.42.28-.8.55-1.18.82a5.8,5.8,0,0,1,.32,3.35,5.52,5.52,0,0,1-1.62,3,5.83,5.83,0,0,1-3.41,1.55,7.48,7.48,0,0,1-2-.05,5.25,5.25,0,0,1-.35,1.62,4.65,4.65,0,0,1-2.18,2.48,5.94,5.94,0,0,1-2.83.67,9.71,9.71,0,0,1-1.22-.1,5.1,5.1,0,0,1-2.7,3.36A4.9,4.9,0,0,1,57.33,57ZM55.24,52.4a2.8,2.8,0,0,0,2.24.25,1.86,1.86,0,0,0,.88-1.31l-9.75-9A2,2,0,0,1,48,40.94a2,2,0,0,1,3.38-1.57l10.2,9.41a2.73,2.73,0,0,0,1.75.54h0a2,2,0,0,0,.91-.19.72.72,0,0,0,.35-.38,3.35,3.35,0,0,0-.12-2l-10.6-10.6a2,2,0,0,1,0-2.86,2.07,2.07,0,0,1,2.85,0L67.39,44a5.73,5.73,0,0,0,2.85.58,1.76,1.76,0,0,0,1.09-.46,1.53,1.53,0,0,0,.44-.83h0a1.8,1.8,0,0,0-.1-1.08c-.82-1.91-7.48-9-11.29-12.9l-.21-.23-.31-.39c-7.29-9-11.07-6.18-14.74-3.49-2.63,1.94-5.34,3.94-8.82,2.49l-.17-.07-.59-.27,0,0A5.76,5.76,0,0,1,32.88,24c-1.17-3.7.95-8.74,2.66-11.94-1.95,0-4,0-6.34-.08l-1.28.5-5.48,21c3.79,3.19,19,16,21.62,17.86a4.24,4.24,0,0,0,2.92.37,13.59,13.59,0,0,0,1.54-.27l-3-2.94a2,2,0,0,1,0-2.85,2,2,0,0,1,1.42-.6h0a2,2,0,0,1,1.41.57l5.4,5.25a1.53,1.53,0,0,1,.27.26ZM80.93,5.79a.66.66,0,0,0-.3.07l-11.48,5a.78.78,0,0,0-.39,1l.42,1a1.25,1.25,0,0,1,.16.33l.45,1.05L80,37.52a.72.72,0,0,0,.42.4.73.73,0,0,0,.58,0l11.48-5a.72.72,0,0,0,.4-.42h0a.69.69,0,0,0,0-.58L81.64,6.25a.8.8,0,0,0-.71-.46ZM51,18.31c3.32,0,7.29,2,12.27,8.24.64.66,6.52,6.69,9.87,10.87l1.16-.81h0l.46-.32L65.94,15.5c-14.89-4.62-16.83-4.43-22-3.91-1,.1-2.21.22-3.67.32-.94,1.48-4.58,7.48-3.71,10.62a2.2,2.2,0,0,0,1.08,1.4l.17.07c1.39.56,3-.63,4.88-2C45.1,20.26,47.74,18.31,51,18.31ZM4.11,32.15l0,.05a.75.75,0,0,0,.46.36L16.71,35.8a.7.7,0,0,0,.53,0l0,0a.75.75,0,0,0,.36-.46l7.24-27a.77.77,0,0,0,0-.52l0-.06a.79.79,0,0,0-.47-.35L12.24,4.06a.81.81,0,0,0-.53.05l-.05,0a.76.76,0,0,0-.36.46l-7.24,27A.72.72,0,0,0,4.11,32.15Z"/><path class="cls-2" d="M54.94,48.5l-1.13-1.13.12-.13,1.18,1.09Zm1.84-4.11L58,45.48l.8-.8-1.13-1.13ZM45.08,48a2,2,0,0,1,.39-2.24,2.09,2.09,0,0,1,.72-.47l.57-.56-1.13-1.13-1.35,1.34-1.34-1.34-1.13,1.13L43.15,46l-1.34,1.35,1.13,1.13,1.34-1.35Zm19-14.7-.64.64-1.34-1.34L61,33.68,62.35,35,61,36.37l1.13,1.13,1.34-1.35,1.34,1.35L66,36.37,64.61,35l.6-.6ZM49,33.68,50.35,35,49,36.37l1.13,1.13,1.34-1.35,1.34,1.35L54,36.37,52.61,35l.67-.66a1.91,1.91,0,0,1,.45-.91l-.91-.9-1.34,1.34-1.34-1.34Zm-12,0L38.35,35,37,36.37l1.13,1.13,1.34-1.35,1.34,1.35L42,36.37,40.61,35,42,33.68l-1.14-1.13-1.34,1.34-1.34-1.34ZM26.6,37l.88-.88,1.34,1.35L30,36.37,28.61,35,30,33.68l-1.14-1.13-1.34,1.34-1.34-1.34L25,33.68,26.35,35l-1,1ZM57.34,26.5l.27-.28c-.4-.4-.79-.76-1.17-1.09l-.23.24Zm-12,0,1.34-1.35L48,26.5l1.13-1.13L47.81,24l1-1a16,16,0,0,0-3.71,2.24l-.6.44Zm-12,0,.55-.56a5.8,5.8,0,0,1-.82-1.44l-.86.87Zm-.67-3.36a7.35,7.35,0,0,1-.1-.82l-.36.36Zm-8,1.76-.33,1.26.8-.79Zm3.85-9.4,1.34-1.35,1.35,1.35,1.13-1.13L31,13l.93-.93c-.88,0-1.79,0-2.74-.07l-1.05.41.6.59-1.31,1.31v.06Z"/><path class="cls-2" d="M52.37,18.42A7.84,7.84,0,0,0,51,18.31a8.09,8.09,0,0,0-1.49.15l-7-6.73L44,11.59l1.19-.12ZM42.72,22l-5.14-4.95a18.78,18.78,0,0,0-.73,2.06l4.2,4.07C41.59,22.83,42.14,22.43,42.72,22Zm18.2-8c-1.57-.46-2.94-.84-4.17-1.17L70.13,25.35l-1.94-4.56Z"/><path class="cls-1" d="M11.27,29.93a1.09,1.09,0,0,1-1.54,0,1,1,0,0,1-.32-.76,1.06,1.06,0,0,1,.32-.77,1.09,1.09,0,0,1,1.54,0,1.1,1.1,0,0,1,.31.77A1.07,1.07,0,0,1,11.27,29.93Z"/><path class="cls-1" d="M87,31.06a1.15,1.15,0,0,1-.71.43,1.17,1.17,0,0,1-.82-.2,1,1,0,0,1-.42-.71,1.08,1.08,0,0,1,.19-.81,1.1,1.1,0,0,1,1.53-.23,1,1,0,0,1,.42.71A1.08,1.08,0,0,1,87,31.06Z"/></g></g></svg>