<svg xmlns="http://www.w3.org/2000/svg" viewBox="0 0 84.91 80.24"><defs><style>.cls-1{fill:#fff;}.cls-2{fill:#032530;}.cls-3{fill:#b4e6a5;}</style></defs><g id="Layer_2" data-name="Layer 2"><g id="Layer_1-2" data-name="Layer 1"><rect class="cls-1" x="12.91" y="14.14" width="59.09" height="36.44"/><path class="cls-2" d="M77.56,0H7.35A7.36,7.36,0,0,0,0,7.35V57.28a7.36,7.36,0,0,0,7.35,7.35H33.18l-1.76,3.06H19a4.47,4.47,0,0,0-4.47,4.47v3.6A4.48,4.48,0,0,0,19,80.24h47a4.48,4.48,0,0,0,4.47-4.48v-3.6a4.47,4.47,0,0,0-4.47-4.47H53l-1.76-3.06H77.56a7.36,7.36,0,0,0,7.35-7.35V7.35A7.36,7.36,0,0,0,77.56,0ZM50.7,71.69H65.93a.47.47,0,0,1,.47.47v3.6a.47.47,0,0,1-.47.48H19a.47.47,0,0,1-.47-.48v-3.6a.47.47,0,0,1,.47-.47H33.73l4.07-7.06h8.82ZM80.91,57.28a3.36,3.36,0,0,1-3.35,3.35H7.35A3.36,3.36,0,0,1,4,57.28V7.35A3.35,3.35,0,0,1,7.35,4H77.56a3.35,3.35,0,0,1,3.35,3.35ZM76,54.58H8.91V10.14H76Zm-63.09-4H72V14.14H12.91Z"/><path class="cls-3" d="M66.4,72.16v3.6a.47.47,0,0,1-.47.48H19a.47.47,0,0,1-.47-.48v-3.6a.47.47,0,0,1,.47-.47H33.73l4.07-7.06h8.82l4.08,7.06H65.93A.47.47,0,0,1,66.4,72.16ZM80.91,7.35V57.28a3.36,3.36,0,0,1-3.35,3.35H7.35A3.36,3.36,0,0,1,4,57.28V7.35A3.35,3.35,0,0,1,7.35,4H77.56A3.35,3.35,0,0,1,80.91,7.35ZM76,10.14H8.91V54.58H76Z"/><path class="cls-3" d="M72,44.35,40.59,14.14h2.89L72,41.57Zm0-15.76L57,14.14H54.09L72,31.36ZM27.11,14.14,65,50.58h2.89L30,14.14ZM72,15.71l-1.64-1.57H67.48L72,18.49ZM12.91,41.52l9.42,9.06h2.89L12.91,38.74Zm0-12.88L35.72,50.58H38.6L12.91,25.87Zm0-14.5v1.38L49.36,50.58h2.89L14.36,14.14Z"/></g></g></svg>