<svg xmlns="http://www.w3.org/2000/svg" viewBox="0 0 98.61 83.71"><defs><style>.cls-1{fill:#fff;}.cls-2{fill:#b4e6a5;}.cls-3{fill:#b3e6a6;}.cls-4{fill:#00313c;}</style></defs><g id="Layer_2" data-name="Layer 2"><g id="Layer_1-2" data-name="Layer 1"><path class="cls-1" d="M91.18,57.73,59.43,74.62a2.54,2.54,0,0,1-1.59.06L32.71,67.54a6.56,6.56,0,0,0-5.63,1L24.6,70.29,17.15,55.13,28.41,50l.12-.06a2.69,2.69,0,0,1,1.38-.31l30,5c1.29.27,2.78,1,2.53,2.67-.18,1.24-1.26,2.57-2.52,2.46L45.3,58.57a2,2,0,0,0-.31,4L59.63,63.7l.48,0a5.79,5.79,0,0,0,2-.39L93.45,51.62a3.56,3.56,0,0,1,.89-.11l0,.17C94.86,53.24,94.91,55.34,91.18,57.73Z"/><path class="cls-1" d="M45.45,4A12.85,12.85,0,0,1,58.29,16.84c0,.08,0,.15,0,.22a17.94,17.94,0,0,0-7.22,11.31A12.83,12.83,0,1,1,45.45,4ZM82.62,31.65A13.94,13.94,0,1,1,68.68,17.71,14,14,0,0,1,82.62,31.65Z"/><path class="cls-2" d="M75.27,42.52l.88.88a12.74,12.74,0,0,1-1.45.8l-.56-.55L72.83,45h0l-1.11-1.11L73,42.52l-1.34-1.34L72.8,40l1.34,1.35L75.49,40l1.13,1.13ZM80,29l-1.13,1.14,1.34,1.34-1.34,1.34L80,34l1.34-1.34,1.11,1.1a14.24,14.24,0,0,0,.17-2.08l-.15-.15.14-.14a13,13,0,0,0-.2-2.07l-1.07,1.08Zm-4.59-8.52-1.34,1.34L75.2,23l1.34-1.34L77.88,23l.92-.91a14.16,14.16,0,0,0-4.47-3.17l-.26.27Zm-12.14,22,1.35-1.35L63.49,40l-1.35,1.35L60.8,40l-1.13,1.14L61,42.52l-.44.44a12.4,12.4,0,0,0,1.38.88l.19-.19.58.58c.35.17.71.32,1.07.46l.83-.83ZM70.69,29l-1.35,1.35L68,29l-1.13,1.14,1.34,1.34-1.34,1.34L68,34l1.34-1.34L70.69,34l1.13-1.13-1.35-1.34,1.35-1.35Zm-12,0-1.35,1.35L56,29l-1.13,1.14,1.34,1.34-1.34,1.34L56,34l1.34-1.34L58.69,34l1.13-1.13-1.35-1.34,1.35-1.35Zm-12.61.61c.37,0,.74,0,1.11-.1l-.5-.51Zm-2.57-.12c.36,0,.72.09,1.09.11L44,29Zm18.56-7.67L63.2,23l1.34-1.34L65.88,23,67,21.86l-1.35-1.34L67,19.17,65.88,18l-1.34,1.35-.77-.77a12.81,12.81,0,0,0-1.56.7l1.2,1.2Zm-7-2.69L53.88,18l-1.34,1.35L51.2,18l-1.13,1.14,1.34,1.34-1.34,1.34L51.2,23l1.34-1.34.79.79a15.34,15.34,0,0,1,.91-1.36l-.57-.56ZM39.41,20.52l-1.34,1.34L39.2,23l1.34-1.34L41.88,23,43,21.86l-1.35-1.34L43,19.17,41.88,18l-1.34,1.35L39.2,18l-1.13,1.14Zm7-8.53,1.34-1.34L49.09,12l1.13-1.13L48.87,9.52l1.35-1.35L49.09,7,47.74,8.39,46.4,7,45.27,8.18l1.34,1.34-1.34,1.34ZM35.74,10.65,37.09,12l1.13-1.13L36.87,9.52l1.35-1.35-1.1-1.09a12.94,12.94,0,0,0-3.3,4.34l.58.57Z"/><polygon class="cls-3" points="13.89 79.35 4.32 59.23 12.71 55.18 22.37 74.81 13.89 79.35"/><path class="cls-4" d="M17,76.46a1.77,1.77,0,1,0-1.76-1.77A1.76,1.76,0,0,0,17,76.46Z"/><path class="cls-4" d="M50.31,23.31H40.19a.48.48,0,0,1-.49-.48V20.49a.48.48,0,0,1,.49-.49h1.07V18.25H40.19a.48.48,0,0,1-.49-.49V15.91a.5.5,0,0,1,.49-.48h1.07V14.14a4.72,4.72,0,0,1,5-4.75,5.28,5.28,0,0,1,4.83,2.44.56.56,0,0,1-.24.75L49.3,13.79c-.33.26-.66.2-1-.19a2.32,2.32,0,0,0-1.81-1.07,1.77,1.77,0,0,0-1.79,2v.92h2.92a.5.5,0,0,1,.49.48v1.85a.48.48,0,0,1-.49.49H44.74V20h5.57a.49.49,0,0,1,.49.49v2.34A.48.48,0,0,1,50.31,23.31Z"/><path class="cls-4" d="M74.25,38.78H63.33a.52.52,0,0,1-.52-.52V35.74a.52.52,0,0,1,.52-.52h1.16V33.33H63.33a.52.52,0,0,1-.52-.53v-2a.55.55,0,0,1,.52-.53h1.16V28.9a5.09,5.09,0,0,1,5.43-5.12,5.72,5.72,0,0,1,5.21,2.62.62.62,0,0,1-.25.82l-1.72,1.3a.66.66,0,0,1-1-.21,2.53,2.53,0,0,0-1.95-1.15,1.92,1.92,0,0,0-1.94,2.14v1h3.15a.55.55,0,0,1,.53.53v2a.52.52,0,0,1-.53.53H68.24v1.89h6a.52.52,0,0,1,.52.52v2.52A.52.52,0,0,1,74.25,38.78Z"/><path class="cls-4" d="M45.45,33.69a16.76,16.76,0,0,0,5.35-.88A18,18,0,1,0,62.18,15,16.84,16.84,0,1,0,45.45,33.69Zm37.17-2A13.94,13.94,0,1,1,68.68,17.71,14,14,0,0,1,82.62,31.65ZM45.45,4A12.85,12.85,0,0,1,58.29,16.84c0,.08,0,.15,0,.22a17.94,17.94,0,0,0-7.22,11.31A12.83,12.83,0,1,1,45.45,4Z"/><path class="cls-4" d="M98.23,50.54c-1.13-3.79-4.61-3-5.75-2.81l-26,9.72c.22-2.62-1.13-5.83-5.79-6.8l-30.21-5-.17,0a6.56,6.56,0,0,0-3.61.74L15.17,51.63a3,3,0,0,0-3.34-.47L1.71,56.05a3,3,0,0,0-1.42,4L10.71,82a3.06,3.06,0,0,0,1.8,1.58,3,3,0,0,0,.94.15,3,3,0,0,0,1.44-.36L25.08,77.9a3,3,0,0,0,1.31-4l3-2.16a2.58,2.58,0,0,1,2.22-.38l25.12,7.14a6.86,6.86,0,0,0,1.8.25A6.54,6.54,0,0,0,61,78.3L93.13,61.22l.13-.07C98.91,57.57,99.08,53.4,98.23,50.54ZM13.89,79.35,4.32,59.23l8.39-4,9.66,19.63ZM91.18,57.73,59.43,74.62a2.54,2.54,0,0,1-1.59.06L32.71,67.54a6.56,6.56,0,0,0-5.63,1L24.6,70.29,17.15,55.13,28.41,50l.12-.06a2.69,2.69,0,0,1,1.38-.31l30,5c1.29.27,2.78,1,2.53,2.67-.18,1.24-1.26,2.57-2.52,2.46L45.3,58.57a2,2,0,0,0-.31,4L59.63,63.7l.48,0a5.79,5.79,0,0,0,2-.39L93.45,51.62a3.56,3.56,0,0,1,.89-.11l0,.17C94.86,53.24,94.91,55.34,91.18,57.73Z"/></g></g></svg>