<svg xmlns="http://www.w3.org/2000/svg" viewBox="0 0 81.19 99.09"><defs><style>.cls-1{fill:#fff;}.cls-2{fill:#032530;}.cls-3{fill:#b4e6a5;}</style></defs><g id="Layer_2" data-name="Layer 2"><g id="Layer_1-2" data-name="Layer 1"><path class="cls-1" d="M17.57,4H63.62a48.9,48.9,0,0,1,.45,6.63c0,16.08-8.09,30.77-20.13,36.53A2,2,0,0,0,42.81,49V67.41H38.38V49a2,2,0,0,0-1.13-1.8c-12-5.77-20.13-20.46-20.13-36.54A48.79,48.79,0,0,1,17.57,4Z"/><g id="Cup"><path class="cls-2" d="M65.34,0H15.85a2,2,0,0,0-2,1.66c-.26,1.5-.46,3.1-.59,4.76H2A2,2,0,0,0,0,8.57C1.14,24.16,10.77,37.51,24,41.83A35.47,35.47,0,0,0,34.38,50.2V67.41H26.75a2,2,0,0,0-2,2v6.42H22.52a2,2,0,0,0-2,2v9.23a1.81,1.81,0,0,1-1.8,1.8,2,2,0,0,0-2,2v6.22a2,2,0,0,0,2,2H62.47a2,2,0,0,0,2-2V90.87a2,2,0,0,0-2-2,1.81,1.81,0,0,1-1.8-1.8V77.84a2,2,0,0,0-2-2H56.84V69.41a2,2,0,0,0-2-2h-8V50.2a35.47,35.47,0,0,0,10.38-8.37c13.23-4.32,22.86-17.67,24-33.26a2,2,0,0,0-2-2.15H67.9c-.13-1.66-.33-3.26-.59-4.76a2,2,0,0,0-2-1.66ZM17.57,4H63.62a48.9,48.9,0,0,1,.45,6.63c0,16.08-8.09,30.77-20.13,36.53A2,2,0,0,0,42.81,49V67.41H38.38V49a2,2,0,0,0-1.13-1.8c-12-5.77-20.13-20.46-20.13-36.54A48.79,48.79,0,0,1,17.57,4Zm50.5,6.42H77C75.62,21,69.9,30.3,61.77,35.32a49.59,49.59,0,0,0,6.3-24.69v-.21Zm-63.86,0h8.91v.21a49.59,49.59,0,0,0,6.3,24.69C11.29,30.3,5.57,21,4.21,10.42Zm24.54,61H52.84v4.42H28.75V71.41Zm-4.23,8.43H56.67v7.23a5.83,5.83,0,0,0,3.8,5.45v2.57H20.72V92.52a5.83,5.83,0,0,0,3.8-5.45V79.84Zm.83-73.52a2,2,0,0,0-2,1.95c0,.77,0,1.56,0,2.36a83.5,83.5,0,0,0,1.18,14.13,2,2,0,0,0,2,1.66,2,2,0,0,0,.34,0,2,2,0,0,0,1.63-2.31,79.69,79.69,0,0,1-1.12-13.45q0-1.14,0-2.25a2,2,0,0,0-1.95-2.06h0Z"/></g><polygon class="cls-3" points="28.75 71.41 52.84 71.41 52.84 75.83 28.75 75.83 28.75 71.41 28.75 71.41"/><path class="cls-3" d="M24.52,79.84H56.67v7.23a5.83,5.83,0,0,0,3.8,5.45v2.57H20.72V92.52a5.83,5.83,0,0,0,3.8-5.45V79.84Z"/><path class="cls-3" d="M38.38,57.29l4.43,4.15v2.74L38.38,60ZM42.87,8.67,37.89,4H35l6.65,6.23,0,0L60.71,28.12c.27-.67.52-1.35.76-2L42.91,8.63ZM22.51,32.47l20.3,18.94V49a1.09,1.09,0,0,1,0-.26L20.28,27.64A43.33,43.33,0,0,0,22.51,32.47ZM20.29,17.63,23.94,21c-.12-1-.23-2-.32-3L22.4,16.85l.05-.05-5.3-5.12c0,1,.07,2,.15,2.92l3.06,3ZM49.38,4.48l0,0,14.1,13.61q.2-1.23.33-2.46L51.73,4H48.86Zm-19.12,7L27.34,8.61c0,.67,0,1.34,0,2,0,.25,0,.5,0,.75l.33.31,0,.06L55.51,37.43c.4-.53.78-1.09,1.15-1.65L30.23,11.46ZM28.43,24.08a2,2,0,0,1-.08,1L49,44.05c.54-.41,1.07-.83,1.58-1.27L28.14,22.14C28.23,22.79,28.32,23.44,28.43,24.08ZM25,6.36,22.56,4H19.69l3.77,3.65A2,2,0,0,1,25,6.36Z"/></g></g></svg>