<svg xmlns="http://www.w3.org/2000/svg" viewBox="0 0 88.58 96.72"><defs><style>.cls-1{fill:#fff;}.cls-2{fill:#b4e6a5;}.cls-3{fill:#00313c;}</style></defs><g id="Layer_2" data-name="Layer 2"><g id="Layer_1-2" data-name="Layer 1"><path class="cls-1" d="M29.59,21.46h9.76a4.89,4.89,0,0,0-9.76,0Z"/><path class="cls-1" d="M78.87,76A11.38,11.38,0,0,1,67.5,87.32H21.09A11.38,11.38,0,0,1,9.72,76V66.5H78.87Z"/><path class="cls-2" d="M27.37,78.07a2,2,0,1,1-2.83,0A2,2,0,0,1,27.37,78.07Zm8.49-5.65a2,2,0,1,0-2.83,0A2,2,0,0,0,35.86,72.42Zm-19.8-2.83a2,2,0,1,0,2.83,0A2,2,0,0,0,16.06,69.59Zm.32,16.7a11.21,11.21,0,0,0,2.92.88,2,2,0,0,0-.41-.61A2,2,0,0,0,16.38,86.29Zm59.08-8.22a2,2,0,0,0,2,3.31,11.26,11.26,0,0,0,1.09-2.92,1.85,1.85,0,0,0-.3-.39A2,2,0,0,0,75.46,78.07Zm-65.06,0a1.79,1.79,0,0,0-.54-.37,11.27,11.27,0,0,0,.83,2.83A2,2,0,0,0,10.4,78.07ZM67,86.56a2,2,0,0,0-.47.76h1A11.47,11.47,0,0,0,70.13,87a2.09,2.09,0,0,0-.33-.45A2,2,0,0,0,67,86.56ZM44.34,80.9a2,2,0,1,0-2.83,0A2,2,0,0,0,44.34,80.9ZM50,86.56a1.9,1.9,0,0,0-.47.76H53.3a2,2,0,0,0-3.3-.76Zm-17,0a1.9,1.9,0,0,0-.47.76h3.77a2,2,0,0,0-3.3-.76Zm19.8-14.14a2,2,0,1,0-2.83,0A2,2,0,0,0,52.83,72.42Zm8.48,8.48a2,2,0,1,0-2.83,0A2,2,0,0,0,61.31,80.9Zm8.49-8.48a2,2,0,1,0-2.83,0A2,2,0,0,0,69.8,72.42ZM11.51,55.15A8.62,8.62,0,0,0,2.9,63.76l82.78-.16a8.62,8.62,0,0,0-8.61-8.45ZM25.93,32h16.9V29.17a4.9,4.9,0,0,0-4.89-4.9H30.83a4.91,4.91,0,0,0-4.9,4.9Z"/><path class="cls-3" d="M39.37,39.26v6.93a1.45,1.45,0,0,0,2.9,0V39.26a1.45,1.45,0,0,0-2.9,0Z"/><path class="cls-3" d="M26.67,39.26v6.93a1.45,1.45,0,0,0,2.9,0V39.26a1.45,1.45,0,0,0-2.9,0Z"/><path class="cls-3" d="M77.07,52.25H18.38v-42a7.32,7.32,0,0,1,14.64,0v3.92a7.8,7.8,0,0,0-6.35,7.65v.79A7.8,7.8,0,0,0,23,29.17v4.31a1.45,1.45,0,0,0,1.45,1.45h19.8a1.45,1.45,0,0,0,1.45-1.45V29.17a7.81,7.81,0,0,0-3.46-6.48v-.9a7.8,7.8,0,0,0-6.35-7.65V10.22a10.22,10.22,0,0,0-20.44,0v42h-4A11.52,11.52,0,0,0,0,63.76,2.75,2.75,0,0,0,2.75,66.5H6.81V76a14.27,14.27,0,0,0,7.94,12.77L11,94.46a1.46,1.46,0,0,0,.41,2,1.45,1.45,0,0,0,2-.41l4.18-6.31a14.19,14.19,0,0,0,3.54.46H67.5A14.17,14.17,0,0,0,71,89.76l4.18,6.31a1.48,1.48,0,0,0,1.21.65,1.5,1.5,0,0,0,.81-.24,1.46,1.46,0,0,0,.4-2l-3.8-5.74A14.25,14.25,0,0,0,81.77,76V66.5h4.07a2.74,2.74,0,0,0,2.74-2.74A11.52,11.52,0,0,0,77.07,52.25ZM42.83,29.17V32H25.93V29.17a4.89,4.89,0,0,1,4-4.81H38.8A4.89,4.89,0,0,1,42.83,29.17Zm-3.48-7.71H39a8,8,0,0,0-1.1-.09H30.83a8,8,0,0,0-1.11.09h-.13a4.89,4.89,0,0,1,9.76,0ZM78.87,76A11.38,11.38,0,0,1,67.5,87.32H21.09A11.38,11.38,0,0,1,9.72,76V66.5H78.87ZM2.9,63.76a8.62,8.62,0,0,1,8.61-8.61H77.07a8.62,8.62,0,0,1,8.61,8.45Z"/><path class="cls-3" d="M33,39.26v6.93a1.45,1.45,0,0,0,2.9,0V39.26a1.45,1.45,0,0,0-2.9,0Z"/></g></g></svg>