<svg xmlns="http://www.w3.org/2000/svg" viewBox="0 0 99.86 67.48"><defs><style>.cls-1{fill:#00313c;}.cls-2{fill:#fff;}.cls-3{fill:#b4e6a5;}</style></defs><g id="Layer_2" data-name="Layer 2"><g id="Layer_1-2" data-name="Layer 1"><path class="cls-1" d="M90.5,25.67V8.46A8.48,8.48,0,0,0,82,0H17.83A8.48,8.48,0,0,0,9.36,8.46V25.67A12.05,12.05,0,0,0,0,37.4V51.49a2,2,0,0,0,2,1.95H5.07V63.86A3.63,3.63,0,0,0,8.7,67.48h4.45a3.62,3.62,0,0,0,3.62-3.62V53.44H83.09V63.86a3.62,3.62,0,0,0,3.62,3.62h4.45a3.63,3.63,0,0,0,3.63-3.62V53.44h3.12a2,2,0,0,0,2-1.95V37.4A12.05,12.05,0,0,0,90.5,25.67ZM17.83,3.9H82A4.57,4.57,0,0,1,86.6,8.46V25.35H83.48V17.5a4.64,4.64,0,0,0-4.63-4.63H56.9a4.64,4.64,0,0,0-4.63,4.63v7.85H47.59V17.5A4.64,4.64,0,0,0,43,12.87H21a4.64,4.64,0,0,0-4.63,4.63v7.85H13.26V8.46A4.57,4.57,0,0,1,17.83,3.9ZM79.58,25.35H56.17V17.5a.73.73,0,0,1,.73-.73H78.85a.73.73,0,0,1,.73.73Zm-35.89,0H20.28V17.5a.73.73,0,0,1,.73-.73H43a.73.73,0,0,1,.73.73ZM12,29.26H87.82A8.15,8.15,0,0,1,96,37.4v2.91H3.9V37.4A8.15,8.15,0,0,1,12,29.26Zm.83,34.32H9V53.44h3.9Zm78,0H87V53.44h3.9Zm3.9-14H3.9V44.21H96v5.33Z"/><path class="cls-2" d="M17.83,3.9H82A4.57,4.57,0,0,1,86.6,8.46V25.35H83.48V17.5a4.64,4.64,0,0,0-4.63-4.63H56.9a4.64,4.64,0,0,0-4.63,4.63v7.85H47.59V17.5A4.64,4.64,0,0,0,43,12.87H21a4.64,4.64,0,0,0-4.63,4.63v7.85H13.26V8.46A4.57,4.57,0,0,1,17.83,3.9ZM12,29.26H87.82A8.15,8.15,0,0,1,96,37.4v2.91H3.9V37.4A8.15,8.15,0,0,1,12,29.26Z"/><path class="cls-3" d="M79.58,25.35H56.17V17.5a.73.73,0,0,1,.73-.73H78.85a.73.73,0,0,1,.73.73Zm-35.89,0H20.28V17.5a.73.73,0,0,1,.73-.73H43a.73.73,0,0,1,.73.73ZM12.87,63.58H9V53.44h3.9Zm78,0H87V53.44h3.9Zm3.9-14H3.9V44.21H96v5.33Z"/><path class="cls-3" d="M29,33.85,27.6,35.27,29,36.69l-1.13,1.14-1.43-1.42L25,37.83l-1.13-1.14,1.42-1.42-1.42-1.42L25,32.71l1.42,1.43,1.43-1.43ZM11.59,32.71l-1.42,1.43L8.75,32.71,7.61,33.85,9,35.27,7.61,36.69l1.14,1.14,1.42-1.42,1.42,1.42,1.14-1.14-1.42-1.42,1.42-1.42Zm32.59,0-1.42,1.43-1.43-1.43L40.2,33.85l1.42,1.42L40.2,36.69l1.13,1.14,1.43-1.42,1.42,1.42,1.13-1.14-1.42-1.42,1.42-1.42Zm49.58,1.14-1.13-1.14-1.42,1.43-1.42-1.43-1.14,1.14,1.42,1.42-1.42,1.42,1.14,1.14,1.42-1.42,1.42,1.42,1.13-1.14-1.42-1.42ZM76.55,32.71l-1.42,1.43-1.42-1.43-1.14,1.14L74,35.27l-1.42,1.42,1.14,1.14,1.42-1.42,1.42,1.42,1.13-1.14-1.42-1.42,1.42-1.42Zm-16.08,0-1.42,1.43-1.42-1.43-1.14,1.14,1.42,1.42-1.42,1.42,1.14,1.14,1.42-1.42,1.42,1.42,1.13-1.14-1.42-1.42,1.42-1.42Z"/></g></g></svg>