<svg xmlns="http://www.w3.org/2000/svg" viewBox="0 0 113.5 97.97"><defs><style>.cls-1{fill:#fff;}.cls-2{fill:#b4e6a5;}.cls-3{fill:#002531;}</style></defs><g id="Layer_2" data-name="Layer 2"><g id="Layer_1-2" data-name="Layer 1"><path class="cls-1" d="M2.32,77.58,2.4,48.9a3.59,3.59,0,0,1,1.1-2.59,3.67,3.67,0,0,1,2.61-1.06h0a3.7,3.7,0,0,1,3.6,2.87V61.64a1.16,1.16,0,0,0,2.31,0V48.1s0,0,0-.06,0,0,0-.06V41.49a3.71,3.71,0,0,1,7.41,0V61.64a1.16,1.16,0,0,0,2.31,0V34.87a3.71,3.71,0,0,1,7.42,0V61.64a1.15,1.15,0,0,0,2.3,0V41.49a3.71,3.71,0,0,1,7.42,0V71.82a1.14,1.14,0,0,0,.71,1.06,1.16,1.16,0,0,0,1.26-.25l4.82-4.77a3.83,3.83,0,0,1,5.25,0,3.66,3.66,0,0,1,0,5.19L34.65,89.16A18.32,18.32,0,0,1,2.31,77.74S2.32,77.64,2.32,77.58Z"/><path class="cls-1" d="M111.19,77.74A18.32,18.32,0,0,1,78.85,89.16L62.57,73.05a3.66,3.66,0,0,1,0-5.19,3.83,3.83,0,0,1,5.25,0l4.82,4.77a1.16,1.16,0,0,0,1.26.25,1.14,1.14,0,0,0,.71-1.06V41.49a3.71,3.71,0,0,1,7.42,0V61.64a1.15,1.15,0,0,0,2.3,0V34.87a3.71,3.71,0,0,1,7.42,0V61.64a1.16,1.16,0,0,0,2.31,0V41.49a3.71,3.71,0,0,1,7.41,0V48s0,0,0,.06,0,0,0,.06V61.64a1.16,1.16,0,0,0,2.31,0V48.12a3.7,3.7,0,0,1,3.6-2.87h0A3.67,3.67,0,0,1,110,46.31a3.59,3.59,0,0,1,1.1,2.59l.08,28.68A.81.81,0,0,0,111.19,77.74Z"/><polygon class="cls-2" points="44.64 74.8 45.98 73.46 47.32 74.8 48.45 73.67 47.11 72.33 48.45 70.98 47.32 69.85 45.98 71.2 44.64 69.85 43.51 70.98 44.85 72.33 43.51 73.67 44.64 74.8"/><polygon class="cls-2" points="35.32 69.85 33.98 71.2 32.64 69.85 31.5 70.98 32.85 72.33 31.5 73.67 32.64 74.8 33.98 73.46 35.32 74.8 36.45 73.67 35.11 72.33 36.45 70.98 35.32 69.85"/><polygon class="cls-2" points="38.89 62.85 38.89 62.49 38.7 62.67 38.89 62.85"/><polygon class="cls-2" points="38.89 60.17 38.89 59.8 38.7 59.98 38.89 60.17"/><path class="cls-2" d="M27.84,63.8l1.34-1.34,1.34,1.34,1.13-1.13-.4-.4a1.12,1.12,0,0,1-.93.51,1.14,1.14,0,0,1-1.15-1.14V60.18l-1.33-1.33L26.71,60l1.34,1.35-1.34,1.34Z"/><polygon class="cls-2" points="31.47 59.8 31.47 60.17 31.65 59.98 31.47 59.8"/><polygon class="cls-2" points="33.91 48.98 35.25 50.33 33.91 51.67 35.04 52.8 36.38 51.46 37.72 52.8 38.85 51.67 37.51 50.33 38.85 48.98 37.72 47.85 36.38 49.2 35.04 47.85 33.91 48.98"/><polygon class="cls-2" points="29.11 37.98 29.17 38.05 29.17 37.92 29.11 37.98"/><path class="cls-2" d="M31.62,40.5l1.3,1.3,1.13-1.13-1.34-1.34L34,38A3.7,3.7,0,0,0,31.62,40.5Z"/><polygon class="cls-2" points="29.17 40.73 29.17 40.61 29.11 40.67 29.17 40.73"/><path class="cls-2" d="M30.24,91.85,29.11,93l.38.39c.48-.26,1-.55,1.41-.86Z"/><polygon class="cls-2" points="39.91 83.33 41.25 81.98 40.12 80.85 38.78 82.2 37.44 80.85 36.3 81.98 37.65 83.33 36.3 84.67 37.44 85.8 38.78 84.46 39.09 84.77 40.23 83.64 39.91 83.33"/><polygon class="cls-2" points="23.32 69.85 21.98 71.2 20.64 69.85 19.5 70.98 20.85 72.33 19.5 73.67 20.64 74.8 21.98 73.46 23.32 74.8 24.45 73.67 23.11 72.33 24.45 70.98 23.32 69.85"/><polygon class="cls-2" points="11.32 69.85 9.98 71.2 8.64 69.85 7.5 70.98 8.85 72.33 7.5 73.67 8.64 74.8 9.98 73.46 11.32 74.8 12.45 73.67 11.11 72.33 12.45 70.98 11.32 69.85"/><polygon class="cls-2" points="15.84 63.8 17.18 62.46 18.52 63.8 19.65 62.67 18.31 61.33 19.44 60.19 19.44 59.77 18.52 58.85 17.18 60.2 15.84 58.85 14.71 59.98 16.05 61.33 14.71 62.67 15.84 63.8"/><polygon class="cls-2" points="3.84 63.8 5.18 62.46 6.52 63.8 7.65 62.67 6.31 61.33 7.65 59.98 6.52 58.85 5.18 60.2 3.84 58.85 2.71 59.98 4.05 61.33 2.71 62.67 3.84 63.8"/><polygon class="cls-2" points="23.25 50.33 21.91 51.67 23.04 52.8 24.38 51.46 25.72 52.8 26.85 51.67 25.51 50.33 26.85 48.98 25.72 47.85 24.38 49.2 23.04 47.85 21.91 48.98 23.25 50.33"/><polygon class="cls-2" points="12.38 51.46 13.72 52.8 14.85 51.67 13.51 50.33 14.85 48.98 13.72 47.85 12.38 49.2 12.03 48.84 12.03 51.81 12.38 51.46"/><polygon class="cls-2" points="2.39 51.21 2.39 52.13 2.85 51.67 2.39 51.21"/><path class="cls-2" d="M2.4,49.44,2.85,49l-.42-.42c0,.12,0,.23,0,.34Z"/><polygon class="cls-2" points="21.75 40.37 21.75 40.98 22.05 40.67 21.75 40.37"/><polygon class="cls-2" points="21.75 38.29 22.05 37.98 21.75 37.68 21.75 38.29"/><path class="cls-2" d="M18.45,39.33l-1.34,1.34,1.13,1.13,1.11-1.11a3.65,3.65,0,0,0-2.07-2.53Z"/><path class="cls-2" d="M22.05,93l-1.13-1.13L19.58,93.2l-1.34-1.35L17.11,93l1.34,1.35-1.06,1.06a19.2,19.2,0,0,0,2,.24l.17-.17.18.18c.28,0,.56,0,.84,0,.47,0,.93,0,1.39-.08l-1.28-1.28Z"/><polygon class="cls-2" points="24.3 81.98 25.65 83.33 24.3 84.67 25.44 85.8 26.78 84.46 28.12 85.8 29.25 84.67 27.91 83.33 29.25 81.98 28.12 80.85 26.78 82.2 25.44 80.85 24.3 81.98"/><polygon class="cls-2" points="12.3 81.98 13.65 83.33 12.3 84.67 13.44 85.8 14.78 84.46 16.12 85.8 17.25 84.67 15.91 83.33 17.25 81.98 16.12 80.85 14.78 82.2 13.44 80.85 12.3 81.98"/><path class="cls-2" d="M3.91,83.33,5.25,82,4.12,80.85,2.9,82.08a18.06,18.06,0,0,0,1.36,3.59l1-1Z"/><path class="cls-3" d="M20.6,98A20.55,20.55,0,0,0,36.35,90.7l16.21-16a5.93,5.93,0,0,0,0-8.42,6.07,6.07,0,0,0-8.51,0l-2.86,2.83V41.49a6,6,0,0,0-6-6,6,6,0,0,0-3.71,1.27V34.87a6,6,0,0,0-12,0V36.8a6,6,0,0,0-9.72,4.69v2.68A6,6,0,0,0,6.13,43h0a6,6,0,0,0-4.24,1.73,5.9,5.9,0,0,0-1.78,4.2L0,77.41a.91.91,0,0,0,0,.17A20.52,20.52,0,0,0,20.6,98ZM2.32,77.58,2.4,48.9a3.59,3.59,0,0,1,1.1-2.59,3.67,3.67,0,0,1,2.61-1.06h0a3.7,3.7,0,0,1,3.6,2.87V61.64a1.16,1.16,0,0,0,2.31,0V48.1s0,0,0-.06,0,0,0-.06V41.49a3.71,3.71,0,0,1,7.41,0V61.64a1.16,1.16,0,0,0,2.31,0V34.87a3.71,3.71,0,0,1,7.42,0V61.64a1.15,1.15,0,0,0,2.3,0V41.49a3.71,3.71,0,0,1,7.42,0V71.82a1.14,1.14,0,0,0,.71,1.06,1.16,1.16,0,0,0,1.26-.25l4.82-4.77a3.83,3.83,0,0,1,5.25,0,3.66,3.66,0,0,1,0,5.19L34.65,89.16A18.32,18.32,0,0,1,2.31,77.74S2.32,77.64,2.32,77.58Z"/><path class="cls-3" d="M113.5,77.58c0-.06,0-.12,0-.17l-.08-28.52a5.9,5.9,0,0,0-1.78-4.2A6,6,0,0,0,107.39,43h0a6,6,0,0,0-3.59,1.21V41.49a6,6,0,0,0-9.72-4.69V34.87a6,6,0,0,0-12,0V36.8a6,6,0,0,0-9.73,4.69V69.07l-2.85-2.83a6.07,6.07,0,0,0-8.51,0,5.93,5.93,0,0,0,0,8.42l16.21,16A20.63,20.63,0,0,0,113.5,77.58Zm-2.31.16A18.32,18.32,0,0,1,78.85,89.16L62.57,73.05a3.66,3.66,0,0,1,0-5.19,3.83,3.83,0,0,1,5.25,0l4.82,4.77a1.16,1.16,0,0,0,1.26.25,1.14,1.14,0,0,0,.71-1.06V41.49a3.71,3.71,0,0,1,7.42,0V61.64a1.15,1.15,0,0,0,2.3,0V34.87a3.71,3.71,0,0,1,7.42,0V61.64a1.16,1.16,0,0,0,2.31,0V41.49a3.71,3.71,0,0,1,7.41,0V48s0,0,0,.06,0,0,0,.06V61.64a1.16,1.16,0,0,0,2.31,0V48.12a3.7,3.7,0,0,1,3.6-2.87h0A3.67,3.67,0,0,1,110,46.31a3.59,3.59,0,0,1,1.1,2.59l.08,28.68A.81.81,0,0,0,111.19,77.74Z"/><polygon class="cls-2" points="68.86 74.8 67.52 73.46 66.18 74.8 65.05 73.67 66.39 72.33 65.05 70.98 66.18 69.85 67.52 71.2 68.86 69.85 69.99 70.98 68.65 72.33 69.99 73.67 68.86 74.8"/><polygon class="cls-2" points="78.18 69.85 79.52 71.2 80.86 69.85 81.99 70.98 80.65 72.33 81.99 73.67 80.86 74.8 79.52 73.46 78.18 74.8 77.05 73.67 78.39 72.33 77.05 70.98 78.18 69.85"/><polygon class="cls-2" points="74.61 62.85 74.61 62.49 74.79 62.67 74.61 62.85"/><polygon class="cls-2" points="74.61 60.17 74.61 59.8 74.79 59.98 74.61 60.17"/><path class="cls-2" d="M85.66,63.8l-1.34-1.34L83,63.8l-1.14-1.13.41-.4a1.11,1.11,0,0,0,.93.51,1.14,1.14,0,0,0,1.15-1.14V60.18l1.33-1.33L86.79,60l-1.34,1.35,1.34,1.34Z"/><polygon class="cls-2" points="82.03 59.8 82.03 60.17 81.84 59.98 82.03 59.8"/><polygon class="cls-2" points="79.59 48.98 78.25 50.33 79.59 51.67 78.46 52.8 77.12 51.46 75.78 52.8 74.64 51.67 75.99 50.33 74.64 48.98 75.78 47.85 77.12 49.2 78.46 47.85 79.59 48.98"/><polygon class="cls-2" points="84.39 37.98 84.33 38.05 84.33 37.92 84.39 37.98"/><path class="cls-2" d="M81.88,40.5l-1.3,1.3-1.14-1.13,1.35-1.34L79.48,38A3.7,3.7,0,0,1,81.88,40.5Z"/><polygon class="cls-2" points="84.33 40.73 84.33 40.61 84.39 40.67 84.33 40.73"/><path class="cls-2" d="M83.26,91.85,84.39,93l-.39.39c-.48-.26-.94-.55-1.4-.86Z"/><polygon class="cls-2" points="73.59 83.33 72.25 81.98 73.38 80.85 74.72 82.2 76.06 80.85 77.19 81.98 75.85 83.33 77.19 84.67 76.06 85.8 74.72 84.46 74.41 84.77 73.27 83.64 73.59 83.33"/><polygon class="cls-2" points="90.18 69.85 91.52 71.2 92.86 69.85 93.99 70.98 92.65 72.33 93.99 73.67 92.86 74.8 91.52 73.46 90.18 74.8 89.05 73.67 90.39 72.33 89.05 70.98 90.18 69.85"/><polygon class="cls-2" points="102.18 69.85 103.52 71.2 104.86 69.85 105.99 70.98 104.65 72.33 105.99 73.67 104.86 74.8 103.52 73.46 102.18 74.8 101.05 73.67 102.39 72.33 101.05 70.98 102.18 69.85"/><polygon class="cls-2" points="97.66 63.8 96.32 62.46 94.98 63.8 93.84 62.67 95.19 61.33 94.06 60.19 94.06 59.77 94.98 58.85 96.32 60.2 97.66 58.85 98.79 59.98 97.45 61.33 98.79 62.67 97.66 63.8"/><polygon class="cls-2" points="109.66 63.8 108.32 62.46 106.98 63.8 105.84 62.67 107.19 61.33 105.84 59.98 106.98 58.85 108.32 60.2 109.66 58.85 110.79 59.98 109.45 61.33 110.79 62.67 109.66 63.8"/><polygon class="cls-2" points="90.25 50.33 91.59 51.67 90.46 52.8 89.12 51.46 87.78 52.8 86.64 51.67 87.99 50.33 86.64 48.98 87.78 47.85 89.12 49.2 90.46 47.85 91.59 48.98 90.25 50.33"/><polygon class="cls-2" points="101.12 51.46 99.78 52.8 98.64 51.67 99.99 50.33 98.64 48.98 99.78 47.85 101.12 49.2 101.47 48.84 101.47 51.81 101.12 51.46"/><polygon class="cls-2" points="111.11 51.21 111.11 52.13 110.64 51.67 111.11 51.21"/><path class="cls-2" d="M111.1,49.44l-.45-.46.41-.42a2.09,2.09,0,0,1,0,.34Z"/><polygon class="cls-2" points="91.75 40.37 91.75 40.98 91.44 40.67 91.75 40.37"/><polygon class="cls-2" points="91.75 38.29 91.44 37.98 91.75 37.68 91.75 38.29"/><path class="cls-2" d="M95.05,39.33l1.34,1.34L95.26,41.8l-1.11-1.11a3.65,3.65,0,0,1,2.07-2.53Z"/><path class="cls-2" d="M91.44,93l1.14-1.13,1.34,1.35,1.34-1.35L96.39,93l-1.34,1.35,1.06,1.06a19.2,19.2,0,0,1-2,.24l-.17-.17-.19.18c-.27,0-.55,0-.83,0-.47,0-.93,0-1.39-.08l1.28-1.28Z"/><polygon class="cls-2" points="89.19 81.98 87.85 83.33 89.19 84.67 88.06 85.8 86.72 84.46 85.38 85.8 84.25 84.67 85.59 83.33 84.25 81.98 85.38 80.85 86.72 82.2 88.06 80.85 89.19 81.98"/><polygon class="cls-2" points="101.19 81.98 99.85 83.33 101.19 84.67 100.06 85.8 98.72 84.46 97.38 85.8 96.25 84.67 97.59 83.33 96.25 81.98 97.38 80.85 98.72 82.2 100.06 80.85 101.19 81.98"/><path class="cls-2" d="M109.59,83.33,108.24,82l1.14-1.13,1.22,1.23a18.06,18.06,0,0,1-1.36,3.59l-1-1Z"/><path class="cls-3" d="M94.12,88.34a1.14,1.14,0,0,0,1.15-1.14,15.06,15.06,0,0,0-15.13-15,1.14,1.14,0,1,0,0,2.28A12.78,12.78,0,0,1,93,87.2,1.14,1.14,0,0,0,94.12,88.34Z"/><path class="cls-3" d="M19.38,88.34a1.14,1.14,0,0,0,1.15-1.14A12.78,12.78,0,0,1,33.36,74.51a1.14,1.14,0,1,0,0-2.28,15.07,15.07,0,0,0-15.13,15A1.15,1.15,0,0,0,19.38,88.34Z"/><path class="cls-3" d="M55.42,15.15A1.15,1.15,0,0,0,56.57,14V1.14a1.16,1.16,0,0,0-2.31,0V14A1.15,1.15,0,0,0,55.42,15.15Z"/><path class="cls-3" d="M41.7,16.93a1.17,1.17,0,0,0,1.07.71,1.19,1.19,0,0,0,.44-.09,1.13,1.13,0,0,0,.62-1.49l-5-11.89a1.16,1.16,0,0,0-1.51-.61,1.14,1.14,0,0,0-.62,1.49Z"/><path class="cls-3" d="M31.23,24.4a1.17,1.17,0,0,0,.82.33,1.14,1.14,0,0,0,.81-1.95l-9.19-9.09a1.15,1.15,0,0,0-1.63,0,1.13,1.13,0,0,0,0,1.61Z"/><path class="cls-3" d="M78.79,24.73a1.15,1.15,0,0,0,.81-.33l9.19-9.1a1.13,1.13,0,0,0,0-1.61,1.15,1.15,0,0,0-1.63,0L78,22.78a1.14,1.14,0,0,0,0,1.62A1.17,1.17,0,0,0,78.79,24.73Z"/><path class="cls-3" d="M67.62,17.55a1.19,1.19,0,0,0,.44.09,1.17,1.17,0,0,0,1.07-.71l5-11.88a1.14,1.14,0,0,0-.62-1.49A1.16,1.16,0,0,0,72,4.17L67,16.06A1.13,1.13,0,0,0,67.62,17.55Z"/></g></g></svg>