<svg xmlns="http://www.w3.org/2000/svg" viewBox="0 0 98.38 90.6"><defs><style>.cls-1{fill:#fff;}.cls-2{fill:#b4e6a5;}.cls-3{fill:#032530;}</style></defs><g id="Layer_2" data-name="Layer 2"><g id="Layer_1-2" data-name="Layer 1"><path class="cls-1" d="M83.2,73l-2,1.16v2.33l0,7.26-10-5.66L70,77.44l-1.3.16a45.94,45.94,0,0,1-5.34.32c-8.53,0-16.49-2.34-22.43-6.58-5.53-4-8.57-9.07-8.57-14.42a14.92,14.92,0,0,1,1.77-7c.29,0,.56,0,.85,0,13.79,0,25.71-5.7,31.42-14h0A37.75,37.75,0,0,1,85.8,42.49c5.53,3.95,8.58,9.08,8.58,14.43C94.38,63.09,90.3,69,83.2,73Z"/><polygon class="cls-2" points="76.85 62.24 75.51 63.58 74.17 62.24 73.03 63.37 74.38 64.72 73.03 66.06 74.17 67.19 75.51 65.85 76.85 67.19 77.98 66.06 76.64 64.72 77.98 63.37 76.85 62.24"/><path class="cls-2" d="M84.45,70.64,83.11,72l-1.34-1.34-1.13,1.13L82,73.11l-1.34,1.35.53.54v-.85l2-1.16c.77-.44,1.51-.91,2.21-1.39Z"/><polygon class="cls-2" points="74.17 51.86 75.51 50.51 76.85 51.86 77.98 50.73 76.64 49.38 77.98 48.04 76.85 46.91 75.51 48.25 74.17 46.91 73.03 48.04 74.38 49.38 73.03 50.73 74.17 51.86"/><polygon class="cls-2" points="84.45 54.51 83.11 55.85 81.77 54.51 80.64 55.64 81.98 56.98 80.64 58.32 81.77 59.46 83.11 58.11 84.45 59.46 85.58 58.32 84.24 56.98 85.58 55.64 84.45 54.51"/><polygon class="cls-2" points="76.64 80.72 77.98 79.37 76.85 78.24 75.51 79.58 74.17 78.24 73.18 79.22 77.7 81.77 76.64 80.72"/><polygon class="cls-2" points="66.57 75.59 67.91 74.25 69.25 75.59 70.38 74.46 69.04 73.11 70.38 71.77 69.25 70.64 67.91 71.98 66.57 70.64 65.44 71.77 66.78 73.11 65.44 74.46 66.57 75.59"/><path class="cls-2" d="M92.65,62.24l-1.34,1.34L90,62.24l-1.13,1.13,1.34,1.35-1.34,1.34L90,67.19l1.34-1.34,0,0a17.84,17.84,0,0,0,1.79-3.16Z"/><path class="cls-2" d="M82,41.65,80.64,43l1.13,1.13,1.34-1.34,1.34,1.34L85.58,43l-1.34-1.34.1-.1a32.38,32.38,0,0,0-3.17-1.78l-.53.54Z"/><polygon class="cls-2" points="66.57 59.46 67.91 58.11 69.25 59.46 70.38 58.33 69.04 56.98 70.38 55.64 69.25 54.51 67.91 55.85 66.57 54.51 65.44 55.64 66.78 56.98 65.44 58.32 66.57 59.46"/><polygon class="cls-2" points="69.25 39.17 67.91 40.52 66.57 39.17 65.44 40.31 66.78 41.65 65.44 42.99 66.57 44.12 67.91 42.78 69.25 44.12 70.38 42.99 69.04 41.65 70.38 40.3 69.25 39.17"/><polygon class="cls-2" points="61.45 62.24 60.11 63.58 58.77 62.24 57.63 63.37 58.98 64.72 57.63 66.06 58.77 67.19 60.11 65.85 61.45 67.19 62.58 66.06 61.24 64.72 62.58 63.37 61.45 62.24"/><polygon class="cls-2" points="61.45 46.91 60.11 48.25 58.77 46.91 57.63 48.04 58.98 49.38 57.63 50.73 58.77 51.86 60.11 50.51 61.45 51.86 62.58 50.73 61.24 49.38 62.58 48.04 61.45 46.91"/><polygon class="cls-2" points="43.37 67.19 44.71 65.85 46.05 67.19 47.19 66.06 45.84 64.72 47.19 63.37 46.05 62.24 44.71 63.58 43.37 62.24 42.23 63.37 43.58 64.72 42.23 66.06 43.37 67.19"/><polygon class="cls-2" points="38.45 54.51 37.11 55.85 35.77 54.51 34.63 55.64 35.98 56.98 34.63 58.32 35.77 59.46 37.11 58.11 38.45 59.46 39.58 58.32 38.24 56.98 39.58 55.64 38.45 54.51"/><path class="cls-2" d="M91.46,48.1l-.15.15L90,46.91,88.84,48l1.34,1.34-1.34,1.35L90,51.86l1.34-1.35,1.34,1.35.57-.57A17.28,17.28,0,0,0,91.46,48.1Z"/><polygon class="cls-2" points="46.05 46.91 44.71 48.25 43.37 46.91 42.23 48.04 43.58 49.38 42.23 50.73 43.37 51.86 44.71 50.51 46.05 51.86 47.19 50.73 45.84 49.38 47.19 48.04 46.05 46.91"/><polygon class="cls-2" points="53.85 70.64 52.51 71.98 51.17 70.64 50.03 71.77 51.38 73.11 50.03 74.46 51.17 75.59 52.51 74.25 53.85 75.59 54.98 74.46 53.64 73.11 54.98 71.77 53.85 70.64"/><polygon class="cls-2" points="53.85 54.51 52.51 55.85 51.17 54.51 50.03 55.64 51.38 56.98 50.03 58.33 51.17 59.46 52.51 58.11 53.85 59.46 54.98 58.33 53.64 56.98 54.98 55.64 53.85 54.51"/><path class="cls-2" d="M35,4c8.52,0,16.49,2.34,22.42,6.58C63,14.53,66,19.65,66,25s-3,10.47-8.58,14.42C51.49,43.66,43.52,46,35,46a45.94,45.94,0,0,1-5.34-.32l-1.3-.16-1.14.65-10,5.66,0-7.27V42.23l-2-1.15C8.08,37,4,31.17,4,25c0-5.35,3.05-10.47,8.58-14.42C18.51,6.34,26.48,4,35,4"/><path class="cls-3" d="M98.38,56.92c0-12.56-13-23-29.86-24.73h0A18.43,18.43,0,0,0,70,25C70,11.19,54.33,0,35,0S0,11.19,0,25c0,7.92,5.16,15,13.2,19.55l0,14.14,16-9c.22,0,.45,0,.67.06h0a18.49,18.49,0,0,0-1.48,7.21c0,13.8,15.67,25,35,25a50.22,50.22,0,0,0,5.81-.35l16,9,0-14.13C93.22,71.89,98.38,64.83,98.38,56.92Zm-70-11.4-1.14.65-10,5.66,0-7.27V42.23l-2-1.15C8.08,37,4,31.17,4,25c0-5.35,3.05-10.47,8.58-14.42C18.51,6.34,26.48,4,35,4s16.49,2.34,22.42,6.58C63,14.53,66,19.65,66,25s-3,10.47-8.58,14.42C51.49,43.66,43.52,46,35,46a45.94,45.94,0,0,1-5.34-.32ZM83.2,73l-2,1.16v2.33l0,7.26-10-5.66L70,77.44l-1.3.16a45.94,45.94,0,0,1-5.34.32c-8.53,0-16.49-2.34-22.43-6.58-5.53-4-8.57-9.07-8.57-14.42a14.92,14.92,0,0,1,1.77-7c.29,0,.56,0,.85,0,13.79,0,25.71-5.7,31.42-14h0A37.75,37.75,0,0,1,85.8,42.49c5.53,3.95,8.58,9.08,8.58,14.43C94.38,63.09,90.3,69,83.2,73ZM67.61,34.08l-.07.13ZM26.68,24.54a3,3,0,1,1-3-3A3,3,0,0,1,26.68,24.54Zm16.64,0a3,3,0,1,1,3,3A3,3,0,0,1,43.32,24.54Zm-8.32,3a3,3,0,1,1,3-3A3,3,0,0,1,35,27.54Z"/></g></g></svg>