<svg xmlns="http://www.w3.org/2000/svg" viewBox="0 0 93.12 93.12"><defs><style>.cls-1{fill:#fff;}.cls-2{fill:#00313c;}.cls-3{fill:#b4e6a5;}</style></defs><g id="Layer_2" data-name="Layer 2"><g id="Layer_1-2" data-name="Layer 1"><path class="cls-1" d="M46.56,13.26a33.31,33.31,0,1,0,33.31,33.3A33.34,33.34,0,0,0,46.56,13.26Z"/><path class="cls-2" d="M46.56,93.12A46.56,46.56,0,1,1,93.12,46.56,46.61,46.61,0,0,1,46.56,93.12ZM46.56,4A42.56,42.56,0,1,0,89.12,46.56,42.61,42.61,0,0,0,46.56,4Zm0,79.87A37.31,37.31,0,1,1,83.87,46.56,37.35,37.35,0,0,1,46.56,83.87Zm0-70.61a33.31,33.31,0,1,0,33.31,33.3A33.34,33.34,0,0,0,46.56,13.26Z"/><path class="cls-3" d="M46.56,4A42.56,42.56,0,1,0,89.12,46.56,42.61,42.61,0,0,0,46.56,4Zm0,79.87A37.31,37.31,0,1,1,83.87,46.56,37.35,37.35,0,0,1,46.56,83.87Z"/><path class="cls-3" d="M72.29,67.69c-.42.51-.87,1-1.32,1.5L23.09,23c.48-.47,1-.93,1.47-1.37Zm-53.79-39c-.36.58-.72,1.16-1.05,1.76L63.72,75.09c.59-.35,1.16-.72,1.72-1.11Zm-4.05,9.1c-.2.74-.39,1.49-.54,2.25L54.25,79c.76-.18,1.51-.38,2.25-.61ZM41.3,79.45c1.07.17,2.15.28,3.25.35L13.41,49.73c.11,1.1.26,2.18.47,3.24ZM56.39,14.74a33.13,33.13,0,0,0-4-1L78.76,38.06a31.08,31.08,0,0,0-1.31-3.92ZM41.6,13.63c-.83.12-1.63.28-2.44.47L79.47,51.72c.12-.82.21-1.65.28-2.48Zm-10,3.22c-.63.31-1.24.65-1.85,1L76.31,61.52c.31-.63.61-1.26.89-1.91Z"/></g></g></svg>