<svg xmlns="http://www.w3.org/2000/svg" viewBox="0 0 99.81 87.85"><defs><style>.cls-1{fill:#fff;}.cls-2{fill:#032530;}.cls-3{fill:#b4e6a5;}</style></defs><g id="Layer_2" data-name="Layer 2"><g id="Layer_1-2" data-name="Layer 1"><path class="cls-1" d="M5.73,4H94.08a1.74,1.74,0,0,1,1.74,1.74V53.07H4V5.73A1.74,1.74,0,0,1,5.73,4Z"/><path class="cls-2" d="M94.08,0H5.73A5.74,5.74,0,0,0,0,5.73v60a5.74,5.74,0,0,0,5.73,5.73H36.25v2.67a5.76,5.76,0,0,1-1.53,3.7l-4,4.56a1.91,1.91,0,0,0-.32.51,3.56,3.56,0,0,0,3.27,5H66.11a3.56,3.56,0,0,0,3.27-5,1.91,1.91,0,0,0-.32-.51l-4-4.56a5.77,5.77,0,0,1-1.53-3.72V71.42H94.08a5.74,5.74,0,0,0,5.73-5.73v-60A5.74,5.74,0,0,0,94.08,0ZM5.73,4H94.08a1.74,1.74,0,0,1,1.74,1.74V53.07H4V5.73A1.74,1.74,0,0,1,5.73,4ZM62.08,80.41l3,3.46H34.72l3-3.46a9.78,9.78,0,0,0,2.51-6.34V71.42H59.57v2.69A9.76,9.76,0,0,0,62.08,80.41Zm32-13H5.73A1.74,1.74,0,0,1,4,65.69V57.05H95.82v8.64A1.74,1.74,0,0,1,94.08,67.43Z"/><path class="cls-3" d="M61.56,14.36,60.1,15.82l-1.17-1.17,1.46-1.45Zm-3.79,1.46-1.46,1.46,1.16,1.17L58.93,17Zm1.16-1.17L57.47,13.2l-1.16,1.16,1.46,1.46L58.93,17l1.46,1.46,1.17-1.17L60.1,15.82Zm1.46,15.2-1.46,1.46,1.17,1.17L61.56,31Zm-2.62,2.63-1.46,1.46,1.16,1.17,1.46-1.46Zm1.16-1.17-1.46-1.46L56.31,31l1.46,1.46,1.16,1.17,1.46,1.46,1.17-1.17L60.1,32.48Zm1.46,15.2L58.93,48l1.17,1.17,1.46-1.46Zm-2.62,2.63L56.31,50.6l1.16,1.16,1.46-1.45ZM58.93,48l-1.46-1.46-1.16,1.17,1.46,1.46,1.16,1.17,1.46,1.45,1.17-1.16L60.1,49.14Zm18-34.77-1.46,1.45,1.16,1.17,1.46-1.46Zm-2.63,2.62-1.46,1.46L74,18.45,75.45,17Zm1.17-1.17L74,13.2l-1.17,1.16,1.46,1.46L75.45,17l1.46,1.46,1.16-1.17-1.46-1.46Zm1.46,15.2-1.46,1.46,1.16,1.17L78.07,31Zm-2.63,2.63-1.46,1.46L74,35.11l1.46-1.46Zm1.17-1.17L74,29.85,72.82,31l1.46,1.46,1.17,1.17,1.46,1.46,1.16-1.17-1.46-1.46Zm1.46,15.2L75.45,48l1.16,1.17,1.46-1.46Zm-2.63,2.63L72.82,50.6,74,51.76l1.46-1.45ZM75.45,48,74,46.51l-1.17,1.17,1.46,1.46,1.17,1.17,1.46,1.45,1.16-1.16-1.46-1.46Zm-6.8-43L67.19,6.4l1.17,1.17,1.46-1.46ZM66,7.57,64.56,9l1.17,1.16,1.46-1.46ZM67.19,6.4,65.73,4.94,64.56,6.11,66,7.57l1.17,1.16,1.46,1.46L69.82,9,68.36,7.57Zm1.46,15.2-1.46,1.46,1.17,1.16,1.46-1.46ZM66,24.22l-1.46,1.46,1.17,1.17,1.46-1.46Zm1.17-1.16L65.73,21.6l-1.17,1.16L66,24.22l1.17,1.17,1.46,1.46,1.17-1.17-1.46-1.46Zm1.46,15.19-1.46,1.46,1.17,1.17,1.46-1.46ZM66,40.88l-1.46,1.46,1.17,1.17,1.46-1.46Zm1.17-1.17-1.46-1.46-1.17,1.17L66,40.88l1.17,1.17,1.46,1.46,1.17-1.17-1.46-1.46ZM51.92,4.94,50.46,6.4l1.17,1.17,1.46-1.46ZM49.29,7.57,47.83,9,49,10.19l1.46-1.46ZM50.46,6.4,49,4.94,47.83,6.11l1.46,1.46,1.17,1.16,1.46,1.46L53.09,9,51.63,7.57Zm1.46,15.2-1.46,1.46,1.17,1.16,1.46-1.46Zm-2.63,2.62-1.46,1.46L49,26.85l1.46-1.46Zm1.17-1.16L49,21.6l-1.17,1.16,1.46,1.46,1.17,1.17,1.46,1.46,1.17-1.17-1.46-1.46Zm1.46,15.19-1.46,1.46,1.17,1.17,1.46-1.46Zm-2.63,2.63-1.46,1.46L49,43.51l1.46-1.46Zm1.17-1.17L49,38.25l-1.17,1.17,1.46,1.46,1.17,1.17,1.46,1.46,1.17-1.17-1.46-1.46ZM35.19,4.94,33.73,6.4,34.9,7.57l1.46-1.46ZM32.56,7.57,31.1,9l1.17,1.16,1.46-1.46ZM33.73,6.4,32.27,4.94,31.1,6.11l1.46,1.46,1.17,1.16,1.46,1.46L36.36,9,34.9,7.57Zm1.46,15.2-1.46,1.46,1.17,1.16,1.46-1.46Zm-2.63,2.62L31.1,25.68l1.17,1.17,1.46-1.46Zm1.17-1.16L32.27,21.6,31.1,22.76l1.46,1.46,1.17,1.17,1.46,1.46,1.17-1.17L34.9,24.22Zm1.46,15.19-1.46,1.46,1.17,1.17,1.46-1.46Zm-2.63,2.63L31.1,42.34l1.17,1.17,1.46-1.46Zm1.17-1.17-1.46-1.46L31.1,39.42l1.46,1.46,1.17,1.17,1.46,1.46,1.17-1.17L34.9,40.88ZM18.46,4.94,17,6.4l1.17,1.17,1.46-1.46ZM15.83,7.57,14.37,9l1.17,1.16L17,8.73ZM17,6.4,15.54,4.94,14.37,6.11l1.46,1.46L17,8.73l1.46,1.46L19.63,9,18.17,7.57Zm1.46,15.2L17,23.06l1.17,1.16,1.46-1.46Zm-2.63,2.62-1.46,1.46,1.17,1.17L17,25.39ZM17,23.06,15.54,21.6l-1.17,1.16,1.46,1.46L17,25.39l1.46,1.46,1.17-1.17-1.46-1.46Zm1.46,15.19L17,39.71l1.17,1.17,1.46-1.46Zm-2.63,2.63-1.46,1.46,1.17,1.17L17,42.05ZM17,39.71l-1.46-1.46-1.17,1.17,1.46,1.46L17,42.05l1.46,1.46,1.17-1.17-1.46-1.46ZM93.42,13.2,92,14.65l1.17,1.17,1.46-1.46Zm-2.63,2.62-1.46,1.46,1.17,1.17L92,17ZM92,14.65,90.5,13.2l-1.17,1.16,1.46,1.46L92,17l1.46,1.46,1.17-1.17-1.46-1.46Zm1.46,15.2L92,31.31l1.17,1.17L94.59,31Zm-2.63,2.63-1.46,1.46,1.17,1.17L92,33.65ZM92,31.31,90.5,29.85,89.33,31l1.46,1.46L92,33.65l1.46,1.46,1.17-1.17-1.46-1.46Zm1.46,15.2L92,48l1.17,1.17,1.46-1.46Zm-2.63,2.63L89.33,50.6l1.17,1.16L92,50.31ZM92,48,90.5,46.51l-1.17,1.17,1.46,1.46L92,50.31l1.46,1.45,1.17-1.16-1.46-1.46Zm-6.8-43L83.7,6.4l1.17,1.17,1.46-1.46ZM82.54,7.57,81.08,9l1.16,1.16L83.7,8.73ZM83.7,6.4,82.24,4.94,81.08,6.11l1.46,1.46L83.7,8.73l1.46,1.46L86.33,9,84.87,7.57Zm1.46,15.2L83.7,23.06l1.17,1.16,1.46-1.46Zm-2.62,2.62-1.46,1.46,1.16,1.17,1.46-1.46Zm1.16-1.16L82.24,21.6l-1.16,1.16,1.46,1.46,1.16,1.17,1.46,1.46,1.17-1.17-1.46-1.46Zm1.46,15.19L83.7,39.71l1.17,1.17,1.46-1.46Zm-2.62,2.63-1.46,1.46,1.16,1.17,1.46-1.46Zm1.16-1.17-1.46-1.46-1.16,1.17,1.46,1.46,1.16,1.17,1.46,1.46,1.17-1.17-1.46-1.46Zm-75-25.06L7.28,13.2,6.12,14.36l1.46,1.46Zm0,2.34,1.46,1.46,1.17-1.17L9.91,15.82ZM10.2,13.2,8.74,14.65,7.58,15.82,6.12,17.28l1.16,1.17L8.74,17l1.17-1.17,1.46-1.46ZM8.74,31.31,7.28,29.85,6.12,31l1.46,1.46Zm0,2.34,1.46,1.46,1.17-1.17L9.91,32.48Zm1.46-3.8L8.74,31.31,7.58,32.48,6.12,33.94l1.16,1.17,1.46-1.46,1.17-1.17L11.37,31ZM8.74,48,7.28,46.51,6.12,47.68l1.46,1.46Zm0,2.34,1.46,1.45,1.17-1.16L9.91,49.14Zm1.46-3.8L8.74,48,7.58,49.14,6.12,50.6l1.16,1.16,1.46-1.45,1.17-1.17,1.46-1.46ZM43.66,13.2,42.2,14.65l1.17,1.17,1.46-1.46ZM41,15.82l-1.46,1.46,1.16,1.17L42.2,17Zm1.16-1.17L40.74,13.2l-1.16,1.16L41,15.82,42.2,17l1.46,1.46,1.17-1.17-1.46-1.46Zm1.46,15.2L42.2,31.31l1.17,1.17L44.83,31ZM41,32.48l-1.46,1.46,1.16,1.17,1.46-1.46Zm1.16-1.17-1.46-1.46L39.58,31,41,32.48l1.16,1.17,1.46,1.46,1.17-1.17-1.46-1.46Zm1.46,15.2L42.2,48l1.17,1.17,1.46-1.46ZM41,49.14,39.58,50.6l1.16,1.16,1.46-1.45ZM42.2,48l-1.46-1.46-1.16,1.17L41,49.14l1.16,1.17,1.46,1.45,1.17-1.16-1.46-1.46ZM26.93,13.2l-1.46,1.45,1.17,1.17,1.46-1.46Zm-2.62,2.62-1.46,1.46L24,18.45,25.47,17Zm1.16-1.17L24,13.2l-1.16,1.16,1.46,1.46L25.47,17l1.46,1.46,1.17-1.17-1.46-1.46Zm1.46,15.2-1.46,1.46,1.17,1.17L28.1,31Zm-2.62,2.63-1.46,1.46L24,35.11l1.46-1.46Zm1.16-1.17L24,29.85,22.85,31l1.46,1.46,1.16,1.17,1.46,1.46,1.17-1.17-1.46-1.46Zm1.46,15.2L25.47,48l1.17,1.17,1.46-1.46Zm-2.62,2.63L22.85,50.6,24,51.76l1.46-1.45ZM25.47,48,24,46.51l-1.16,1.17,1.46,1.46,1.16,1.17,1.46,1.45L28.1,50.6l-1.46-1.46Z"/><path class="cls-3" d="M94.08,67.43H5.73A1.74,1.74,0,0,1,4,65.69V57.05H95.82v8.64A1.74,1.74,0,0,1,94.08,67.43Z"/><path class="cls-1" d="M62.08,80.41l3,3.46H34.72l3-3.46a9.78,9.78,0,0,0,2.51-6.34V71.42H59.57v2.69A9.76,9.76,0,0,0,62.08,80.41Z"/></g></g></svg>