<svg xmlns="http://www.w3.org/2000/svg" viewBox="0 0 62.54 97.8"><defs><style>.cls-1{fill:#fff;}.cls-2{fill:#032530;}.cls-3{fill:#b4e6a5;}</style></defs><g id="Layer_2" data-name="Layer 2"><g id="Layer_1-2" data-name="Layer 1"><path class="cls-1" d="M57,70.42,35.15,92.22a5.29,5.29,0,0,1-1.88,1.23V4.1a5.43,5.43,0,0,1,4.36,5.31V71.77L48,61.42a5.42,5.42,0,0,1,7.65,0L57,62.76A5.44,5.44,0,0,1,57,70.42Z"/><path class="cls-2" d="M59.8,59.94,58.46,58.6a9.4,9.4,0,0,0-13.31,0l-3.52,3.51V9.41A9.42,9.42,0,0,0,32.22,0h-1.9a9.42,9.42,0,0,0-9.41,9.41v52.7L17.4,58.6a9.37,9.37,0,0,0-6.66-2.76h0A9.3,9.3,0,0,0,4.09,58.6L2.75,59.94a9.42,9.42,0,0,0,0,13.31L24.55,95a9.3,9.3,0,0,0,6.64,2.76h.16A9.29,9.29,0,0,0,38,95L59.8,73.24A9.43,9.43,0,0,0,59.8,59.94ZM5.58,70.42a5.41,5.41,0,0,1,0-7.65l1.34-1.35a5.35,5.35,0,0,1,3.81-1.58h0a5.41,5.41,0,0,1,3.83,1.58L24.91,71.77V9.41A5.43,5.43,0,0,1,29.27,4.1V93.43a5.13,5.13,0,0,1-1.88-1.22Zm51.39,0L35.15,92.22a5.29,5.29,0,0,1-1.88,1.23V4.1a5.43,5.43,0,0,1,4.36,5.31V71.77L48,61.42a5.42,5.42,0,0,1,7.65,0L57,62.76A5.44,5.44,0,0,1,57,70.42Z"/><path class="cls-3" d="M37.63,43.76l-4.36-4.1V36.91L37.63,41Zm0,23.46-4.36-4v2.72l4.36,4Zm0-12.65-4.36-4v2.71l4.36,4ZM56,71.43l-9.36-8.62-1.42,1.42,9.37,8.61ZM37.63,29l-4.36-4.21v2.78l4.36,4.21ZM49.36,78,40,69.4l-1.41,1.42,9.35,8.62ZM33.27,92.41l.72.67a5.14,5.14,0,0,0,1.16-.86l.41-.41-2.29-2.14Zm4.36-77.85-4.36-4.21v2.78l4.36,4.21ZM33.27,79.49l7.56,7.06,1.42-1.42-9-8.38Z"/><path class="cls-3" d="M5.58,70.42a5.41,5.41,0,0,1,0-7.65l1.34-1.35a5.35,5.35,0,0,1,3.81-1.58h0a5.41,5.41,0,0,1,3.83,1.58L24.91,71.77V9.41A5.43,5.43,0,0,1,29.27,4.1V93.43a5.13,5.13,0,0,1-1.88-1.22Z"/></g></g></svg>