<svg xmlns="http://www.w3.org/2000/svg" viewBox="0 0 88.26 97.98"><defs><style>.cls-1{fill:#fff;}.cls-2{fill:#b4e6a5;}.cls-3{fill:#032530;}</style></defs><g id="Layer_2" data-name="Layer 2"><g id="Layer_1-2" data-name="Layer 1"><polygon class="cls-1" points="59.09 6.83 65.23 12.96 59.09 12.96 59.09 6.83"/><path class="cls-1" d="M4,94V4H55.09V15a2,2,0,0,0,2,2h11V94Z"/><path class="cls-2" d="M35.2,5.35a2,2,0,0,1,0,2.79,2,2,0,0,1-2.82,0A2,2,0,0,1,35.2,5.35ZM40.83,64a2,2,0,0,0,0,2.8,2,2,0,0,0,2.82,0,2,2,0,0,0,0-2.8A2,2,0,0,0,40.83,64Zm0,16.76a2,2,0,0,0,0,2.8,2,2,0,0,0,2.82,0,2,2,0,0,0,0-2.8A2,2,0,0,0,40.83,80.77Zm0-33.52a2,2,0,0,0,0,2.79,2,2,0,1,0,0-2.79Zm0-16.76a2,2,0,0,0,0,2.79,2,2,0,0,0,2.82,0,2,2,0,0,0,0-2.79A2,2,0,0,0,40.83,30.49Zm0-16.76a2,2,0,0,0,0,2.79,2,2,0,0,0,2.82,0,2,2,0,0,0,0-2.79A2,2,0,0,0,40.83,13.73ZM32.38,72.39a2,2,0,0,0,0,2.8,2,2,0,0,0,2.82,0,2,2,0,0,0,0-2.8A2,2,0,0,0,32.38,72.39Zm0-50.28a2,2,0,0,0,0,2.79,2,2,0,0,0,2.82,0,2,2,0,0,0,0-2.79A2,2,0,0,0,32.38,22.11Zm0,33.52a2,2,0,1,0,2.82,0A2,2,0,0,0,32.38,55.63ZM49.27,89.15a2,2,0,0,0,0,2.8,2,2,0,0,0,2.82,0,2,2,0,0,0,0-2.8A2,2,0,0,0,49.27,89.15ZM32.38,38.87a2,2,0,0,0,0,2.79,2,2,0,0,0,2.82,0,2,2,0,0,0,0-2.79A2,2,0,0,0,32.38,38.87ZM57.72,64a2,2,0,0,0,0,2.8,2,2,0,0,0,2.82,0,2,2,0,0,0,0-2.8A2,2,0,0,0,57.72,64Zm0-16.76a2,2,0,0,0,0,2.79,2,2,0,1,0,0-2.79ZM32.38,89.15a2,2,0,0,0,0,2.8,2,2,0,0,0,2.82,0,2,2,0,0,0,0-2.8A2,2,0,0,0,32.38,89.15ZM57.72,13.73a2,2,0,0,0,0,2.79,2,2,0,0,0,2.82,0,2,2,0,0,0,0-2.79A2,2,0,0,0,57.72,13.73Zm8.45,75.42a2,2,0,0,0,1.88,3.31V88.64A2,2,0,0,0,66.17,89.15ZM49.27,72.39a2,2,0,0,0,0,2.8,2,2,0,0,0,2.82,0,2,2,0,0,0,0-2.8A2,2,0,0,0,49.27,72.39Zm8.45,8.38a2,2,0,0,0,0,2.8,2,2,0,0,0,2.82,0,2,2,0,0,0,0-2.8A2,2,0,0,0,57.72,80.77ZM49.27,55.63a2,2,0,1,0,2.82,0A2,2,0,0,0,49.27,55.63Zm0-16.76a2,2,0,0,0,0,2.79,2,2,0,0,0,2.82,0,2,2,0,0,0,0-2.79A2,2,0,0,0,49.27,38.87Zm0-16.76a2,2,0,0,0,0,2.79,2,2,0,0,0,2.82,0,2,2,0,0,0,0-2.79A2,2,0,0,0,49.27,22.11Zm0-16.76a2,2,0,0,0,0,2.79,2,2,0,0,0,2.82,0,2,2,0,0,0,0-2.79A2,2,0,0,0,49.27,5.35Zm8.45,25.14a2,2,0,0,0,0,2.79,2,2,0,0,0,2.82,0,2,2,0,0,0,0-2.79A2,2,0,0,0,57.72,30.49ZM7.05,47.25a2,2,0,0,0,0,2.79,2,2,0,0,0,2.81,0,2,2,0,0,0,0-2.79A2,2,0,0,0,7.05,47.25Zm0,33.52a2,2,0,0,0,0,2.8,2,2,0,0,0,2.81,0,2,2,0,0,0,0-2.8A2,2,0,0,0,7.05,80.77ZM7.05,64a2,2,0,0,0,0,2.8,2,2,0,0,0,2.81,0,2,2,0,0,0,0-2.8A2,2,0,0,0,7.05,64Zm0-50.28a2,2,0,0,0,0,2.79,2,2,0,0,0,2.81,0,2,2,0,0,0,0-2.79A2,2,0,0,0,7.05,13.73Zm0,16.76a2,2,0,0,0,0,2.79,2,2,0,0,0,2.81,0,2,2,0,0,0,0-2.79A2,2,0,0,0,7.05,30.49ZM66.17,55.63a2,2,0,0,0,0,2.79,2,2,0,0,0,1.88.52V55.12A2,2,0,0,0,66.17,55.63ZM15.49,89.15a2,2,0,0,0,0,2.8,2,2,0,0,0,2.82,0,2,2,0,0,0,0-2.8A2,2,0,0,0,15.49,89.15ZM66.17,72.39a2,2,0,0,0,0,2.8,2,2,0,0,0,1.88.51V71.88A2,2,0,0,0,66.17,72.39Zm0-50.28a2,2,0,0,0,1.88,3.3V21.59A2,2,0,0,0,66.17,22.11Zm0,16.76a2,2,0,0,0,0,2.79,2,2,0,0,0,1.88.52V38.36A2,2,0,0,0,66.17,38.87Zm-50.68,0a2,2,0,0,0,0,2.79,2,2,0,0,0,2.82,0,2,2,0,0,0,0-2.79A2,2,0,0,0,15.49,38.87Zm0,33.52a2,2,0,0,0,0,2.8,2,2,0,0,0,2.82,0,2,2,0,0,0,0-2.8A2,2,0,0,0,15.49,72.39Zm8.45,8.38a2,2,0,0,0,0,2.8,2,2,0,0,0,2.81,0,2,2,0,0,0,0-2.8A2,2,0,0,0,23.94,80.77Zm0-16.76a2,2,0,0,0,0,2.8,2,2,0,0,0,2.81,0,2,2,0,0,0,0-2.8A2,2,0,0,0,23.94,64Zm0-33.52a2,2,0,0,0,0,2.79,2,2,0,0,0,2.81,0,2,2,0,0,0,0-2.79A2,2,0,0,0,23.94,30.49Zm0,16.76a2,2,0,0,0,0,2.79,2,2,0,0,0,2.81,0,2,2,0,0,0,0-2.79A2,2,0,0,0,23.94,47.25Zm0-33.52a2,2,0,0,0,0,2.79,2,2,0,0,0,2.81,0,2,2,0,0,0,0-2.79A2,2,0,0,0,23.94,13.73ZM15.49,5.35a2,2,0,0,0,0,2.79,2,2,0,0,0,2.82,0,2,2,0,0,0,0-2.79A2,2,0,0,0,15.49,5.35Zm0,50.28a2,2,0,1,0,2.82,0A2,2,0,0,0,15.49,55.63Zm0-33.52a2,2,0,0,0,0,2.79,2,2,0,0,0,2.82,0,2,2,0,0,0,0-2.79A2,2,0,0,0,15.49,22.11Z"/><path class="cls-3" d="M72,14.57a1.41,1.41,0,0,0-.06-.22s0-.1,0-.16a1.55,1.55,0,0,0-.12-.22.75.75,0,0,0-.07-.12,1.54,1.54,0,0,0-.23-.29h0l-13-13h0a1.76,1.76,0,0,0-.3-.24L58.1.28,57.86.15l-.14,0L57.49,0a1.81,1.81,0,0,0-.4,0H2A2,2,0,0,0,0,2V96a2,2,0,0,0,2,2H70.05a2,2,0,0,0,2-2V15A1.72,1.72,0,0,0,72,14.57ZM59.09,6.83,65.23,13H59.09ZM4,94V4H55.09V15a2,2,0,0,0,2,2h11V94ZM53.85,78.54H15a2,2,0,1,1,0-4H53.85a2,2,0,1,1,0,4ZM36.41,66.81a2,2,0,0,0-2-2H15a2,2,0,0,0,0,4H34.41A2,2,0,0,0,36.41,66.81Zm0-9.72a2,2,0,0,0-2-2H15a2,2,0,0,0,0,4H34.41A2,2,0,0,0,36.41,57.09Zm9.72-9.72a2,2,0,0,0-2-2H15a2,2,0,0,0,0,4H44.13A2,2,0,0,0,46.13,47.37Zm9.72-9.72a2,2,0,0,0-2-2H15a2,2,0,0,0,0,4H53.85A2,2,0,0,0,55.85,37.65Zm0-9.72a2,2,0,0,0-2-2H15a2,2,0,0,0,0,4H53.85A2,2,0,0,0,55.85,27.93Z"/><path class="cls-3" d="M87.67,29.75l-6.48-6.48a2,2,0,0,0-2.83,0L42.71,58.92a2,2,0,0,0-.48.78L39,69.42a2,2,0,0,0,1.9,2.63,2,2,0,0,0,.63-.1l9.72-3.24a2,2,0,0,0,.78-.48L87.67,32.58A2,2,0,0,0,87.67,29.75ZM49.53,65.07l-5.48,1.82,1.83-5.48,29-29L78.57,36ZM81.4,33.2l-3.66-3.65,2-2,3.65,3.66Z"/><path class="cls-2" d="M49.53,65.07l-5.48,1.82,1.83-5.48,29-29L78.57,36ZM81.4,33.2l-3.66-3.65,2-2,3.65,3.66Z"/></g></g></svg>