<svg xmlns="http://www.w3.org/2000/svg" viewBox="0 0 64.57 97.75"><defs><style>.cls-1{fill:#00313c;}.cls-2{fill:#fff;}.cls-3{fill:#b4e6a5;}</style></defs><g id="Layer_2" data-name="Layer 2"><g id="Layer_1-2" data-name="Layer 1"><path class="cls-1" d="M64.41,52.58l-6.49-26a5.22,5.22,0,0,0-5.08-4H48.18a11.7,11.7,0,1,0-8.26,0H35.26a5.22,5.22,0,0,0-3.21,1.12,8.38,8.38,0,0,0-4.19-1.12H22.29a11.7,11.7,0,1,0-8.25,0H8.47A8.48,8.48,0,0,0,0,31.1V57a5.24,5.24,0,0,0,5.23,5.23A5.08,5.08,0,0,0,6.47,62V92.52a5.23,5.23,0,0,0,5.23,5.23h3.23a5.2,5.2,0,0,0,3.24-1.15,5.15,5.15,0,0,0,3.23,1.15H37.56a1.94,1.94,0,0,0,1.21-.41,5.19,5.19,0,0,0,5.28-.74,5.21,5.21,0,0,0,8.47-4.08V71.89h7.7a2,2,0,0,0,1.94-2.48L59.54,59a5.12,5.12,0,0,0,4.87-6.37ZM36.35,11.7a7.7,7.7,0,1,1,7.7,7.7A7.71,7.71,0,0,1,36.35,11.7Zm-25.88,0a7.7,7.7,0,1,1,7.7,7.7A7.7,7.7,0,0,1,10.47,11.7ZM31.1,45.26a4.47,4.47,0,1,1,4.46-4.47A4.47,4.47,0,0,1,31.1,45.26ZM14.93,93.75H11.7a1.23,1.23,0,0,1-1.23-1.23V31.1a2,2,0,1,0-4,0V57A1.24,1.24,0,0,1,4,57V31.1a4.47,4.47,0,0,1,4.47-4.47H27.86a4.47,4.47,0,0,1,4.47,4.47v1.33a8.28,8.28,0,0,0-1.23-.1,8.46,8.46,0,0,0-3.5,16.16h-3A8.47,8.47,0,0,0,16.17,57V92.52A1.24,1.24,0,0,1,14.93,93.75Zm5.24-1.23V78.2a5.45,5.45,0,0,0,1.23.16,5.07,5.07,0,0,0,1.23-.17V93.75H21.4A1.23,1.23,0,0,1,20.17,92.52Zm15.39,1.23H33.1V79.59a2,2,0,0,0-4,0V93.75H26.63V63.43a2,2,0,0,0-4,0v9.69a1.23,1.23,0,1,1-2.46,0V57a4.47,4.47,0,0,1,4.46-4.47H37.56A4.47,4.47,0,0,1,42,57V73.12a1.24,1.24,0,1,1-2.47,0V63.43a2,2,0,0,0-4,0Zm5.26,0a1.23,1.23,0,0,1-1.23-1.23,2,2,0,0,0,0-.24V78.19a5.08,5.08,0,0,0,1.24.17,5.16,5.16,0,0,0,1.25-.17V92.52A1.23,1.23,0,0,1,40.82,93.75Zm7.7-1.23a1.24,1.24,0,0,1-2.47,0V71.89h2.47Zm11.81-38a1.15,1.15,0,0,1-.9.44,1.13,1.13,0,0,1-1.1-.86L52.46,30.61a2,2,0,0,0-3.88,1l5.87,23.49h0l3.21,12.81H46V57a8.48,8.48,0,0,0-8.47-8.47h-3a8.45,8.45,0,0,0,1.73-14.34v-3a8.4,8.4,0,0,0-1.27-4.44,1.38,1.38,0,0,1,.2,0H52.84a1.23,1.23,0,0,1,1.2.93l6.49,26A1.13,1.13,0,0,1,60.33,54.52Z"/><path class="cls-2" d="M14.93,93.75H11.7a1.23,1.23,0,0,1-1.23-1.23V31.1a2,2,0,1,0-4,0V57A1.24,1.24,0,0,1,4,57V31.1a4.47,4.47,0,0,1,4.47-4.47H27.86a4.47,4.47,0,0,1,4.47,4.47v1.33a8.28,8.28,0,0,0-1.23-.1,8.46,8.46,0,0,0-3.5,16.16h-3A8.47,8.47,0,0,0,16.17,57V92.52A1.24,1.24,0,0,1,14.93,93.75Zm5.24-1.23V78.2a5.45,5.45,0,0,0,1.23.16,5.07,5.07,0,0,0,1.23-.17V93.75H21.4A1.23,1.23,0,0,1,20.17,92.52Z"/><path class="cls-3" d="M27.17,26.63l5.16,5v.82a8.28,8.28,0,0,0-1.23-.1,8.12,8.12,0,0,0-.86,0L24.3,26.63ZM10.47,65.42l5.7,5.32V68l-5.7-5.32Zm0-13.47,5.7,5.25V57a8.4,8.4,0,0,1,.3-2.2l-6-5.53Zm9.7,35.44,2.46,2.31V87l-2.46-2.31Zm-9.7-9.08,5.7,5.34V80.91l-5.7-5.34Zm0,14L12,93.75h2.88l-4.39-4.24ZM4,57a1.23,1.23,0,0,0,1.23,1.23,1,1,0,0,0,.35-.07L4,56.65Zm6.47-17.65,10.76,9.9a8.61,8.61,0,0,1,2.26-.63l-13-12ZM4,46l2.47,2.27V45.55L4,43.28Zm7.64-19.37L23.27,37.57a8.54,8.54,0,0,1,1-1.79l-9.73-9.15ZM4,31.1v2.26l2.47,2.27V32.91L4,30.68C4,30.82,4,31,4,31.1Z"/><path class="cls-2" d="M40.82,93.75a1.23,1.23,0,0,1-1.23-1.23,2,2,0,0,0,0-.24V78.19a5.08,5.08,0,0,0,1.24.17,5.16,5.16,0,0,0,1.25-.17V92.52A1.23,1.23,0,0,1,40.82,93.75Zm7.7-1.23a1.24,1.24,0,0,1-2.47,0V71.89h2.47Zm11.81-38a1.15,1.15,0,0,1-.9.44,1.13,1.13,0,0,1-1.1-.86L52.46,30.61a2,2,0,0,0-3.88,1l5.87,23.49h0l3.21,12.81H46V57a8.48,8.48,0,0,0-8.47-8.47h-3a8.45,8.45,0,0,0,1.73-14.34v-3a8.4,8.4,0,0,0-1.27-4.44,1.38,1.38,0,0,1,.2,0H52.84a1.23,1.23,0,0,1,1.2.93l6.49,26A1.13,1.13,0,0,1,60.33,54.52Z"/><path class="cls-3" d="M41.64,84a1.87,1.87,0,0,1,.41.61v1.61a1.87,1.87,0,0,1-.41.61,2,2,0,0,1-2.08.47V83.49A2,2,0,0,1,41.64,84Zm8.49-56.57a2,2,0,0,0,.46-.75H46.83a2,2,0,0,0,.47.75A2,2,0,0,0,50.13,27.38Zm-3.4,66.23a1.16,1.16,0,0,0,.56.14,1.24,1.24,0,0,0,1.23-1.23v-.65a2,2,0,0,0-1.22.57A2,2,0,0,0,46.73,93.61Zm.57-15.32a1.91,1.91,0,0,0,1.22.57v-4a2,2,0,0,0-1.22.57A2,2,0,0,0,47.3,78.29ZM55.78,67a2,2,0,0,0-.51.91h2.39l-.38-1.49A2,2,0,0,0,55.78,67Zm2.83-17a2,2,0,0,0-1.45-.58l.94,3.77a2,2,0,0,0,.51-.36A2,2,0,0,0,58.61,50ZM55.78,35.87a2.94,2.94,0,0,0,.41.31L55.5,33.4A2,2,0,0,0,55.78,35.87ZM47.3,58.5a2,2,0,1,0,2.83,0A2,2,0,0,0,47.3,58.5Zm0-14.15a2,2,0,1,0,0-2.82A2,2,0,0,0,47.3,44.35ZM38.81,33a2,2,0,1,0,2.83,0A2,2,0,0,0,38.81,33Z"/><path class="cls-3" d="M35.56,93.75H33.1V79.59a2,2,0,0,0-4,0V93.75H26.63V63.43a2,2,0,0,0-4,0v9.69a1.23,1.23,0,1,1-2.46,0V57a4.47,4.47,0,0,1,4.46-4.47H37.56A4.47,4.47,0,0,1,42,57V73.12a1.24,1.24,0,1,1-2.47,0V63.43a2,2,0,0,0-4,0Z"/><circle class="cls-3" cx="31.1" cy="40.79" r="4.47"/><path class="cls-3" d="M36.35,11.7a7.7,7.7,0,1,1,7.7,7.7A7.71,7.71,0,0,1,36.35,11.7Z"/><path class="cls-3" d="M10.47,11.7a7.7,7.7,0,1,1,7.7,7.7A7.7,7.7,0,0,1,10.47,11.7Z"/></g></g></svg>