<svg xmlns="http://www.w3.org/2000/svg" viewBox="0 0 100 64.08"><defs><style>.cls-1{fill:#fff;}.cls-2{fill:#032530;}.cls-3{fill:#b4e6a5;}</style></defs><g id="Layer_2" data-name="Layer 2"><g id="Layer_1-2" data-name="Layer 1"><path class="cls-1" d="M83.3,59.82a.39.39,0,0,1-.38.26h-78L19,26.82a.92.92,0,0,1,.85-.57H95.6Z"/><path class="cls-2" d="M96.91,22.25H89.34v-8.6A5,5,0,0,0,84.2,8.83H39.72L31.79,1.41A5.35,5.35,0,0,0,28.15,0h-23A5,5,0,0,0,0,4.81v57H0a2.28,2.28,0,0,0,2.29,2.3H82.92a4.41,4.41,0,0,0,4.14-2.89L99.81,26.41A3.1,3.1,0,0,0,96.91,22.25ZM4,51.87V4.81C4,4.43,4.47,4,5.14,4h23a1.35,1.35,0,0,1,.91.33L37,11.75l1.16,1.08H84.2c.67,0,1.14.43,1.14.82v8.6H19.81a4.92,4.92,0,0,0-4.53,3Zm79.3,8a.39.39,0,0,1-.38.26h-78L19,26.82a.92.92,0,0,1,.85-.57H95.6Z"/><path class="cls-3" d="M4,51.87V4.81C4,4.43,4.47,4,5.14,4h23a1.35,1.35,0,0,1,.91.33L37,11.75l1.16,1.08H84.2c.67,0,1.14.43,1.14.82v8.6H19.81a4.92,4.92,0,0,0-4.53,3Z"/><path class="cls-3" d="M77.75,40.41a2,2,0,1,1,0-2.82A2,2,0,0,1,77.75,40.41ZM74.93,54.49a2,2,0,1,0,2.82,0A2,2,0,0,0,74.93,54.49ZM83.38,46a2,2,0,1,0,2.82,0A2,2,0,0,0,83.38,46ZM69.29,29.14a2,2,0,1,0,0,2.82A2,2,0,0,0,69.29,29.14Zm16.91,0a2,2,0,1,0,0,2.82A2,2,0,0,0,86.2,29.14ZM18.59,32a2,2,0,0,0,0-2.82,1.94,1.94,0,0,0-.47-.34l-1.54,3.64A2,2,0,0,0,18.59,32ZM10.14,57.31a2,2,0,0,0-2.82-2.82c-.07.07-.12.15-.18.22l-.37.89a2,2,0,0,0,.55,1.71A2,2,0,0,0,10.14,57.31ZM66.48,46a2,2,0,1,0,2.81,0A2,2,0,0,0,66.48,46ZM15.77,46a2,2,0,1,0,2.82,0A2,2,0,0,0,15.77,46Zm8.45-8.45a2,2,0,1,0,2.82,0A2,2,0,0,0,24.22,37.59Zm36.62,0a2,2,0,1,0,0,2.82A2,2,0,0,0,60.84,37.59ZM35.49,29.14a2,2,0,1,0,0,2.82A2,2,0,0,0,35.49,29.14Zm5.63,25.35a2,2,0,1,0,2.82,0A2,2,0,0,0,41.12,54.49ZM27,57.31a2,2,0,1,0-2.82,0A2,2,0,0,0,27,57.31ZM32.67,46a2,2,0,1,0,2.82,0A2,2,0,0,0,32.67,46Zm11.27-8.45a2,2,0,1,0,0,2.82A2,2,0,0,0,43.94,37.59ZM58,54.49a2,2,0,1,0,2.81,0A2,2,0,0,0,58,54.49ZM52.39,29.14a2,2,0,1,0,0,2.82A2,2,0,0,0,52.39,29.14ZM49.57,46a2,2,0,1,0,2.82,0A2,2,0,0,0,49.57,46Z"/></g></g></svg>