<svg xmlns="http://www.w3.org/2000/svg" viewBox="0 0 97.04 94.72"><defs><style>.cls-1{fill:#fff;}.cls-2{fill:#b4e6a5;}.cls-3{fill:#032530;}</style></defs><g id="Layer_2" data-name="Layer 2"><g id="Layer_1-2" data-name="Layer 1"><path class="cls-1" d="M34.47,64.93A30.47,30.47,0,1,1,64.93,34.47,30.5,30.5,0,0,1,34.47,64.93Z"/><path class="cls-2" d="M92.18,89.87a3,3,0,0,1-4.12,0L64.87,66.68A2.92,2.92,0,1,1,69,62.55L92.19,85.74A2.93,2.93,0,0,1,92.18,89.87Z"/><path class="cls-2" d="M56.35,54.11l.74.74c-.36.39-.73.78-1.1,1.16l-.77-.77Zm-9.31,0-1.35,1.35-1.34-1.35-1.13,1.13,1.34,1.35-1.34,1.34,1.13,1.13,1.34-1.34L47,59.06l1.13-1.13-1.35-1.34,1.35-1.35Zm-12,0-1.35,1.35-1.34-1.35-1.13,1.13,1.34,1.35-1.34,1.34,1.13,1.13,1.34-1.34L35,59.06l1.13-1.13-1.35-1.34,1.35-1.35Zm-12,0-1.35,1.35-1.34-1.35-1.13,1.13,1.34,1.35-1.34,1.34,1.13,1.13,1.34-1.34L23,59.06l1.13-1.13-1.35-1.34,1.35-1.35Zm31-8.52,1.35-1.35-1.13-1.13-1.35,1.35-1.34-1.35-1.13,1.13,1.34,1.35-1.34,1.34,1.13,1.13,1.34-1.34,1.35,1.34,1.13-1.13Zm-12,0,1.35-1.35-1.13-1.13-1.35,1.35-1.34-1.35-1.13,1.13,1.34,1.35-1.34,1.34,1.13,1.13,1.34-1.34,1.35,1.34,1.13-1.13Zm20.4-1.35.67.67c.2-.56.38-1.13.56-1.7l-.1-.1ZM30,45.59l1.35-1.35-1.13-1.13-1.35,1.35-1.34-1.35-1.13,1.13,1.34,1.35-1.34,1.34,1.13,1.13,1.34-1.34,1.35,1.34,1.13-1.13Zm-12,0,1.35-1.35-1.13-1.13-1.35,1.35-1.34-1.35-1.13,1.13,1.34,1.35-1.34,1.34,1.13,1.13,1.34-1.34,1.35,1.34,1.13-1.13ZM6.24,43.11l-.75.75c.18.56.38,1.12.6,1.66l1.28-1.28Zm-.07,2.62q.33.85.72,1.68l.48-.48ZM59,34.59l-1.34,1.34,1.13,1.13,1.34-1.34,1.35,1.34,1.13-1.13-1.35-1.34,1.35-1.35-1.13-1.13-1.35,1.35-1.34-1.35-1.13,1.13Zm-9.74,0,1.35-1.35-1.13-1.13-1.35,1.35-1.34-1.35-1.13,1.13L47,34.59l-1.34,1.34,1.13,1.13,1.34-1.34,1.35,1.34,1.13-1.13Zm-12,0,1.35-1.35-1.13-1.13-1.35,1.35-1.34-1.35-1.13,1.13L35,34.59l-1.34,1.34,1.13,1.13,1.34-1.34,1.35,1.34,1.13-1.13Zm-12,0,1.35-1.35-1.13-1.13-1.35,1.35-1.34-1.35-1.13,1.13L23,34.59l-1.34,1.34,1.13,1.13,1.34-1.34,1.35,1.34,1.13-1.13Zm-12,0,1.35-1.35-1.13-1.13-1.35,1.35-1.34-1.35L9.62,33.24,11,34.59,9.62,35.93l1.13,1.13,1.34-1.34,1.35,1.34,1.13-1.13Zm40.94-11-1.34,1.34L54,26.06l1.34-1.34,1.35,1.34,1.13-1.13-1.35-1.34,1.35-1.35-1.13-1.13-1.35,1.35L54,21.11l-1.13,1.13Zm-12,0-1.34,1.34L42,26.06l1.34-1.34,1.35,1.34,1.13-1.13-1.35-1.34,1.35-1.35-1.13-1.13-1.35,1.35L42,21.11l-1.13,1.13Zm-12,0-1.34,1.34L30,26.06l1.34-1.34,1.35,1.34,1.13-1.13-1.35-1.34,1.35-1.35-1.13-1.13-1.35,1.35L30,21.11l-1.13,1.13ZM18,26.06l1.34-1.34,1.35,1.34,1.13-1.13-1.35-1.34,1.35-1.35-1.13-1.13-1.35,1.35L18,21.11l-1.13,1.13,1.34,1.35-1.34,1.34ZM7.28,24.72l1.34,1.34,1.13-1.13L8.41,23.59l1.34-1.35L8.62,21.11,7.28,22.46l-.56-.56c-.23.52-.46,1.05-.67,1.59l.1.1-.22.22c-.21.55-.4,1.1-.58,1.67l.59.58Zm41.87-9.66,1.34-1.34,1.35,1.34L53,13.93l-1.35-1.34L53,11.24l-1.13-1.13-1.35,1.35-1.34-1.35L48,11.24l1.34,1.35L48,13.93Zm-12,0,1.34-1.34,1.35,1.34L41,13.93l-1.35-1.34L41,11.24l-1.13-1.13-1.35,1.35-1.34-1.35L36,11.24l1.34,1.35L36,13.93Zm-12,0,1.34-1.34,1.35,1.34L29,13.93l-1.35-1.34L29,11.24l-1.13-1.13-1.35,1.35-1.34-1.35L24,11.24l1.34,1.35L24,13.93ZM12,13.93l1.13,1.13,1.34-1.34,1.35,1.34L17,13.93l-1.35-1.34L17,11.24l-1-1a32.38,32.38,0,0,0-2.66,2.29l0,0Z"/><path class="cls-3" d="M95,82.91,71.82,59.72a6.91,6.91,0,0,0-8.16-1.2l-2.4-2.41a34.66,34.66,0,1,0-2.7,3l2.27,2.27A6.92,6.92,0,0,0,60,64.61a6.84,6.84,0,0,0,2,4.89L85.23,92.69A6.92,6.92,0,0,0,95,82.91Zm-60.54-18A30.47,30.47,0,1,1,64.93,34.47,30.5,30.5,0,0,1,34.47,64.93ZM92.18,89.87a3,3,0,0,1-4.12,0L64.87,66.68A2.92,2.92,0,1,1,69,62.55L92.19,85.74A2.93,2.93,0,0,1,92.18,89.87Z"/><path class="cls-3" d="M29.36,9.79A25.11,25.11,0,0,0,9.73,29.66,2,2,0,0,0,11.32,32a2.43,2.43,0,0,0,.38,0,2,2,0,0,0,2-1.62A21.11,21.11,0,0,1,30.17,13.71a2,2,0,0,0-.81-3.92Z"/></g></g></svg>