<svg xmlns="http://www.w3.org/2000/svg" viewBox="0 0 98.45 97.55"><defs><style>.cls-1{fill:#00313c;}.cls-2{fill:#b3e6a6;}.cls-3{fill:#fea60b;}.cls-4{fill:#fdd1d1;}.cls-5{fill:#1abfe6;}</style></defs><g id="Layer_2" data-name="Layer 2"><g id="Layer_1-2" data-name="Layer 1"><path class="cls-1" d="M57.43,29.27A2.09,2.09,0,0,1,56.5,29l-7.28-3.83L42,29a2,2,0,0,1-2.11-.16,2,2,0,0,1-.8-1.95l1.39-8.11-5.88-5.74a2,2,0,0,1,1.1-3.41l8.14-1.18,3.64-7.37a2,2,0,0,1,3.59,0l3.64,7.37L62.8,9.67a2,2,0,0,1,1.1,3.41L58,18.82l1.39,8.11a2,2,0,0,1-2,2.34ZM49.22,21a2,2,0,0,1,.93.23l4.63,2.43-.89-5.15a2,2,0,0,1,.58-1.77l3.74-3.64L53,12.3a2,2,0,0,1-1.5-1.1L49.22,6.52,46.91,11.2a2,2,0,0,1-1.5,1.1l-5.17.75L44,16.69a2,2,0,0,1,.57,1.77l-.88,5.15,4.62-2.43A2,2,0,0,1,49.22,21Z"/><path class="cls-1" d="M49.22,97.55a2,2,0,0,1-2-2V29.72a2,2,0,0,1,4,0V95.55A2,2,0,0,1,49.22,97.55Z"/><path class="cls-1" d="M5.67,45.71a2,2,0,0,1-2-2.34l1-5.57L.6,33.85A2,2,0,0,1,.1,31.8a2,2,0,0,1,1.61-1.36l5.6-.82,2.5-5.07a2,2,0,0,1,1.8-1.11h0a2,2,0,0,1,1.79,1.11l2.5,5.07,5.6.82a2,2,0,0,1,1.62,1.36,2,2,0,0,1-.51,2.05L18.56,37.8l1,5.57a2,2,0,0,1-2.91,2.11l-5-2.63-5,2.63A2,2,0,0,1,5.67,45.71Zm.63-11.9,1.9,1.86a2,2,0,0,1,.58,1.77l-.45,2.61,2.35-1.23a2,2,0,0,1,1.86,0l2.35,1.23-.45-2.61A2,2,0,0,1,15,35.67l1.91-1.86-2.63-.38a2,2,0,0,1-1.51-1.1L11.61,30l-1.18,2.39a2,2,0,0,1-1.5,1.09Z"/><path class="cls-1" d="M92.78,45.71a2,2,0,0,1-.93-.23l-5-2.63-5,2.63a2,2,0,0,1-2.9-2.11l1-5.57-4-3.95a2,2,0,0,1-.51-2.05A2,2,0,0,1,77,30.44l5.59-.82,2.51-5.07a2,2,0,0,1,3.58,0l2.51,5.07,5.6.82a2,2,0,0,1,1.1,3.41l-4,3.95,1,5.57a2,2,0,0,1-2,2.34Zm-5.94-7.12a1.91,1.91,0,0,1,.93.23l2.35,1.23-.45-2.61a2,2,0,0,1,.58-1.77l1.9-1.86-2.63-.38A2,2,0,0,1,88,32.34L86.84,30l-1.17,2.38a2,2,0,0,1-1.51,1.1l-2.63.38,1.9,1.86A2,2,0,0,1,84,37.44l-.45,2.61,2.35-1.23A1.91,1.91,0,0,1,86.84,38.59Z"/><path class="cls-1" d="M61.35,97.55a1.93,1.93,0,0,1-.7-.13,2,2,0,0,1-1.17-2.58c.48-1.26,11.75-31,21-43.78a2,2,0,1,1,3.24,2.36C74.78,65.76,63.34,96,63.22,96.26A2,2,0,0,1,61.35,97.55Z"/><path class="cls-1" d="M37.1,97.55a2,2,0,0,1-1.87-1.29c-.12-.31-11.56-30.5-20.54-42.84a2,2,0,0,1,3.24-2.36c9.29,12.78,20.56,42.52,21,43.78a2,2,0,0,1-1.17,2.58A1.93,1.93,0,0,1,37.1,97.55Z"/><path class="cls-1" d="M35.36,52.51a7.2,7.2,0,1,1,7.2-7.2A7.21,7.21,0,0,1,35.36,52.51Zm0-10.4a3.2,3.2,0,1,0,3.2,3.2A3.2,3.2,0,0,0,35.36,42.11Z"/><path class="cls-1" d="M63.08,69.83a7.2,7.2,0,1,1,7.2-7.2A7.2,7.2,0,0,1,63.08,69.83Zm0-10.39a3.2,3.2,0,1,0,3.2,3.19A3.19,3.19,0,0,0,63.08,59.44Z"/><path class="cls-1" d="M16.31,19.59a5.47,5.47,0,1,1,5.46-5.46A5.48,5.48,0,0,1,16.31,19.59Zm0-6.93a1.47,1.47,0,1,0,1.46,1.47A1.47,1.47,0,0,0,16.31,12.66Z"/><path class="cls-1" d="M9.38,83.69a5.47,5.47,0,1,1,5.46-5.46A5.48,5.48,0,0,1,9.38,83.69Zm0-6.93a1.47,1.47,0,1,0,1.46,1.47A1.47,1.47,0,0,0,9.38,76.76Z"/><path class="cls-1" d="M87.34,14.39A5.47,5.47,0,1,1,92.8,8.93,5.47,5.47,0,0,1,87.34,14.39Zm0-6.93A1.47,1.47,0,1,0,88.8,8.93,1.47,1.47,0,0,0,87.34,7.46Z"/><path class="cls-1" d="M87.34,87.16a5.47,5.47,0,1,1,5.46-5.47A5.48,5.48,0,0,1,87.34,87.16Zm0-6.93a1.47,1.47,0,1,0,1.46,1.46A1.46,1.46,0,0,0,87.34,80.23Z"/><circle class="cls-2" cx="63.08" cy="62.63" r="3.2"/><path class="cls-2" d="M49.22,21a2,2,0,0,1,.93.23l4.63,2.43-.89-5.15a2,2,0,0,1,.58-1.77l3.74-3.64L53,12.3a2,2,0,0,1-1.5-1.1L49.22,6.52,46.91,11.2a2,2,0,0,1-1.5,1.1l-5.17.75L44,16.69a2,2,0,0,1,.57,1.77l-.88,5.15,4.62-2.43A2,2,0,0,1,49.22,21Z"/><path class="cls-3" d="M6.3,33.81l1.9,1.86a2,2,0,0,1,.58,1.77l-.45,2.61,2.35-1.23a2,2,0,0,1,1.86,0l2.35,1.23-.45-2.61A2,2,0,0,1,15,35.67l1.91-1.86-2.63-.38a2,2,0,0,1-1.51-1.1L11.61,30l-1.18,2.39a2,2,0,0,1-1.5,1.09Z"/><path class="cls-3" d="M86.84,38.59a1.91,1.91,0,0,1,.93.23l2.35,1.23-.45-2.61a2,2,0,0,1,.58-1.77l1.9-1.86-2.63-.38A2,2,0,0,1,88,32.34L86.84,30l-1.17,2.38a2,2,0,0,1-1.51,1.1l-2.63.38,1.9,1.86A2,2,0,0,1,84,37.44l-.45,2.61,2.35-1.23A1.91,1.91,0,0,1,86.84,38.59Z"/><circle class="cls-4" cx="35.36" cy="45.31" r="3.2"/><path class="cls-4" d="M87.34,7.46A1.47,1.47,0,1,0,88.8,8.93,1.47,1.47,0,0,0,87.34,7.46Z"/><path class="cls-5" d="M87.34,80.23a1.47,1.47,0,1,0,1.46,1.46A1.46,1.46,0,0,0,87.34,80.23Z"/><path class="cls-5" d="M16.31,12.66a1.47,1.47,0,1,0,1.46,1.47A1.47,1.47,0,0,0,16.31,12.66Z"/><circle class="cls-5" cx="9.38" cy="78.23" r="1.46"/></g></g></svg>