<svg xmlns="http://www.w3.org/2000/svg" xmlns:xlink="http://www.w3.org/1999/xlink" viewBox="0 0 68.23 67.36"><defs><style>.cls-1{fill:none;}.cls-2{fill:#002531;}.cls-3{fill:#fff;}.cls-4{clip-path:url(#clip-path);}.cls-5{fill:#b4e6a5;}.cls-6{clip-path:url(#clip-path-2);}.cls-7{clip-path:url(#clip-path-3);}.cls-8{clip-path:url(#clip-path-4);}.cls-9{clip-path:url(#clip-path-5);}</style><clipPath id="clip-path"><path class="cls-1" d="M12,54.28A29.75,29.75,0,0,1,3.81,32.1C4.63,16.22,18,3.77,34.2,3.77h5.61a8.1,8.1,0,0,1,8.09,8.09V29.32a6.07,6.07,0,1,1-12.13,0V11.09a1.89,1.89,0,0,0-3.77,0V28.21a20.83,20.83,0,0,1-14.22,5.57,1.89,1.89,0,0,0,0,3.77A24.53,24.53,0,0,0,32.6,32.6,9.79,9.79,0,0,0,40.4,39,9.64,9.64,0,0,0,40,41.63a9.81,9.81,0,0,0,4.09,7.95,9.71,9.71,0,0,0-1.94,14h-8.5A29.68,29.68,0,0,1,12,54.28Z"/></clipPath><clipPath id="clip-path-2"><path class="cls-1" d="M64.46,9.83a6.07,6.07,0,0,1-6.07,6.07H51.67v-4a11.82,11.82,0,0,0-3.21-8.09h9.93A6.07,6.07,0,0,1,64.46,9.83Z"/></clipPath><clipPath id="clip-path-3"><path class="cls-1" d="M64.46,25.73a6.07,6.07,0,0,1-6.07,6.07H51.32a10.17,10.17,0,0,0,.35-2.48V19.67h6.72A6.07,6.07,0,0,1,64.46,25.73Z"/></clipPath><clipPath id="clip-path-4"><path class="cls-1" d="M64.46,41.63a6.07,6.07,0,0,1-6.07,6.06H49.86a6,6,0,0,1-5.31-9,9.84,9.84,0,0,0,4.82-3.16h9A6.07,6.07,0,0,1,64.46,41.63Z"/></clipPath><clipPath id="clip-path-5"><path class="cls-1" d="M64.46,57.53a6.07,6.07,0,0,1-6.07,6.06H49.86a6.07,6.07,0,0,1,0-12.13h8.53A6.07,6.07,0,0,1,64.46,57.53Z"/></clipPath></defs><g id="Layer_2" data-name="Layer 2"><g id="Layer_1-2" data-name="Layer 1"><path class="cls-2" d="M68.23,57.53a9.8,9.8,0,0,0-4.1-8,9.76,9.76,0,0,0,0-15.9,9.76,9.76,0,0,0,0-15.9A9.81,9.81,0,0,0,58.39,0H34.2C16,0,1,14,.05,31.91c0,.6,0,1.2,0,1.79A33.69,33.69,0,0,0,33.68,67.36H59.11a2,2,0,0,0,.73-.14A9.83,9.83,0,0,0,68.23,57.53Zm-3.77,0a6.07,6.07,0,0,1-6.07,6.06H49.86a6.07,6.07,0,0,1,0-12.13h8.53A6.07,6.07,0,0,1,64.46,57.53Zm0-15.9a6.07,6.07,0,0,1-6.07,6.06H49.86a6,6,0,0,1-5.31-9,9.84,9.84,0,0,0,4.82-3.16h9A6.07,6.07,0,0,1,64.46,41.63Zm0-15.9a6.07,6.07,0,0,1-6.07,6.07H51.32a10.17,10.17,0,0,0,.35-2.48V19.67h6.72A6.07,6.07,0,0,1,64.46,25.73Zm0-15.9a6.07,6.07,0,0,1-6.07,6.07H51.67v-4a11.82,11.82,0,0,0-3.21-8.09h9.93A6.07,6.07,0,0,1,64.46,9.83ZM12,54.28A29.75,29.75,0,0,1,3.81,32.1C4.63,16.22,18,3.77,34.2,3.77h5.61a8.1,8.1,0,0,1,8.09,8.09V29.32a6.07,6.07,0,1,1-12.13,0V11.09a1.89,1.89,0,0,0-3.77,0V28.21a20.83,20.83,0,0,1-14.22,5.57,1.89,1.89,0,0,0,0,3.77A24.53,24.53,0,0,0,32.6,32.6,9.79,9.79,0,0,0,40.4,39,9.64,9.64,0,0,0,40,41.63a9.81,9.81,0,0,0,4.09,7.95,9.71,9.71,0,0,0-1.94,14h-8.5A29.68,29.68,0,0,1,12,54.28Zm0,0A29.75,29.75,0,0,1,3.81,32.1C4.63,16.22,18,3.77,34.2,3.77h5.61a8.1,8.1,0,0,1,8.09,8.09V29.32a6.07,6.07,0,1,1-12.13,0V11.09a1.89,1.89,0,0,0-3.77,0V28.21a20.83,20.83,0,0,1-14.22,5.57,1.89,1.89,0,0,0,0,3.77A24.53,24.53,0,0,0,32.6,32.6,9.79,9.79,0,0,0,40.4,39,9.64,9.64,0,0,0,40,41.63a9.81,9.81,0,0,0,4.09,7.95,9.71,9.71,0,0,0-1.94,14h-8.5A29.68,29.68,0,0,1,12,54.28Z"/><path class="cls-3" d="M12,54.28A29.75,29.75,0,0,1,3.81,32.1C4.63,16.22,18,3.77,34.2,3.77h5.61a8.1,8.1,0,0,1,8.09,8.09V29.32a6.07,6.07,0,1,1-12.13,0V11.09a1.89,1.89,0,0,0-3.77,0V28.21a20.83,20.83,0,0,1-14.22,5.57,1.89,1.89,0,0,0,0,3.77A24.53,24.53,0,0,0,32.6,32.6,9.79,9.79,0,0,0,40.4,39,9.64,9.64,0,0,0,40,41.63a9.81,9.81,0,0,0,4.09,7.95,9.71,9.71,0,0,0-1.94,14h-8.5A29.68,29.68,0,0,1,12,54.28Z"/><g class="cls-4"><polygon class="cls-5" points="50.86 23.33 49.52 24.67 48.18 23.33 47.05 24.46 48.39 25.8 47.05 27.15 48.18 28.28 49.52 26.93 50.86 28.28 51.99 27.15 50.65 25.8 51.99 24.46 50.86 23.33"/><polygon class="cls-5" points="38.86 23.33 37.52 24.67 36.18 23.33 35.05 24.46 36.39 25.8 35.05 27.15 36.18 28.28 37.52 26.93 38.86 28.28 39.99 27.15 38.65 25.8 39.99 24.46 38.86 23.33"/><polygon class="cls-5" points="26.86 23.33 25.52 24.67 24.18 23.33 23.05 24.46 24.39 25.8 23.05 27.15 24.18 28.28 25.52 26.93 26.86 28.28 27.99 27.15 26.65 25.8 27.99 24.46 26.86 23.33"/><polygon class="cls-5" points="14.86 23.33 13.52 24.67 12.18 23.33 11.04 24.46 12.39 25.8 11.04 27.15 12.18 28.28 13.52 26.93 14.86 28.28 15.99 27.15 14.65 25.8 15.99 24.46 14.86 23.33"/><polygon class="cls-5" points="46.06 12.33 44.72 13.67 43.38 12.33 42.24 13.46 43.59 14.8 42.24 16.15 43.38 17.28 44.72 15.93 46.06 17.28 47.19 16.15 45.85 14.8 47.19 13.46 46.06 12.33"/><polygon class="cls-5" points="34.06 12.33 32.72 13.67 31.38 12.33 30.25 13.46 31.59 14.8 30.25 16.15 31.38 17.28 32.72 15.93 34.06 17.28 35.19 16.15 33.85 14.8 35.19 13.46 34.06 12.33"/><polygon class="cls-5" points="22.06 12.33 20.72 13.67 19.38 12.33 18.25 13.46 19.59 14.8 18.25 16.15 19.38 17.28 20.72 15.93 22.06 17.28 23.19 16.15 21.85 14.8 23.19 13.46 22.06 12.33"/><polygon class="cls-5" points="10.06 12.33 8.72 13.67 7.38 12.33 6.25 13.46 7.59 14.8 6.25 16.15 7.38 17.28 8.72 15.93 10.06 17.28 11.19 16.15 9.85 14.8 11.19 13.46 10.06 12.33"/><polygon class="cls-5" points="53.26 1.33 51.92 2.67 50.58 1.33 49.45 2.46 50.79 3.8 49.45 5.15 50.58 6.28 51.92 4.93 53.26 6.28 54.39 5.15 53.05 3.8 54.39 2.46 53.26 1.33"/><polygon class="cls-5" points="41.26 1.33 39.92 2.67 38.58 1.33 37.45 2.46 38.79 3.8 37.45 5.15 38.58 6.28 39.92 4.93 41.26 6.28 42.39 5.15 41.05 3.8 42.39 2.46 41.26 1.33"/><polygon class="cls-5" points="29.26 1.33 27.92 2.67 26.58 1.33 25.45 2.46 26.79 3.8 25.45 5.15 26.58 6.28 27.92 4.93 29.26 6.28 30.39 5.15 29.05 3.8 30.39 2.46 29.26 1.33"/><polygon class="cls-5" points="53.26 56.33 51.92 57.67 50.58 56.33 49.45 57.46 50.79 58.8 49.45 60.15 50.58 61.28 51.92 59.93 53.26 61.28 54.39 60.15 53.05 58.8 54.39 57.46 53.26 56.33"/><polygon class="cls-5" points="41.26 56.33 39.92 57.67 38.58 56.33 37.45 57.46 38.79 58.8 37.45 60.15 38.58 61.28 39.92 59.93 41.26 61.28 42.39 60.15 41.05 58.8 42.39 57.46 41.26 56.33"/><polygon class="cls-5" points="29.26 56.33 27.92 57.67 26.58 56.33 25.45 57.46 26.79 58.8 25.45 60.15 26.58 61.28 27.92 59.93 29.26 61.28 30.39 60.15 29.05 58.8 30.39 57.46 29.26 56.33"/><polygon class="cls-5" points="17.26 56.33 15.92 57.67 14.58 56.33 13.45 57.46 14.79 58.8 13.45 60.15 14.58 61.28 15.92 59.93 17.26 61.28 18.39 60.15 17.05 58.8 18.39 57.46 17.26 56.33"/><polygon class="cls-5" points="48.46 45.33 47.12 46.67 45.78 45.33 44.65 46.46 45.99 47.8 44.65 49.15 45.78 50.28 47.12 48.93 48.46 50.28 49.59 49.15 48.25 47.8 49.59 46.46 48.46 45.33"/><polygon class="cls-5" points="36.46 45.33 35.12 46.67 33.78 45.33 32.65 46.46 33.99 47.8 32.65 49.15 33.78 50.28 35.12 48.93 36.46 50.28 37.59 49.15 36.25 47.8 37.59 46.46 36.46 45.33"/><polygon class="cls-5" points="24.46 45.33 23.12 46.67 21.78 45.33 20.64 46.46 21.99 47.8 20.64 49.15 21.78 50.28 23.12 48.93 24.46 50.28 25.59 49.15 24.25 47.8 25.59 46.46 24.46 45.33"/><polygon class="cls-5" points="12.46 45.33 11.12 46.67 9.78 45.33 8.64 46.46 9.99 47.8 8.64 49.15 9.78 50.28 11.12 48.93 12.46 50.28 13.59 49.15 12.25 47.8 13.59 46.46 12.46 45.33"/><polygon class="cls-5" points="55.66 34.33 54.32 35.67 52.98 34.33 51.84 35.46 53.19 36.8 51.84 38.15 52.98 39.28 54.32 37.93 55.66 39.28 56.79 38.15 55.45 36.8 56.79 35.46 55.66 34.33"/><polygon class="cls-5" points="43.66 34.33 42.32 35.67 40.98 34.33 39.84 35.46 41.19 36.8 39.84 38.15 40.98 39.28 42.32 37.93 43.66 39.28 44.79 38.15 43.45 36.8 44.79 35.46 43.66 34.33"/><polygon class="cls-5" points="31.66 34.33 30.32 35.67 28.98 34.33 27.84 35.46 29.19 36.8 27.84 38.15 28.98 39.28 30.32 37.93 31.66 39.28 32.79 38.15 31.45 36.8 32.79 35.46 31.66 34.33"/><polygon class="cls-5" points="19.66 34.33 18.32 35.67 16.98 34.33 15.85 35.46 17.19 36.8 15.85 38.15 16.98 39.28 18.32 37.93 19.66 39.28 20.79 38.15 19.45 36.8 20.79 35.46 19.66 34.33"/><polygon class="cls-5" points="7.66 34.33 6.32 35.67 4.98 34.33 3.85 35.46 5.19 36.8 3.85 38.15 4.98 39.28 6.32 37.93 7.66 39.28 8.79 38.15 7.45 36.8 8.79 35.46 7.66 34.33"/></g><path class="cls-3" d="M64.46,9.83a6.07,6.07,0,0,1-6.07,6.07H51.67v-4a11.82,11.82,0,0,0-3.21-8.09h9.93A6.07,6.07,0,0,1,64.46,9.83Z"/><g class="cls-6"><polygon class="cls-5" points="62.86 23.33 61.52 24.67 60.18 23.33 59.05 24.46 60.39 25.8 59.05 27.15 60.18 28.28 61.52 26.93 62.86 28.28 63.99 27.15 62.65 25.8 63.99 24.46 62.86 23.33"/><polygon class="cls-5" points="50.86 23.33 49.52 24.67 48.18 23.33 47.05 24.46 48.39 25.8 47.05 27.15 48.18 28.28 49.52 26.93 50.86 28.28 51.99 27.15 50.65 25.8 51.99 24.46 50.86 23.33"/><polygon class="cls-5" points="58.06 12.33 56.72 13.67 55.38 12.33 54.24 13.46 55.59 14.8 54.24 16.15 55.38 17.28 56.72 15.93 58.06 17.28 59.19 16.15 57.85 14.8 59.19 13.46 58.06 12.33"/><polygon class="cls-5" points="65.26 1.33 63.92 2.67 62.58 1.33 61.45 2.46 62.79 3.8 61.45 5.15 62.58 6.28 63.92 4.93 65.26 6.28 66.39 5.15 65.05 3.8 66.39 2.46 65.26 1.33"/><polygon class="cls-5" points="53.26 1.33 51.92 2.67 50.58 1.33 49.45 2.46 50.79 3.8 49.45 5.15 50.58 6.28 51.92 4.93 53.26 6.28 54.39 5.15 53.05 3.8 54.39 2.46 53.26 1.33"/><polygon class="cls-5" points="50.86 23.33 49.52 24.67 48.18 23.33 47.05 24.46 48.39 25.8 47.05 27.15 48.18 28.28 49.52 26.93 50.86 28.28 51.99 27.15 50.65 25.8 51.99 24.46 50.86 23.33"/><polygon class="cls-5" points="38.86 23.33 37.52 24.67 36.18 23.33 35.05 24.46 36.39 25.8 35.05 27.15 36.18 28.28 37.52 26.93 38.86 28.28 39.99 27.15 38.65 25.8 39.99 24.46 38.86 23.33"/><polygon class="cls-5" points="26.86 23.33 25.52 24.67 24.18 23.33 23.05 24.46 24.39 25.8 23.05 27.15 24.18 28.28 25.52 26.93 26.86 28.28 27.99 27.15 26.65 25.8 27.99 24.46 26.86 23.33"/><polygon class="cls-5" points="14.86 23.33 13.52 24.67 12.18 23.33 11.04 24.46 12.39 25.8 11.04 27.15 12.18 28.28 13.52 26.93 14.86 28.28 15.99 27.15 14.65 25.8 15.99 24.46 14.86 23.33"/><polygon class="cls-5" points="46.06 12.33 44.72 13.67 43.38 12.33 42.24 13.46 43.59 14.8 42.24 16.15 43.38 17.28 44.72 15.93 46.06 17.28 47.19 16.15 45.85 14.8 47.19 13.46 46.06 12.33"/><polygon class="cls-5" points="34.06 12.33 32.72 13.67 31.38 12.33 30.25 13.46 31.59 14.8 30.25 16.15 31.38 17.28 32.72 15.93 34.06 17.28 35.19 16.15 33.85 14.8 35.19 13.46 34.06 12.33"/><polygon class="cls-5" points="22.06 12.33 20.72 13.67 19.38 12.33 18.25 13.46 19.59 14.8 18.25 16.15 19.38 17.28 20.72 15.93 22.06 17.28 23.19 16.15 21.85 14.8 23.19 13.46 22.06 12.33"/><polygon class="cls-5" points="10.06 12.33 8.72 13.67 7.38 12.33 6.25 13.46 7.59 14.8 6.25 16.15 7.38 17.28 8.72 15.93 10.06 17.28 11.19 16.15 9.85 14.8 11.19 13.46 10.06 12.33"/><polygon class="cls-5" points="53.26 1.33 51.92 2.67 50.58 1.33 49.45 2.46 50.79 3.8 49.45 5.15 50.58 6.28 51.92 4.93 53.26 6.28 54.39 5.15 53.05 3.8 54.39 2.46 53.26 1.33"/><polygon class="cls-5" points="41.26 1.33 39.92 2.67 38.58 1.33 37.45 2.46 38.79 3.8 37.45 5.15 38.58 6.28 39.92 4.93 41.26 6.28 42.39 5.15 41.05 3.8 42.39 2.46 41.26 1.33"/><polygon class="cls-5" points="29.26 1.33 27.92 2.67 26.58 1.33 25.45 2.46 26.79 3.8 25.45 5.15 26.58 6.28 27.92 4.93 29.26 6.28 30.39 5.15 29.05 3.8 30.39 2.46 29.26 1.33"/></g><path class="cls-3" d="M64.46,25.73a6.07,6.07,0,0,1-6.07,6.07H51.32a10.17,10.17,0,0,0,.35-2.48V19.67h6.72A6.07,6.07,0,0,1,64.46,25.73Z"/><g class="cls-7"><polygon class="cls-5" points="62.86 23.33 61.52 24.67 60.18 23.33 59.05 24.46 60.39 25.8 59.05 27.15 60.18 28.28 61.52 26.93 62.86 28.28 63.99 27.15 62.65 25.8 63.99 24.46 62.86 23.33"/><polygon class="cls-5" points="65.26 56.33 63.92 57.67 62.58 56.33 61.45 57.46 62.79 58.8 61.45 60.15 62.58 61.28 63.92 59.93 65.26 61.28 66.39 60.15 65.05 58.8 66.39 57.46 65.26 56.33"/><polygon class="cls-5" points="53.26 56.33 51.92 57.67 50.58 56.33 49.45 57.46 50.79 58.8 49.45 60.15 50.58 61.28 51.92 59.93 53.26 61.28 54.39 60.15 53.05 58.8 54.39 57.46 53.26 56.33"/><polygon class="cls-5" points="60.46 45.33 59.12 46.67 57.78 45.33 56.65 46.46 57.99 47.8 56.65 49.15 57.78 50.28 59.12 48.93 60.46 50.28 61.59 49.15 60.25 47.8 61.59 46.46 60.46 45.33"/><polygon class="cls-5" points="55.66 34.33 54.32 35.67 52.98 34.33 51.84 35.46 53.19 36.8 51.84 38.15 52.98 39.28 54.32 37.93 55.66 39.28 56.79 38.15 55.45 36.8 56.79 35.46 55.66 34.33"/><polygon class="cls-5" points="50.86 23.33 49.52 24.67 48.18 23.33 47.05 24.46 48.39 25.8 47.05 27.15 48.18 28.28 49.52 26.93 50.86 28.28 51.99 27.15 50.65 25.8 51.99 24.46 50.86 23.33"/><polygon class="cls-5" points="38.86 23.33 37.52 24.67 36.18 23.33 35.05 24.46 36.39 25.8 35.05 27.15 36.18 28.28 37.52 26.93 38.86 28.28 39.99 27.15 38.65 25.8 39.99 24.46 38.86 23.33"/><polygon class="cls-5" points="26.86 23.33 25.52 24.67 24.18 23.33 23.05 24.46 24.39 25.8 23.05 27.15 24.18 28.28 25.52 26.93 26.86 28.28 27.99 27.15 26.65 25.8 27.99 24.46 26.86 23.33"/><polygon class="cls-5" points="14.86 23.33 13.52 24.67 12.18 23.33 11.04 24.46 12.39 25.8 11.04 27.15 12.18 28.28 13.52 26.93 14.86 28.28 15.99 27.15 14.65 25.8 15.99 24.46 14.86 23.33"/><polygon class="cls-5" points="46.06 12.33 44.72 13.67 43.38 12.33 42.24 13.46 43.59 14.8 42.24 16.15 43.38 17.28 44.72 15.93 46.06 17.28 47.19 16.15 45.85 14.8 47.19 13.46 46.06 12.33"/><polygon class="cls-5" points="34.06 12.33 32.72 13.67 31.38 12.33 30.25 13.46 31.59 14.8 30.25 16.15 31.38 17.28 32.72 15.93 34.06 17.28 35.19 16.15 33.85 14.8 35.19 13.46 34.06 12.33"/><polygon class="cls-5" points="22.06 12.33 20.72 13.67 19.38 12.33 18.25 13.46 19.59 14.8 18.25 16.15 19.38 17.28 20.72 15.93 22.06 17.28 23.19 16.15 21.85 14.8 23.19 13.46 22.06 12.33"/><polygon class="cls-5" points="10.06 12.33 8.72 13.67 7.38 12.33 6.25 13.46 7.59 14.8 6.25 16.15 7.38 17.28 8.72 15.93 10.06 17.28 11.19 16.15 9.85 14.8 11.19 13.46 10.06 12.33"/><polygon class="cls-5" points="53.26 1.33 51.92 2.67 50.58 1.33 49.45 2.46 50.79 3.8 49.45 5.15 50.58 6.28 51.92 4.93 53.26 6.28 54.39 5.15 53.05 3.8 54.39 2.46 53.26 1.33"/><polygon class="cls-5" points="41.26 1.33 39.92 2.67 38.58 1.33 37.45 2.46 38.79 3.8 37.45 5.15 38.58 6.28 39.92 4.93 41.26 6.28 42.39 5.15 41.05 3.8 42.39 2.46 41.26 1.33"/><polygon class="cls-5" points="29.26 1.33 27.92 2.67 26.58 1.33 25.45 2.46 26.79 3.8 25.45 5.15 26.58 6.28 27.92 4.93 29.26 6.28 30.39 5.15 29.05 3.8 30.39 2.46 29.26 1.33"/><polygon class="cls-5" points="53.26 56.33 51.92 57.67 50.58 56.33 49.45 57.46 50.79 58.8 49.45 60.15 50.58 61.28 51.92 59.93 53.26 61.28 54.39 60.15 53.05 58.8 54.39 57.46 53.26 56.33"/><polygon class="cls-5" points="41.26 56.33 39.92 57.67 38.58 56.33 37.45 57.46 38.79 58.8 37.45 60.15 38.58 61.28 39.92 59.93 41.26 61.28 42.39 60.15 41.05 58.8 42.39 57.46 41.26 56.33"/><polygon class="cls-5" points="29.26 56.33 27.92 57.67 26.58 56.33 25.45 57.46 26.79 58.8 25.45 60.15 26.58 61.28 27.92 59.93 29.26 61.28 30.39 60.15 29.05 58.8 30.39 57.46 29.26 56.33"/><polygon class="cls-5" points="17.26 56.33 15.92 57.67 14.58 56.33 13.45 57.46 14.79 58.8 13.45 60.15 14.58 61.28 15.92 59.93 17.26 61.28 18.39 60.15 17.05 58.8 18.39 57.46 17.26 56.33"/><polygon class="cls-5" points="48.46 45.33 47.12 46.67 45.78 45.33 44.65 46.46 45.99 47.8 44.65 49.15 45.78 50.28 47.12 48.93 48.46 50.28 49.59 49.15 48.25 47.8 49.59 46.46 48.46 45.33"/><polygon class="cls-5" points="36.46 45.33 35.12 46.67 33.78 45.33 32.65 46.46 33.99 47.8 32.65 49.15 33.78 50.28 35.12 48.93 36.46 50.28 37.59 49.15 36.25 47.8 37.59 46.46 36.46 45.33"/><polygon class="cls-5" points="24.46 45.33 23.12 46.67 21.78 45.33 20.64 46.46 21.99 47.8 20.64 49.15 21.78 50.28 23.12 48.93 24.46 50.28 25.59 49.15 24.25 47.8 25.59 46.46 24.46 45.33"/><polygon class="cls-5" points="12.46 45.33 11.12 46.67 9.78 45.33 8.64 46.46 9.99 47.8 8.64 49.15 9.78 50.28 11.12 48.93 12.46 50.28 13.59 49.15 12.25 47.8 13.59 46.46 12.46 45.33"/><polygon class="cls-5" points="55.66 34.33 54.32 35.67 52.98 34.33 51.84 35.46 53.19 36.8 51.84 38.15 52.98 39.28 54.32 37.93 55.66 39.28 56.79 38.15 55.45 36.8 56.79 35.46 55.66 34.33"/><polygon class="cls-5" points="43.66 34.33 42.32 35.67 40.98 34.33 39.84 35.46 41.19 36.8 39.84 38.15 40.98 39.28 42.32 37.93 43.66 39.28 44.79 38.15 43.45 36.8 44.79 35.46 43.66 34.33"/><polygon class="cls-5" points="31.66 34.33 30.32 35.67 28.98 34.33 27.84 35.46 29.19 36.8 27.84 38.15 28.98 39.28 30.32 37.93 31.66 39.28 32.79 38.15 31.45 36.8 32.79 35.46 31.66 34.33"/><polygon class="cls-5" points="19.66 34.33 18.32 35.67 16.98 34.33 15.85 35.46 17.19 36.8 15.85 38.15 16.98 39.28 18.32 37.93 19.66 39.28 20.79 38.15 19.45 36.8 20.79 35.46 19.66 34.33"/><polygon class="cls-5" points="7.66 34.33 6.32 35.67 4.98 34.33 3.85 35.46 5.19 36.8 3.85 38.15 4.98 39.28 6.32 37.93 7.66 39.28 8.79 38.15 7.45 36.8 8.79 35.46 7.66 34.33"/></g><path class="cls-3" d="M64.46,41.63a6.07,6.07,0,0,1-6.07,6.06H49.86a6,6,0,0,1-5.31-9,9.84,9.84,0,0,0,4.82-3.16h9A6.07,6.07,0,0,1,64.46,41.63Z"/><g class="cls-8"><polygon class="cls-5" points="53.26 56.33 51.92 57.67 50.58 56.33 49.45 57.46 50.79 58.8 49.45 60.15 50.58 61.28 51.92 59.93 53.26 61.28 54.39 60.15 53.05 58.8 54.39 57.46 53.26 56.33"/><polygon class="cls-5" points="55.66 34.33 54.32 35.67 52.98 34.33 51.84 35.46 53.19 36.8 51.84 38.15 52.98 39.28 54.32 37.93 55.66 39.28 56.79 38.15 55.45 36.8 56.79 35.46 55.66 34.33"/><polygon class="cls-5" points="53.26 56.33 51.92 57.67 50.58 56.33 49.45 57.46 50.79 58.8 49.45 60.15 50.58 61.28 51.92 59.93 53.26 61.28 54.39 60.15 53.05 58.8 54.39 57.46 53.26 56.33"/><polygon class="cls-5" points="41.26 56.33 39.92 57.67 38.58 56.33 37.45 57.46 38.79 58.8 37.45 60.15 38.58 61.28 39.92 59.93 41.26 61.28 42.39 60.15 41.05 58.8 42.39 57.46 41.26 56.33"/><polygon class="cls-5" points="29.26 56.33 27.92 57.67 26.58 56.33 25.45 57.46 26.79 58.8 25.45 60.15 26.58 61.28 27.92 59.93 29.26 61.28 30.39 60.15 29.05 58.8 30.39 57.46 29.26 56.33"/><polygon class="cls-5" points="17.26 56.33 15.92 57.67 14.58 56.33 13.45 57.46 14.79 58.8 13.45 60.15 14.58 61.28 15.92 59.93 17.26 61.28 18.39 60.15 17.05 58.8 18.39 57.46 17.26 56.33"/><polygon class="cls-5" points="48.46 45.33 47.12 46.67 45.78 45.33 44.65 46.46 45.99 47.8 44.65 49.15 45.78 50.28 47.12 48.93 48.46 50.28 49.59 49.15 48.25 47.8 49.59 46.46 48.46 45.33"/><polygon class="cls-5" points="36.46 45.33 35.12 46.67 33.78 45.33 32.65 46.46 33.99 47.8 32.65 49.15 33.78 50.28 35.12 48.93 36.46 50.28 37.59 49.15 36.25 47.8 37.59 46.46 36.46 45.33"/><polygon class="cls-5" points="24.46 45.33 23.12 46.67 21.78 45.33 20.64 46.46 21.99 47.8 20.64 49.15 21.78 50.28 23.12 48.93 24.46 50.28 25.59 49.15 24.25 47.8 25.59 46.46 24.46 45.33"/><polygon class="cls-5" points="12.46 45.33 11.12 46.67 9.78 45.33 8.64 46.46 9.99 47.8 8.64 49.15 9.78 50.28 11.12 48.93 12.46 50.28 13.59 49.15 12.25 47.8 13.59 46.46 12.46 45.33"/><polygon class="cls-5" points="55.66 34.33 54.32 35.67 52.98 34.33 51.84 35.46 53.19 36.8 51.84 38.15 52.98 39.28 54.32 37.93 55.66 39.28 56.79 38.15 55.45 36.8 56.79 35.46 55.66 34.33"/><polygon class="cls-5" points="43.66 34.33 42.32 35.67 40.98 34.33 39.84 35.46 41.19 36.8 39.84 38.15 40.98 39.28 42.32 37.93 43.66 39.28 44.79 38.15 43.45 36.8 44.79 35.46 43.66 34.33"/><polygon class="cls-5" points="31.66 34.33 30.32 35.67 28.98 34.33 27.84 35.46 29.19 36.8 27.84 38.15 28.98 39.28 30.32 37.93 31.66 39.28 32.79 38.15 31.45 36.8 32.79 35.46 31.66 34.33"/><polygon class="cls-5" points="19.66 34.33 18.32 35.67 16.98 34.33 15.85 35.46 17.19 36.8 15.85 38.15 16.98 39.28 18.32 37.93 19.66 39.28 20.79 38.15 19.45 36.8 20.79 35.46 19.66 34.33"/><polygon class="cls-5" points="7.66 34.33 6.32 35.67 4.98 34.33 3.85 35.46 5.19 36.8 3.85 38.15 4.98 39.28 6.32 37.93 7.66 39.28 8.79 38.15 7.45 36.8 8.79 35.46 7.66 34.33"/></g><path class="cls-3" d="M64.46,57.53a6.07,6.07,0,0,1-6.07,6.06H49.86a6.07,6.07,0,0,1,0-12.13h8.53A6.07,6.07,0,0,1,64.46,57.53Z"/><g class="cls-9"><polygon class="cls-5" points="65.26 56.33 63.92 57.67 62.58 56.33 61.45 57.46 62.79 58.8 61.45 60.15 62.58 61.28 63.92 59.93 65.26 61.28 66.39 60.15 65.05 58.8 66.39 57.46 65.26 56.33"/><polygon class="cls-5" points="53.26 56.33 51.92 57.67 50.58 56.33 49.45 57.46 50.79 58.8 49.45 60.15 50.58 61.28 51.92 59.93 53.26 61.28 54.39 60.15 53.05 58.8 54.39 57.46 53.26 56.33"/><polygon class="cls-5" points="60.46 45.33 59.12 46.67 57.78 45.33 56.65 46.46 57.99 47.8 56.65 49.15 57.78 50.28 59.12 48.93 60.46 50.28 61.59 49.15 60.25 47.8 61.59 46.46 60.46 45.33"/><polygon class="cls-5" points="55.66 34.33 54.32 35.67 52.98 34.33 51.84 35.46 53.19 36.8 51.84 38.15 52.98 39.28 54.32 37.93 55.66 39.28 56.79 38.15 55.45 36.8 56.79 35.46 55.66 34.33"/><polygon class="cls-5" points="53.26 56.33 51.92 57.67 50.58 56.33 49.45 57.46 50.79 58.8 49.45 60.15 50.58 61.28 51.92 59.93 53.26 61.28 54.39 60.15 53.05 58.8 54.39 57.46 53.26 56.33"/><polygon class="cls-5" points="29.26 56.33 27.92 57.67 26.58 56.33 25.45 57.46 26.79 58.8 25.45 60.15 26.58 61.28 27.92 59.93 29.26 61.28 30.39 60.15 29.05 58.8 30.39 57.46 29.26 56.33"/><polygon class="cls-5" points="17.26 56.33 15.92 57.67 14.58 56.33 13.45 57.46 14.79 58.8 13.45 60.15 14.58 61.28 15.92 59.93 17.26 61.28 18.39 60.15 17.05 58.8 18.39 57.46 17.26 56.33"/><polygon class="cls-5" points="36.46 45.33 35.12 46.67 33.78 45.33 32.65 46.46 33.99 47.8 32.65 49.15 33.78 50.28 35.12 48.93 36.46 50.28 37.59 49.15 36.25 47.8 37.59 46.46 36.46 45.33"/><polygon class="cls-5" points="24.46 45.33 23.12 46.67 21.78 45.33 20.64 46.46 21.99 47.8 20.64 49.15 21.78 50.28 23.12 48.93 24.46 50.28 25.59 49.15 24.25 47.8 25.59 46.46 24.46 45.33"/></g></g></g></svg>