<svg xmlns="http://www.w3.org/2000/svg" xmlns:xlink="http://www.w3.org/1999/xlink" viewBox="0 0 68.23 67.36"><defs><style>.cls-1{fill:none;}.cls-2{fill:#002531;}.cls-3{fill:#fff;}.cls-4{clip-path:url(#clip-path);}.cls-5{fill:#b4e6a5;}.cls-6{clip-path:url(#clip-path-2);}.cls-7{clip-path:url(#clip-path-3);}.cls-8{clip-path:url(#clip-path-4);}.cls-9{clip-path:url(#clip-path-5);}</style><clipPath id="clip-path"><path class="cls-1" d="M56.23,54.28A29.72,29.72,0,0,0,64.42,32.1C63.6,16.22,50.25,3.77,34,3.77h-5.6a8.1,8.1,0,0,0-8.09,8.09V29.32a6.07,6.07,0,1,0,12.13,0V11.09a1.89,1.89,0,0,1,3.77,0V28.21a20.82,20.82,0,0,0,14.21,5.57,1.89,1.89,0,1,1,0,3.77A24.58,24.58,0,0,1,35.62,32.6,9.78,9.78,0,0,1,27.83,39a10,10,0,0,1,.37,2.62,9.81,9.81,0,0,1-4.09,7.95,9.71,9.71,0,0,1,1.94,14h8.5A29.64,29.64,0,0,0,56.23,54.28Z"/></clipPath><clipPath id="clip-path-2"><path class="cls-1" d="M3.77,9.83A6.07,6.07,0,0,0,9.83,15.9h6.73v-4a11.78,11.78,0,0,1,3.21-8.09H9.83A6.07,6.07,0,0,0,3.77,9.83Z"/></clipPath><clipPath id="clip-path-3"><path class="cls-1" d="M3.77,25.73A6.07,6.07,0,0,0,9.83,31.8h7.08a9.71,9.71,0,0,1-.35-2.48V19.67H9.83A6.07,6.07,0,0,0,3.77,25.73Z"/></clipPath><clipPath id="clip-path-4"><path class="cls-1" d="M3.77,41.63a6.07,6.07,0,0,0,6.06,6.06h8.54a6.07,6.07,0,0,0,6.06-6.06,6,6,0,0,0-.76-2.9,9.86,9.86,0,0,1-4.81-3.16h-9A6.07,6.07,0,0,0,3.77,41.63Z"/></clipPath><clipPath id="clip-path-5"><path class="cls-1" d="M3.77,57.53a6.07,6.07,0,0,0,6.06,6.06h8.54a6.07,6.07,0,0,0,0-12.13H9.83A6.07,6.07,0,0,0,3.77,57.53Z"/></clipPath></defs><g id="Layer_2" data-name="Layer 2"><g id="Layer_1-2" data-name="Layer 1"><path class="cls-2" d="M8.39,67.22a1.92,1.92,0,0,0,.72.14H34.55A33.69,33.69,0,0,0,68.23,33.7c0-.59,0-1.19,0-1.79C67.27,14,52.26,0,34,0H9.83A9.81,9.81,0,0,0,4.09,17.78a9.77,9.77,0,0,0,0,15.9,9.77,9.77,0,0,0,0,15.9,9.78,9.78,0,0,0,4.3,17.64ZM9.83,51.46h8.54a6.07,6.07,0,0,1,0,12.13H9.83a6.07,6.07,0,0,1,0-12.13Zm0-15.89h9a9.86,9.86,0,0,0,4.81,3.16,6,6,0,0,1,.76,2.9,6.07,6.07,0,0,1-6.06,6.06H9.83a6.06,6.06,0,0,1,0-12.12Zm0-15.9h6.73v9.65a9.71,9.71,0,0,0,.35,2.48H9.83a6.07,6.07,0,0,1,0-12.13Zm0-15.9h9.94a11.78,11.78,0,0,0-3.21,8.09v4H9.83a6.07,6.07,0,0,1,0-12.13ZM34.55,63.59h-8.5a9.71,9.71,0,0,0-1.94-14,9.81,9.81,0,0,0,4.09-7.95A10,10,0,0,0,27.83,39a9.78,9.78,0,0,0,7.79-6.41,24.58,24.58,0,0,0,14.82,4.95,1.89,1.89,0,1,0,0-3.77,20.82,20.82,0,0,1-14.21-5.57V11.09a1.89,1.89,0,0,0-3.77,0V29.32a6.07,6.07,0,1,1-12.13,0V11.86a8.1,8.1,0,0,1,8.09-8.09H34c16.23,0,29.58,12.45,30.4,28.33A29.92,29.92,0,0,1,34.55,63.59Zm0,0h-8.5a9.71,9.71,0,0,0-1.94-14,9.81,9.81,0,0,0,4.09-7.95A10,10,0,0,0,27.83,39a9.78,9.78,0,0,0,7.79-6.41,24.58,24.58,0,0,0,14.82,4.95,1.89,1.89,0,1,0,0-3.77,20.82,20.82,0,0,1-14.21-5.57V11.09a1.89,1.89,0,0,0-3.77,0V29.32a6.07,6.07,0,1,1-12.13,0V11.86a8.1,8.1,0,0,1,8.09-8.09H34c16.23,0,29.58,12.45,30.4,28.33A29.92,29.92,0,0,1,34.55,63.59Z"/><path class="cls-3" d="M56.23,54.28A29.72,29.72,0,0,0,64.42,32.1C63.6,16.22,50.25,3.77,34,3.77h-5.6a8.1,8.1,0,0,0-8.09,8.09V29.32a6.07,6.07,0,1,0,12.13,0V11.09a1.89,1.89,0,0,1,3.77,0V28.21a20.82,20.82,0,0,0,14.21,5.57,1.89,1.89,0,1,1,0,3.77A24.58,24.58,0,0,1,35.62,32.6,9.78,9.78,0,0,1,27.83,39a10,10,0,0,1,.37,2.62,9.81,9.81,0,0,1-4.09,7.95,9.71,9.71,0,0,1,1.94,14h8.5A29.64,29.64,0,0,0,56.23,54.28Z"/><g class="cls-4"><polygon class="cls-5" points="17.36 23.33 18.71 24.67 20.05 23.33 21.18 24.46 19.84 25.8 21.18 27.15 20.05 28.28 18.71 26.93 17.36 28.28 16.23 27.15 17.58 25.8 16.23 24.46 17.36 23.33"/><polygon class="cls-5" points="29.36 23.33 30.71 24.67 32.05 23.33 33.18 24.46 31.84 25.8 33.18 27.15 32.05 28.28 30.71 26.93 29.36 28.28 28.23 27.15 29.58 25.8 28.23 24.46 29.36 23.33"/><polygon class="cls-5" points="41.36 23.33 42.71 24.67 44.05 23.33 45.18 24.46 43.84 25.8 45.18 27.15 44.05 28.28 42.71 26.93 41.36 28.28 40.23 27.15 41.58 25.8 40.23 24.46 41.36 23.33"/><polygon class="cls-5" points="53.36 23.33 54.71 24.67 56.05 23.33 57.18 24.46 55.84 25.8 57.18 27.15 56.05 28.28 54.71 26.93 53.36 28.28 52.23 27.15 53.58 25.8 52.23 24.46 53.36 23.33"/><polygon class="cls-5" points="22.16 12.33 23.51 13.67 24.85 12.33 25.98 13.46 24.64 14.8 25.98 16.15 24.85 17.28 23.51 15.93 22.16 17.28 21.03 16.15 22.38 14.8 21.03 13.46 22.16 12.33"/><polygon class="cls-5" points="34.16 12.33 35.51 13.67 36.85 12.33 37.98 13.46 36.64 14.8 37.98 16.15 36.85 17.28 35.51 15.93 34.16 17.28 33.03 16.15 34.38 14.8 33.03 13.46 34.16 12.33"/><polygon class="cls-5" points="46.16 12.33 47.51 13.67 48.85 12.33 49.98 13.46 48.64 14.8 49.98 16.15 48.85 17.28 47.51 15.93 46.16 17.28 45.03 16.15 46.38 14.8 45.03 13.46 46.16 12.33"/><polygon class="cls-5" points="58.16 12.33 59.51 13.67 60.85 12.33 61.98 13.46 60.64 14.8 61.98 16.15 60.85 17.28 59.51 15.93 58.16 17.28 57.03 16.15 58.38 14.8 57.03 13.46 58.16 12.33"/><polygon class="cls-5" points="14.96 1.33 16.31 2.67 17.65 1.33 18.78 2.46 17.44 3.8 18.78 5.15 17.65 6.28 16.31 4.93 14.96 6.28 13.83 5.15 15.18 3.8 13.83 2.46 14.96 1.33"/><polygon class="cls-5" points="26.96 1.33 28.31 2.67 29.65 1.33 30.78 2.46 29.44 3.8 30.78 5.15 29.65 6.28 28.31 4.93 26.96 6.28 25.83 5.15 27.18 3.8 25.83 2.46 26.96 1.33"/><polygon class="cls-5" points="38.96 1.33 40.31 2.67 41.65 1.33 42.78 2.46 41.44 3.8 42.78 5.15 41.65 6.28 40.31 4.93 38.96 6.28 37.83 5.15 39.18 3.8 37.83 2.46 38.96 1.33"/><polygon class="cls-5" points="14.96 56.33 16.31 57.67 17.65 56.33 18.78 57.46 17.44 58.8 18.78 60.15 17.65 61.28 16.31 59.93 14.96 61.28 13.83 60.15 15.18 58.8 13.83 57.46 14.96 56.33"/><polygon class="cls-5" points="26.96 56.33 28.31 57.67 29.65 56.33 30.78 57.46 29.44 58.8 30.78 60.15 29.65 61.28 28.31 59.93 26.96 61.28 25.83 60.15 27.18 58.8 25.83 57.46 26.96 56.33"/><polygon class="cls-5" points="38.96 56.33 40.31 57.67 41.65 56.33 42.78 57.46 41.44 58.8 42.78 60.15 41.65 61.28 40.31 59.93 38.96 61.28 37.83 60.15 39.18 58.8 37.83 57.46 38.96 56.33"/><polygon class="cls-5" points="50.96 56.33 52.31 57.67 53.65 56.33 54.78 57.46 53.44 58.8 54.78 60.15 53.65 61.28 52.31 59.93 50.96 61.28 49.83 60.15 51.18 58.8 49.83 57.46 50.96 56.33"/><polygon class="cls-5" points="19.76 45.33 21.11 46.67 22.45 45.33 23.58 46.46 22.24 47.8 23.58 49.15 22.45 50.28 21.11 48.93 19.76 50.28 18.63 49.15 19.98 47.8 18.63 46.46 19.76 45.33"/><polygon class="cls-5" points="31.76 45.33 33.11 46.67 34.45 45.33 35.58 46.46 34.24 47.8 35.58 49.15 34.45 50.28 33.11 48.93 31.76 50.28 30.63 49.15 31.98 47.8 30.63 46.46 31.76 45.33"/><polygon class="cls-5" points="43.76 45.33 45.11 46.67 46.45 45.33 47.58 46.46 46.24 47.8 47.58 49.15 46.45 50.28 45.11 48.93 43.76 50.28 42.63 49.15 43.98 47.8 42.63 46.46 43.76 45.33"/><polygon class="cls-5" points="55.76 45.33 57.11 46.67 58.45 45.33 59.58 46.46 58.24 47.8 59.58 49.15 58.45 50.28 57.11 48.93 55.76 50.28 54.63 49.15 55.98 47.8 54.63 46.46 55.76 45.33"/><polygon class="cls-5" points="12.56 34.33 13.91 35.67 15.25 34.33 16.38 35.46 15.04 36.8 16.38 38.15 15.25 39.28 13.91 37.93 12.56 39.28 11.43 38.15 12.78 36.8 11.43 35.46 12.56 34.33"/><polygon class="cls-5" points="24.56 34.33 25.91 35.67 27.25 34.33 28.38 35.46 27.04 36.8 28.38 38.15 27.25 39.28 25.91 37.93 24.56 39.28 23.43 38.15 24.78 36.8 23.43 35.46 24.56 34.33"/><polygon class="cls-5" points="36.56 34.33 37.91 35.67 39.25 34.33 40.38 35.46 39.04 36.8 40.38 38.15 39.25 39.28 37.91 37.93 36.56 39.28 35.43 38.15 36.78 36.8 35.43 35.46 36.56 34.33"/><polygon class="cls-5" points="48.56 34.33 49.91 35.67 51.25 34.33 52.38 35.46 51.04 36.8 52.38 38.15 51.25 39.28 49.91 37.93 48.56 39.28 47.43 38.15 48.78 36.8 47.43 35.46 48.56 34.33"/><polygon class="cls-5" points="60.56 34.33 61.91 35.67 63.25 34.33 64.38 35.46 63.04 36.8 64.38 38.15 63.25 39.28 61.91 37.93 60.56 39.28 59.43 38.15 60.78 36.8 59.43 35.46 60.56 34.33"/></g><path class="cls-3" d="M3.77,9.83A6.07,6.07,0,0,0,9.83,15.9h6.73v-4a11.78,11.78,0,0,1,3.21-8.09H9.83A6.07,6.07,0,0,0,3.77,9.83Z"/><g class="cls-6"><polygon class="cls-5" points="5.36 23.33 6.71 24.67 8.05 23.33 9.18 24.46 7.84 25.8 9.18 27.15 8.05 28.28 6.71 26.93 5.36 28.28 4.23 27.15 5.58 25.8 4.23 24.46 5.36 23.33"/><polygon class="cls-5" points="17.36 23.33 18.71 24.67 20.05 23.33 21.18 24.46 19.84 25.8 21.18 27.15 20.05 28.28 18.71 26.93 17.36 28.28 16.23 27.15 17.58 25.8 16.23 24.46 17.36 23.33"/><polygon class="cls-5" points="10.16 12.33 11.51 13.67 12.85 12.33 13.98 13.46 12.64 14.8 13.98 16.15 12.85 17.28 11.51 15.93 10.16 17.28 9.03 16.15 10.38 14.8 9.03 13.46 10.16 12.33"/><polygon class="cls-5" points="2.96 1.33 4.31 2.67 5.65 1.33 6.78 2.46 5.44 3.8 6.78 5.15 5.65 6.28 4.31 4.93 2.96 6.28 1.83 5.15 3.18 3.8 1.83 2.46 2.96 1.33"/><polygon class="cls-5" points="14.96 1.33 16.31 2.67 17.65 1.33 18.78 2.46 17.44 3.8 18.78 5.15 17.65 6.28 16.31 4.93 14.96 6.28 13.83 5.15 15.18 3.8 13.83 2.46 14.96 1.33"/><polygon class="cls-5" points="17.36 23.33 18.71 24.67 20.05 23.33 21.18 24.46 19.84 25.8 21.18 27.15 20.05 28.28 18.71 26.93 17.36 28.28 16.23 27.15 17.58 25.8 16.23 24.46 17.36 23.33"/><polygon class="cls-5" points="29.36 23.33 30.71 24.67 32.05 23.33 33.18 24.46 31.84 25.8 33.18 27.15 32.05 28.28 30.71 26.93 29.36 28.28 28.23 27.15 29.58 25.8 28.23 24.46 29.36 23.33"/><polygon class="cls-5" points="41.36 23.33 42.71 24.67 44.05 23.33 45.18 24.46 43.84 25.8 45.18 27.15 44.05 28.28 42.71 26.93 41.36 28.28 40.23 27.15 41.58 25.8 40.23 24.46 41.36 23.33"/><polygon class="cls-5" points="53.36 23.33 54.71 24.67 56.05 23.33 57.18 24.46 55.84 25.8 57.18 27.15 56.05 28.28 54.71 26.93 53.36 28.28 52.23 27.15 53.58 25.8 52.23 24.46 53.36 23.33"/><polygon class="cls-5" points="22.16 12.33 23.51 13.67 24.85 12.33 25.98 13.46 24.64 14.8 25.98 16.15 24.85 17.28 23.51 15.93 22.16 17.28 21.03 16.15 22.38 14.8 21.03 13.46 22.16 12.33"/><polygon class="cls-5" points="34.16 12.33 35.51 13.67 36.85 12.33 37.98 13.46 36.64 14.8 37.98 16.15 36.85 17.28 35.51 15.93 34.16 17.28 33.03 16.15 34.38 14.8 33.03 13.46 34.16 12.33"/><polygon class="cls-5" points="46.16 12.33 47.51 13.67 48.85 12.33 49.98 13.46 48.64 14.8 49.98 16.15 48.85 17.28 47.51 15.93 46.16 17.28 45.03 16.15 46.38 14.8 45.03 13.46 46.16 12.33"/><polygon class="cls-5" points="58.16 12.33 59.51 13.67 60.85 12.33 61.98 13.46 60.64 14.8 61.98 16.15 60.85 17.28 59.51 15.93 58.16 17.28 57.03 16.15 58.38 14.8 57.03 13.46 58.16 12.33"/><polygon class="cls-5" points="14.96 1.33 16.31 2.67 17.65 1.33 18.78 2.46 17.44 3.8 18.78 5.15 17.65 6.28 16.31 4.93 14.96 6.28 13.83 5.15 15.18 3.8 13.83 2.46 14.96 1.33"/><polygon class="cls-5" points="26.96 1.33 28.31 2.67 29.65 1.33 30.78 2.46 29.44 3.8 30.78 5.15 29.65 6.28 28.31 4.93 26.96 6.28 25.83 5.15 27.18 3.8 25.83 2.46 26.96 1.33"/><polygon class="cls-5" points="38.96 1.33 40.31 2.67 41.65 1.33 42.78 2.46 41.44 3.8 42.78 5.15 41.65 6.28 40.31 4.93 38.96 6.28 37.83 5.15 39.18 3.8 37.83 2.46 38.96 1.33"/></g><path class="cls-3" d="M3.77,25.73A6.07,6.07,0,0,0,9.83,31.8h7.08a9.71,9.71,0,0,1-.35-2.48V19.67H9.83A6.07,6.07,0,0,0,3.77,25.73Z"/><g class="cls-7"><polygon class="cls-5" points="5.36 23.33 6.71 24.67 8.05 23.33 9.18 24.46 7.84 25.8 9.18 27.15 8.05 28.28 6.71 26.93 5.36 28.28 4.23 27.15 5.58 25.8 4.23 24.46 5.36 23.33"/><polygon class="cls-5" points="2.96 56.33 4.31 57.67 5.65 56.33 6.78 57.46 5.44 58.8 6.78 60.15 5.65 61.28 4.31 59.93 2.96 61.28 1.83 60.15 3.18 58.8 1.83 57.46 2.96 56.33"/><polygon class="cls-5" points="14.96 56.33 16.31 57.67 17.65 56.33 18.78 57.46 17.44 58.8 18.78 60.15 17.65 61.28 16.31 59.93 14.96 61.28 13.83 60.15 15.18 58.8 13.83 57.46 14.96 56.33"/><polygon class="cls-5" points="7.76 45.33 9.11 46.67 10.45 45.33 11.58 46.46 10.24 47.8 11.58 49.15 10.45 50.28 9.11 48.93 7.76 50.28 6.63 49.15 7.98 47.8 6.63 46.46 7.76 45.33"/><polygon class="cls-5" points="12.56 34.33 13.91 35.67 15.25 34.33 16.38 35.46 15.04 36.8 16.38 38.15 15.25 39.28 13.91 37.93 12.56 39.28 11.43 38.15 12.78 36.8 11.43 35.46 12.56 34.33"/><polygon class="cls-5" points="17.36 23.33 18.71 24.67 20.05 23.33 21.18 24.46 19.84 25.8 21.18 27.15 20.05 28.28 18.71 26.93 17.36 28.28 16.23 27.15 17.58 25.8 16.23 24.46 17.36 23.33"/><polygon class="cls-5" points="29.36 23.33 30.71 24.67 32.05 23.33 33.18 24.46 31.84 25.8 33.18 27.15 32.05 28.28 30.71 26.93 29.36 28.28 28.23 27.15 29.58 25.8 28.23 24.46 29.36 23.33"/><polygon class="cls-5" points="41.36 23.33 42.71 24.67 44.05 23.33 45.18 24.46 43.84 25.8 45.18 27.15 44.05 28.28 42.71 26.93 41.36 28.28 40.23 27.15 41.58 25.8 40.23 24.46 41.36 23.33"/><polygon class="cls-5" points="53.36 23.33 54.71 24.67 56.05 23.33 57.18 24.46 55.84 25.8 57.18 27.15 56.05 28.28 54.71 26.93 53.36 28.28 52.23 27.15 53.58 25.8 52.23 24.46 53.36 23.33"/><polygon class="cls-5" points="22.16 12.33 23.51 13.67 24.85 12.33 25.98 13.46 24.64 14.8 25.98 16.15 24.85 17.28 23.51 15.93 22.16 17.28 21.03 16.15 22.38 14.8 21.03 13.46 22.16 12.33"/><polygon class="cls-5" points="34.16 12.33 35.51 13.67 36.85 12.33 37.98 13.46 36.64 14.8 37.98 16.15 36.85 17.28 35.51 15.93 34.16 17.28 33.03 16.15 34.38 14.8 33.03 13.46 34.16 12.33"/><polygon class="cls-5" points="46.16 12.33 47.51 13.67 48.85 12.33 49.98 13.46 48.64 14.8 49.98 16.15 48.85 17.28 47.51 15.93 46.16 17.28 45.03 16.15 46.38 14.8 45.03 13.46 46.16 12.33"/><polygon class="cls-5" points="58.16 12.33 59.51 13.67 60.85 12.33 61.98 13.46 60.64 14.8 61.98 16.15 60.85 17.28 59.51 15.93 58.16 17.28 57.03 16.15 58.38 14.8 57.03 13.46 58.16 12.33"/><polygon class="cls-5" points="14.96 1.33 16.31 2.67 17.65 1.33 18.78 2.46 17.44 3.8 18.78 5.15 17.65 6.28 16.31 4.93 14.96 6.28 13.83 5.15 15.18 3.8 13.83 2.46 14.96 1.33"/><polygon class="cls-5" points="26.96 1.33 28.31 2.67 29.65 1.33 30.78 2.46 29.44 3.8 30.78 5.15 29.65 6.28 28.31 4.93 26.96 6.28 25.83 5.15 27.18 3.8 25.83 2.46 26.96 1.33"/><polygon class="cls-5" points="38.96 1.33 40.31 2.67 41.65 1.33 42.78 2.46 41.44 3.8 42.78 5.15 41.65 6.28 40.31 4.93 38.96 6.28 37.83 5.15 39.18 3.8 37.83 2.46 38.96 1.33"/><polygon class="cls-5" points="14.96 56.33 16.31 57.67 17.65 56.33 18.78 57.46 17.44 58.8 18.78 60.15 17.65 61.28 16.31 59.93 14.96 61.28 13.83 60.15 15.18 58.8 13.83 57.46 14.96 56.33"/><polygon class="cls-5" points="26.96 56.33 28.31 57.67 29.65 56.33 30.78 57.46 29.44 58.8 30.78 60.15 29.65 61.28 28.31 59.93 26.96 61.28 25.83 60.15 27.18 58.8 25.83 57.46 26.96 56.33"/><polygon class="cls-5" points="38.96 56.33 40.31 57.67 41.65 56.33 42.78 57.46 41.44 58.8 42.78 60.15 41.65 61.28 40.31 59.93 38.96 61.28 37.83 60.15 39.18 58.8 37.83 57.46 38.96 56.33"/><polygon class="cls-5" points="50.96 56.33 52.31 57.67 53.65 56.33 54.78 57.46 53.44 58.8 54.78 60.15 53.65 61.28 52.31 59.93 50.96 61.28 49.83 60.15 51.18 58.8 49.83 57.46 50.96 56.33"/><polygon class="cls-5" points="19.76 45.33 21.11 46.67 22.45 45.33 23.58 46.46 22.24 47.8 23.58 49.15 22.45 50.28 21.11 48.93 19.76 50.28 18.63 49.15 19.98 47.8 18.63 46.46 19.76 45.33"/><polygon class="cls-5" points="31.76 45.33 33.11 46.67 34.45 45.33 35.58 46.46 34.24 47.8 35.58 49.15 34.45 50.28 33.11 48.93 31.76 50.28 30.63 49.15 31.98 47.8 30.63 46.46 31.76 45.33"/><polygon class="cls-5" points="43.76 45.33 45.11 46.67 46.45 45.33 47.58 46.46 46.24 47.8 47.58 49.15 46.45 50.28 45.11 48.93 43.76 50.28 42.63 49.15 43.98 47.8 42.63 46.46 43.76 45.33"/><polygon class="cls-5" points="55.76 45.33 57.11 46.67 58.45 45.33 59.58 46.46 58.24 47.8 59.58 49.15 58.45 50.28 57.11 48.93 55.76 50.28 54.63 49.15 55.98 47.8 54.63 46.46 55.76 45.33"/><polygon class="cls-5" points="12.56 34.33 13.91 35.67 15.25 34.33 16.38 35.46 15.04 36.8 16.38 38.15 15.25 39.28 13.91 37.93 12.56 39.28 11.43 38.15 12.78 36.8 11.43 35.46 12.56 34.33"/><polygon class="cls-5" points="24.56 34.33 25.91 35.67 27.25 34.33 28.38 35.46 27.04 36.8 28.38 38.15 27.25 39.28 25.91 37.93 24.56 39.28 23.43 38.15 24.78 36.8 23.43 35.46 24.56 34.33"/><polygon class="cls-5" points="36.56 34.33 37.91 35.67 39.25 34.33 40.38 35.46 39.04 36.8 40.38 38.15 39.25 39.28 37.91 37.93 36.56 39.28 35.43 38.15 36.78 36.8 35.43 35.46 36.56 34.33"/><polygon class="cls-5" points="48.56 34.33 49.91 35.67 51.25 34.33 52.38 35.46 51.04 36.8 52.38 38.15 51.25 39.28 49.91 37.93 48.56 39.28 47.43 38.15 48.78 36.8 47.43 35.46 48.56 34.33"/><polygon class="cls-5" points="60.56 34.33 61.91 35.67 63.25 34.33 64.38 35.46 63.04 36.8 64.38 38.15 63.25 39.28 61.91 37.93 60.56 39.28 59.43 38.15 60.78 36.8 59.43 35.46 60.56 34.33"/></g><path class="cls-3" d="M3.77,41.63a6.07,6.07,0,0,0,6.06,6.06h8.54a6.07,6.07,0,0,0,6.06-6.06,6,6,0,0,0-.76-2.9,9.86,9.86,0,0,1-4.81-3.16h-9A6.07,6.07,0,0,0,3.77,41.63Z"/><g class="cls-8"><polygon class="cls-5" points="14.96 56.33 16.31 57.67 17.65 56.33 18.78 57.46 17.44 58.8 18.78 60.15 17.65 61.28 16.31 59.93 14.96 61.28 13.83 60.15 15.18 58.8 13.83 57.46 14.96 56.33"/><polygon class="cls-5" points="12.56 34.33 13.91 35.67 15.25 34.33 16.38 35.46 15.04 36.8 16.38 38.15 15.25 39.28 13.91 37.93 12.56 39.28 11.43 38.15 12.78 36.8 11.43 35.46 12.56 34.33"/><polygon class="cls-5" points="14.96 56.33 16.31 57.67 17.65 56.33 18.78 57.46 17.44 58.8 18.78 60.15 17.65 61.28 16.31 59.93 14.96 61.28 13.83 60.15 15.18 58.8 13.83 57.46 14.96 56.33"/><polygon class="cls-5" points="26.96 56.33 28.31 57.67 29.65 56.33 30.78 57.46 29.44 58.8 30.78 60.15 29.65 61.28 28.31 59.93 26.96 61.28 25.83 60.15 27.18 58.8 25.83 57.46 26.96 56.33"/><polygon class="cls-5" points="38.96 56.33 40.31 57.67 41.65 56.33 42.78 57.46 41.44 58.8 42.78 60.15 41.65 61.28 40.31 59.93 38.96 61.28 37.83 60.15 39.18 58.8 37.83 57.46 38.96 56.33"/><polygon class="cls-5" points="50.96 56.33 52.31 57.67 53.65 56.33 54.78 57.46 53.44 58.8 54.78 60.15 53.65 61.28 52.31 59.93 50.96 61.28 49.83 60.15 51.18 58.8 49.83 57.46 50.96 56.33"/><polygon class="cls-5" points="19.76 45.33 21.11 46.67 22.45 45.33 23.58 46.46 22.24 47.8 23.58 49.15 22.45 50.28 21.11 48.93 19.76 50.28 18.63 49.15 19.98 47.8 18.63 46.46 19.76 45.33"/><polygon class="cls-5" points="31.76 45.33 33.11 46.67 34.45 45.33 35.58 46.46 34.24 47.8 35.58 49.15 34.45 50.28 33.11 48.93 31.76 50.28 30.63 49.15 31.98 47.8 30.63 46.46 31.76 45.33"/><polygon class="cls-5" points="43.76 45.33 45.11 46.67 46.45 45.33 47.58 46.46 46.24 47.8 47.58 49.15 46.45 50.28 45.11 48.93 43.76 50.28 42.63 49.15 43.98 47.8 42.63 46.46 43.76 45.33"/><polygon class="cls-5" points="55.76 45.33 57.11 46.67 58.45 45.33 59.58 46.46 58.24 47.8 59.58 49.15 58.45 50.28 57.11 48.93 55.76 50.28 54.63 49.15 55.98 47.8 54.63 46.46 55.76 45.33"/><polygon class="cls-5" points="12.56 34.33 13.91 35.67 15.25 34.33 16.38 35.46 15.04 36.8 16.38 38.15 15.25 39.28 13.91 37.93 12.56 39.28 11.43 38.15 12.78 36.8 11.43 35.46 12.56 34.33"/><polygon class="cls-5" points="24.56 34.33 25.91 35.67 27.25 34.33 28.38 35.46 27.04 36.8 28.38 38.15 27.25 39.28 25.91 37.93 24.56 39.28 23.43 38.15 24.78 36.8 23.43 35.46 24.56 34.33"/><polygon class="cls-5" points="36.56 34.33 37.91 35.67 39.25 34.33 40.38 35.46 39.04 36.8 40.38 38.15 39.25 39.28 37.91 37.93 36.56 39.28 35.43 38.15 36.78 36.8 35.43 35.46 36.56 34.33"/><polygon class="cls-5" points="48.56 34.33 49.91 35.67 51.25 34.33 52.38 35.46 51.04 36.8 52.38 38.15 51.25 39.28 49.91 37.93 48.56 39.28 47.43 38.15 48.78 36.8 47.43 35.46 48.56 34.33"/><polygon class="cls-5" points="60.56 34.33 61.91 35.67 63.25 34.33 64.38 35.46 63.04 36.8 64.38 38.15 63.25 39.28 61.91 37.93 60.56 39.28 59.43 38.15 60.78 36.8 59.43 35.46 60.56 34.33"/></g><path class="cls-3" d="M3.77,57.53a6.07,6.07,0,0,0,6.06,6.06h8.54a6.07,6.07,0,0,0,0-12.13H9.83A6.07,6.07,0,0,0,3.77,57.53Z"/><g class="cls-9"><polygon class="cls-5" points="2.96 56.33 4.31 57.67 5.65 56.33 6.78 57.46 5.44 58.8 6.78 60.15 5.65 61.28 4.31 59.93 2.96 61.28 1.83 60.15 3.18 58.8 1.83 57.46 2.96 56.33"/><polygon class="cls-5" points="14.96 56.33 16.31 57.67 17.65 56.33 18.78 57.46 17.44 58.8 18.78 60.15 17.65 61.28 16.31 59.93 14.96 61.28 13.83 60.15 15.18 58.8 13.83 57.46 14.96 56.33"/><polygon class="cls-5" points="7.76 45.33 9.11 46.67 10.45 45.33 11.58 46.46 10.24 47.8 11.58 49.15 10.45 50.28 9.11 48.93 7.76 50.28 6.63 49.15 7.98 47.8 6.63 46.46 7.76 45.33"/><polygon class="cls-5" points="12.56 34.33 13.91 35.67 15.25 34.33 16.38 35.46 15.04 36.8 16.38 38.15 15.25 39.28 13.91 37.93 12.56 39.28 11.43 38.15 12.78 36.8 11.43 35.46 12.56 34.33"/><polygon class="cls-5" points="14.96 56.33 16.31 57.67 17.65 56.33 18.78 57.46 17.44 58.8 18.78 60.15 17.65 61.28 16.31 59.93 14.96 61.28 13.83 60.15 15.18 58.8 13.83 57.46 14.96 56.33"/><polygon class="cls-5" points="38.96 56.33 40.31 57.67 41.65 56.33 42.78 57.46 41.44 58.8 42.78 60.15 41.65 61.28 40.31 59.93 38.96 61.28 37.83 60.15 39.18 58.8 37.83 57.46 38.96 56.33"/><polygon class="cls-5" points="50.96 56.33 52.31 57.67 53.65 56.33 54.78 57.46 53.44 58.8 54.78 60.15 53.65 61.28 52.31 59.93 50.96 61.28 49.83 60.15 51.18 58.8 49.83 57.46 50.96 56.33"/><polygon class="cls-5" points="31.76 45.33 33.11 46.67 34.45 45.33 35.58 46.46 34.24 47.8 35.58 49.15 34.45 50.28 33.11 48.93 31.76 50.28 30.63 49.15 31.98 47.8 30.63 46.46 31.76 45.33"/><polygon class="cls-5" points="43.76 45.33 45.11 46.67 46.45 45.33 47.58 46.46 46.24 47.8 47.58 49.15 46.45 50.28 45.11 48.93 43.76 50.28 42.63 49.15 43.98 47.8 42.63 46.46 43.76 45.33"/></g></g></g></svg>