<svg xmlns="http://www.w3.org/2000/svg" viewBox="0 0 98.36 92.43"><defs><style>.cls-1{fill:#00313c;}.cls-2{fill:#b4e6a5;}.cls-3{fill:#fff;}</style></defs><g id="Layer_2" data-name="Layer 2"><g id="Layer_1-2" data-name="Layer 1"><path class="cls-1" d="M97.7,39.4a3.46,3.46,0,0,0-2.8-1.32H85.06v-1a3.85,3.85,0,0,0-1.15-2.75,1.88,1.88,0,0,1-.5-1.9,4.61,4.61,0,0,0-.33-3.57,1.72,1.72,0,0,0-.34-.46L55.21.91a1.66,1.66,0,0,0-.43-.32,4.43,4.43,0,0,0-5.34.68L24.69,26a1.81,1.81,0,0,1-1.26.52h-8a2,2,0,0,0-1.47.77l-3.56,5.16A2,2,0,0,1,9,33.24H1.78A1.79,1.79,0,0,0,0,35V90.65a1.78,1.78,0,0,0,1.78,1.78H81.19a3.89,3.89,0,0,0,2.92-1.34,2,2,0,0,0,.43-.38,4.18,4.18,0,0,0,.76-1.46L98.23,42.32A3.28,3.28,0,0,0,97.7,39.4Zm-4.17,4.93-5,18a1.78,1.78,0,0,1-3.5-.47v-18a1.78,1.78,0,0,1,1.78-1.78h5A1.78,1.78,0,0,1,93.53,44.33Zm-14-13-1.36,1.36a1.77,1.77,0,0,1-1.26.52H70.76A1.66,1.66,0,0,1,69.19,32a2,2,0,0,0-.5-.83l-16.2-16.2a2,2,0,1,0-2.83,2.83L62.09,30.2a1.78,1.78,0,0,1-1.26,3H56.1a1.75,1.75,0,0,1-1.26-.52L44.77,22.65a2,2,0,0,0-3.4,1,1.78,1.78,0,0,0,.47,1.72l4.82,4.82a1.78,1.78,0,0,1-1.26,3h0a2,2,0,0,1-1.46-.77l-3.57-5.16a2,2,0,0,0-1.46-.77H34.12a1.78,1.78,0,0,1-1.26-3L51.24,5.12a1.79,1.79,0,0,1,2.52,0L79.53,30.89a.33.33,0,0,1,.1.23A.35.35,0,0,1,79.53,31.36ZM41.84,36.48a2,2,0,0,0,1.46.76h36A1.78,1.78,0,0,1,81.06,39V86.64a1.78,1.78,0,0,1-1.78,1.79H5.78A1.79,1.79,0,0,1,4,86.64V39a1.78,1.78,0,0,1,1.78-1.78h5.28a2,2,0,0,0,1.46-.77l3.56-5.17a2,2,0,0,1,1.47-.77H36.81a2,2,0,0,1,1.46.77Z"/><path class="cls-2" d="M41.84,36.48a2,2,0,0,0,1.46.76h36A1.78,1.78,0,0,1,81.06,39V86.64a1.78,1.78,0,0,1-1.78,1.79H5.78A1.79,1.79,0,0,1,4,86.64V39a1.78,1.78,0,0,1,1.78-1.78h5.28a2,2,0,0,0,1.46-.77l3.56-5.17a2,2,0,0,1,1.47-.77H36.81a2,2,0,0,1,1.46.77Z"/><path class="cls-3" d="M79.53,31.36l-1.36,1.36a1.77,1.77,0,0,1-1.26.52H70.76A1.66,1.66,0,0,1,69.19,32a2,2,0,0,0-.5-.83l-16.2-16.2a2,2,0,1,0-2.83,2.83L62.09,30.2a1.78,1.78,0,0,1-1.26,3H56.1a1.75,1.75,0,0,1-1.26-.52L44.77,22.65a2,2,0,0,0-3.4,1,1.78,1.78,0,0,0,.47,1.72l4.82,4.82a1.78,1.78,0,0,1-1.26,3h0a2,2,0,0,1-1.46-.77l-3.57-5.16a2,2,0,0,0-1.46-.77H34.12a1.78,1.78,0,0,1-1.26-3L51.24,5.12a1.79,1.79,0,0,1,2.52,0L79.53,30.89a.33.33,0,0,1,.1.23A.35.35,0,0,1,79.53,31.36Z"/><path class="cls-3" d="M93.53,44.33l-5,18a1.78,1.78,0,0,1-3.5-.47v-18a1.78,1.78,0,0,1,1.78-1.78h5A1.78,1.78,0,0,1,93.53,44.33Z"/></g></g></svg>