<svg xmlns="http://www.w3.org/2000/svg" viewBox="0 0 85.76 100"><defs><style>.cls-1{fill:#b4e6a5;}.cls-2{fill:#fff;}.cls-3{fill:#00313c;}</style></defs><g id="Layer_2" data-name="Layer 2"><g id="Layer_1-2" data-name="Layer 1"><path class="cls-1" d="M32.61,81c1.15,5.36.82,9.44-1,12.13a6.57,6.57,0,0,1-3.8,2.78,9.62,9.62,0,0,1-1.58.13,8.43,8.43,0,0,1-6-2.51,17.6,17.6,0,0,1-3.9-6c-.14-.36-.29-.72-.44-1.08L32.61,81M53.15,59.05l16.67,5.47-.44,1.07c-3,7.4-7.49,8.5-9.88,8.5A10.81,10.81,0,0,1,57.92,74a6.58,6.58,0,0,1-3.8-2.79c-1.79-2.69-2.12-6.76-1-12.13"/><path class="cls-2" d="M17.63,25.91a9.68,9.68,0,0,1,5.75,1.86C28.9,31.8,30.27,40,30.28,40A50.7,50.7,0,0,1,30,56a33.12,33.12,0,0,0-.5,6.11,59,59,0,0,0,.49,6.42l-19.1,6.26C5.23,61,3.05,49.61,4.37,41c1.13-7.44,4.71-11.32,7.52-13.26a10.06,10.06,0,0,1,5.74-1.8"/><path class="cls-2" d="M68.13,4a10,10,0,0,1,5.74,1.8c2.81,2,6.4,5.83,7.53,13.26,1.31,8.64-.87,20-6.47,33.78L55.82,46.58a56.81,56.81,0,0,0,.49-6.43,33.19,33.19,0,0,0-.5-6.11,50.64,50.64,0,0,1-.33-15.91c0-.09,1.39-8.24,6.9-12.27A9.68,9.68,0,0,1,68.13,4"/><path class="cls-1" d="M17.23,55.07l1.34-1.34-1.34-1.34,1.13-1.14L19.7,52.6,21,51.25l1.13,1.13-1.34,1.35,1.34,1.34L21,56.2,19.7,54.86,18.36,56.2Zm12-2.68,1.09,1.09c.08-.64.16-1.32.22-2l-.18-.19ZM23.44,29.25,22.1,30.6l-1.34-1.35-1.13,1.14L21,31.73l-1.34,1.34,1.13,1.13,1.34-1.34,1.34,1.34,1.13-1.13-1.34-1.34,1.34-1.35Zm5.93,14.82L28,42.73l1.34-1.35-1.13-1.13L26.9,41.6l-1.34-1.35-1.13,1.14,1.34,1.34-1.34,1.34,1.13,1.13,1.34-1.34,1.34,1.34ZM25.84,62.25,24.5,63.6l-1.34-1.35L22,63.39l1.34,1.34L22,66.07l1.13,1.13,1.34-1.34,1.34,1.34L27,66.07l-1.34-1.34L27,63.38Zm-12.28-17,1.34-1.34,1.34,1.34,1.13-1.13L16,42.73l1.34-1.35-1.13-1.13L14.9,41.6l-1.34-1.35-1.13,1.14,1.34,1.34-1.34,1.34Zm16.68,8.85-1,1,.74.75Q30.1,55,30.24,54.05ZM8.34,31.1l.63.63L7.63,33.07,8.76,34.2l1.34-1.34,1.34,1.34,1.13-1.13-1.34-1.34,1.34-1.35-1.13-1.13L10.1,30.6l-.72-.72C9,30.25,8.68,30.66,8.34,31.1ZM9,51.25,7.7,52.6,6.36,51.25,5.23,52.39l1.34,1.34L5.23,55.07,6.36,56.2,7.7,54.86,9,56.2l1.13-1.13L8.83,53.73l1.34-1.35ZM4.16,42.59l1.21-1.21-.91-.92c0,.17-.07.34-.09.51Q4.25,41.77,4.16,42.59Zm.08,2.61,1.13-1.13L4.15,42.84C4.08,43.54,4,44.25,4,45ZM10,63.39l1.34,1.34L10,66.07l1.13,1.13,1.34-1.34,1.34,1.34L15,66.07l-1.34-1.34L15,63.38l-1.13-1.13L12.5,63.6l-1.34-1.35ZM71.44,29.25,70.1,30.6l-1.34-1.35-1.13,1.14L69,31.73l-1.34,1.34,1.13,1.13,1.34-1.34,1.34,1.34,1.13-1.13-1.34-1.34,1.34-1.35Zm-7.2,11L62.9,41.6l-1.34-1.35-1.13,1.14,1.34,1.34-1.34,1.34,1.13,1.13,1.34-1.34,1.34,1.34,1.13-1.13L64,42.73l1.34-1.35Zm9.6-33L72.5,8.6,71.16,7.25,70,8.39l1.34,1.34L70,11.07l1.13,1.13,1.34-1.34,1.34,1.34L75,11.07,73.63,9.73,75,8.38Zm2.4,33L74.9,41.6l-1.34-1.35-1.13,1.14,1.34,1.34-1.34,1.34,1.13,1.13,1.34-1.34,1.34,1.34,1.13-1.13L76,42.73l1.34-1.35Zm2.4-22L77.3,19.6,76,18.25l-1.13,1.14,1.34,1.34-1.34,1.34L76,23.2l1.34-1.34,1.34,1.34,1.13-1.13-1.34-1.34,1.34-1.35ZM55.36,19c0,.31-.08.63-.12,1l.53-.54Zm25.4,10.28-1.13,1.14L81,31.73l-1.34,1.34,1.09,1.1c.29-1.47.52-2.89.68-4.27ZM59.37,9.73,58,11.07l1.13,1.13,1.34-1.34,1.34,1.34L63,11.07,61.63,9.73,63,8.38,61.84,7.25,60.5,8.6,60,8.11c-.35.42-.69.84-1,1.28Zm8.4,12.34-1.34-1.34,1.34-1.35-1.13-1.13L65.3,19.6,64,18.25l-1.13,1.14,1.34,1.34-1.34,1.34L64,23.2l1.34-1.34,1.34,1.34ZM55.1,21.4c0,.48-.06,1-.08,1.42l.75-.75Zm3,11.46,1.34,1.34,1.13-1.13-1.34-1.34,1.34-1.35-1.13-1.13L58.1,30.6l-1.34-1.35-1.13,1.14L57,31.73l-1.32,1.32v.05l1.1,1.1Z"/><path class="cls-3" d="M68.13,4a10,10,0,0,1,5.74,1.8c2.81,2,6.4,5.83,7.53,13.26,1.31,8.64-.87,20-6.47,33.78L55.82,46.58a56.81,56.81,0,0,0,.49-6.43,33.19,33.19,0,0,0-.5-6.11,50.64,50.64,0,0,1-.33-15.91c0-.09,1.39-8.24,6.9-12.27A9.68,9.68,0,0,1,68.13,4m0-4A13.7,13.7,0,0,0,60,2.63c-6.84,5-8.44,14.46-8.5,14.86a55,55,0,0,0,.34,17.24,28.49,28.49,0,0,1,.44,5.36,55.61,55.61,0,0,1-.78,8.18,1.26,1.26,0,0,0,.85,1.39L76.1,57.43a1.32,1.32,0,0,0,.39.06,1.25,1.25,0,0,0,1.14-.76c6.62-15.52,9.22-28.4,7.72-38.27C84,9.62,79.6,4.91,76.14,2.51a14.1,14.1,0,0,0-8-2.51Zm-15,59.05,16.67,5.47-.44,1.07c-3,7.4-7.49,8.5-9.88,8.5A10.81,10.81,0,0,1,57.92,74a6.58,6.58,0,0,1-3.8-2.79c-1.79-2.69-2.12-6.76-1-12.13m-1.91-4.76a1.25,1.25,0,0,0-1.2.92c-.18.67-.33,1.18-.42,1.48s-.17.57-.23.83c-1.57,6.79-1.1,12.14,1.41,15.88a10.48,10.48,0,0,0,6.44,4.51,13.83,13.83,0,0,0,2.26.18c8.14,0,12.16-7.52,13.58-11,.53-1.3,1.07-2.57,1.6-3.76a1.29,1.29,0,0,0,0-1,1.26,1.26,0,0,0-.75-.68l-22.3-7.3a1.23,1.23,0,0,0-.39-.06ZM17.63,25.91a9.68,9.68,0,0,1,5.75,1.86C28.9,31.8,30.27,40,30.28,40A50.7,50.7,0,0,1,30,56a33.12,33.12,0,0,0-.5,6.11,59,59,0,0,0,.49,6.42l-19.1,6.26C5.23,61,3.05,49.61,4.37,41c1.13-7.44,4.71-11.32,7.52-13.26a10.06,10.06,0,0,1,5.74-1.8m0-4a14,14,0,0,0-8,2.51C6.16,26.81,1.75,31.52.41,40.37c-1.5,9.87,1.1,22.74,7.72,38.27a1.25,1.25,0,0,0,1.15.76,1.32,1.32,0,0,0,.39-.06l23.71-7.78a1.25,1.25,0,0,0,.85-1.39A55.35,55.35,0,0,1,33.45,62a29.46,29.46,0,0,1,.44-5.37,54.87,54.87,0,0,0,.34-17.23c-.06-.4-1.65-9.87-8.49-14.86a13.68,13.68,0,0,0-8.11-2.63ZM32.61,81c1.15,5.36.82,9.44-1,12.13a6.57,6.57,0,0,1-3.8,2.78,9.62,9.62,0,0,1-1.58.13,8.43,8.43,0,0,1-6-2.51,17.6,17.6,0,0,1-3.9-6c-.14-.36-.29-.72-.44-1.08L32.61,81m1.91-4.77a1.32,1.32,0,0,0-.39.06l-22.3,7.31a1.25,1.25,0,0,0-.75,1.69c.53,1.2,1.07,2.46,1.6,3.77a21.48,21.48,0,0,0,4.85,7.37A12.38,12.38,0,0,0,26.26,100a13.64,13.64,0,0,0,2.27-.19A10.38,10.38,0,0,0,35,95.31c2.51-3.75,3-9.09,1.41-15.88-.06-.26-.13-.53-.22-.83s-.24-.81-.43-1.48a1.29,1.29,0,0,0-.61-.78,1.23,1.23,0,0,0-.59-.15Z"/></g></g></svg>