<svg xmlns="http://www.w3.org/2000/svg" xmlns:xlink="http://www.w3.org/1999/xlink" viewBox="0 0 68.06 73.04"><defs><style>.cls-1{fill:none;}.cls-2{fill:#002531;}.cls-3{fill:#fff;}.cls-4{clip-path:url(#clip-path);}.cls-5{fill:#b4e6a5;}</style><clipPath id="clip-path"><path class="cls-1" d="M22.69,70.26A21.43,21.43,0,0,1,7.55,62.43,21.74,21.74,0,0,1,10,32.57l3-2.7,0,0L13,29.8a5.81,5.81,0,0,1,8.17.42l8.49,9.3a4.37,4.37,0,0,1-6.46,5.9L14.37,35.7a1.36,1.36,0,0,0-2,1.84l8.32,9.11a15.06,15.06,0,0,1-4.87,9.88,1.37,1.37,0,0,0-.09,1.92,1.35,1.35,0,0,0,1.92.09,17.67,17.67,0,0,0,5.49-9.84,7.07,7.07,0,0,0,8.57-11l-8.49-9.3a8.51,8.51,0,0,0-5.63-2.75L41.46,3.86a4.37,4.37,0,1,1,5.89,6.46L37,19.73,31.21,25A1.37,1.37,0,0,0,31.12,27a1.35,1.35,0,0,0,1.92.09l5.82-5.31,10.33-9.41L55,7a4.37,4.37,0,0,1,5.89,6.46l-5.82,5.31L44.76,28.2l-5.83,5.31a1.36,1.36,0,0,0,1.84,2l5.82-5.31L56.91,20.8a4.37,4.37,0,1,1,5.89,6.45l-5.7,5.2a8.91,8.91,0,0,0-.94.71L46.64,42a1.36,1.36,0,0,0-.08,1.91h0a1.35,1.35,0,0,0,1.92.09l10.3-9.4A4.29,4.29,0,0,1,61.15,34a4.37,4.37,0,0,1,3,1.41h0a4.38,4.38,0,0,1-.27,6.17L52.3,52.33l0,0L38.77,64.69A21.4,21.4,0,0,1,22.69,70.26Z"/></clipPath></defs><g id="Layer_2" data-name="Layer 2"><g id="Layer_1-2" data-name="Layer 1"><path class="cls-2" d="M65.77,43.6a7.11,7.11,0,0,0,.44-10l0,0a7,7,0,0,0-3.93-2.15l2.38-2.17A7.05,7.05,0,0,0,61,17.06l1.73-1.58A7.09,7.09,0,0,0,53.18,5L51.45,6.58A7.05,7.05,0,0,0,39.63,1.85L11.25,27.74l-.12.09-3,2.73A24.46,24.46,0,0,0,5.45,64.15c.28.34.56.66.85,1A24.28,24.28,0,0,0,40.6,66.7L54.15,54.34s0,0,0,0ZM22.69,70.26A21.43,21.43,0,0,1,7.55,62.43,21.74,21.74,0,0,1,10,32.57l3-2.7,0,0L13,29.8a5.81,5.81,0,0,1,8.17.42l8.49,9.3a4.37,4.37,0,0,1-6.46,5.9L14.37,35.7a1.36,1.36,0,0,0-2,1.84l8.32,9.11a15.06,15.06,0,0,1-4.87,9.88,1.37,1.37,0,0,0-.09,1.92,1.35,1.35,0,0,0,1.92.09,17.67,17.67,0,0,0,5.49-9.84,7.07,7.07,0,0,0,8.57-11l-8.49-9.3a8.51,8.51,0,0,0-5.63-2.75L41.46,3.86a4.37,4.37,0,1,1,5.89,6.46L37,19.73,31.21,25A1.37,1.37,0,0,0,31.12,27a1.35,1.35,0,0,0,1.92.09l5.82-5.31,10.33-9.41L55,7a4.37,4.37,0,0,1,5.89,6.46l-5.82,5.31L44.76,28.2l-5.83,5.31a1.36,1.36,0,0,0,1.84,2l5.82-5.31L56.91,20.8a4.37,4.37,0,1,1,5.89,6.45l-5.7,5.2a8.91,8.91,0,0,0-.94.71L46.64,42a1.36,1.36,0,0,0-.08,1.91h0a1.35,1.35,0,0,0,1.92.09l10.3-9.4A4.29,4.29,0,0,1,61.15,34a4.37,4.37,0,0,1,3,1.41h0a4.38,4.38,0,0,1-.27,6.17L52.3,52.33l0,0L38.77,64.69A21.4,21.4,0,0,1,22.69,70.26Z"/><path class="cls-3" d="M22.69,70.26A21.43,21.43,0,0,1,7.55,62.43,21.74,21.74,0,0,1,10,32.57l3-2.7,0,0L13,29.8a5.81,5.81,0,0,1,8.17.42l8.49,9.3a4.37,4.37,0,0,1-6.46,5.9L14.37,35.7a1.36,1.36,0,0,0-2,1.84l8.32,9.11a15.06,15.06,0,0,1-4.87,9.88,1.37,1.37,0,0,0-.09,1.92,1.35,1.35,0,0,0,1.92.09,17.67,17.67,0,0,0,5.49-9.84,7.07,7.07,0,0,0,8.57-11l-8.49-9.3a8.51,8.51,0,0,0-5.63-2.75L41.46,3.86a4.37,4.37,0,1,1,5.89,6.46L37,19.73,31.21,25A1.37,1.37,0,0,0,31.12,27a1.35,1.35,0,0,0,1.92.09l5.82-5.31,10.33-9.41L55,7a4.37,4.37,0,0,1,5.89,6.46l-5.82,5.31L44.76,28.2l-5.83,5.31a1.36,1.36,0,0,0,1.84,2l5.82-5.31L56.91,20.8a4.37,4.37,0,1,1,5.89,6.45l-5.7,5.2a8.91,8.91,0,0,0-.94.71L46.64,42a1.36,1.36,0,0,0-.08,1.91h0a1.35,1.35,0,0,0,1.92.09l10.3-9.4A4.29,4.29,0,0,1,61.15,34a4.37,4.37,0,0,1,3,1.41h0a4.38,4.38,0,0,1-.27,6.17L52.3,52.33l0,0L38.77,64.69A21.4,21.4,0,0,1,22.69,70.26Z"/><g class="cls-4"><polygon class="cls-5" points="54.91 28.83 53.56 30.18 52.22 28.83 51.09 29.96 52.43 31.31 51.09 32.65 52.22 33.78 53.56 32.44 54.91 33.78 56.04 32.65 54.69 31.31 56.04 29.96 54.91 28.83"/><polygon class="cls-5" points="42.91 28.83 41.56 30.18 40.22 28.83 39.09 29.96 40.43 31.31 39.09 32.65 40.22 33.78 41.56 32.44 42.91 33.78 44.04 32.65 42.69 31.31 44.04 29.96 42.91 28.83"/><polygon class="cls-5" points="62.1 17.83 60.76 19.18 59.42 17.83 58.29 18.96 59.63 20.31 58.29 21.65 59.42 22.78 60.76 21.44 62.1 22.78 63.24 21.65 61.89 20.31 63.24 18.96 62.1 17.83"/><polygon class="cls-5" points="50.1 17.83 48.76 19.18 47.42 17.83 46.29 18.96 47.63 20.31 46.29 21.65 47.42 22.78 48.76 21.44 50.1 22.78 51.24 21.65 49.89 20.31 51.24 18.96 50.1 17.83"/><polygon class="cls-5" points="57.3 6.83 55.96 8.18 54.62 6.83 53.49 7.96 54.83 9.31 53.49 10.65 54.62 11.78 55.96 10.44 57.3 11.78 58.44 10.65 57.09 9.31 58.44 7.96 57.3 6.83"/><polygon class="cls-5" points="45.3 6.83 43.96 8.18 42.62 6.83 41.49 7.96 42.83 9.31 41.49 10.65 42.62 11.78 43.96 10.44 45.3 11.78 46.44 10.65 45.09 9.31 46.44 7.96 45.3 6.83"/><polygon class="cls-5" points="52.51 50.83 51.16 52.18 49.82 50.83 48.69 51.97 50.03 53.31 48.69 54.65 49.82 55.78 51.16 54.44 52.51 55.78 53.64 54.65 52.29 53.31 53.64 51.96 52.51 50.83"/><polygon class="cls-5" points="59.7 39.83 58.36 41.18 57.02 39.83 55.89 40.97 57.23 42.31 55.89 43.65 57.02 44.78 58.36 43.44 59.7 44.78 60.84 43.65 59.49 42.31 60.84 40.96 59.7 39.83"/><polygon class="cls-5" points="47.7 39.83 46.36 41.18 45.02 39.83 43.89 40.97 45.23 42.31 43.89 43.65 45.02 44.78 46.36 43.44 47.7 44.78 48.84 43.65 47.49 42.31 48.84 40.96 47.7 39.83"/><polygon class="cls-5" points="42.91 28.83 41.56 30.18 40.22 28.83 39.09 29.96 40.43 31.31 39.09 32.65 40.22 33.78 41.56 32.44 42.91 33.78 44.04 32.65 42.69 31.31 44.04 29.96 42.91 28.83"/><polygon class="cls-5" points="30.91 28.83 29.56 30.18 28.22 28.83 27.09 29.96 28.43 31.31 27.09 32.65 28.22 33.78 29.56 32.44 30.91 33.78 32.04 32.65 30.69 31.31 32.04 29.96 30.91 28.83"/><polygon class="cls-5" points="18.91 28.83 17.56 30.18 16.22 28.83 15.09 29.96 16.43 31.31 15.09 32.65 16.22 33.78 17.56 32.44 18.91 33.78 20.04 32.65 18.69 31.31 20.04 29.96 18.91 28.83"/><polygon class="cls-5" points="38.1 17.83 36.76 19.18 35.42 17.83 34.29 18.96 35.63 20.31 34.29 21.65 35.42 22.78 36.76 21.44 38.1 22.78 39.24 21.65 37.89 20.31 39.24 18.96 38.1 17.83"/><polygon class="cls-5" points="26.11 17.83 24.76 19.18 23.42 17.83 22.29 18.96 23.63 20.31 22.29 21.65 23.42 22.78 24.76 21.44 26.11 22.78 27.24 21.65 25.89 20.31 27.24 18.96 26.11 17.83"/><polygon class="cls-5" points="45.3 6.83 43.96 8.18 42.62 6.83 41.49 7.96 42.83 9.31 41.49 10.65 42.62 11.78 43.96 10.44 45.3 11.78 46.44 10.65 45.09 9.31 46.44 7.96 45.3 6.83"/><polygon class="cls-5" points="33.3 61.83 31.96 63.18 30.62 61.83 29.49 62.97 30.83 64.31 29.49 65.65 30.62 66.78 31.96 65.44 33.3 66.78 34.44 65.65 33.09 64.31 34.44 62.96 33.3 61.83"/><polygon class="cls-5" points="21.3 61.83 19.96 63.18 18.62 61.83 17.49 62.97 18.83 64.31 17.49 65.65 18.62 66.78 19.96 65.44 21.3 66.78 22.44 65.65 21.09 64.31 22.44 62.96 21.3 61.83"/><polygon class="cls-5" points="9.3 61.83 7.96 63.18 6.62 61.83 5.49 62.97 6.83 64.31 6.23 64.88 7.37 66.01 7.96 65.44 9.3 66.78 10.44 65.65 9.09 64.31 10.44 62.96 9.3 61.83"/><polygon class="cls-5" points="40.51 50.83 39.16 52.18 37.82 50.83 36.69 51.97 38.03 53.31 36.69 54.65 37.82 55.78 39.16 54.44 40.51 55.78 41.64 54.65 40.29 53.31 41.64 51.96 40.51 50.83"/><polygon class="cls-5" points="28.5 50.83 27.16 52.18 25.82 50.83 24.69 51.97 26.03 53.31 24.69 54.65 25.82 55.78 27.16 54.44 28.5 55.78 29.64 54.65 28.29 53.31 29.64 51.96 28.5 50.83"/><polygon class="cls-5" points="16.5 50.83 15.16 52.18 13.82 50.83 12.69 51.97 14.03 53.31 12.69 54.65 13.82 55.78 15.16 54.44 16.5 55.78 17.64 54.65 16.29 53.31 17.64 51.96 16.5 50.83"/><polygon class="cls-5" points="4.5 50.83 3.16 52.18 1.82 50.83 0.69 51.97 2.03 53.31 0.69 54.65 1.82 55.78 3.16 54.44 4.5 55.78 5.64 54.65 4.29 53.31 5.64 51.96 4.5 50.83"/><polygon class="cls-5" points="47.7 39.83 46.36 41.18 45.02 39.83 43.89 40.97 45.23 42.31 43.89 43.65 45.02 44.78 46.36 43.44 47.7 44.78 48.84 43.65 47.49 42.31 48.84 40.96 47.7 39.83"/><polygon class="cls-5" points="35.7 39.83 34.36 41.18 33.02 39.83 31.89 40.97 33.23 42.31 31.89 43.65 33.02 44.78 34.36 43.44 35.7 44.78 36.84 43.65 35.49 42.31 36.84 40.96 35.7 39.83"/><polygon class="cls-5" points="23.7 39.83 22.36 41.18 21.02 39.83 19.89 40.97 21.23 42.31 19.89 43.65 21.02 44.78 22.36 43.44 23.7 44.78 24.84 43.65 23.49 42.31 24.84 40.96 23.7 39.83"/><polygon class="cls-5" points="11.71 39.83 10.36 41.18 9.02 39.83 7.89 40.97 9.23 42.31 7.89 43.65 9.02 44.78 10.36 43.44 11.71 44.78 12.84 43.65 11.49 42.31 12.84 40.96 11.71 39.83"/></g></g></g></svg>