<svg xmlns="http://www.w3.org/2000/svg" viewBox="0 0 96.13 92.65"><defs><style>.cls-1{fill:#fff;}.cls-2{fill:#b4e6a5;}.cls-3{fill:#00313c;}</style></defs><g id="Layer_2" data-name="Layer 2"><g id="Layer_1-2" data-name="Layer 1"><path class="cls-1" d="M78.21,84.93A4,4,0,0,1,74,88.65H22.18a4,4,0,0,1-4.26-3.72V38.88h0L46,16.41a3,3,0,0,1,3.82,0L78.21,39.09Z"/><path class="cls-2" d="M88.78,43.23A6,6,0,0,1,85,42L51.09,14.84a5.08,5.08,0,0,0-6.32,0L11.12,41.76a6.32,6.32,0,0,1-7.55,0,3.7,3.7,0,0,1,0-6L44.15,3.25a6.34,6.34,0,0,1,7.56,0L92.56,35.93a3.69,3.69,0,0,1,0,6A6,6,0,0,1,88.78,43.23Z"/><path class="cls-2" d="M17.92,84.93c0,.06,0,.1,0,.16l3.75,3.51a3.87,3.87,0,0,0,.49.05h2.48l-6.74-6.32Z"/><path class="cls-2" d="M21.73,35.84l55.1,51.81A3.59,3.59,0,0,0,78,86L23.31,34.59Z"/><polygon class="cls-2" points="17.92 46.21 64.03 88.65 66.98 88.65 17.92 43.49 17.92 46.21"/><polygon class="cls-2" points="28.75 30.25 78.21 78.01 78.21 75.23 30.33 29 28.75 30.25"/><polygon class="cls-2" points="36.97 23.71 78.21 63.53 78.21 60.75 38.55 22.45 36.97 23.71"/><polygon class="cls-2" points="78.21 47.84 45.87 16.62 44.29 17.88 78.21 50.62 78.21 47.84"/><polygon class="cls-2" points="17.92 72.21 35.53 88.65 38.46 88.65 17.92 69.47 17.92 72.21"/><polygon class="cls-2" points="17.92 58.85 50.27 88.65 53.23 88.65 17.92 56.13 17.92 58.85"/><path class="cls-3" d="M93.81,34.37,53,1.69a8.33,8.33,0,0,0-10.06,0L2.32,34.15a5.69,5.69,0,0,0,0,9.17,8.3,8.3,0,0,0,10,0l1.55-1.24V84.93a8,8,0,0,0,8.26,7.72H74a8,8,0,0,0,8.26-7.72V42.29l1.55,1.25a8.32,8.32,0,0,0,10,0,5.69,5.69,0,0,0,0-9.17ZM78.21,84.93A4,4,0,0,1,74,88.65H22.18a4,4,0,0,1-4.26-3.72V38.88h0L46,16.41a3,3,0,0,1,3.82,0L78.21,39.09Zm13.1-44.52a4.48,4.48,0,0,1-5,0L52.34,13.28a7,7,0,0,0-8.82,0L13.92,37h0L9.87,40.19a4.36,4.36,0,0,1-5.06,0,1.71,1.71,0,0,1,0-2.91L45.4,4.81a4.53,4.53,0,0,1,5.06,0L91.31,37.49a1.71,1.71,0,0,1,0,2.92Z"/></g></g></svg>