<svg xmlns="http://www.w3.org/2000/svg" viewBox="0 0 84.1 98.94"><defs><style>.cls-1{fill:#00313c;}.cls-2{fill:#fff;}.cls-3{fill:#b3e6a6;}</style></defs><g id="Layer_2" data-name="Layer 2"><g id="Layer_1-2" data-name="Layer 1"><path class="cls-1" d="M63.08,20.52A30,30,0,0,0,41.15,12,30.65,30.65,0,0,0,11.9,40.78,30,30,0,0,0,27.57,68.66a4,4,0,0,1,2.09,3.45V88a2,2,0,0,0,2,2h1a9.4,9.4,0,0,0,18.78,0h1a2,2,0,0,0,2-2V72.12a4,4,0,0,1,2.11-3.47,30.18,30.18,0,0,0,6.53-48.13Zm-27.48,21H33.15a2.46,2.46,0,1,1,2.45-2.46ZM44.5,71.2H39.6V45.54h4.9Zm5.94,4v3.42H33.67V75.2Zm0,10.84H33.67V82.62H50.44Zm-8.39,8.9A5.43,5.43,0,0,1,36.66,90H47.44A5.43,5.43,0,0,1,42.05,94.94ZM54.63,65.15a8,8,0,0,0-4.13,6h-2V45.54H51a6.46,6.46,0,1,0-6.45-6.46v2.46H39.6V39.08a6.45,6.45,0,1,0-6.45,6.46H35.6V71.2h-2a8,8,0,0,0-4.11-6A26.07,26.07,0,0,1,15.89,41,26.6,26.6,0,0,1,41.26,16a26.2,26.2,0,0,1,27,26.17A26.22,26.22,0,0,1,54.63,65.15ZM48.5,41.54V39.08A2.45,2.45,0,1,1,51,41.54ZM40.05,7.93V2a2,2,0,0,1,4,0V7.93a2,2,0,0,1-4,0Zm-19.76.44a2,2,0,1,1,3.47-2l3,5.13a2,2,0,0,1-1.73,3,2,2,0,0,1-1.73-1ZM5.63,21a2,2,0,0,1,2.74-.74l5.13,3a2,2,0,0,1-1,3.73,1.93,1.93,0,0,1-1-.27l-5.13-3A2,2,0,0,1,5.63,21Zm2.3,23H2a2,2,0,0,1,0-4H7.93a2,2,0,0,1,0,4Zm6.31,14.06a2,2,0,0,1-.74,2.73l-5.13,3a2,2,0,0,1-2.74-.73,2,2,0,0,1,.74-2.73l5.13-3A2,2,0,0,1,14.24,58.11Zm64.23,5a2,2,0,0,1-2.73.73l-5.14-3a2,2,0,1,1,2-3.46l5.14,3A2,2,0,0,1,78.47,63.08Zm5.63-21a2,2,0,0,1-2,2H76.17a2,2,0,0,1,0-4H82.1A2,2,0,0,1,84.1,42.05ZM69.87,26a2,2,0,0,1,.73-2.73l5.14-3a2,2,0,0,1,2,3.47l-5.14,3a1.91,1.91,0,0,1-1,.27A2,2,0,0,1,69.87,26ZM57.38,11.5l3-5.13a2,2,0,1,1,3.46,2l-3,5.13a2,2,0,0,1-1.73,1,2,2,0,0,1-1.73-3Z"/><path class="cls-2" d="M35.6,41.54H33.15a2.46,2.46,0,1,1,2.45-2.46ZM44.5,71.2H39.6V45.54h4.9Zm10.13-6a8,8,0,0,0-4.13,6h-2V45.54H51a6.46,6.46,0,1,0-6.45-6.46v2.46H39.6V39.08a6.45,6.45,0,1,0-6.45,6.46H35.6V71.2h-2a8,8,0,0,0-4.11-6A26.07,26.07,0,0,1,15.89,41,26.6,26.6,0,0,1,41.26,16a26.2,26.2,0,0,1,27,26.17A26.22,26.22,0,0,1,54.63,65.15ZM48.5,41.54V39.08A2.45,2.45,0,1,1,51,41.54Zm-6.45,53.4A5.43,5.43,0,0,1,36.66,90H47.44A5.43,5.43,0,0,1,42.05,94.94Z"/><path class="cls-3" d="M50.44,75.2v3.42H33.67V75.2Zm0,10.84H33.67V82.62H50.44ZM23.43,49l-1.34,1.34,1.34,1.35L22.3,52.77,21,51.43l-1.35,1.34-1.13-1.13,1.35-1.35L18.48,49l1.13-1.13L21,49.16l1.34-1.34Zm8.18,3.82L33,51.43l1.34,1.34,1.13-1.13-1.34-1.35L35.43,49,34.3,47.82,33,49.16l-1.35-1.34L30.48,49l1.35,1.34-1.35,1.35ZM25.68,38l1,1A6.2,6.2,0,0,1,27,37l-.23-.22ZM51.1,63.77l1.13-1.13-1.34-1.35L52.23,60,51.1,58.82l-1.34,1.34L48.5,58.91v2.26l.13.12-.13.13v2.26l1.26-1.25ZM41.29,39.29,42.63,38,41.5,36.82l-1.34,1.34-.8-.79a6.42,6.42,0,0,1,.24,1.71V41l.56-.55,1.11,1.11h.46l.9-.9Zm-5.69,21v-.64l-.32.32Zm-8.79-18.5.34-.34a6.25,6.25,0,0,1-.42-1.84l-1.05,1Zm21.89-16-1.34,1.34L46,25.82,44.88,27l1.35,1.34-1.35,1.35L46,30.77l1.35-1.34,1.34,1.34,1.13-1.13-1.34-1.35L49.83,27Zm10.66,3.61,1.34,1.34,1.13-1.13-1.34-1.35L61.83,27,60.7,25.82l-1.34,1.34L58,25.82,56.88,27l1.35,1.34-1.35,1.35L58,30.77ZM36.7,25.82l-1.34,1.34L34,25.82,32.88,27l1.35,1.34-1.35,1.35L34,30.77l1.35-1.34,1.34,1.34,1.13-1.13-1.34-1.35L37.83,27Zm14.11,11L49.68,38,51,39.29l-1.35,1.35.9.9H51l.11,0,1.1-1.09.45.45a2.42,2.42,0,0,0,.76-1.5l-.08-.09.1-.1s0-.07,0-.11a2.44,2.44,0,0,0-.59-1.57l-.65.65Zm4.8,16L57,51.43l1.34,1.34,1.13-1.13-1.34-1.35L59.43,49,58.3,47.82,57,49.16l-1.35-1.34L54.48,49l1.35,1.34-1.35,1.35ZM63,39.29l-1.35,1.35,1.13,1.13,1.35-1.34,1.34,1.34,1.13-1.13-1.34-1.35L66.63,38,65.5,36.82l-1.34,1.34-1.35-1.34L61.68,38ZM35.6,63v-.64l-.32.32ZM33,18.64l-.7-.7c-.53.22-1,.45-1.56.7l1.13,1.13ZM26.89,61.29,28.23,60,27.1,58.82l-1.34,1.34-1.35-1.34L23.28,60l1.35,1.34-.23.23c.4.35.81.7,1.23,1l.13-.13,1,1c.14.1.28.2.43.29l1.06-1.06ZM59.28,60l1,1c.39-.37.75-.76,1.11-1.15l-1-1Zm7.87-10.34c.17-.59.33-1.18.46-1.79L66.48,49ZM39.6,59.32v1.26l.63-.63ZM53.21,19.77l.87-.87c-.5-.26-1-.5-1.53-.73l-.47.47ZM42.48,49l1.35,1.34-1.35,1.35,1.13,1.13.89-.89V48.71l-.89-.89ZM39.6,62v1.26l.63-.63ZM17.5,41.77l1.13-1.13-1.34-1.35L18.63,38,17.5,36.82l-1.31,1.31c-.13.83-.23,1.68-.28,2.54l.25-.24Zm3.38-12.13L22,30.77l1.35-1.34,1.34,1.34,1.13-1.13-1.34-1.35L25.83,27,24.7,25.82l-1.34,1.34L22,25.82l-1,1L20.9,27l1.33,1.32Zm9-10.53c-.29.15-.57.31-.85.48l.18.18Zm10.2-.47,1.13,1.13,1.35-1.34,1.34,1.34L45,18.64l-1.34-1.35,1.15-1.15A21.16,21.16,0,0,0,42.72,16l-.16.16L42.39,16H41.26c-.36,0-.71,0-1.07.06l1.24,1.23Zm2.48,52.52-1.35-1.34L40.08,71l.25.25H44.5v-.78l-.6-.6Z"/></g></g></svg>