<svg xmlns="http://www.w3.org/2000/svg" viewBox="0 0 96.13 92.65"><defs><style>.cls-1{fill:#fff;}.cls-2{fill:#b4e6a5;}.cls-3{fill:none;}.cls-4{fill:#032530;}</style></defs><g id="Layer_2" data-name="Layer 2"><g id="Layer_1-2" data-name="Layer 1"><path class="cls-1" d="M78.21,84.93A4,4,0,0,1,74,88.65H22.18a4,4,0,0,1-4.26-3.72V38.88h0L46,16.41a3,3,0,0,1,3.82,0L78.21,39.09Z"/><path class="cls-2" d="M88.78,43.23A6,6,0,0,1,85,42L51.09,14.84a5.08,5.08,0,0,0-6.32,0L11.12,41.76a6.32,6.32,0,0,1-7.55,0,3.7,3.7,0,0,1,0-6L44.15,3.25a6.34,6.34,0,0,1,7.56,0L92.56,35.93a3.69,3.69,0,0,1,0,6A6,6,0,0,1,88.78,43.23Z"/><path class="cls-3" d="M17.92,38.88h0L46,16.41a3,3,0,0,1,3.82,0L78.21,39.09V84.93A4,4,0,0,1,74,88.65H22.18a4,4,0,0,1-4.26-3.72V38.88"/><path class="cls-2" d="M32.51,39.29a2,2,0,1,0,0,2.83A2,2,0,0,0,32.51,39.29Z"/><path class="cls-2" d="M21.19,64.75a2,2,0,1,0,2.83,0A2,2,0,0,0,21.19,64.75Z"/><path class="cls-2" d="M24,47.77a2,2,0,1,0,0,2.83A2,2,0,0,0,24,47.77Z"/><path class="cls-2" d="M24,84.54a2,2,0,1,0-2.83,0A2,2,0,0,0,24,84.54Z"/><path class="cls-2" d="M46.65,56.26a2,2,0,1,0,2.83,0A2,2,0,0,0,46.65,56.26Z"/><circle class="cls-2" cx="48.06" cy="40.7" r="2"/><path class="cls-2" d="M38.16,81.72a2,2,0,1,0,2.83,0A2,2,0,0,0,38.16,81.72Z"/><path class="cls-2" d="M41,47.77a2,2,0,1,0,0,2.83A2,2,0,0,0,41,47.77Z"/><circle class="cls-2" cx="39.58" cy="66.16" r="2"/><path class="cls-2" d="M29.68,73.23a2,2,0,1,0,2.83,0A2,2,0,0,0,29.68,73.23Z"/><path class="cls-2" d="M32.51,56.26a2,2,0,1,0,0,2.83A2,2,0,0,0,32.51,56.26Z"/><path class="cls-2" d="M41,30.8a2,2,0,1,0,0,2.83A2,2,0,0,0,41,30.8Z"/><path class="cls-2" d="M55.13,84.54a2,2,0,1,0,0-2.82A2,2,0,0,0,55.13,84.54Z"/><path class="cls-2" d="M72.11,84.54a2,2,0,1,0,0-2.82A2,2,0,0,0,72.11,84.54Z"/><circle class="cls-2" cx="65.03" cy="74.64" r="2"/><circle class="cls-2" cx="65.03" cy="40.7" r="2"/><circle class="cls-2" cx="73.52" cy="66.16" r="2"/><circle class="cls-2" cx="48.06" cy="23.73" r="2"/><path class="cls-2" d="M72.11,47.77a2,2,0,1,0,2.82,0A2,2,0,0,0,72.11,47.77Z"/><path class="cls-2" d="M55.13,50.6a2,2,0,1,0,0-2.83A2,2,0,0,0,55.13,50.6Z"/><circle class="cls-2" cx="48.06" cy="74.64" r="2"/><path class="cls-2" d="M63.62,59.09a2,2,0,1,0,0-2.83A2,2,0,0,0,63.62,59.09Z"/><path class="cls-2" d="M58,33.63a2,2,0,1,0-2.83,0A2,2,0,0,0,58,33.63Z"/><circle class="cls-2" cx="56.55" cy="66.16" r="2"/><path class="cls-4" d="M93.81,34.37,53,1.69a8.33,8.33,0,0,0-10.06,0L2.32,34.15a5.69,5.69,0,0,0,0,9.17,8.3,8.3,0,0,0,10,0l1.55-1.24V84.93a8,8,0,0,0,8.26,7.72H74a8,8,0,0,0,8.26-7.72V42.29l1.55,1.25a8.32,8.32,0,0,0,10,0,5.69,5.69,0,0,0,0-9.17ZM78.21,84.93A4,4,0,0,1,74,88.65H22.18a4,4,0,0,1-4.26-3.72V38.88h0L46,16.41a3,3,0,0,1,3.82,0L78.21,39.09Zm13.1-44.52a4.48,4.48,0,0,1-5,0L52.34,13.28a7,7,0,0,0-8.82,0L13.92,37h0L9.87,40.19a4.36,4.36,0,0,1-5.06,0,1.71,1.71,0,0,1,0-2.91L45.4,4.81a4.53,4.53,0,0,1,5.06,0L91.31,37.49a1.71,1.71,0,0,1,0,2.92Z"/><rect class="cls-2" x="56.62" y="47.62" width="6.18" height="32.55" rx="2.97" transform="translate(-27.7 60.94) rotate(-45)"/><path class="cls-4" d="M69,78.36a5,5,0,0,1-3.52-1.45L46.7,58.09a5,5,0,0,1,0-7l.17-.17a5,5,0,0,1,7,0L72.72,69.71a5,5,0,0,1,0,7l-.17.17A4.94,4.94,0,0,1,69,78.36ZM50.39,53.44a1,1,0,0,0-.69.28l-.17.17a1,1,0,0,0,0,1.37L68.35,74.08a1,1,0,0,0,1.37,0l.17-.17a1,1,0,0,0,0-1.37L51.07,53.72A1,1,0,0,0,50.39,53.44Z"/><rect class="cls-2" x="36.91" y="37.62" width="14.28" height="21.25" rx="2.97" transform="translate(47.01 -17.02) rotate(45)"/><path class="cls-4" d="M41.59,61.57a5,5,0,0,1-3.52-1.45h0l-5.9-5.9a5,5,0,0,1,0-7L43,36.36a5,5,0,0,1,7,0l5.9,5.9a5,5,0,0,1,0,7L45.1,60.12A5,5,0,0,1,41.59,61.57Zm-.69-4.28a1,1,0,0,0,1.37,0L53.1,46.46a1,1,0,0,0,.28-.68,1,1,0,0,0-.28-.69l-5.9-5.9a1,1,0,0,0-1.37,0L35,50a1,1,0,0,0,0,1.37Z"/><rect class="cls-2" x="50.37" y="28.67" width="6.18" height="20.31" rx="2.97" transform="translate(-11.8 49.17) rotate(-45)"/><path class="cls-4" d="M58.46,49a5,5,0,0,1-3.52-1.45L44.78,37.35a5,5,0,0,1,0-7l.17-.17a5,5,0,0,1,7,0L62.14,40.31a5,5,0,0,1,0,7l-.17.17A4.94,4.94,0,0,1,58.46,49Zm-10-16.26a.93.93,0,0,0-.68.28l-.17.17a1,1,0,0,0,0,1.37L57.77,44.68a1,1,0,0,0,1.37,0l.17-.17a1,1,0,0,0,0-1.37L49.15,33A1,1,0,0,0,48.46,32.7Z"/><rect class="cls-2" x="31.26" y="47.78" width="6.18" height="20.31" rx="2.97" transform="translate(-30.91 41.26) rotate(-45)"/><path class="cls-4" d="M39.35,68.07a5,5,0,0,1-3.51-1.45L25.67,56.45a5,5,0,0,1,0-7l.17-.16a5,5,0,0,1,7,0L43,59.42a5,5,0,0,1,0,7l-.16.17A5,5,0,0,1,39.35,68.07Zm-10-16.26a1,1,0,0,0-.69.27l-.17.17a1,1,0,0,0,0,1.38L38.67,63.79a1,1,0,0,0,1.37,0l.17-.17a1,1,0,0,0,0-1.37L30,52.08A1,1,0,0,0,29.36,51.81Z"/><rect class="cls-2" x="23.95" y="73.84" width="27.8" height="5.7" rx="2.85"/><path class="cls-4" d="M48.9,81.54H26.81a4.85,4.85,0,1,1,0-9.7H48.9a4.85,4.85,0,1,1,0,9.7Zm-22.09-5.7a.85.85,0,1,0,0,1.7H48.9a.85.85,0,1,0,0-1.7Z"/></g></g></svg>