<svg xmlns="http://www.w3.org/2000/svg" viewBox="0 0 98.98 91.75"><defs><style>.cls-1{fill:#002531;}.cls-2{fill:#fff;}.cls-3{fill:#b3e6a6;}.cls-4{fill:#00313c;}</style></defs><g id="Layer_2" data-name="Layer 2"><g id="Layer_1-2" data-name="Layer 1"><path class="cls-1" d="M46.43,91.75H1.74A1.75,1.75,0,0,1,0,90v-.23A1.74,1.74,0,0,1,1.74,88h1.9V81.84a5.07,5.07,0,0,1,2.14-4,7.48,7.48,0,0,1,4.5-1.53h29c3.14,0,5.25,2.23,5.25,5.55V88h1.89a1.74,1.74,0,0,1,1.75,1.74V90A1.75,1.75,0,0,1,46.43,91.75ZM7.63,88H40.55V81.84a1.83,1.83,0,0,0-.36-1.31,1.09,1.09,0,0,0-.83-.25H10.28c-1.29,0-2.65.8-2.65,1.56Z"/><path class="cls-2" d="M30.71,29.49,46.24,45A50.29,50.29,0,0,1,62.59,28.67L47.06,13.14A50.48,50.48,0,0,1,30.71,29.49Zm24.1,10.74L88.93,76.76a1.93,1.93,0,0,0,1.4.7h0a2,2,0,0,0,1.37-.55l2.73-2.74A1.88,1.88,0,0,0,95,72.76a1.9,1.9,0,0,0-.65-1.37L57.74,37.3C56.72,38.24,55.73,39.22,54.81,40.23Z"/><path class="cls-3" d="M7.63,88H40.55V81.84a1.83,1.83,0,0,0-.36-1.31,1.09,1.09,0,0,0-.83-.25H10.28c-1.29,0-2.65.8-2.65,1.56Zm47.18-47.8L88.93,76.76a1.93,1.93,0,0,0,1.4.7h0a2,2,0,0,0,1.37-.55l2.73-2.74A1.88,1.88,0,0,0,95,72.76a1.9,1.9,0,0,0-.65-1.37L57.74,37.3C56.72,38.24,55.73,39.22,54.81,40.23Zm-6.93-1.49-1.34,1.34,1.34,1.34-1.13,1.13-1.34-1.34-1.34,1.34-1.14-1.13,1.35-1.34-1.35-1.34,1.14-1.14L45.41,39l1.34-1.35ZM54,26.6,52.61,28,51.27,26.6l-1.14,1.14,1.35,1.34-1.35,1.34,1.14,1.13,1.34-1.34L54,31.55l1.13-1.13-1.34-1.34,1.34-1.34Zm-12,0L40.61,28,39.27,26.6l-1.14,1.14,1.35,1.34-1.35,1.34,1.14,1.13,1.34-1.34L42,31.55l1.13-1.13-1.34-1.34,1.34-1.34Zm7.2-11L47.81,17,46.47,15.6l-1.14,1.14,1.35,1.34-1.35,1.34,1.14,1.13,1.34-1.34,1.34,1.34,1.13-1.13-1.34-1.34,1.34-1.34ZM48,5.86a1.91,1.91,0,0,0,0,2.68L67.18,27.68a1.9,1.9,0,0,0,2.68,0l1.37-1.36a1.9,1.9,0,0,0,0-2.68L52.09,4.5a1.88,1.88,0,0,0-2.68,0ZM24.77,29.92a1.93,1.93,0,0,0-1.34.55l-1.36,1.37a1.9,1.9,0,0,0,0,2.68L41.21,53.66a1.93,1.93,0,0,0,2.68,0l1.36-1.37a1.88,1.88,0,0,0,0-2.67L26.11,30.47A1.91,1.91,0,0,0,24.77,29.92Z"/><path class="cls-4" d="M97,68.46,60.78,34.73a49.59,49.59,0,0,1,4.92-3.3,5.89,5.89,0,0,0,2.82.75,5.77,5.77,0,0,0,4.13-1.71L74,29.11a5.84,5.84,0,0,0,0-8.26L54.88,1.7a5.85,5.85,0,0,0-8.26,0L45.25,3.07a5.86,5.86,0,0,0-1,7A46.55,46.55,0,0,1,27.57,26.74a6,6,0,0,0-6.93.94l-1.36,1.37a5.84,5.84,0,0,0,0,8.26L38.42,56.45a5.84,5.84,0,0,0,8.26,0L48,55.08a5.83,5.83,0,0,0,1-6.94,47.2,47.2,0,0,1,3.25-4.86L86,79.4a5.82,5.82,0,0,0,4.2,2h.2a5.93,5.93,0,0,0,4.13-1.71L97.26,77a5.85,5.85,0,0,0-.24-8.5ZM48,5.86,49.41,4.5a1.88,1.88,0,0,1,2.68,0L71.23,23.64a1.9,1.9,0,0,1,0,2.68l-1.37,1.36a1.9,1.9,0,0,1-2.68,0L48,8.54A1.91,1.91,0,0,1,48,5.86ZM45.25,52.29l-1.36,1.37a1.93,1.93,0,0,1-2.68,0L22.07,34.52a1.9,1.9,0,0,1,0-2.68l1.36-1.37a1.91,1.91,0,0,1,2.68,0L45.25,49.62A1.88,1.88,0,0,1,45.25,52.29Zm1-7.27L30.71,29.49A50.48,50.48,0,0,0,47.06,13.14L62.59,28.67A50.29,50.29,0,0,0,46.24,45ZM94.47,74.17l-2.73,2.74a2,2,0,0,1-1.37.55h0a1.93,1.93,0,0,1-1.4-.7L54.81,40.23c.92-1,1.91-2,2.93-2.93L94.38,71.39A1.9,1.9,0,0,1,95,72.76,1.88,1.88,0,0,1,94.47,74.17Z"/></g></g></svg>