<svg xmlns="http://www.w3.org/2000/svg" viewBox="0 0 80.01 93.42"><defs><style>.cls-1{fill:#fff;}.cls-2{fill:#b4e6a5;}.cls-3{fill:#032530;}</style></defs><g id="Layer_2" data-name="Layer 2"><g id="Layer_1-2" data-name="Layer 1"><path class="cls-1" d="M76,36.72a8,8,0,0,0-8-8H12a8,8,0,0,0-8,8v44.7a8,8,0,0,0,8,8H68a8,8,0,0,0,8-8Z"/><path class="cls-2" d="M27.44,67.8l-1.13,1.13L25,67.59l-1.34,1.34L22.49,67.8l1.35-1.34-1.35-1.34L23.63,64,25,65.33,26.31,64l1.13,1.14L26.1,66.46ZM31.11,75l-1.34,1.35L28.42,75l-1.13,1.14,1.35,1.34L27.29,78.8l1.13,1.13,1.35-1.34,1.34,1.34,1.13-1.13L30.9,77.46l1.34-1.34ZM33.3,55.46l1.34-1.34L33.51,53l-1.34,1.35L30.82,53l-1.13,1.14L31,55.46,29.69,56.8l1.13,1.13,1.35-1.34,1.34,1.34,1.13-1.13ZM19.11,75l-1.34,1.35L16.42,75l-1.13,1.14,1.35,1.34L15.29,78.8l1.13,1.13,1.35-1.34,1.34,1.34,1.13-1.13L18.9,77.46l1.34-1.34ZM21.3,55.46l1.34-1.34L21.51,53l-1.34,1.35L18.82,53l-1.13,1.14L19,55.46,17.69,56.8l1.13,1.13,1.35-1.34,1.34,1.34,1.13-1.13Zm-7.06-11L12.89,45.8,14,46.93l1.35-1.34,1.34,1.34,1.13-1.13L16.5,44.46l1.34-1.34L16.71,42l-1.34,1.35L14,42l-1.13,1.14Zm-5-8.53,1.34-1.34,1.34,1.34L13,34.8,11.7,33.46,13,32.12,11.91,31l-1.34,1.35L9.23,31,8.09,32.12l1.35,1.34L8.09,34.8ZM14.1,66.46l1.34-1.34L14.31,64,13,65.33,11.63,64l-1.14,1.14,1.35,1.34L10.49,67.8l1.14,1.13L13,67.59l1.34,1.34,1.13-1.13Zm-4.8-11,1.34-1.34L9.51,53,8.17,54.33,6.82,53,5.69,54.12,7,55.46,5.69,56.8l1.13,1.13,1.35-1.34,1.34,1.34,1.13-1.13Zm28.8,11,1.34-1.34L38.31,64,37,65.33,35.63,64l-1.14,1.14,1.35,1.34L34.49,67.8l1.14,1.13L37,67.59l1.34,1.34,1.13-1.13Zm24,0,1.34-1.34L62.31,64,61,65.33,59.63,64l-1.14,1.14,1.35,1.34L58.49,67.8l1.14,1.13L61,67.59l1.34,1.34,1.13-1.13Zm5,8.52-1.34,1.35L64.42,75l-1.13,1.14,1.35,1.34L63.29,78.8l1.13,1.13,1.35-1.34,1.34,1.34,1.13-1.13L66.9,77.46l1.34-1.34Zm7-8.52,1.34-1.34L74.31,64,73,65.33,71.63,64l-1.14,1.14,1.35,1.34L70.49,67.8l1.14,1.13L73,67.59l1.34,1.34,1.13-1.13Zm-16.8-11,1.34-1.34L57.51,53l-1.34,1.35L54.82,53l-1.13,1.14L55,55.46,53.69,56.8l1.13,1.13,1.35-1.34,1.34,1.34,1.13-1.13Zm-12,0,1.34-1.34L45.51,53l-1.34,1.35L42.82,53l-1.13,1.14L43,55.46,41.69,56.8l1.13,1.13,1.35-1.34,1.34,1.34,1.13-1.13ZM21.23,35.93l1.34-1.34,1.34,1.34L25,34.8,23.7,33.46,25,32.12,23.91,31l-1.34,1.35L21.23,31l-1.14,1.14,1.35,1.34L20.09,34.8ZM55.11,75l-1.34,1.35L52.42,75l-1.13,1.14,1.35,1.34L51.29,78.8l1.13,1.13,1.35-1.34,1.34,1.34,1.13-1.13L54.9,77.46l1.34-1.34Zm-12,0-1.34,1.35L40.42,75l-1.13,1.14,1.35,1.34L39.29,78.8l1.13,1.13,1.35-1.34,1.34,1.34,1.13-1.13L42.9,77.46l1.34-1.34Zm7-8.52,1.34-1.34L50.31,64,49,65.33,47.63,64l-1.14,1.14,1.35,1.34L46.49,67.8l1.14,1.13L49,67.59l1.34,1.34,1.13-1.13Zm19.2-11,1.34-1.34L69.51,53l-1.34,1.35L66.82,53l-1.13,1.14L67,55.46,65.69,56.8l1.13,1.13,1.35-1.34,1.34,1.34,1.13-1.13ZM13,87.12,11.91,86l-1.34,1.35L9.23,86,8.09,87.12l1.35,1.34-.4.39a7.92,7.92,0,0,0,3,.57h.67l-1-1Zm36,0L47.91,86l-1.34,1.35L45.23,86l-1.14,1.14,1.35,1.34-1,1h4.2l-1-1Zm-12,0L35.91,86l-1.34,1.35L33.23,86l-1.14,1.14,1.35,1.34-1,1h4.2l-1-1ZM5.77,78.59l1.34,1.34L8.24,78.8,6.9,77.46l1.34-1.34L7.11,75,5.77,76.33,4.42,75,4,75.41v1.41l.64.64L4,78.1v1.41l.42.42ZM25,87.12,23.91,86l-1.34,1.35L21.23,86l-1.14,1.14,1.35,1.34-1,1h4.2l-1-1ZM76,76.83V75.4l-.72.72Zm0,2.69V78.08l-.72.72ZM5.84,45.8,4.5,44.46l1.34-1.34L4.71,42,4,42.7v3.52l.71.71ZM74,42l-1.13,1.14,1.34,1.34L72.88,45.8,74,46.93l1.34-1.34.66.66V42.66l-.66.67ZM38.24,44.46,36.89,45.8,38,46.93l1.35-1.34,1.34,1.34,1.13-1.13L40.5,44.46l1.34-1.34L40.71,42l-1.34,1.35L38,42l-1.13,1.14Zm-12,0L24.89,45.8,26,46.93l1.35-1.34,1.34,1.34,1.13-1.13L28.5,44.46l1.34-1.34L28.71,42l-1.34,1.35L26,42l-1.13,1.14Zm19-8.53,1.34-1.34,1.34,1.34L49,34.8,47.7,33.46,49,32.12,47.91,31l-1.34,1.35L45.23,31l-1.14,1.14,1.35,1.34L44.09,34.8Zm-12,0,1.34-1.34,1.34,1.34L37,34.8,35.7,33.46,37,32.12,35.91,31l-1.34,1.35L33.23,31l-1.14,1.14,1.35,1.34L32.09,34.8Zm17,8.53L48.89,45.8,50,46.93l1.35-1.34,1.34,1.34,1.13-1.13L52.5,44.46l1.34-1.34L52.71,42l-1.34,1.35L50,42l-1.13,1.14Zm12,0L60.89,45.8,62,46.93l1.35-1.34,1.34,1.34,1.13-1.13L64.5,44.46l1.34-1.34L64.71,42l-1.34,1.35L62,42l-1.13,1.14Zm-5-8.53,1.34-1.34,1.34,1.34L61,34.8,59.7,33.46,61,32.12,59.91,31l-1.34,1.35L57.23,31l-1.14,1.14,1.35,1.34L56.09,34.8ZM73,87.12,71.91,86l-1.34,1.35L69.23,86l-1.14,1.14,1.35,1.34-.94.94a8.07,8.07,0,0,0,3.24-.9l0,0ZM69.23,35.93l1.34-1.34,1.34,1.34L73,34.8,71.7,33.46,73,32.12,71.91,31l-1.34,1.35L69.23,31l-1.14,1.14,1.35,1.34L68.09,34.8ZM61,87.12,59.91,86l-1.34,1.35L57.23,86l-1.14,1.14,1.35,1.34-1,1h4.2l-1-1Z"/><path class="cls-3" d="M43.8,69.94h-7A1.9,1.9,0,0,1,35,67.41L38,59.08a4.91,4.91,0,1,1,4.69,0l3,8.33A1.9,1.9,0,0,1,43.8,69.94ZM80,36.72v44.7a12,12,0,0,1-12,12H12a12,12,0,0,1-12-12V36.72a12,12,0,0,1,12-12h1.68V12a12,12,0,0,1,12-12H54.33a12,12,0,0,1,12,12V24.72H68A12,12,0,0,1,80,36.72Zm-62.33-12h8.07v-5a6.93,6.93,0,0,1,6.91-6.92H47.35a6.93,6.93,0,0,1,6.91,6.92v5h8.07V12a8,8,0,0,0-8-8H25.68a8,8,0,0,0-8,8Zm29.67-7.88H32.66a2.92,2.92,0,0,0-2.91,2.92v5H50.26v-5A2.91,2.91,0,0,0,47.35,16.84ZM76,36.72a8,8,0,0,0-8-8H12a8,8,0,0,0-8,8v44.7a8,8,0,0,0,8,8H68a8,8,0,0,0,8-8Z"/><path class="cls-2" d="M17.68,24.72h8.07v-5a6.93,6.93,0,0,1,6.91-6.92H47.35a6.93,6.93,0,0,1,6.91,6.92v5h8.07V12a8,8,0,0,0-8-8H25.68a8,8,0,0,0-8,8Z"/></g></g></svg>