<svg xmlns="http://www.w3.org/2000/svg" viewBox="0 0 82.77 97.63"><defs><style>.cls-1{fill:#fff;}.cls-2{fill:#032530;}.cls-3{fill:#b4e6a5;}</style></defs><g id="Layer_2" data-name="Layer 2"><g id="Layer_1-2" data-name="Layer 1"><rect class="cls-1" x="22.72" y="19.24" width="34.99" height="54.16" transform="translate(-15.83 21.38) rotate(-25.05)"/><path class="cls-2" d="M33.9,83.58,7.59,27.26l39-18.2L72.85,65.37Zm-21-54.39L35.83,78.26l31.7-14.82L44.61,14.38ZM40.35,97.63a14,14,0,0,1-12.7-8.07L1.32,33.22A14,14,0,0,1,8.07,14.61L36.52,1.32a14,14,0,0,1,18.6,6.75L81.46,64.42A14,14,0,0,1,74.7,83L46.26,96.32A14,14,0,0,1,40.35,97.63ZM42.41,4a9.93,9.93,0,0,0-4.2.94L9.77,18.23A10,10,0,0,0,4.94,31.52L31.27,87.87A10,10,0,0,0,44.56,92.7L73,79.4a10,10,0,0,0,4.82-13.29L51.5,9.77a9.93,9.93,0,0,0-5.65-5.16A10.27,10.27,0,0,0,42.41,4ZM56.2,75.61a4.91,4.91,0,1,0,4.9,4.9A4.91,4.91,0,0,0,56.2,75.61Z"/><path class="cls-3" d="M77.83,66.11,51.5,9.77a9.93,9.93,0,0,0-5.65-5.16A10.27,10.27,0,0,0,42.41,4a9.93,9.93,0,0,0-4.2.94L9.77,18.23A10,10,0,0,0,4.94,31.52L31.27,87.87A10,10,0,0,0,44.56,92.7L73,79.4a10,10,0,0,0,4.82-13.29ZM56.2,85.42a4.91,4.91,0,1,1,4.9-4.91A4.91,4.91,0,0,1,56.2,85.42ZM33.9,83.58,7.59,27.26l39-18.2L72.85,65.37Z"/><path class="cls-3" d="M23.12,39.85a2,2,0,1,1-2.83,0A2,2,0,0,1,23.12,39.85Zm14.14,0a2,2,0,1,0,2.83,0A2,2,0,0,0,37.26,39.85ZM45.74,65.3a2,2,0,1,0,2.83,0A2,2,0,0,0,45.74,65.3Zm-17-33.94a2,2,0,1,0,2.83,0A2,2,0,0,0,28.77,31.36Zm8.49,25.46a2,2,0,1,0,2.83,0A2,2,0,0,0,37.26,56.82Zm0-33.94a2,2,0,1,0,2.83,0A2,2,0,0,0,37.26,22.88Zm17,33.94a2,2,0,1,0,2.83,0A2,2,0,0,0,54.23,56.82Zm-8.49-8.49a2,2,0,1,0,2.83,0A2,2,0,0,0,45.74,48.33Zm0-17a2,2,0,1,0,2.83,0A2,2,0,0,0,45.74,31.36ZM31.6,65.3a2,2,0,0,0-2-.47l1.67,3.59a2.06,2.06,0,0,0,.37-.29A2,2,0,0,0,31.6,65.3ZM23.12,25.71a2,2,0,0,0,.57-1.56l-3.37,1.58A2,2,0,0,0,23.12,25.71Zm-8.49,5.65a2.08,2.08,0,0,0-1-.53L15,33.67A2,2,0,0,0,14.63,31.36ZM45.74,17.22a1.79,1.79,0,0,0,.31.25l-.87-1.87A2,2,0,0,0,45.74,17.22Zm-17,31.11a2,2,0,1,0,2.83,0A2,2,0,0,0,28.77,48.33Zm33.94,17a2,2,0,0,0-.39.58l2.33-1.09A2,2,0,0,0,62.71,65.3ZM54.23,39.85a2,2,0,1,0,2.83,2.83,1.93,1.93,0,0,0,.44-.7l-1.21-2.6A2,2,0,0,0,54.23,39.85ZM40.09,73.79a2,2,0,0,0-2.83,2.83,2,2,0,0,0,1,.52l2.23-1A2,2,0,0,0,40.09,73.79Z"/></g></g></svg>