<svg xmlns="http://www.w3.org/2000/svg" viewBox="0 0 98 98.22"><defs><style>.cls-1{fill:#00313c;}.cls-2{fill:#b3e6a6;}.cls-3{fill:#fff;}.cls-4{fill:#b4e6a5;}</style></defs><g id="Layer_2" data-name="Layer 2"><g id="Layer_1-2" data-name="Layer 1"><path class="cls-1" d="M77.35,36.16a.43.43,0,0,0,0-.11V26.77h2a2,2,0,0,0,2-2V15.28h2.47a2,2,0,0,0,2-2V2a2,2,0,0,0-2-2H19.4a2,2,0,0,0-2,2v9.49H14.93a2,2,0,0,0-2,2v9.28h-2a2,2,0,0,0-2,2v9.28H2a2,2,0,0,0-2,2V47.33a2,2,0,0,0,2,2H4.23v9.28a2,2,0,0,0,2,2h6.7V68.1H6.23a2,2,0,0,0-2,2V81.38a2,2,0,0,0,2,2H8.47v9.27a2,2,0,0,0,2,2H50.63a1.77,1.77,0,0,0,.46-.07A32.08,32.08,0,1,0,77.35,36.16ZM21.4,4H81.83v7.28H21.4ZM16.93,15.49H77.36v7.28H16.93Zm-4,11.28H73.37v7.28H12.94ZM4,38.05H50.39c-.15.08-.3.19-.45.27-.55.32-1.08.65-1.61,1l-.73.5c-.55.39-1.09.79-1.62,1.21l-.45.35c-.63.52-1.23,1.07-1.82,1.63l-.31.3c-.62.61-1.21,1.24-1.77,1.9l-.12.13H4ZM8.23,49.33H38.59a31.61,31.61,0,0,0-3.32,7.28h-27Zm8.7,11.49H34.27a33.4,33.4,0,0,0-.41,3.91c0,.47,0,.94,0,1.4,0,.66,0,1.32.06,2h-17ZM8.23,72.1H34.39a31.69,31.69,0,0,0,2.31,7.28H8.23Zm4.24,18.55V83.38h26.4a32.09,32.09,0,0,0,6.38,7.27Zm53.44,3.57A28,28,0,0,1,49,88.54l-.17-.15a28.12,28.12,0,0,1-7.1-8A27.64,27.64,0,0,1,38.1,69.83c-.13-1-.21-1.87-.25-2.69,0-.33,0-.67,0-1a28.24,28.24,0,0,1,.87-6.83.19.19,0,0,0,0-.08s0-.07,0-.11A27.83,27.83,0,0,1,42.25,51l.07-.11c.23-.36.47-.71.71-1l.14-.2.73-1,.16-.2q.46-.59,1-1.14l0,0c.35-.38.7-.75,1.06-1.11l.27-.26c.25-.25.51-.49.77-.72s.38-.33.57-.5l.49-.41.71-.56.39-.29c.26-.2.54-.39.81-.58l.28-.19c.31-.2.62-.41.94-.6l.09-.05A28.69,28.69,0,0,1,56,39.86l.36-.14.88-.29.54-.18.8-.22.66-.17.74-.17c.25-.06.5-.11.76-.15l.68-.13.86-.12.62-.08,1-.08.51,0c.5,0,1,0,1.52,0h.63a28.08,28.08,0,0,1-.63,56.16Z"/><rect class="cls-2" x="21.4" y="4" width="60.43" height="7.28"/><polygon class="cls-2" points="16.93 15.49 77.36 15.49 77.36 22.77 75.36 22.77 16.93 22.77 16.93 15.49"/><polygon class="cls-2" points="12.94 26.77 14.93 26.77 73.36 26.77 73.36 34.05 66.43 34.05 65.91 34.05 65.9 34.05 65.89 34.05 65.88 34.05 65.88 34.05 12.94 34.05 12.94 26.77"/><path class="cls-2" d="M4,38.05H50.39c-.15.08-.3.19-.45.27-.55.32-1.08.65-1.61,1l-.73.5c-.55.39-1.09.79-1.62,1.21l-.45.35c-.63.52-1.23,1.07-1.82,1.63l-.31.3c-.62.61-1.21,1.24-1.77,1.9l-.12.13H4Z"/><path class="cls-2" d="M8.23,49.33H38.59a31.61,31.61,0,0,0-3.32,7.28h-27Z"/><path class="cls-2" d="M16.93,60.82H34.27a33.4,33.4,0,0,0-.41,3.91c0,.47,0,.94,0,1.4,0,.66,0,1.32.06,2h-17Z"/><path class="cls-2" d="M8.23,72.1H34.39a31.69,31.69,0,0,0,2.31,7.28H8.23Z"/><path class="cls-2" d="M12.47,90.65V83.38h26.4a32.09,32.09,0,0,0,6.38,7.27Z"/><path class="cls-3" d="M65.91,94.22A28,28,0,0,1,49,88.54l-.17-.15a28.12,28.12,0,0,1-7.1-8A27.64,27.64,0,0,1,38.1,69.83c-.13-1-.21-1.87-.25-2.69,0-.33,0-.67,0-1a28.24,28.24,0,0,1,.87-6.83.19.19,0,0,0,0-.08s0-.07,0-.11A27.83,27.83,0,0,1,42.25,51l.07-.11c.23-.36.47-.71.71-1l.14-.2.73-1,.16-.2q.46-.59,1-1.14l0,0c.35-.38.7-.75,1.06-1.11l.27-.26c.25-.25.51-.49.77-.72s.38-.33.57-.5l.49-.41.71-.56.39-.29c.26-.2.54-.39.81-.58l.28-.19c.31-.2.62-.41.94-.6l.09-.05A28.69,28.69,0,0,1,56,39.86l.36-.14.88-.29.54-.18.8-.22.66-.17.74-.17c.25-.06.5-.11.76-.15l.68-.13.86-.12.62-.08,1-.08.51,0c.5,0,1,0,1.52,0h.63a28.08,28.08,0,0,1-.63,56.16Z"/><path class="cls-4" d="M83,54.18l1.34-1.34L83,51.5l1.13-1.14,1.34,1.35,1.35-1.35L88,51.49l-1.34,1.35L88,54.18l-1.13,1.13L85.5,54l-1.34,1.34ZM72.37,52.84,71,54.18l1.13,1.13L73.5,54l1.35,1.34L76,54.18l-1.34-1.34L76,51.49l-1.13-1.13L73.5,51.71l-1.34-1.35L71,51.5Zm5.86-9.66,1.13,1.13L80.7,43l1.35,1.34.66-.66a29.54,29.54,0,0,0-3.62-2.3l.48.49ZM67.36,44.31,68.7,43l1.35,1.34,1.13-1.13-1.34-1.34,1.34-1.35-1.13-1.13L68.7,40.71l-1.34-1.35L66.23,40.5l1.34,1.34-1.34,1.34ZM85.43,84.5l.9.89c.36-.39.72-.78,1.07-1.19l-.84-.84Zm-8.18-1.14L75.9,84.71l-1.34-1.35L73.43,84.5l1.34,1.34-1.34,1.34,1.13,1.13L75.9,87l1.35,1.34,1.13-1.13L77,85.84l1.34-1.35Zm15.68-9.57c.08-.27.15-.54.22-.82l-.52.53Zm-8.69,1,1.34-1.35-1.13-1.13L83.1,73.71l-1.34-1.35L80.63,73.5,82,74.84l-1.34,1.34,1.13,1.13L83.1,76l1.35,1.34,1.13-1.13Zm-12,0,1.34-1.35-1.13-1.13L71.1,73.71l-1.34-1.35L68.63,73.5,70,74.84l-1.34,1.34,1.13,1.13L71.1,76l1.35,1.34,1.13-1.13Zm16.93-11-1.34,1.34L89,66.31,90.3,65l1.35,1.34,1.13-1.13-1.34-1.34,1.34-1.35-1.13-1.13L90.3,62.71,89,61.36,87.83,62.5Zm-9.73,0,1.34-1.35-1.13-1.13L78.3,62.71,77,61.36,75.83,62.5l1.34,1.34-1.34,1.34L77,66.31,78.3,65l1.35,1.34,1.13-1.13ZM60.16,55.31,61.5,54l1.35,1.34L64,54.18l-1.34-1.34L64,51.49l-1.13-1.13L61.5,51.71l-1.34-1.35L59,51.5l1.34,1.34L59,54.18Zm-12,0L49.5,54l1.35,1.34L52,54.18l-1.34-1.34L52,51.49l-1.13-1.13L49.5,51.71l-1.34-1.35L47,51.5l1.34,1.34L47,54.18Zm6.07-12.13,1.13,1.13L56.7,43l1.35,1.34,1.13-1.13-1.34-1.34,1.34-1.35-1.13-1.13L56.7,40.71l-.8-.81c-.54.21-1.06.45-1.58.68l1.25,1.26Zm11,40.18L63.9,84.71l-1.34-1.35L61.43,84.5l1.34,1.34-1.34,1.34,1.13,1.13L63.9,87l1.35,1.34,1.13-1.13L65,85.84l1.34-1.35Zm-12,0L51.9,84.71l-1.34-1.35L49.43,84.5l1.34,1.34-1.34,1.34,1.13,1.13L51.9,87l1.35,1.34,1.13-1.13L53,85.84l1.34-1.35Zm7-8.52,1.34-1.35-1.13-1.13L59.1,73.71l-1.34-1.35L56.63,73.5,58,74.84l-1.34,1.34,1.13,1.13L59.1,76l1.35,1.34,1.13-1.13Zm-12,0,1.34-1.35-1.13-1.13L47.1,73.71l-1.34-1.35L44.63,73.5,46,74.84l-1.34,1.34,1.13,1.13L47.1,76l1.35,1.34,1.13-1.13Zm19.2-11,1.34-1.35-1.13-1.13L66.3,62.71,65,61.36,63.83,62.5l1.34,1.34-1.34,1.34L65,66.31,66.3,65l1.35,1.34,1.13-1.13Zm-12,0,1.34-1.35-1.13-1.13L54.3,62.71,53,61.36,51.83,62.5l1.34,1.34-1.34,1.34L53,66.31,54.3,65l1.35,1.34,1.13-1.13Zm-12,0,1.34-1.35-1.13-1.13L42.3,62.71,41,61.36,39.83,62.5l1.34,1.34-1.34,1.34L41,66.31,42.3,65l1.35,1.34,1.13-1.13Z"/><path class="cls-1" d="M75.41,79.72H55.65a.94.94,0,0,1-.95-1V74.21a.94.94,0,0,1,.95-.95h2.08V69.84H55.65a.94.94,0,0,1-.95-1V65.28a1,1,0,0,1,.95-1h2.08V61.82c0-5.39,4.11-9.27,9.85-9.27,4.44,0,7.9,1.94,9.42,4.75a1.1,1.1,0,0,1-.45,1.48l-3.12,2.35c-.65.5-1.29.39-1.86-.37A4.55,4.55,0,0,0,68,58.67c-2.24,0-3.49,1.63-3.49,3.87v1.79h5.7a1,1,0,0,1,1,1v3.61a.94.94,0,0,1-1,1h-5.7v3.42H75.41a.94.94,0,0,1,1,.95v4.56A.94.94,0,0,1,75.41,79.72Z"/></g></g></svg>