<svg xmlns="http://www.w3.org/2000/svg" viewBox="0 0 99.81 87.85"><defs><style>.cls-1{fill:#fff;}.cls-2{fill:#b4e6a5;}.cls-3{fill:#00313c;}</style></defs><g id="Layer_2" data-name="Layer 2"><g id="Layer_1-2" data-name="Layer 1"><path class="cls-1" d="M5.73,4H94.08a1.74,1.74,0,0,1,1.74,1.74V58.07H4V5.73A1.74,1.74,0,0,1,5.73,4Z"/><path class="cls-2" d="M61.56,14.36,60.1,15.82l-1.17-1.17,1.46-1.45Zm-3.79,1.46-1.46,1.46,1.16,1.17L58.93,17Zm1.16-1.17L57.47,13.2l-1.16,1.16,1.46,1.46L58.93,17l1.46,1.46,1.17-1.17L60.1,15.82Zm1.46,15.2-1.46,1.46,1.17,1.17L61.56,31Zm-2.62,2.63-1.46,1.46,1.16,1.17,1.46-1.46Zm1.16-1.17-1.46-1.46L56.31,31l1.46,1.46,1.16,1.17,1.46,1.46,1.17-1.17L60.1,32.48Zm1.46,15.2L58.93,48l1.17,1.17,1.46-1.46Zm-2.62,2.63L56.31,50.6l1.16,1.16,1.46-1.45ZM58.93,48l-1.46-1.46-1.16,1.17,1.46,1.46,1.16,1.17,1.46,1.45,1.17-1.16L60.1,49.14Zm18-34.77-1.46,1.45,1.16,1.17,1.46-1.46Zm-2.63,2.62-1.46,1.46L74,18.45,75.45,17Zm1.17-1.17L74,13.2l-1.17,1.16,1.46,1.46L75.45,17l1.46,1.46,1.16-1.17-1.46-1.46Zm1.46,15.2-1.46,1.46,1.16,1.17L78.07,31Zm-2.63,2.63-1.46,1.46L74,35.11l1.46-1.46Zm1.17-1.17L74,29.85,72.82,31l1.46,1.46,1.17,1.17,1.46,1.46,1.16-1.17-1.46-1.46Zm1.46,15.2L75.45,48l1.16,1.17,1.46-1.46Zm-2.63,2.63L72.82,50.6,74,51.76l1.46-1.45ZM75.45,48,74,46.51l-1.17,1.17,1.46,1.46,1.17,1.17,1.46,1.45,1.16-1.16-1.46-1.46Zm-6.8-43L67.19,6.4l1.17,1.17,1.46-1.46ZM66,7.57,64.56,9l1.17,1.16,1.46-1.46ZM67.19,6.4,65.73,4.94,64.56,6.11,66,7.57l1.17,1.16,1.46,1.46L69.82,9,68.36,7.57Zm1.46,15.2-1.46,1.46,1.17,1.16,1.46-1.46ZM66,24.22l-1.46,1.46,1.17,1.17,1.46-1.46Zm1.17-1.16L65.73,21.6l-1.17,1.16L66,24.22l1.17,1.17,1.46,1.46,1.17-1.17-1.46-1.46Zm1.46,15.19-1.46,1.46,1.17,1.17,1.46-1.46ZM66,40.88l-1.46,1.46,1.17,1.17,1.46-1.46Zm1.17-1.17-1.46-1.46-1.17,1.17L66,40.88l1.17,1.17,1.46,1.46,1.17-1.17-1.46-1.46ZM51.92,4.94,50.46,6.4l1.17,1.17,1.46-1.46ZM49.29,7.57,47.83,9,49,10.19l1.46-1.46ZM50.46,6.4,49,4.94,47.83,6.11l1.46,1.46,1.17,1.16,1.46,1.46L53.09,9,51.63,7.57Zm1.46,15.2-1.46,1.46,1.17,1.16,1.46-1.46Zm-2.63,2.62-1.46,1.46L49,26.85l1.46-1.46Zm1.17-1.16L49,21.6l-1.17,1.16,1.46,1.46,1.17,1.17,1.46,1.46,1.17-1.17-1.46-1.46Zm1.46,15.19-1.46,1.46,1.17,1.17,1.46-1.46Zm-2.63,2.63-1.46,1.46L49,43.51l1.46-1.46Zm1.17-1.17L49,38.25l-1.17,1.17,1.46,1.46,1.17,1.17,1.46,1.46,1.17-1.17-1.46-1.46ZM35.19,4.94,33.73,6.4,34.9,7.57l1.46-1.46ZM32.56,7.57,31.1,9l1.17,1.16,1.46-1.46ZM33.73,6.4,32.27,4.94,31.1,6.11l1.46,1.46,1.17,1.16,1.46,1.46L36.36,9,34.9,7.57Zm1.46,15.2-1.46,1.46,1.17,1.16,1.46-1.46Zm-2.63,2.62L31.1,25.68l1.17,1.17,1.46-1.46Zm1.17-1.16L32.27,21.6,31.1,22.76l1.46,1.46,1.17,1.17,1.46,1.46,1.17-1.17L34.9,24.22Zm1.46,15.19-1.46,1.46,1.17,1.17,1.46-1.46Zm-2.63,2.63L31.1,42.34l1.17,1.17,1.46-1.46Zm1.17-1.17-1.46-1.46L31.1,39.42l1.46,1.46,1.17,1.17,1.46,1.46,1.17-1.17L34.9,40.88ZM18.46,4.94,17,6.4l1.17,1.17,1.46-1.46ZM15.83,7.57,14.37,9l1.17,1.16L17,8.73ZM17,6.4,15.54,4.94,14.37,6.11l1.46,1.46L17,8.73l1.46,1.46L19.63,9,18.17,7.57Zm1.46,15.2L17,23.06l1.17,1.16,1.46-1.46Zm-2.63,2.62-1.46,1.46,1.17,1.17L17,25.39ZM17,23.06,15.54,21.6l-1.17,1.16,1.46,1.46L17,25.39l1.46,1.46,1.17-1.17-1.46-1.46Zm1.46,15.19L17,39.71l1.17,1.17,1.46-1.46Zm-2.63,2.63-1.46,1.46,1.17,1.17L17,42.05ZM17,39.71l-1.46-1.46-1.17,1.17,1.46,1.46L17,42.05l1.46,1.46,1.17-1.17-1.46-1.46ZM93.42,13.2,92,14.65l1.17,1.17,1.46-1.46Zm-2.63,2.62-1.46,1.46,1.17,1.17L92,17ZM92,14.65,90.5,13.2l-1.17,1.16,1.46,1.46L92,17l1.46,1.46,1.17-1.17-1.46-1.46Zm1.46,15.2L92,31.31l1.17,1.17L94.59,31Zm-2.63,2.63-1.46,1.46,1.17,1.17L92,33.65ZM92,31.31,90.5,29.85,89.33,31l1.46,1.46L92,33.65l1.46,1.46,1.17-1.17-1.46-1.46Zm1.46,15.2L92,48l1.17,1.17,1.46-1.46Zm-2.63,2.63L89.33,50.6l1.17,1.16L92,50.31ZM92,48,90.5,46.51l-1.17,1.17,1.46,1.46L92,50.31l1.46,1.45,1.17-1.16-1.46-1.46Zm-6.8-43L83.7,6.4l1.17,1.17,1.46-1.46ZM82.54,7.57,81.08,9l1.16,1.16L83.7,8.73ZM83.7,6.4,82.24,4.94,81.08,6.11l1.46,1.46L83.7,8.73l1.46,1.46L86.33,9,84.87,7.57Zm1.46,15.2L83.7,23.06l1.17,1.16,1.46-1.46Zm-2.62,2.62-1.46,1.46,1.16,1.17,1.46-1.46Zm1.16-1.16L82.24,21.6l-1.16,1.16,1.46,1.46,1.16,1.17,1.46,1.46,1.17-1.17-1.46-1.46Zm1.46,15.19L83.7,39.71l1.17,1.17,1.46-1.46Zm-2.62,2.63-1.46,1.46,1.16,1.17,1.46-1.46Zm1.16-1.17-1.46-1.46-1.16,1.17,1.46,1.46,1.16,1.17,1.46,1.46,1.17-1.17-1.46-1.46Zm-75-25.06L7.28,13.2,6.12,14.36l1.46,1.46Zm0,2.34,1.46,1.46,1.17-1.17L9.91,15.82ZM10.2,13.2,8.74,14.65,7.58,15.82,6.12,17.28l1.16,1.17L8.74,17l1.17-1.17,1.46-1.46ZM8.74,31.31,7.28,29.85,6.12,31l1.46,1.46Zm0,2.34,1.46,1.46,1.17-1.17L9.91,32.48Zm1.46-3.8L8.74,31.31,7.58,32.48,6.12,33.94l1.16,1.17,1.46-1.46,1.17-1.17L11.37,31ZM8.74,48,7.28,46.51,6.12,47.68l1.46,1.46Zm0,2.34,1.46,1.45,1.17-1.16L9.91,49.14Zm1.46-3.8L8.74,48,7.58,49.14,6.12,50.6l1.16,1.16,1.46-1.45,1.17-1.17,1.46-1.46ZM43.66,13.2,42.2,14.65l1.17,1.17,1.46-1.46ZM41,15.82l-1.46,1.46,1.16,1.17L42.2,17Zm1.16-1.17L40.74,13.2l-1.16,1.16L41,15.82,42.2,17l1.46,1.46,1.17-1.17-1.46-1.46Zm1.46,15.2L42.2,31.31l1.17,1.17L44.83,31ZM41,32.48l-1.46,1.46,1.16,1.17,1.46-1.46Zm1.16-1.17-1.46-1.46L39.58,31,41,32.48l1.16,1.17,1.46,1.46,1.17-1.17-1.46-1.46Zm1.46,15.2L42.2,48l1.17,1.17,1.46-1.46ZM41,49.14,39.58,50.6l1.16,1.16,1.46-1.45ZM42.2,48l-1.46-1.46-1.16,1.17L41,49.14l1.16,1.17,1.46,1.45,1.17-1.16-1.46-1.46ZM26.93,13.2l-1.46,1.45,1.17,1.17,1.46-1.46Zm-2.62,2.62-1.46,1.46L24,18.45,25.47,17Zm1.16-1.17L24,13.2l-1.16,1.16,1.46,1.46L25.47,17l1.46,1.46,1.17-1.17-1.46-1.46Zm1.46,15.2-1.46,1.46,1.17,1.17L28.1,31Zm-2.62,2.63-1.46,1.46L24,35.11l1.46-1.46Zm1.16-1.17L24,29.85,22.85,31l1.46,1.46,1.16,1.17,1.46,1.46,1.17-1.17-1.46-1.46Zm1.46,15.2L25.47,48l1.17,1.17,1.46-1.46Zm-2.62,2.63L22.85,50.6,24,51.76l1.46-1.45ZM25.47,48,24,46.51l-1.16,1.17,1.46,1.46,1.16,1.17,1.46,1.45L28.1,50.6l-1.46-1.46Z"/><path class="cls-2" d="M94.08,67.43H5.73A1.74,1.74,0,0,1,4,65.69V62.05H95.82v3.64A1.74,1.74,0,0,1,94.08,67.43Z"/><path class="cls-3" d="M94.08,0H5.73A5.74,5.74,0,0,0,0,5.73v60a5.74,5.74,0,0,0,5.73,5.73H36.25v2.67a5.76,5.76,0,0,1-1.53,3.7l-4,4.56a1.91,1.91,0,0,0-.32.51,3.56,3.56,0,0,0,3.27,5H66.11a3.56,3.56,0,0,0,3.27-5,1.91,1.91,0,0,0-.32-.51l-4-4.56a5.77,5.77,0,0,1-1.53-3.72V71.42H94.08a5.74,5.74,0,0,0,5.73-5.73v-60A5.74,5.74,0,0,0,94.08,0Zm-29,83.87H34.72l3-3.46a9.78,9.78,0,0,0,2.51-6.34V71.42H59.57v2.69a9.76,9.76,0,0,0,2.51,6.3ZM95.82,65.05v.64a1.74,1.74,0,0,1-1.74,1.74H5.73A1.74,1.74,0,0,1,4,65.69V62.05H95.82Zm0-7H4V5.73A1.74,1.74,0,0,1,5.73,4H94.08a1.74,1.74,0,0,1,1.74,1.74Z"/><path class="cls-1" d="M62.08,80.41l3,3.46H34.72l3-3.46a9.78,9.78,0,0,0,2.51-6.34V71.42H59.57v2.69A9.76,9.76,0,0,0,62.08,80.41Z"/><path class="cls-3" d="M51.38,46.46H31.22a4.43,4.43,0,0,0,0,8.86H51.38a4.43,4.43,0,0,0,0-8.86Zm0,5.21H31.22a.78.78,0,1,1,0-1.56H51.38a.78.78,0,1,1,0,1.56Zm21.73-7.15-17-17,1.66-1.66a4.86,4.86,0,0,0,.54-.66,4.54,4.54,0,0,0,5-1l.16-.16a4.55,4.55,0,0,0,0-6.41L54.18,8.43a4.53,4.53,0,0,0-6.41,0l-.15.15a4.54,4.54,0,0,0-1,5,3.78,3.78,0,0,0-.67.54L36.12,24a4.44,4.44,0,0,0-.72,1,4.52,4.52,0,0,0-5.06.92l-.15.15a4.53,4.53,0,0,0,0,6.41l9.27,9.28a4.55,4.55,0,0,0,6.41,0l.16-.16a4.53,4.53,0,0,0,.91-5.06,4.17,4.17,0,0,0,1-.71l1.66-1.66,17,17a4.56,4.56,0,0,0,6.42,0l.15-.16A4.53,4.53,0,0,0,73.11,44.52ZM50.2,11.16l.15-.15a.89.89,0,0,1,.63-.26.87.87,0,0,1,.62.26l9.28,9.27a.89.89,0,0,1,0,1.25l-.16.16a.91.91,0,0,1-1.25,0L50.2,12.41A.89.89,0,0,1,50.2,11.16ZM43.45,39l-.16.16a.9.9,0,0,1-1.25,0l-9.27-9.28a.89.89,0,0,1,0-1.25l.15-.15a.89.89,0,0,1,.63-.26.87.87,0,0,1,.62.26l1.95,1.94h0l2.69,2.69,2.69,2.7h0l1.94,1.94A.91.91,0,0,1,43.45,39Zm1.88-5.78a.88.88,0,0,1-1.25,0L38.7,27.8a.89.89,0,0,1,0-1.25l9.87-9.87a.83.83,0,0,1,.5-.23l6.38,6.38a.84.84,0,0,1-.24.48l-2.74,2.74h0l-2.2,2.2Zm25.2,15.17-.15.16a.91.91,0,0,1-1.26,0l-17-17,1.4-1.4,17,17A.89.89,0,0,1,70.53,48.35Z"/><path class="cls-2" d="M44.08,33.18a.88.88,0,0,0,1.25,0l9.88-9.87a.91.91,0,0,0,0-1.25l-5.38-5.38a.91.91,0,0,0-1.26,0L38.7,26.55a.89.89,0,0,0,0,1.25Z"/><path class="cls-2" d="M51.38,51.67H31.22a.78.78,0,1,1,0-1.56H51.38a.78.78,0,1,1,0,1.56ZM50.2,11.16l.15-.15a.89.89,0,0,1,.63-.26.87.87,0,0,1,.62.26l9.28,9.27a.89.89,0,0,1,0,1.25l-.16.16a.91.91,0,0,1-1.25,0L50.2,12.41A.89.89,0,0,1,50.2,11.16ZM41.5,35.77h0l1.94,1.94a.91.91,0,0,1,0,1.25l-.16.16a.9.9,0,0,1-1.25,0l-9.27-9.28a.89.89,0,0,1,0-1.25l.15-.15a.89.89,0,0,1,.63-.26.87.87,0,0,1,.62.26l1.95,1.94h0m0,0,2.69,2.69,2.69,2.7m29,12.58-.15.16a.91.91,0,0,1-1.26,0l-17-17,1.4-1.4,17,17A.89.89,0,0,1,70.53,48.35Z"/></g></g></svg>