<svg xmlns="http://www.w3.org/2000/svg" viewBox="0 0 100 87.8"><defs><style>.cls-1{fill:#fff;}.cls-2{fill:#032530;}.cls-3{fill:#b4e6a5;}</style></defs><g id="Layer_2" data-name="Layer 2"><g id="Layer_1-2" data-name="Layer 1"><path class="cls-1" d="M4.93,79.8a33.17,33.17,0,0,0,18.13,4.09c8.39-.53,16.87-2.35,22.16-11.79C44,64.65,39,58.55,32.35,56.37c-1.68.14-9.36,1-13.15,5.12a33.43,33.43,0,0,0-5.54,8.31C11.86,73.31,10.15,76.65,4.93,79.8Z"/><path class="cls-2" d="M63.54,55.77,62.27,53a25.78,25.78,0,0,0-13-13l-2.69-1.17L85,3.09C88.82-.78,94-1,97.55,2.48h0A8.24,8.24,0,0,1,100,9.23a10.5,10.5,0,0,1-3.07,6.31Zm-10.19-18a29.62,29.62,0,0,1,11,11L94.11,12.88a6.77,6.77,0,0,0,2-4,4.39,4.39,0,0,0-1.3-3.66h0c-2.41-2.42-5.3-1.24-7.21.66Zm-1.7,32.39-1.09-3.3A26.21,26.21,0,0,0,37,51.27l-2.58-1.21,9.66-9,1,.27a23.21,23.21,0,0,1,16,16l.29,1Zm-10.52-21A30.08,30.08,0,0,1,53,62.48l4.15-5a19.39,19.39,0,0,0-12-12.13Zm-20,38.7C10.83,87.8,1,83.27.09,80.12a2.26,2.26,0,0,1,1.17-2.67c5.65-2.9,7.05-5.63,9-9.4a36.67,36.67,0,0,1,6.14-9.17C21.7,53.12,32,52.52,32.48,52.5l.34,0,.32.1c8.44,2.58,14.71,10.28,16,19.61l.08.62-.29.55c-7,13.18-20,14-25.6,14.37C22.59,87.78,21.86,87.8,21.15,87.8Zm-16.22-8a33.17,33.17,0,0,0,18.13,4.09c8.39-.53,16.87-2.35,22.16-11.79C44,64.65,39,58.55,32.35,56.37c-1.68.14-9.36,1-13.15,5.12a33.43,33.43,0,0,0-5.54,8.31C11.86,73.31,10.15,76.65,4.93,79.8Z"/><path class="cls-3" d="M87.62,5.86c1.91-1.9,4.8-3.08,7.21-.66h0a4.39,4.39,0,0,1,1.3,3.66,6.77,6.77,0,0,1-2,4L64.38,48.73a29.62,29.62,0,0,0-11-11ZM41.13,49.1A30.08,30.08,0,0,1,53,62.48l4.15-5a19.39,19.39,0,0,0-12-12.13Z"/><path class="cls-3" d="M36.37,63.76a2,2,0,0,1,0,2.8,2,2,0,0,1-2.81,0,2,2,0,0,1,0-2.8A2,2,0,0,1,36.37,63.76ZM25.11,72.14a2,2,0,0,0,0,2.8,2,2,0,0,0,2.82,0,2,2,0,0,0,0-2.8A2,2,0,0,0,25.11,72.14Zm8.45,8.39A2,2,0,0,0,33,82.2a22.22,22.22,0,0,0,3.54-1.47,1.06,1.06,0,0,0-.17-.2A2,2,0,0,0,33.56,80.53ZM42,72.14a2,2,0,0,0,0,2.8,1.94,1.94,0,0,0,1,.52A23.73,23.73,0,0,0,45,72.4a1.71,1.71,0,0,0-.21-.26A2,2,0,0,0,42,72.14ZM19.48,80.53a2,2,0,0,0-2.81,0,2,2,0,0,0,0,2.79,1.81,1.81,0,0,0,.62.41c.39,0,.8.09,1.2.12a2,2,0,0,0,1-3.32Zm8.45-22.35A2,2,0,0,0,28.49,57,26.84,26.84,0,0,0,25,58l.16.2A2,2,0,0,0,27.93,58.18ZM11.61,73.48a18,18,0,0,1-1.43,2,2.07,2.07,0,0,0,.86-.49A2,2,0,0,0,11.61,73.48Zm7.87-6.92a2,2,0,0,0,0-2.8,2,2,0,0,0-1.75-.54,27.52,27.52,0,0,0-1.62,2.23,2,2,0,0,0,.56,1.11A2,2,0,0,0,19.48,66.56Z"/></g></g></svg>