<svg xmlns="http://www.w3.org/2000/svg" viewBox="0 0 75.86 99.45"><defs><style>.cls-1{fill:#fff;}.cls-2{fill:#b4e6a5;}.cls-3{fill:#032530;}</style></defs><g id="Layer_2" data-name="Layer 2"><g id="Layer_1-2" data-name="Layer 1"><circle class="cls-1" cx="37.93" cy="24.39" r="20.37"/><path class="cls-2" d="M36.63,6.24a2,2,0,1,0,2.82,0A2,2,0,0,0,36.63,6.24Zm8.45,8.38a2,2,0,0,0,0,2.8,2,2,0,0,0,2.81,0,2,2,0,0,0,0-2.8A2,2,0,0,0,45.08,14.62Zm-16.89,0a2,2,0,0,0,0,2.8,2,2,0,0,0,2.81,0,2,2,0,0,0,0-2.8A2,2,0,0,0,28.19,14.62ZM53.52,23a2,2,0,0,0,0,2.8,2,2,0,0,0,2.82,0,2,2,0,0,0,0-2.8A2,2,0,0,0,53.52,23ZM36.63,23a2,2,0,0,0,0,2.8,2,2,0,0,0,2.82,0,2,2,0,0,0,0-2.8A2,2,0,0,0,36.63,23Zm8.45,8.38a2,2,0,0,0,0,2.8,2,2,0,0,0,2.81,0,2,2,0,0,0,0-2.8A2,2,0,0,0,45.08,31.38ZM19.74,23a2,2,0,0,0,0,2.8,2,2,0,0,0,2.82,0,2,2,0,0,0,0-2.8A2,2,0,0,0,19.74,23Zm8.45,8.38a2,2,0,0,0,0,2.8,2,2,0,0,0,2.81,0,2,2,0,0,0,0-2.8A2,2,0,0,0,28.19,31.38Zm8.44,8.38a2,2,0,0,0,0,2.8,2,2,0,0,0,2.82,0,2,2,0,0,0,0-2.8A2,2,0,0,0,36.63,39.76Z"/><path class="cls-2" d="M71.78,87.84c0,2.58-12,7.59-33.88,7.59S4,90.43,4,87.86c0-.19,0-12.72,0-12.72.49-13.41,7.3-25.5,17.87-31.9a25.29,25.29,0,0,0,32,0c10.56,6.39,17.37,18.48,17.86,31.81Z"/><path class="cls-3" d="M56.55,40.12a24.4,24.4,0,1,0-37.23,0C7.91,47.32.57,60.46,0,75.06c0,0,0,12.66,0,12.8,0,3.66,4,6.59,12,8.72C19,98.43,28.15,99.45,37.9,99.45s19-1,25.89-2.87c8-2.13,12-5.07,12-8.73l0-12.86C75.32,60.44,68,47.29,56.55,40.12ZM37.93,4A20.37,20.37,0,1,1,17.56,24.39,20.4,20.4,0,0,1,37.93,4ZM71.78,87.84c0,2.58-12,7.59-33.88,7.59S4,90.43,4,87.86c0-.19,0-12.72,0-12.72.49-13.41,7.3-25.5,17.87-31.9a25.29,25.29,0,0,0,32,0c10.56,6.39,17.37,18.48,17.86,31.81Z"/></g></g></svg>