<svg xmlns="http://www.w3.org/2000/svg" viewBox="0 0 78.33 83.56"><defs><style>.cls-1{fill:#032530;}.cls-2{fill:#b4e6a5;}</style></defs><g id="Layer_2" data-name="Layer 2"><g id="Layer_1-2" data-name="Layer 1"><path class="cls-1" d="M75.89,56.26l-3.37-3.94a10.15,10.15,0,0,0-14.3-1.07L46.42,61.71l-.19.19c-.67.77-1.11.45-1.28.32A66.85,66.85,0,0,1,32,49.7,66.53,66.53,0,0,1,21.48,31a4.13,4.13,0,0,1-.17-.57,6,6,0,0,1,.64-.52l9.62-8.21A10.15,10.15,0,0,0,32.66,7.46L29.29,3.52A10.16,10.16,0,0,0,15,2.43L9.71,7c-.87.77-5.24,4.74-6.47,7.24-6.77,12.34-2.67,32.07,10,48C24,75.84,38.41,83.56,50.73,83.56A23.88,23.88,0,0,0,65.19,79c.89-.67,8.19-7.23,9.61-8.51A10.12,10.12,0,0,0,75.89,56.26ZM72.16,67.53c-4.13,3.71-8.81,7.88-9.36,8.3-11.67,8.67-32.51,1.45-46.45-16.1C4.66,45,.72,27.07,6.76,16.1l.06-.1c.62-1.31,3.62-4.31,5.52-6l5.28-4.52a6,6,0,0,1,4-1.47l.48,0a6,6,0,0,1,4.18,2.11l3.38,3.93A6.15,6.15,0,0,1,29,18.7L19.5,26.77c-1.46,1.1-2.9,2.54-1.78,5.63A70.51,70.51,0,0,0,28.87,52.19,71,71,0,0,0,42.59,65.45a4.81,4.81,0,0,0,6.57-.82L60.85,54.27a6.14,6.14,0,0,1,8.63.66l3.38,3.93A6.14,6.14,0,0,1,72.16,67.53Z"/><path class="cls-2" d="M21.59,4a6,6,0,0,0-4,1.47L12.34,10c-1.9,1.7-4.9,4.7-5.52,6l-.06.1c-6,11-2.1,28.91,9.59,43.63C30.29,77.28,51.13,84.5,62.8,75.83c.55-.42,5.23-4.59,9.36-8.3a6.14,6.14,0,0,0,.7-8.67l-3.38-3.93a6.14,6.14,0,0,0-8.63-.66L49.16,64.63a4.81,4.81,0,0,1-6.57.82A71,71,0,0,1,28.87,52.19,70.51,70.51,0,0,1,17.72,32.4c-1.12-3.09.32-4.53,1.78-5.63L29,18.7a6.15,6.15,0,0,0,.66-8.64L26.25,6.13A6,6,0,0,0,22.07,4Z"/><path class="cls-1" d="M51.1,8.27c.21.07,21.07,7.4,23.09,27.36a2,2,0,0,0,2.19,1.79l.3-.05a2,2,0,0,0,1.49-2.14C75.88,12.67,53.34,4.81,52.39,4.48A2,2,0,0,0,51.1,8.27Z"/><path class="cls-1" d="M42.71,18c.17.06,17.23,6,18.89,22.37a2,2,0,0,0,2.19,1.79l.3,0a2,2,0,0,0,1.49-2.14C63.66,21,44.8,14.44,44,14.16A2,2,0,0,0,42.71,18Z"/></g></g></svg>