<svg xmlns="http://www.w3.org/2000/svg" viewBox="0 0 96.57 98.58"><defs><style>.cls-1{fill:#fff;}.cls-2{fill:#b4e6a5;}.cls-3{fill:#00313c;}.cls-4{fill:#b3e6a6;}.cls-5{fill:#002531;}</style></defs><g id="Layer_2" data-name="Layer 2"><g id="Layer_1-2" data-name="Layer 1"><rect class="cls-1" x="4" y="4" width="88.57" height="70.46"/><path class="cls-2" d="M92.57,35.9v2.78L56.65,4h2.88ZM31.71,4H28.76L92.57,62.73V60Zm15,0H43.84L92.57,49.82V47.08ZM74.53,4H71.65L92.57,24.2V21.42ZM4,4V6.74L76.55,74.46h2.93ZM87.89,4H85l7.55,7.29V8.51ZM4,42.3v2.78L34.43,74.46h2.88Zm0,26v2.78l3.5,3.38h2.88ZM18,4H15l76.5,70.46h1V72.68ZM4,55.31v2.78L21,74.46h2.88ZM4,29.39v2.78L47.79,74.46h2.88ZM4,16.73v2.74l58.69,55h2.93Z"/><path class="cls-3" d="M92.7,78.46H3.87A3.87,3.87,0,0,1,0,74.59V3.87A3.87,3.87,0,0,1,3.87,0H92.7a3.87,3.87,0,0,1,3.87,3.87V74.59A3.87,3.87,0,0,1,92.7,78.46ZM4,74.46H92.57V4H4Z"/><path class="cls-3" d="M80.47,98.58H56.35V55.82c-3,1.67-5,2.51-6.05,2.51-2.18,0-5.82-1.74-9.28-4.45a60.56,60.56,0,0,1-5-4.29,4.9,4.9,0,0,1,5.14-8.1l6.51,2.44.33-.36c2.78-3.1,6.59-7.35,14.32-7.35H76.46c8.56,0,12.06,4.08,12.06,14.08V62.37c0,5.41-2.63,8-8,8h0Zm-20.12-4H76.47V50.3h4V66.41c3.21,0,4-.83,4-4V50.3c0-8.57-2.6-10.08-8.06-10.08H62.37c-5.95,0-8.69,3.06-11.34,6l-1.3,1.42-.91.94-1.23-.45-7.78-2.91a.9.9,0,0,0-1,1.48,59.56,59.56,0,0,0,4.63,4c3.34,2.61,6,3.55,6.75,3.6a44,44,0,0,0,7.07-3.72l3.05-1.88Z"/><path class="cls-4" d="M60.35,94.58H76.47V50.3h4V66.41c3.21,0,4-.83,4-4V50.3c0-8.57-2.6-10.08-8.06-10.08H62.37c-5.95,0-8.69,3.06-11.34,6l-1.3,1.42-.91.94-1.23-.45-7.78-2.91a.9.9,0,0,0-1,1.48,59.56,59.56,0,0,0,4.63,4c3.34,2.61,6,3.55,6.75,3.6a44,44,0,0,0,7.07-3.72l3.05-1.88Z"/><rect class="cls-5" x="66.41" y="68.41" width="4" height="28.17"/><path class="cls-3" d="M68.41,34.19c-5.64,0-10-4.67-10-10.63V20.69c0-6,4.41-10.63,10-10.63s10,4.67,10,10.63v2.87C78.46,29.52,74,34.19,68.41,34.19Zm0-20.13c-3.39,0-6,2.91-6,6.63v2.87c0,3.72,2.66,6.63,6,6.63s6-2.91,6-6.63V20.69C74.46,17,71.8,14.06,68.41,14.06Z"/><path class="cls-1" d="M68.41,14.06c-3.39,0-6,2.91-6,6.63v2.87c0,3.72,2.66,6.63,6,6.63s6-2.91,6-6.63V20.69C74.46,17,71.8,14.06,68.41,14.06Z"/></g></g></svg>