<svg xmlns="http://www.w3.org/2000/svg" viewBox="0 0 98.96 83.64"><defs><style>.cls-1{fill:#00313c;}.cls-2{fill:#fff;}.cls-3{fill:none;}.cls-4{fill:#b4e6a5;}.cls-5{fill:#b3e6a6;}</style></defs><g id="Layer_2" data-name="Layer 2"><g id="Layer_1-2" data-name="Layer 1"><path class="cls-1" d="M96.68,19.53,53.5.84a10.35,10.35,0,0,0-8.17,0l-43,18.6a3.83,3.83,0,0,0,.11,7.11l19,7.37v14c0,9.71,12.32,17.32,28,17.32s28-7.61,28-17.32V33.87l8.25-3.2V55.55a5.06,5.06,0,0,0-3.06,4.65v2.89l-3,18.22a2,2,0,0,0,.78,1.94,2,2,0,0,0,1.19.39,2,2,0,0,0,.9-.21L94.79,77.3a2,2,0,0,0,1-2.27l-3-12V60.2a5.06,5.06,0,0,0-3.06-4.65V29.11l6.74-2.62a3.74,3.74,0,0,0,.17-7ZM88.83,60.2v1.06H86.71V60.2a1.06,1.06,0,1,1,2.12,0ZM84.26,78.09,86.4,65.26h2.87l2.3,9.18ZM49.48,61.26c-10.53,0-19.73-4-22.88-9.32,5,4.38,13.33,7.19,22.88,7.19s17.84-2.81,22.88-7.19C69.21,57.28,60,61.26,49.48,61.26Zm24-19.44c0,7.21-11,13.31-24,13.31s-24-6.1-24-13.31V35.47L44.6,42.91a13.22,13.22,0,0,0,9.64,0l19.28-7.48ZM87.58,25.67,49.86,18.41a2,2,0,0,0-.76,3.93L80.57,28.4,52.79,39.19a9.33,9.33,0,0,1-6.74,0L4.29,23,46.92,4.51a6.36,6.36,0,0,1,5,0h0L94.55,23Z"/><path class="cls-2" d="M87.58,25.67,49.86,18.41a2,2,0,0,0-.76,3.93L80.57,28.4,52.79,39.19a9.33,9.33,0,0,1-6.74,0L4.29,23,46.92,4.51a6.36,6.36,0,0,1,5,0h0L94.55,23Z"/><polygon class="cls-3" points="74.5 30.75 69.66 26.3 55.38 23.55 66.45 33.88 74.5 30.75"/><polygon class="cls-3" points="80.57 28.4 73.39 27.02 76.58 29.95 80.57 28.4"/><path class="cls-3" d="M20.56,15.92,43.71,38.28l2.34.91a9.33,9.33,0,0,0,6.74,0l1.91-.75L27.46,12.93Z"/><polygon class="cls-3" points="11.35 19.91 21.41 29.61 38.89 36.41 18.57 16.78 11.35 19.91"/><polygon class="cls-3" points="4.29 22.96 16.54 27.72 9.34 20.77 4.29 22.96"/><path class="cls-3" d="M29.46,12.07l27.3,25.57,7.62-3L51.68,22.84l-2.58-.5A2,2,0,0,1,47.52,20a2,2,0,0,1,.31-.76L36.76,8.91Z"/><polygon class="cls-3" points="72.22 13.3 85.16 25.21 87.58 25.67 94.49 22.99 94.38 22.89 72.22 13.3"/><path class="cls-3" d="M51.91,4.51h0a6.28,6.28,0,0,0-3.42-.44L67.8,21.87l13.63,2.62L66.65,10.89Z"/><polygon class="cls-3" points="38.77 8.04 49.88 18.41 64.07 21.15 46.3 4.78 38.77 8.04"/><polygon class="cls-4" points="18.57 16.78 38.89 36.41 43.71 38.28 20.56 15.92 18.57 16.78"/><polygon class="cls-4" points="9.34 20.77 16.54 27.72 16.59 27.75 9.37 20.77 9.34 20.77"/><polygon class="cls-4" points="27.46 12.93 54.7 38.45 56.76 37.64 29.46 12.07 27.46 12.93"/><polygon class="cls-4" points="94.49 22.99 94.55 22.96 94.38 22.89 94.49 22.99"/><polygon class="cls-4" points="66.65 10.89 81.43 24.49 85.16 25.21 72.22 13.3 66.65 10.89"/><path class="cls-4" d="M36.76,8.91,47.83,19.24a2,2,0,0,1,2-.83h0L38.77,8Z"/><polygon class="cls-4" points="66.45 33.88 55.38 23.55 51.68 22.84 64.38 34.69 66.45 33.88"/><polygon class="cls-4" points="76.58 29.95 73.39 27.02 69.66 26.3 74.5 30.75 76.58 29.95"/><path class="cls-4" d="M46.92,4.51l-.62.27L64.07,21.15l3.73.72L48.49,4.07A6.11,6.11,0,0,0,46.92,4.51Z"/><polygon class="cls-4" points="9.37 20.77 16.59 27.75 21.41 29.61 11.35 19.91 9.37 20.77"/><path class="cls-5" d="M73.52,41.82c0,7.21-11,13.31-24,13.31s-24-6.1-24-13.31V35.47L44.6,42.91a13.22,13.22,0,0,0,9.64,0l19.28-7.48Z"/><polygon class="cls-5" points="84.26 78.09 86.4 65.26 89.27 65.26 91.57 74.44 84.26 78.09"/><path class="cls-2" d="M49.48,61.26c-10.53,0-19.73-4-22.88-9.32,5,4.38,13.33,7.19,22.88,7.19s17.84-2.81,22.88-7.19C69.21,57.28,60,61.26,49.48,61.26Z"/><path class="cls-2" d="M88.83,60.2v1.06H86.71V60.2a1.06,1.06,0,1,1,2.12,0Z"/></g></g></svg>