<svg xmlns="http://www.w3.org/2000/svg" viewBox="0 0 93.77 94.47"><defs><style>.cls-1{fill:#fff;}.cls-2{fill:#b4e6a5;}.cls-3{fill:#00313c;}.cls-4{fill:#b3e6a6;}</style></defs><g id="Layer_2" data-name="Layer 2"><g id="Layer_1-2" data-name="Layer 1"><path class="cls-1" d="M44.63,60.43l.48-.21c1-.47,2.15-1,3.26-1.56A104.86,104.86,0,0,0,60.9,51c1-.71,2-1.44,3.05-2.19A133.51,133.51,0,0,0,78.46,36.39a40,40,0,0,0,8-11.08l-18-18a40.58,40.58,0,0,0-11.08,8A133.51,133.51,0,0,0,44.93,29.82c-.75,1-1.48,2-2.19,3a105.45,105.45,0,0,0-7.63,12.54c-.56,1.09-1.08,2.18-1.55,3.25l-.22.48Z"/><path class="cls-2" d="M52.23,55.35l.76.76L51.56,57l-.46-.46-1.35,1.34L48.62,56.7,50,55.35,48.62,54l1.13-1.13,1.35,1.34,1.34-1.34L53.57,54ZM70.3,43.22,69,41.88,67.82,43l1.35,1.34L67.82,45.7l.09.08q2.13-1.7,4.16-3.47l-.43-.43ZM59.64,41.88,58.3,43.22,57,41.88,55.82,43l1.35,1.34L55.82,45.7,57,46.83l1.35-1.34,1.34,1.34,1.13-1.13-1.34-1.35L60.77,43Zm-12,0L46.3,43.22,45,41.88,43.82,43l1.35,1.34L43.82,45.7,45,46.83l1.35-1.34,1.34,1.34,1.13-1.13-1.34-1.35L48.77,43Zm31.2-11L77.5,32.22l-1.35-1.34L75,32l1.35,1.34L75,34.7l1.13,1.13,1.35-1.34,1.34,1.34L80,34.7l-1.34-1.35L80,32Zm-12,0L65.5,32.22l-1.35-1.34L63,32l1.35,1.34L63,34.7l1.13,1.13,1.35-1.34,1.34,1.34L68,34.7l-1.34-1.35L68,32ZM54.63,33.35,56,32l-1.13-1.13L53.5,32.22l-1.35-1.34L51,32l1.35,1.34L51,34.7l1.13,1.13,1.35-1.34,1.34,1.34L56,34.7Zm28.72-8.52,1.3-1.29-1.14-1.13L82.22,23.7Zm-9.52-2.48L75.17,21,74,19.88,72.7,21.22l-1.35-1.34L70.22,21l1.35,1.34L70.22,23.7l1.13,1.13,1.35-1.34L74,24.83l1.13-1.13Zm-12,0L63.17,21,62,19.88,60.7,21.22l-1.35-1.34L58.22,21l1.35,1.34L58.22,23.7l1.13,1.13,1.35-1.34L62,24.83l1.13-1.13ZM51.17,23.7l-.77-.77-1,1.23.67.67ZM69,11.35,70.37,10,69.24,8.88,67.9,10.22,66.55,8.88,65.42,10l1.35,1.34L65.42,12.7l1.13,1.13,1.35-1.34,1.34,1.34,1.13-1.13Zm-28.8,44L41.57,54l-1.13-1.13L39.1,54.22l-1.35-1.34-.33.33L41.24,57l.33-.33ZM36.77,45.7l-1.18-1.19c-.16.3-.33.6-.48.9l-.3.59.83.83Zm-.25-2.94c-.2.36-.38.72-.58,1.08l.83-.83ZM44,34.7l-1.34-1.35L44,32l-.36-.36c-.29.41-.59.81-.87,1.22-.4.57-.77,1.14-1.16,1.7l1.26,1.26Z"/><path class="cls-3" d="M1.5,92.27a2,2,0,0,1,0-2.82L14.72,76.23a2,2,0,1,1,2.83,2.82L4.32,92.27A2,2,0,0,1,1.5,92.27Zm12.12,1.61a2,2,0,0,1,0-2.82L26.84,77.84a2,2,0,1,1,2.83,2.82L16.44,93.88A2,2,0,0,1,13.62,93.88Zm-13-13A2,2,0,0,1,.58,78L13.81,64.8a2,2,0,0,1,2.82,2.83L3.41,80.85A2,2,0,0,1,.58,80.85Zm29.58,7.54a2,2,0,0,1,0-2.82L43.39,72.35a2,2,0,1,1,2.82,2.82L33,88.39A2,2,0,0,1,30.16,88.39ZM6.07,64.3a2,2,0,0,1,0-2.82L19.3,48.26a2,2,0,0,1,2.82,2.82L8.9,64.3A2,2,0,0,1,6.07,64.3Zm15.07,8.33a2,2,0,0,1-.58-1.29c0-.41-.58-10.17,5.33-16.07a28.09,28.09,0,0,1,4.35-3.58L29.57,51a2,2,0,0,1-.44-2.16c.26-.64.54-1.3.84-2A37.33,37.33,0,0,0,9.86,43.17a2,2,0,0,1-1.6-.58,1.89,1.89,0,0,1-.34-.46,2,2,0,0,1,.19-2.19,34.06,34.06,0,0,1,2.53-2.87A32.42,32.42,0,0,1,41,28.39a135.77,135.77,0,0,1,13.52-15.9A43.76,43.76,0,0,1,68.1,3.12,35.69,35.69,0,0,1,91.41,1.06a2.18,2.18,0,0,1,.81.49,2.18,2.18,0,0,1,.49.81c.14.44,3.33,10.83-2.06,23.31a43.92,43.92,0,0,1-9.37,13.55,135.71,135.71,0,0,1-15.9,13.51A32.33,32.33,0,0,1,53.83,85.66a2,2,0,0,1-2.19.19,2.1,2.1,0,0,1-.46-.34,2,2,0,0,1-.57-1.6,37.37,37.37,0,0,0-3.74-20.1c-.66.29-1.32.57-2,.83a2,2,0,0,1-2.16-.44l-.67-.67a27.63,27.63,0,0,1-3.58,4.35c-5.9,5.91-15.66,5.35-16.07,5.33A2,2,0,0,1,21.14,72.63Zm12-18a22.89,22.89,0,0,0-4.45,3.5c-3.24,3.24-4,8.25-4.14,11.1,2.85-.16,7.88-.91,11.11-4.14a23.22,23.22,0,0,0,3.49-4.45Zm17.31,7.47a41.63,41.63,0,0,1,4.28,17.31,28.67,28.67,0,0,0,7-24.13A106.68,106.68,0,0,1,50.47,62.07ZM38.52,32A28.67,28.67,0,0,0,14.39,39,41.63,41.63,0,0,1,31.7,43.3,106.68,106.68,0,0,1,38.52,32Zm6.11,28.46.48-.21c1-.47,2.15-1,3.26-1.56A104.86,104.86,0,0,0,60.9,51c1-.71,2-1.44,3.05-2.19A133.51,133.51,0,0,0,78.46,36.39a40,40,0,0,0,8-11.08l-18-18a40.58,40.58,0,0,0-11.08,8A133.51,133.51,0,0,0,44.93,29.82c-.75,1-1.48,2-2.19,3a105.45,105.45,0,0,0-7.63,12.54c-.56,1.09-1.08,2.18-1.55,3.25l-.22.48ZM88.05,21.29A32.34,32.34,0,0,0,89.16,4.62a32.56,32.56,0,0,0-16.68,1.1ZM58,35.82a9.31,9.31,0,1,1,13.16,0A9.31,9.31,0,0,1,58,35.82ZM68.29,25.48a5.32,5.32,0,1,0,0,7.52A5.33,5.33,0,0,0,68.29,25.48Z"/><circle class="cls-4" cx="64.53" cy="29.24" r="5.31"/><path class="cls-4" d="M88.05,21.29A32.34,32.34,0,0,0,89.16,4.62a32.56,32.56,0,0,0-16.68,1.1Z"/><path class="cls-4" d="M50.47,62.07a41.63,41.63,0,0,1,4.28,17.31,28.67,28.67,0,0,0,7-24.13A106.68,106.68,0,0,1,50.47,62.07Z"/><path class="cls-4" d="M38.52,32A28.67,28.67,0,0,0,14.39,39,41.63,41.63,0,0,1,31.7,43.3,106.68,106.68,0,0,1,38.52,32Z"/><path class="cls-4" d="M33.16,54.6a22.89,22.89,0,0,0-4.45,3.5c-3.24,3.24-4,8.25-4.14,11.1,2.85-.16,7.88-.91,11.11-4.14a23.22,23.22,0,0,0,3.49-4.45Z"/></g></g></svg>