<svg xmlns="http://www.w3.org/2000/svg" viewBox="0 0 96.7 96.7"><defs><style>.cls-1{fill:#002531;}.cls-2{fill:#b3e6a6;}.cls-3{fill:#fff;}.cls-4{fill:#b4e6a5;}</style></defs><g id="Layer_2" data-name="Layer 2"><g id="Layer_1-2" data-name="Layer 1"><path class="cls-1" d="M91.71,23.92H21.44a2,2,0,0,0-2,2V75.26a2,2,0,0,0,2,2H91.71a2,2,0,0,0,2-2V25.92A2,2,0,0,0,91.71,23.92ZM23.44,73.26V27.92H89.71V73.26Z"/><path class="cls-1" d="M94.7,6H16V2a2,2,0,0,0-2-2H8A2,2,0,0,0,6,2V6H2A2,2,0,0,0,0,8v6a2,2,0,0,0,2,2H6V94.7a2,2,0,0,0,2,2h6a2,2,0,0,0,2-2V16H28.41v4a2,2,0,0,0,4,0V16H79.24v4a2,2,0,0,0,4,0V16H94.7a2,2,0,0,0,2-2V8A2,2,0,0,0,94.7,6Zm-2,6H14a2,2,0,0,0-2,2V92.7H10V14a2,2,0,0,0-2-2H4V10H8a2,2,0,0,0,2-2V4h2V8a2,2,0,0,0,2,2H92.7Z"/><path class="cls-2" d="M92.7,12H14a2,2,0,0,0-2,2V92.7H10V14a2,2,0,0,0-2-2H4V10H8a2,2,0,0,0,2-2V4h2V8a2,2,0,0,0,2,2H92.7Z"/><rect class="cls-3" x="23.44" y="27.92" width="66.27" height="45.34"/><polygon class="cls-4" points="53.48 27.92 50.49 27.92 51.17 28.58 51.21 28.54 89.71 64.6 89.71 61.86 53.48 27.92"/><polygon class="cls-4" points="23.44 67.02 29.9 73.26 32.78 73.26 23.44 64.24 23.44 67.02"/><polygon class="cls-4" points="23.44 52.53 28.51 57.43 28.46 57.49 44.78 73.26 47.78 73.26 23.44 49.75 23.44 52.53"/><polygon class="cls-4" points="57.4 69.64 23.44 36.85 23.44 39.63 33.81 49.64 33.79 49.66 58.24 73.26 61.12 73.26 57.38 69.66 57.4 69.64"/><polygon class="cls-4" points="65.74 64.69 27.67 27.92 24.79 27.92 40.64 43.23 40.62 43.24 71.71 73.26 74.59 73.26 65.73 64.7 65.74 64.69"/><polygon class="cls-4" points="89.71 36 80.94 27.92 77.99 27.92 89.71 38.72 89.71 36"/><polygon class="cls-4" points="38.12 27.92 85.07 73.26 87.95 73.26 41 27.92 38.12 27.92"/><polygon class="cls-4" points="89.71 49.08 67.04 27.92 64.11 27.92 89.71 51.82 89.71 49.08"/><path class="cls-1" d="M44.81,37.91v2.32h3.6a.36.36,0,0,1,.4.4V42.3a.36.36,0,0,1-.4.4h-3.6v3.55a.36.36,0,0,1-.4.4H42.65a.36.36,0,0,1-.4-.4V35.85a.36.36,0,0,1,.4-.4h5.84a.36.36,0,0,1,.4.4v1.66a.36.36,0,0,1-.4.4Zm5,3.14a5.83,5.83,0,1,1,5.83,5.83A5.78,5.78,0,0,1,49.85,41.05Zm9.09,0a3.27,3.27,0,1,0-3.26,3.33A3.19,3.19,0,0,0,58.94,41.05Zm12.82,5.6H69.71a.56.56,0,0,1-.5-.24L66.49,43h-1v3.28a.36.36,0,0,1-.4.4H63.34a.36.36,0,0,1-.4-.4V35.85a.36.36,0,0,1,.4-.4h3.92a3.83,3.83,0,0,1,3.84,3.84,3.71,3.71,0,0,1-2,3.21L72,46.16C72.21,46.41,72.09,46.65,71.76,46.65ZM65.5,40.73h1.76a1.45,1.45,0,0,0,0-2.88H65.5ZM33.21,61.38a.5.5,0,0,1,.55-.57h2.42c.33,0,.51.18.57.53.18.79.84,1.19,2.14,1.19s1.89-.55,1.89-1.19c0-.9-1.1-1.3-2.44-1.76-2.18-.75-4.93-1.65-4.93-5,0-3.08,2.51-4.62,5.13-4.62s5,1.39,5.3,4.58a.5.5,0,0,1-.55.57H40.87c-.33,0-.51-.17-.57-.53-.18-.81-.75-1.18-1.76-1.18s-1.61.54-1.61,1.18c0,.93.9,1.37,2.18,1.83,2.2.77,5.19,1.56,5.19,5,0,3.08-2.46,4.62-5.41,4.62S33.48,64.57,33.21,61.38Zm25.17,4.27h-2.7a.58.58,0,0,1-.62-.46l-.58-2h-5.4l-.58,2a.57.57,0,0,1-.61.46H45.18c-.4,0-.59-.22-.46-.61l4.66-14.33a.62.62,0,0,1,.64-.46h3.52a.62.62,0,0,1,.64.46L58.84,65C59,65.43,58.78,65.65,58.38,65.65ZM53.5,59.93,51.78,54.1l-1.72,5.83Zm15.66,2.88V65.1a.5.5,0,0,1-.55.55h-7.7a.5.5,0,0,1-.55-.55V50.8a.5.5,0,0,1,.55-.55h2.42a.5.5,0,0,1,.55.55V62.26h4.73A.5.5,0,0,1,69.16,62.81Zm10.78,0V65.1a.5.5,0,0,1-.55.55H71.25a.5.5,0,0,1-.55-.55V50.8a.5.5,0,0,1,.55-.55h8a.5.5,0,0,1,.55.55v2.29a.5.5,0,0,1-.55.55H74.22v2.57h4.51a.5.5,0,0,1,.55.55V59a.5.5,0,0,1-.55.55H74.22v2.75h5.17A.5.5,0,0,1,79.94,62.81Z"/></g></g></svg>