<svg xmlns="http://www.w3.org/2000/svg" viewBox="0 0 99.52 80.63"><defs><style>.cls-1{fill:#002531;}.cls-2{fill:#9ccd9a;}.cls-3{fill:#fff;}</style></defs><g id="Layer_2" data-name="Layer 2"><g id="Layer_1-2" data-name="Layer 1"><path class="cls-1" d="M73.93,80.63H25.59A2,2,0,0,1,24,79.88a2,2,0,0,1-.38-1.68,12.08,12.08,0,0,1,2-4.53,9.14,9.14,0,0,1,7.49-3.4H45V20.73a7.55,7.55,0,0,1-2.56-3.9H21.17L32.76,41.09h1.29a2,2,0,0,1,2,2c0,3.42-2,6.57-5.62,8.87A23.32,23.32,0,0,1,18,55.25,23.32,23.32,0,0,1,5.62,52C2,49.65,0,46.5,0,43.08a2,2,0,0,1,2-2H3.27l11.6-24.26H12.66a2,2,0,0,1,0-4H42.47A7.55,7.55,0,0,1,45,9V4.73a4.73,4.73,0,0,1,9.46,0V9a7.57,7.57,0,0,1,2.57,3.9h29.8a2,2,0,0,1,0,4h-2.2L96.25,41.09h1.29a2,2,0,0,1,2,2c0,3.42-2,6.57-5.61,8.87a23.36,23.36,0,0,1-12.41,3.3A23.35,23.35,0,0,1,69.1,52c-3.62-2.3-5.61-5.45-5.61-8.87a2,2,0,0,1,2-2h1.29L78.35,16.83H57.06a7.57,7.57,0,0,1-2.57,3.9V70.27H66.35a9.14,9.14,0,0,1,7.49,3.4,12,12,0,0,1,2,4.53,2,2,0,0,1-1.94,2.43Zm-45.45-4H71c-.13-.23-.28-.45-.44-.69h0a5.36,5.36,0,0,0-4.25-1.72H33.17A5.34,5.34,0,0,0,28.93,76C28.76,76.2,28.62,76.42,28.48,76.65ZM49,70.27h1.51V22.36a7.62,7.62,0,0,1-1.51,0ZM67.9,45.06a8.51,8.51,0,0,0,3.34,3.54A19.39,19.39,0,0,0,81.5,51.27,19.47,19.47,0,0,0,91.78,48.6h0a8.54,8.54,0,0,0,3.33-3.54Zm-63.49,0A8.51,8.51,0,0,0,7.75,48.6,19.41,19.41,0,0,0,18,51.27,19.41,19.41,0,0,0,28.29,48.6h0a8.48,8.48,0,0,0,3.33-3.54Zm66.76-4H91.84L81.5,19.45Zm-63.49,0H28.36L18,19.45ZM49.76,11.25h-.21l-.22,0-.24,0c-.16,0-.3.07-.44.11l-.21.08-.23.1L48,11.7A3.58,3.58,0,0,0,48,18l.16.09.21.09.21.08a2.42,2.42,0,0,0,.46.12l.21,0,.22,0a4.16,4.16,0,0,0,.48,0l.22,0,.24,0a2.83,2.83,0,0,0,.44-.12l.2-.07.24-.1.18-.1a3.57,3.57,0,0,0,0-6.26l-.16-.09-.22-.1-.21-.08-.46-.12-.2,0-.22,0Zm0-4h.38l.37,0h0V4.73a.76.76,0,0,0-1.51,0V7.32h0l.37,0Z"/><path class="cls-2" d="M67.9,45.06a8.51,8.51,0,0,0,3.34,3.54A19.39,19.39,0,0,0,81.5,51.27,19.47,19.47,0,0,0,91.78,48.6h0a8.54,8.54,0,0,0,3.33-3.54Z"/><path class="cls-2" d="M4.41,45.06A8.51,8.51,0,0,0,7.75,48.6,19.41,19.41,0,0,0,18,51.27,19.41,19.41,0,0,0,28.29,48.6h0a8.48,8.48,0,0,0,3.33-3.54Z"/><path class="cls-2" d="M28.48,76.65H71c-.13-.23-.28-.45-.44-.69h0a5.36,5.36,0,0,0-4.25-1.72H33.17A5.34,5.34,0,0,0,28.93,76C28.76,76.2,28.62,76.42,28.48,76.65Z"/><path class="cls-3" d="M49,70.27h1.51V22.36a7.62,7.62,0,0,1-1.51,0Z"/><path class="cls-2" d="M49.76,11.25h-.21l-.22,0-.24,0c-.16,0-.3.07-.44.11l-.21.08-.23.1L48,11.7A3.58,3.58,0,0,0,48,18l.16.09.21.09.21.08a2.42,2.42,0,0,0,.46.12l.21,0,.22,0a4.16,4.16,0,0,0,.48,0l.22,0,.24,0a2.83,2.83,0,0,0,.44-.12l.2-.07.24-.1.18-.1a3.57,3.57,0,0,0,0-6.26l-.16-.09-.22-.1-.21-.08-.46-.12-.2,0-.22,0Z"/><path class="cls-3" d="M49.76,7.28h.38l.37,0h0V4.73a.76.76,0,0,0-1.51,0V7.32h0l.37,0Z"/></g></g></svg>