<svg xmlns="http://www.w3.org/2000/svg" viewBox="0 0 96.86 64.77"><defs><style>.cls-1{fill:#032530;}.cls-2{fill:#fff;}.cls-3{fill:#b4e6a5;}</style></defs><g id="Layer_2" data-name="Layer 2"><g id="Layer_1-2" data-name="Layer 1"><path class="cls-1" d="M96.86,2.17s0,0,0,0a2.1,2.1,0,0,0,0-.5.14.14,0,0,1,0-.07,2.5,2.5,0,0,0-.16-.43s0-.05,0-.07l0-.08,0,0s0,0,0,0a.21.21,0,0,1,0-.06l0,0A1.8,1.8,0,0,0,96,.38l0,0A1.74,1.74,0,0,0,95.48.1l0,0h0l-.1,0h-.11L95,0h-.18l-.24,0h-.11L1.6,19.23A2,2,0,0,0,1.07,23L27.5,36.89l4.62,25.68a2,2,0,0,0,.77,1.8,2.11,2.11,0,0,0,.82.34l.32.05h.16a2,2,0,0,0,1.37-.58L53.05,52.53,71.38,64.44a2,2,0,0,0,1.09.33,2.24,2.24,0,0,0,.63-.1,2,2,0,0,0,1.25-1.21L96.73,2.71a1.59,1.59,0,0,0,.07-.2.17.17,0,0,1,0-.07l0-.16A.52.52,0,0,1,96.86,2.17ZM39.3,40.36l-.12.12a1.45,1.45,0,0,0-.18.17.64.64,0,0,0-.1.13l-.08.1-.09.15a1.45,1.45,0,0,0-.09.22.84.84,0,0,0-.06.14h0l0,.1L34.66,54.11,31.52,36.68,73.66,15.1ZM80.82,6.94,29.3,33.32,7.86,22Zm-43.07,51L41.63,45.1l7.77,5.06Zm33.71,1.8L44,41.87,73.23,20.38,90.69,7.55Z"/><path class="cls-2" d="M39.3,40.36l-.12.12a1.45,1.45,0,0,0-.18.17.64.64,0,0,0-.1.13l-.08.1-.09.15a1.45,1.45,0,0,0-.09.22.84.84,0,0,0-.06.14h0l0,.1L34.66,54.11,31.52,36.68,73.66,15.1Z"/><polygon class="cls-2" points="37.75 57.92 41.63 45.1 49.4 50.16 37.75 57.92"/><path class="cls-3" d="M80.82,6.94,29.3,33.32,7.86,22ZM71.46,59.73,44,41.87,73.23,20.38,90.69,7.55Z"/><path class="cls-3" d="M67.45,18.28l.84.77-1.65,1.21-1.09-1Zm-10.9,5.59L58.84,26l1.64-1.2-2-1.9Zm-8.79,4.5,3.46,3.23,1.64-1.2-3.21-3ZM34.65,54.05l0,0,.67-2.16L34,50.65Zm4.7-21.38L43.85,37l1.64-1.2-4.26-4.11Zm-7.83,4,.29,1.62L37.76,44l.67-2.17-5.91-5.7Z"/></g></g></svg>