<svg xmlns="http://www.w3.org/2000/svg" viewBox="0 0 98.75 62.75"><defs><style>.cls-1{fill:#fff;}.cls-2{fill:#b4e6a5;}.cls-3{fill:#00313c;}</style></defs><g id="Layer_2" data-name="Layer 2"><g id="Layer_1-2" data-name="Layer 1"><path class="cls-1" d="M20.79,3.32H78a8.79,8.79,0,0,1,8.78,8.78v5.13a10.35,10.35,0,0,0-8.69,10.2V35H20.69V27.43A10.35,10.35,0,0,0,12,17.23V12.1A8.79,8.79,0,0,1,20.79,3.32Z"/><path class="cls-2" d="M91.94,33.47a1.69,1.69,0,0,0-.82,1.46V48.44H7.62V35.06a1.65,1.65,0,0,0-.81-1.59,7,7,0,1,1,10.57-6v9.19A1.65,1.65,0,0,0,19,38.27H79.71a1.65,1.65,0,0,0,1.66-1.65V27.43a7,7,0,1,1,10.57,6ZM59.13,10.05,58,11.18,56.66,9.84l-1.35,1.34-1.13-1.13,1.34-1.34L54.18,7.37l1.13-1.14,1.35,1.35L58,6.23l1.13,1.13L57.79,8.71ZM75.78,29.37l1.34,1.34-1.34,1.34,1.13,1.13L78.05,32V29.37l-1.14-1.14ZM50.59,19.71l1.34-1.35L50.8,17.23l-1.34,1.35-1.35-1.35L47,18.37l1.34,1.34L47,21.05l1.13,1.13,1.35-1.34,1.34,1.34,1.13-1.13Zm5,8.52-1.34,1.35-1.35-1.35-1.13,1.14,1.34,1.34-1.34,1.34,1.13,1.13,1.35-1.34,1.34,1.34,1.13-1.13-1.34-1.34,1.34-1.35Zm12,0-1.34,1.35-1.35-1.35-1.13,1.14,1.34,1.34-1.34,1.34,1.13,1.13,1.35-1.34,1.34,1.34,1.13-1.13-1.34-1.34,1.34-1.35ZM82,6.23,80.66,7.58,79.31,6.23,78.18,7.37l1.34,1.34-1.34,1.34,1.13,1.13,1.35-1.34L82,11.18l1.13-1.13L81.79,8.71l1.34-1.35ZM69.79,8.71l1.34-1.35L70,6.23,68.66,7.58,67.31,6.23,66.18,7.37l1.34,1.34-1.34,1.34,1.13,1.13,1.35-1.34L70,11.18l1.13-1.13Zm5,8.52-1.34,1.35-1.35-1.35L71,18.37l1.34,1.34L71,21.05l1.13,1.13,1.35-1.34,1.34,1.34,1.13-1.13-1.34-1.34,1.34-1.35ZM62.59,19.71l1.34-1.35L62.8,17.23l-1.34,1.35-1.35-1.35L59,18.37l1.34,1.34L59,21.05l1.13,1.13,1.35-1.34,1.34,1.34,1.13-1.13Zm-36,0,1.34-1.35L26.8,17.23l-1.34,1.35-1.35-1.35L23,18.37l1.34,1.34L23,21.05l1.13,1.13,1.35-1.34,1.34,1.34,1.13-1.13ZM21.81,6.23,20.46,7.58,19.12,6.23,18,7.37l1.34,1.34L18,10.05l1.13,1.13,1.34-1.34,1.35,1.34,1.13-1.13L21.6,8.71l1.34-1.35Zm24,2.48,1.34-1.35L46,6.23,44.66,7.58,43.31,6.23,42.18,7.37l1.34,1.34-1.34,1.34,1.13,1.13,1.35-1.34L46,11.18l1.13-1.13ZM31.6,28.23l-1.34,1.35-1.35-1.35-1.13,1.14,1.34,1.34-1.34,1.34,1.13,1.13,1.35-1.34,1.34,1.34,1.13-1.13-1.34-1.34,1.34-1.35Zm12,0-1.34,1.35-1.35-1.35-1.13,1.14,1.34,1.34-1.34,1.34,1.13,1.13,1.35-1.34,1.34,1.34,1.13-1.13-1.34-1.34,1.34-1.35ZM33.79,8.71l1.34-1.35L34,6.23,32.66,7.58,31.31,6.23,30.18,7.37l1.34,1.34-1.34,1.34,1.13,1.13,1.35-1.34L34,11.18l1.13-1.13Zm4.8,11,1.34-1.35L38.8,17.23l-1.34,1.35-1.35-1.35L35,18.37l1.34,1.34L35,21.05l1.13,1.13,1.35-1.34,1.34,1.34,1.13-1.13Z"/><path class="cls-3" d="M98.75,27.43a10.36,10.36,0,0,0-8.69-10.2V12.1A12.12,12.12,0,0,0,78,0H20.79A12.12,12.12,0,0,0,8.69,12.1v5.13A10.35,10.35,0,0,0,0,27.43a10.2,10.2,0,0,0,4.31,8.36V50.1A1.66,1.66,0,0,0,6,51.76H8.09v9.33a1.66,1.66,0,0,0,1.66,1.66h5.59A1.64,1.64,0,0,0,16.7,62l7.1-10.27H75L82,62a1.66,1.66,0,0,0,1.36.72H89a1.67,1.67,0,0,0,1.66-1.66V51.76h2.12a1.66,1.66,0,0,0,1.66-1.66V35.8A10.23,10.23,0,0,0,98.75,27.43Zm-78-24.11H78a8.79,8.79,0,0,1,8.78,8.78v5.13a10.35,10.35,0,0,0-8.69,10.2V35H20.69V27.43A10.35,10.35,0,0,0,12,17.23V12.1A8.79,8.79,0,0,1,20.79,3.32ZM14.47,59.43H11.41V51.76h8.36Zm72.87,0H84.27L79,51.76h8.37Zm4.6-26a1.69,1.69,0,0,0-.82,1.46V48.44H7.62V35.06a1.65,1.65,0,0,0-.81-1.59,7,7,0,1,1,10.57-6v9.19A1.65,1.65,0,0,0,19,38.27H79.71a1.65,1.65,0,0,0,1.66-1.65V27.43a7,7,0,1,1,10.57,6Z"/></g></g></svg>