<svg xmlns="http://www.w3.org/2000/svg" viewBox="0 0 96.7 96.7"><defs><style>.cls-1{fill:#002531;}.cls-2{fill:#b3e6a6;}.cls-3{fill:#fff;}.cls-4{fill:#b4e6a5;}</style></defs><g id="Layer_2" data-name="Layer 2"><g id="Layer_1-2" data-name="Layer 1"><path class="cls-1" d="M91.71,23.92H21.44a2,2,0,0,0-2,2V75.26a2,2,0,0,0,2,2H91.71a2,2,0,0,0,2-2V25.92A2,2,0,0,0,91.71,23.92ZM23.44,73.26V27.92H89.71V73.26Z"/><path class="cls-1" d="M94.7,6H16V2a2,2,0,0,0-2-2H8A2,2,0,0,0,6,2V6H2A2,2,0,0,0,0,8v6a2,2,0,0,0,2,2H6V94.7a2,2,0,0,0,2,2h6a2,2,0,0,0,2-2V16H28.41v4a2,2,0,0,0,4,0V16H79.24v4a2,2,0,0,0,4,0V16H94.7a2,2,0,0,0,2-2V8A2,2,0,0,0,94.7,6Zm-2,6H14a2,2,0,0,0-2,2V92.7H10V14a2,2,0,0,0-2-2H4V10H8a2,2,0,0,0,2-2V4h2V8a2,2,0,0,0,2,2H92.7Z"/><path class="cls-2" d="M92.7,12H14a2,2,0,0,0-2,2V92.7H10V14a2,2,0,0,0-2-2H4V10H8a2,2,0,0,0,2-2V4h2V8a2,2,0,0,0,2,2H92.7Z"/><rect class="cls-3" x="23.44" y="27.92" width="66.27" height="45.34"/><polygon class="cls-4" points="53.48 27.92 50.49 27.92 51.17 28.58 51.21 28.54 89.71 64.6 89.71 61.86 53.48 27.92"/><polygon class="cls-4" points="23.44 67.02 29.9 73.26 32.78 73.26 23.44 64.24 23.44 67.02"/><polygon class="cls-4" points="23.44 52.53 28.51 57.43 28.46 57.49 44.78 73.26 47.78 73.26 23.44 49.75 23.44 52.53"/><polygon class="cls-4" points="57.4 69.64 23.44 36.85 23.44 39.63 33.81 49.64 33.79 49.66 58.24 73.26 61.12 73.26 57.38 69.66 57.4 69.64"/><polygon class="cls-4" points="65.74 64.69 27.67 27.92 24.79 27.92 40.64 43.23 40.62 43.24 71.71 73.26 74.59 73.26 65.73 64.7 65.74 64.69"/><polygon class="cls-4" points="89.71 36 80.94 27.92 77.99 27.92 89.71 38.72 89.71 36"/><polygon class="cls-4" points="38.12 27.92 85.07 73.26 87.95 73.26 41 27.92 38.12 27.92"/><polygon class="cls-4" points="89.71 49.08 67.04 27.92 64.11 27.92 89.71 51.82 89.71 49.08"/><path class="cls-1" d="M29.87,54.37a.51.51,0,0,1,.56-.58h2.46c.34,0,.51.18.58.54.18.8.85,1.2,2.17,1.2s1.92-.55,1.92-1.2c0-.92-1.12-1.32-2.48-1.79-2.21-.76-5-1.67-5-5.09,0-3.13,2.54-4.69,5.2-4.69s5.12,1.4,5.38,4.64a.5.5,0,0,1-.55.58H37.65a.54.54,0,0,1-.58-.53c-.18-.83-.76-1.21-1.79-1.21s-1.63.56-1.63,1.21c0,.94.92,1.38,2.21,1.85,2.23.78,5.27,1.59,5.27,5,0,3.13-2.5,4.69-5.49,4.69S30.14,57.61,29.87,54.37Zm12.27-3.48A8.13,8.13,0,1,1,50.27,59,8.06,8.06,0,0,1,42.14,50.89Zm12.69,0a4.56,4.56,0,1,0-4.56,4.64A4.45,4.45,0,0,0,54.83,50.89Zm14.52,4.93v2.33a.51.51,0,0,1-.56.56H61a.51.51,0,0,1-.55-.56V43.63a.5.5,0,0,1,.55-.56h2.46a.51.51,0,0,1,.56.56V55.27h4.8A.5.5,0,0,1,69.35,55.82Zm15.86-4.93a7.57,7.57,0,0,1-7.59,7.82H71.48a.51.51,0,0,1-.56-.56V43.63a.51.51,0,0,1,.56-.56h6.14A7.57,7.57,0,0,1,85.21,50.89Zm-3.44,0a4,4,0,0,0-4.15-4.38H74.49v8.76h3.13A4,4,0,0,0,81.77,50.89Z"/></g></g></svg>