<svg xmlns="http://www.w3.org/2000/svg" viewBox="0 0 97.16 92.95"><defs><style>.cls-1{fill:#fff;}.cls-2{fill:#b4e6a5;}.cls-3{fill:#00313c;}</style></defs><g id="Layer_2" data-name="Layer 2"><g id="Layer_1-2" data-name="Layer 1"><path class="cls-1" d="M48.58,4A1.49,1.49,0,0,1,50,5L59.5,34.26a1.5,1.5,0,0,0,1.43,1H91.66A1.5,1.5,0,0,1,92.54,38L67.68,56.08a1.5,1.5,0,0,0-.54,1.67L76.63,87a1.5,1.5,0,0,1-1.43,2,1.46,1.46,0,0,1-.88-.3L49.46,70.59a1.52,1.52,0,0,0-1.76,0L22.84,88.65A1.44,1.44,0,0,1,22,89a1.5,1.5,0,0,1-1.43-2L30,57.75a1.49,1.49,0,0,0-.55-1.67L4.62,38A1.5,1.5,0,0,1,5.5,35.3H36.23a1.5,1.5,0,0,0,1.43-1L47.15,5a1.49,1.49,0,0,1,1.43-1"/><path class="cls-2" d="M48.58,4a1.49,1.49,0,0,0-1.43,1L37.66,34.26a1.5,1.5,0,0,1-1.43,1H5.5A1.5,1.5,0,0,0,4.62,38L29.48,56.08A1.49,1.49,0,0,1,30,57.75L20.53,87A1.5,1.5,0,0,0,22,89a1.44,1.44,0,0,0,.88-.3L47.7,70.59a1.49,1.49,0,0,1,.88-.28Z"/><path class="cls-2" d="M50.47,33l-1.35,1.34,1.35,1.35L49.34,36.8,48.58,36V32.6l.76-.75Zm-24,35.59h0L27,67.15Zm15.4-47.38-.49,1.49h0ZM40.8,24.58l0,.13h0Zm7.78-12.94.68.68-.68.68v1.33l.47.47,1.34-1.34,1.35,1.34,1.09-1.09,0-.12-1.27-1.27.65-.64L51.61,10l-1.22,1.22L49.05,9.85l-.47.47Zm18.54,46h0Zm-29.66-23h0l-.11.12Zm16.6-11.34-1.34,1.35,1.13,1.13,1.34-1.34,1.35,1.34.16-.17L55.49,21.9l-.3.29-1.34-1.34L52.72,22ZM68,55.85l1.31-1-1-1L67.12,55ZM63.66,45.32l-1.34,1.35,1.13,1.13,1.34-1.34,1.35,1.34,1.13-1.13-1.35-1.35L67.27,44l-1.13-1.13-1.35,1.34-1.34-1.34L62.32,44Zm-5-8.52L60,35.46l1.35,1.34,1.13-1.13-.37-.37H60.93a1.5,1.5,0,0,1-1.43-1L58.75,32l-.1-.1L57.52,33l1.34,1.34-1.34,1.35Zm-22-1.57.14,0ZM68.54,75.85l-1.35,1.34-1.34-1.34L64.72,77l1.34,1.34-1.34,1.35,1.13,1.13,1.34-1.34,1.35,1.34,1.13-1.13-1.35-1.35L69.67,77Zm5.93-40.18-.37-.37H69.89l-.37.37,1.13,1.13L72,35.46l1.35,1.34ZM72.71,87.48l1.31,1,.45-.45-1.13-1.13ZM37,35.06l.14-.1Zm41.11,7.79-1.35,1.34-1.34-1.34L74.32,44l1.34,1.34-1.34,1.35,1.13,1.13,1.34-1.34,1.35,1.34,1.13-1.13-1.35-1.35L79.27,44Zm8-7.55H81.89l-.37.37,1.13,1.13L84,35.46l1.35,1.34,1.13-1.13ZM22.84,88.65l.93-.68h0ZM63.52,67.32,64.87,66l-1.13-1.13-1.35,1.34-1.34-1.34L59.92,66l1.34,1.34-1.34,1.35,1.13,1.13,1.34-1.34,1.35,1.34,1.13-1.13ZM51.74,64.85l-1.35,1.34-1.34-1.34-.47.47v1.32l.68.68-.68.68v1.33l.47.47,1.34-1.34,1.35,1.34,1.13-1.13-1.35-1.35L52.87,66Zm2.18-19.53L55.27,44l-1.13-1.13-1.35,1.34-1.34-1.34L50.32,44l1.34,1.34-1.34,1.35,1.13,1.13,1.34-1.34,1.35,1.34,1.13-1.13Zm4.8,11L60.07,55l-1.13-1.13-1.35,1.34-1.34-1.34L55.12,55l1.34,1.34-1.34,1.35,1.13,1.13,1.34-1.34,1.35,1.34,1.13-1.13Z"/><path class="cls-3" d="M96.89,35.1a5.49,5.49,0,0,0-5.23-3.8H62.75L53.81,3.8a5.5,5.5,0,0,0-10.46,0L34.42,31.3H5.5a5.5,5.5,0,0,0-3.23,10l23.39,17-8.93,27.5a5.4,5.4,0,0,0,.77,4.92A5.53,5.53,0,0,0,22,93a5.48,5.48,0,0,0,3.23-1.06l23.39-17L72,91.89A5.48,5.48,0,0,0,75.2,93a5.55,5.55,0,0,0,4.47-2.29,5.43,5.43,0,0,0,.77-4.92L71.5,58.24l23.39-17A5.48,5.48,0,0,0,96.89,35.1Zm-74,53.55A1.44,1.44,0,0,1,22,89a1.5,1.5,0,0,1-1.43-2L30,57.75a1.49,1.49,0,0,0-.55-1.67L4.62,38A1.5,1.5,0,0,1,5.5,35.3H36.23a1.5,1.5,0,0,0,1.43-1L46.58,6.8V71.4ZM92.54,38,67.68,56.08a1.5,1.5,0,0,0-.54,1.67L76.63,87a1.5,1.5,0,0,1-1.43,2,1.46,1.46,0,0,1-.88-.3L50.58,71.4V6.8L59.5,34.26a1.5,1.5,0,0,0,1.43,1H91.66A1.5,1.5,0,0,1,92.54,38Z"/></g></g></svg>