<svg xmlns="http://www.w3.org/2000/svg" viewBox="0 0 89.05 99.77"><defs><style>.cls-1{fill:#fff;}.cls-2{fill:#032530;}.cls-3{fill:#b3e6a6;}.cls-4{fill:#b4e6a5;}</style></defs><g id="Layer_2" data-name="Layer 2"><g id="Layer_1-2" data-name="Layer 1"><path class="cls-1" d="M44.53,23.39A31.85,31.85,0,1,0,76.38,55.24,31.89,31.89,0,0,0,44.53,23.39Z"/><path class="cls-2" d="M44.53,19.57A35.68,35.68,0,1,0,80.2,55.24,35.72,35.72,0,0,0,44.53,19.57Zm0,67.52A31.85,31.85,0,1,1,76.38,55.24,31.88,31.88,0,0,1,44.53,87.09Z"/><path class="cls-2" d="M53.7,11.67V0H35.36V11.67a44.52,44.52,0,1,0,18.34,0ZM39.36,4H49.7V9.4H39.36Zm5.17,92a40.71,40.71,0,1,1,40.7-40.71A40.74,40.74,0,0,1,44.53,96Z"/><rect class="cls-3" x="39.36" y="4" width="10.34" height="5.4"/><path class="cls-4" d="M44.53,14.54a40.71,40.71,0,1,0,40.7,40.7A40.74,40.74,0,0,0,44.53,14.54Zm0,76.38A35.68,35.68,0,1,1,80.2,55.24,35.73,35.73,0,0,1,44.53,90.92Z"/><path class="cls-4" d="M69.13,75.44c-.4.5-.83,1-1.26,1.44L22.08,32.67c.46-.45.93-.88,1.4-1.3ZM17.7,38.12c-.36.55-.69,1.11-1,1.68L60.94,82.53c.56-.34,1.11-.7,1.64-1.07Zm-3.88,8.69c-.2.71-.37,1.43-.52,2.16L51.88,86.23c.73-.18,1.45-.37,2.15-.59ZM39.5,86.69c1,.16,2,.28,3.1.34L12.83,58.28c.09,1,.25,2.07.44,3.09ZM53.93,24.81a32.22,32.22,0,0,0-3.82-.92L75.32,47.12a31.86,31.86,0,0,0-1.25-3.76ZM39.78,23.75c-.79.12-1.56.27-2.33.45L76,60.17c.13-.78.21-1.57.27-2.36Zm-9.61,3.08c-.6.3-1.19.62-1.76,1L73,69.54c.3-.59.59-1.2.86-1.82Z"/><path class="cls-2" d="M31.42,65.39a1.9,1.9,0,0,1-1.62-.9,1.92,1.92,0,0,1,.6-2.64l12.21-7.66V35a1.92,1.92,0,1,1,3.83,0V55.24a1.91,1.91,0,0,1-.9,1.62L32.43,65.09A1.86,1.86,0,0,1,31.42,65.39Z"/></g></g></svg>