<svg xmlns="http://www.w3.org/2000/svg" viewBox="0 0 73.44 92.53"><defs><style>.cls-1{fill:#fff;}.cls-2{fill:#b4e6a5;}.cls-3{fill:#032530;}</style></defs><g id="Layer_2" data-name="Layer 2"><g id="Layer_1-2" data-name="Layer 1"><path class="cls-1" d="M53.63,24.54A15.81,15.81,0,1,0,69.44,40.35,15.82,15.82,0,0,0,53.63,24.54Z"/><rect class="cls-2" x="4" y="12.71" width="49.57" height="75.82" rx="3.71"/><path class="cls-3" d="M49.87,8.71h-13a4.1,4.1,0,0,0-1.65-.36h-.1V5.58A5.6,5.6,0,0,0,29.48,0H28.09A5.6,5.6,0,0,0,22.5,5.58V8.35h-.1a4.1,4.1,0,0,0-1.65.36h-13A7.72,7.72,0,0,0,0,16.42V84.83a7.71,7.71,0,0,0,7.71,7.7H49.87a7.71,7.71,0,0,0,7.7-7.7V16.42A7.72,7.72,0,0,0,49.87,8.71Zm3.7,76.12a3.7,3.7,0,0,1-3.7,3.7H7.71A3.71,3.71,0,0,1,4,84.83V16.42a3.72,3.72,0,0,1,3.71-3.71H18.32v.75a4.09,4.09,0,0,0,4.08,4.09H35.17a4.1,4.1,0,0,0,4.09-4.09v-.75H49.87a3.71,3.71,0,0,1,3.7,3.71Z"/><rect class="cls-1" x="18.32" y="25.88" width="32.83" height="3.25" rx="1.45" transform="translate(69.47 55.01) rotate(-180)"/><circle class="cls-1" cx="11.95" cy="27.84" r="3.41"/><rect class="cls-1" x="18.32" y="38.3" width="32.83" height="3.25" rx="1.45" transform="translate(69.47 79.86) rotate(-180)"/><circle class="cls-1" cx="11.95" cy="40.26" r="3.41"/><rect class="cls-1" x="18.32" y="50.73" width="32.83" height="3.25" rx="1.45" transform="translate(69.47 104.71) rotate(-180)"/><circle class="cls-1" cx="11.95" cy="52.69" r="3.41"/><rect class="cls-1" x="18.32" y="63.15" width="32.83" height="3.25" rx="1.45" transform="translate(69.47 129.56) rotate(-180)"/><circle class="cls-1" cx="11.95" cy="65.11" r="3.41"/><rect class="cls-1" x="18.32" y="75.58" width="32.83" height="3.25" rx="1.45" transform="translate(69.47 154.41) rotate(-180)"/><circle class="cls-1" cx="11.95" cy="77.54" r="3.41"/><path class="cls-3" d="M53.63,60.16A19.81,19.81,0,1,1,73.44,40.35,19.83,19.83,0,0,1,53.63,60.16Zm0-35.62A15.81,15.81,0,1,0,69.44,40.35,15.82,15.82,0,0,0,53.63,24.54Z"/><path class="cls-1" d="M53.63,24.54A15.81,15.81,0,1,0,69.44,40.35,15.82,15.82,0,0,0,53.63,24.54Z"/><path class="cls-2" d="M65.77,44.44a2,2,0,1,1-2.83,0A2,2,0,0,1,65.77,44.44ZM62.88,27.55a2,2,0,0,0,2.89,2.75l0,0A16,16,0,0,0,62.88,27.55ZM54.46,36a2,2,0,1,0,2.83,0A2,2,0,0,0,54.46,36Zm2.83,17a2,2,0,0,0-2.83,2.83,1.94,1.94,0,0,0,.47.34,15.48,15.48,0,0,0,2.39-.39A2,2,0,0,0,57.29,52.93Zm-17-14.14a2,2,0,0,0-1.7-3.39,15.5,15.5,0,0,0-.74,3.68A2,2,0,0,0,40.32,38.79Zm8.48,8.48a2,2,0,1,0-2.83,0A2,2,0,0,0,48.8,47.27ZM46,27.47a2,2,0,1,0,2.83,0A2,2,0,0,0,46,27.47Z"/><path class="cls-3" d="M61.18,35.09a1.76,1.76,0,0,0-2.46,0L52,41.85l-2.22-2.21a1.74,1.74,0,0,0-2.46,2.45l3.52,3.52a1.74,1.74,0,0,0,2.46,0,1.44,1.44,0,0,0,.27-.42l7.65-7.64A1.76,1.76,0,0,0,61.18,35.09Z"/></g></g></svg>