<svg xmlns="http://www.w3.org/2000/svg" viewBox="0 0 73.11 97.3"><defs><style>.cls-1{fill:#00313c;}.cls-2{fill:#b4e6a5;}.cls-3{fill:#fff;}</style></defs><g id="Layer_2" data-name="Layer 2"><g id="Layer_1-2" data-name="Layer 1"><path class="cls-1" d="M72.51,17.34,62.68,1.79A3.82,3.82,0,0,0,60.25.09a3.76,3.76,0,0,0-2.9.54L49,6.1a3.88,3.88,0,0,0-1.51,4.57l-27.54,18a2.39,2.39,0,0,0-.7,3.26l.83,1.32-10.75,7a3.56,3.56,0,0,0-2-1.22,4.72,4.72,0,0,0-3.55.73l-1.54,1C.12,42.19-.6,44.68.54,46.5l6.17,9.76A3.57,3.57,0,0,0,9,57.83a4.77,4.77,0,0,0,3.56-.73l1.54-1a4.28,4.28,0,0,0,1.82-5.35l10.75-7L27.47,45a2.35,2.35,0,0,0,3.29.71L37,41.58v6H29.8a2.2,2.2,0,0,0-2.24,2.17v6.41a2.2,2.2,0,0,0,2.24,2.17h1.29L15.26,87.26a2,2,0,0,0,3.51,1.92L35.65,58.35H37V95.3a2,2,0,0,0,4,0V58.35h1.37L59.27,89.18a2,2,0,0,0,1.76,1A2.05,2.05,0,0,0,62,90a2,2,0,0,0,1-1.19,2,2,0,0,0-.17-1.52L47,58.35h1.3a2.2,2.2,0,0,0,2.23-2.17V49.77a2.2,2.2,0,0,0-2.23-2.17H41V39L58.25,27.68a3.79,3.79,0,0,0,1.85,1,3.86,3.86,0,0,0,2.9-.54l8.37-5.48A3.9,3.9,0,0,0,72.51,17.34Zm-60.26,35a1,1,0,0,1-.35.37l-1.54,1a1,1,0,0,1-.4.16L4,44.57a1,1,0,0,1,.36-.39l1.54-1A1.7,1.7,0,0,1,6.32,43Zm56.82-33L61,24.68,51.28,9.38l8.16-5.22ZM35.68,28a2,2,0,0,0-.87,1.26,2,2,0,0,0,2,2.41,2,2,0,0,0,1.1-.32l16-10.46L56,24.36,30,41.43,23.47,31.17,49.53,14.1l2.17,3.44ZM24.53,40.32l-10.72,7-2.32-3.66,10.72-7Zm7,14V51.6H46.48v2.75Z"/><path class="cls-2" d="M12.25,52.37a1,1,0,0,1-.35.37l-1.54,1a1,1,0,0,1-.4.16L4,44.57a1,1,0,0,1,.36-.39l1.54-1A1.7,1.7,0,0,1,6.32,43Z"/><polygon class="cls-3" points="24.53 40.32 13.81 47.34 11.49 43.68 22.21 36.66 24.53 40.32"/><rect class="cls-2" x="31.56" y="51.6" width="14.92" height="2.75"/><path class="cls-2" d="M35.68,28a2,2,0,0,0-.87,1.26,2,2,0,0,0,2,2.41,2,2,0,0,0,1.1-.32l16-10.46L56,24.36,30,41.43,23.47,31.17,49.53,14.1l2.17,3.44Z"/><polygon class="cls-3" points="69.08 19.39 60.95 24.68 51.28 9.38 59.45 4.16 69.08 19.39"/></g></g></svg>