<svg xmlns="http://www.w3.org/2000/svg" viewBox="0 0 90.07 95.77"><defs><style>.cls-1{fill:#032530;}.cls-2{fill:#fff;}.cls-3{fill:#b4e6a5;}</style></defs><g id="Layer_2" data-name="Layer 2"><g id="Layer_1-2" data-name="Layer 1"><path class="cls-1" d="M63.33,95.77c-7.12,0-14.29-1-21.23-2.07C37.54,93,32.83,92.33,28.23,92s-7.41-1.13-9.4-2.57A4.52,4.52,0,0,1,14.41,93H4.53A4.53,4.53,0,0,1,0,88.47V49.57A4.53,4.53,0,0,1,4.53,45h9.88a4.55,4.55,0,0,1,2.51.76,31.47,31.47,0,0,1,5.65-6.2c1.23-1.11,2.46-2.2,3.65-3.25,8-7.08,14.88-13.2,19.13-23.31A22.87,22.87,0,0,0,46.43,9a16.91,16.91,0,0,1,2.06-6.12C50,.64,52.31-.29,55.42.08c2.87.34,5.29,2.16,7,5.28a21.35,21.35,0,0,1,2.33,8.15c.46,5.35-1.21,12.24-4.24,17.56-.59,1-1.33,2.08-2,3.1a29.41,29.41,0,0,0-2.17,3.39,2.75,2.75,0,0,0-.41,1.26,5.21,5.21,0,0,0,2.34.49,48.92,48.92,0,0,0,7.16-.46c4.67-.49,10-1.05,14.48-.37,5.85.87,9.23,3.69,10.07,8.37.6,3.35-.83,5.77-2.21,8.12h0a4.09,4.09,0,0,0-.6,1.32,3.74,3.74,0,0,0,.16.44A8.7,8.7,0,0,1,87.92,61a8.32,8.32,0,0,1-2.42,5.36A7.06,7.06,0,0,0,84.3,68c-.2.46-.08,1,.22,2.17A9.45,9.45,0,0,1,85,74.08a7.94,7.94,0,0,1-3.19,5.42,6.76,6.76,0,0,0-1.54,1.64c-.28.45-.19,1.14,0,2.23a9.11,9.11,0,0,1-.12,4.5c-1.13,3.35-3.65,5.66-7.5,6.85A31.32,31.32,0,0,1,63.33,95.77ZM54.09,4c-2.26,0-2.86,1.3-3.76,5.78A25.72,25.72,0,0,1,49,14.58,49.11,49.11,0,0,1,40.2,28.42a127.78,127.78,0,0,1-11.34,10.9l-.18.16c-1.12,1-2.28,2-3.44,3.07C21.72,45.73,19,48.45,19,52c0,4,0,9-.05,13.79V66c0,4.75,0,9.23,0,12.87,0,6.91,1.61,8.44,9.61,9.09,4.74.38,9.51,1.08,14.12,1.76,6.82,1,13.84,2,20.66,2,5.86,0,11.48-.62,13-5.19a5.73,5.73,0,0,0,0-2.6,6.83,6.83,0,0,1,.53-4.92,10.58,10.58,0,0,1,2.35-2.59A4,4,0,0,0,81,73.57a6.42,6.42,0,0,0-.34-2.33,6.77,6.77,0,0,1,0-4.83,10.27,10.27,0,0,1,1.82-2.67,4.43,4.43,0,0,0,1.46-3,4.76,4.76,0,0,0-.37-2.51c-.56-1.41-.84-2.61.71-5.24h0c1.2-2,2.07-3.51,1.73-5.4-1.12-6.25-9.82-5.85-20.22-4.75a50.77,50.77,0,0,1-7.86.47c-3-.21-4.87-1.12-5.66-2.78-1.27-2.65.77-5.55,2.93-8.61.69-1,1.35-1.93,1.84-2.79,2.63-4.59,4.13-10.72,3.74-15.25S58.42,4.44,55,4A6.67,6.67,0,0,0,54.09,4ZM4.53,49a.55.55,0,0,0-.55.55v38.9a.55.55,0,0,0,.55.55h9.88a.55.55,0,0,0,.55-.55V49.57a.55.55,0,0,0-.55-.55Z"/><path class="cls-2" d="M54.09,4c-2.26,0-2.86,1.3-3.76,5.78A25.72,25.72,0,0,1,49,14.58,49.11,49.11,0,0,1,40.2,28.42a127.78,127.78,0,0,1-11.34,10.9l-.18.16c-1.12,1-2.28,2-3.44,3.07C21.72,45.73,19,48.45,19,52c0,4,0,9-.05,13.79V66c0,4.75,0,9.23,0,12.87,0,6.91,1.61,8.44,9.61,9.09,4.74.38,9.51,1.08,14.12,1.76,6.82,1,13.84,2,20.66,2,5.86,0,11.48-.62,13-5.19a5.73,5.73,0,0,0,0-2.6,6.83,6.83,0,0,1,.53-4.92,10.58,10.58,0,0,1,2.35-2.59A4,4,0,0,0,81,73.57a6.42,6.42,0,0,0-.34-2.33,6.77,6.77,0,0,1,0-4.83,10.27,10.27,0,0,1,1.82-2.67,4.43,4.43,0,0,0,1.46-3,4.76,4.76,0,0,0-.37-2.51c-.56-1.41-.84-2.61.71-5.24h0c1.2-2,2.07-3.51,1.73-5.4-1.12-6.25-9.82-5.85-20.22-4.75a50.77,50.77,0,0,1-7.86.47c-3-.21-4.87-1.12-5.66-2.78-1.27-2.65.77-5.55,2.93-8.61.69-1,1.35-1.93,1.84-2.79,2.63-4.59,4.13-10.72,3.74-15.25S58.42,4.44,55,4A6.67,6.67,0,0,0,54.09,4Z"/><rect class="cls-3" x="3.98" y="49.02" width="10.98" height="40" rx="0.55"/><path class="cls-3" d="M42.89,48.44a2,2,0,0,1,0,2.79,2,2,0,0,1-2.81,0,2,2,0,0,1,0-2.79A2,2,0,0,1,42.89,48.44ZM23.19,82a2,2,0,0,0,0,2.8,2,2,0,0,0,2.81,0A2,2,0,0,0,26,82,2,2,0,0,0,23.19,82Zm8.44-8.38a2,2,0,1,0,2.82,0A2,2,0,0,0,31.63,73.58ZM23.19,48.44a2,2,0,0,0,0,2.79,2,2,0,0,0,2.81,0,2,2,0,0,0,0-2.79A2,2,0,0,0,23.19,48.44Zm0,16.76a2,2,0,0,0,0,2.79A2,2,0,0,0,26,68a2,2,0,0,0,0-2.79A2,2,0,0,0,23.19,65.2ZM73.86,82a2,2,0,0,0,0,2.8,2,2,0,0,0,2.58.19c0-.31-.08-.62-.13-1a11.63,11.63,0,0,1-.2-2.42A2,2,0,0,0,73.86,82ZM59.78,17.71a2,2,0,0,0,0-2.8,2,2,0,0,0-2.81,0,2,2,0,0,0,0,2.8A2,2,0,0,0,59.78,17.71ZM31.63,56.82a2,2,0,0,0,0,2.79,2,2,0,0,0,2.82,0,2,2,0,0,0,0-2.79A2,2,0,0,0,31.63,56.82Zm8.45,8.38a2,2,0,0,0,0,2.79,2,2,0,0,0,2.81,0,2,2,0,0,0,0-2.79A2,2,0,0,0,40.08,65.2Zm0,16.76a2,2,0,0,0,0,2.8,2,2,0,0,0,2.81,0,2,2,0,0,0,0-2.8A2,2,0,0,0,40.08,82Zm25.33,8.38a2.05,2.05,0,0,0-.58,1.44,38,38,0,0,0,4-.29,2,2,0,0,0-3.38-1.15ZM40.08,31.68a2,2,0,0,0,0,2.79,2,2,0,0,0,2.81,0,2,2,0,0,0,0-2.79A2,2,0,0,0,40.08,31.68Zm-8.45,8.38a2,2,0,0,0,0,2.79,2,2,0,0,0,2.82,0,2,2,0,0,0,0-2.79A2,2,0,0,0,31.63,40.06Zm19.71-14a2,2,0,0,0,0-2.79,2,2,0,1,0,0,2.79ZM48.52,90.34a2,2,0,0,0-.18.23c1.14.16,2.29.3,3.44.44a2,2,0,0,0-.44-.67A2,2,0,0,0,48.52,90.34ZM65.41,73.58a2,2,0,1,0,2.82,0A2,2,0,0,0,65.41,73.58ZM57,82a2,2,0,0,0,0,2.8,2,2,0,0,0,2.81,0,2,2,0,0,0,0-2.8A2,2,0,0,0,57,82ZM57,65.2A2,2,0,0,0,57,68a2,2,0,0,0,2.81,0,2,2,0,0,0,0-2.79A2,2,0,0,0,57,65.2ZM73.86,48.44a2,2,0,0,0,0,2.79,2,2,0,0,0,2.81,0,2,2,0,0,0,0-2.79A2,2,0,0,0,73.86,48.44Zm-8.45,8.38a2,2,0,0,0,0,2.79,2,2,0,0,0,2.82,0,2,2,0,0,0,0-2.79A2,2,0,0,0,65.41,56.82Zm8.45,8.38a2,2,0,0,0,0,2.79,2,2,0,0,0,2.81,0,2,2,0,0,0,0-2.79A2,2,0,0,0,73.86,65.2ZM57,48.44a2,2,0,0,0,0,2.79,2,2,0,0,0,2.81,0,2,2,0,0,0,0-2.79A2,2,0,0,0,57,48.44Zm-8.45-8.38a2,2,0,0,0,0,2.79,2,2,0,0,0,2.82,0,2,2,0,0,0,0-2.79A2,2,0,0,0,48.52,40.06ZM51.34,6.53l-.18-.14a26.47,26.47,0,0,0-.83,3.36l0,.12a2,2,0,0,0,1-3.34ZM68.23,42.85a1.79,1.79,0,0,0,.25-.31l-2.68.27-.39,0h0A2,2,0,0,0,68.23,42.85Zm-19.71,14a2,2,0,0,0,0,2.79,2,2,0,0,0,2.82,0,2,2,0,0,0,0-2.79A2,2,0,0,0,48.52,56.82Zm0,16.76a2,2,0,1,0,2.82,0A2,2,0,0,0,48.52,73.58Z"/></g></g></svg>