<svg xmlns="http://www.w3.org/2000/svg" viewBox="0 0 66.27 96.26"><defs><style>.cls-1{fill:#fff;}.cls-2{fill:#b3e6a6;}.cls-3{fill:#b4e6a5;}.cls-4{fill:#00313c;}.cls-5{fill:#002531;}</style></defs><g id="Layer_2" data-name="Layer 2"><g id="Layer_1-2" data-name="Layer 1"><path class="cls-1" d="M42.5,41.92c-4.14,1.7-7.41,3-7.41,6.21s3.27,4.51,7.41,6.21c8.12,3.32,19.14,7.84,16.3,25.88H7.48c-2.84-18,8.18-22.56,16.29-25.88,4.15-1.7,7.42-3,7.42-6.21s-3.28-4.51-7.42-6.21C15.66,38.6,4.64,34.08,7.48,16H58.8C61.63,34.08,50.61,38.6,42.5,41.92Z"/><rect class="cls-2" x="3.9" y="4.01" width="58.48" height="8.02"/><rect class="cls-2" x="3.9" y="84.23" width="58.48" height="8.02"/><path class="cls-3" d="M51.42,37.42c-.56.4-1.14.77-1.73,1.12L25.77,16h2.91ZM41.78,16H38.9L56.15,32.71a17.19,17.19,0,0,0,1.05-1.77Zm-28.4,0h-3l29.36,27c.64-.29,1.31-.57,2-.86Zm43.4,0H53.9l5.34,5.17c0-.94-.06-1.92-.16-2.95Zm-47,48.09a15.86,15.86,0,0,0-1,1.83L23.53,80.22h2.88ZM7,74.41c0,.92,0,1.87.1,2.88l3,2.93H13Zm33.17-21c-2.76-1.22-4.78-2.48-5.08-4.68L7.06,22.85a25.26,25.26,0,0,0,.34,3L25.68,42.72C28.73,44,31,45.34,31.16,47.77L59.22,73.61a23,23,0,0,0-.31-3Zm-14.29.07c-.64.28-1.32.56-2,.85L51.66,80.22h2.93ZM16.7,57.65q-.88.51-1.74,1.11L37.87,80.22h2.92Z"/><path class="cls-4" d="M66.27,14V2a2,2,0,0,0-1.94-2H2A2,2,0,0,0,0,2V14a2,2,0,0,0,2,2H3.54C.61,36.74,14.65,42.5,22.33,45.65c2,.8,4.65,1.9,5,2.38-.33.68-3,1.78-5,2.58C14.65,53.76.6,59.52,3.54,80.22H2a2,2,0,0,0-1.95,2v12a2,2,0,0,0,2,2H64.33a2,2,0,0,0,1.94-2v-12a2,2,0,0,0-1.94-2H62.74C65.67,59.52,51.62,53.76,44,50.61c-2-.8-4.65-1.9-5-2.38.33-.68,3-1.78,5-2.58C51.62,42.5,65.67,36.74,62.74,16h1.59A2,2,0,0,0,66.27,14ZM3.9,4H62.38v8H3.9ZM62.38,92.25H3.9v-8H62.38ZM42.5,41.92c-4.14,1.7-7.41,3-7.41,6.21s3.27,4.51,7.41,6.21c8.12,3.32,19.14,7.84,16.3,25.88H7.48c-2.84-18,8.18-22.56,16.29-25.88,4.15-1.7,7.42-3,7.42-6.21s-3.28-4.51-7.42-6.21C15.66,38.6,4.64,34.08,7.48,16H58.8C61.63,34.08,50.61,38.6,42.5,41.92Z"/><ellipse class="cls-5" cx="33.14" cy="54.15" rx="1.95" ry="2.01"/><path class="cls-5" d="M33.14,62.17a2,2,0,1,0,2,2A2,2,0,0,0,33.14,62.17Z"/><ellipse class="cls-5" cx="33.14" cy="74.2" rx="1.95" ry="2.01"/></g></g></svg>