<svg xmlns="http://www.w3.org/2000/svg" viewBox="0 0 87.03 100"><defs><style>.cls-1{fill:#00313c;}.cls-2{fill:#fff;}.cls-3{fill:#b4e6a5;}</style></defs><g id="Layer_2" data-name="Layer 2"><g id="Layer_1-2" data-name="Layer 1"><path class="cls-1" d="M57.81,100H29.21a4.61,4.61,0,0,1-4.6-4.6v-54H5.24A5.22,5.22,0,0,1,.05,36.92a5.42,5.42,0,0,1,2-5L40.14,1.17A5.21,5.21,0,0,1,43.43,0h.16a5.22,5.22,0,0,1,3.3,1.17L85.08,32.08a5.22,5.22,0,0,1,1.22,6.73,5.41,5.41,0,0,1-4.68,2.57H62.41v54A4.6,4.6,0,0,1,57.81,100ZM43.43,4a1.24,1.24,0,0,0-.78.28L4.59,35.08A1.41,1.41,0,0,0,4,36.32a1.23,1.23,0,0,0,1.23,1.06H28.61v58a.6.6,0,0,0,.6.6h28.6a.6.6,0,0,0,.6-.6v-58H81.62a1.43,1.43,0,0,0,1.23-.59,1.24,1.24,0,0,0-.29-1.6L44.37,4.28A1.24,1.24,0,0,0,43.59,4Z"/><path class="cls-2" d="M43.43,4a1.24,1.24,0,0,0-.78.28L4.59,35.08A1.41,1.41,0,0,0,4,36.32a1.23,1.23,0,0,0,1.23,1.06H28.61v58a.6.6,0,0,0,.6.6h28.6a.6.6,0,0,0,.6-.6v-58H81.62a1.43,1.43,0,0,0,1.23-.59,1.24,1.24,0,0,0-.29-1.6L44.37,4.28A1.24,1.24,0,0,0,43.59,4Z"/><path class="cls-3" d="M44.93,76.87a2,2,0,1,1,0-2.83A2,2,0,0,1,44.93,76.87ZM42.1,91a2,2,0,1,0,2.83,0A2,2,0,0,0,42.1,91Zm2.83-33.94a2,2,0,1,0,0,2.83A2,2,0,0,0,44.93,57.07Zm0-33.94a2,2,0,1,0,0,2.83A2,2,0,0,0,44.93,23.13Zm0,17a2,2,0,1,0,0,2.83A2,2,0,0,0,44.93,40.1Zm0-33.94a2,2,0,1,0,0,2.83A2,2,0,0,0,44.93,6.16ZM67.55,31.62a2,2,0,1,0,2.83,0A2,2,0,0,0,67.55,31.62ZM61.9,26a2,2,0,1,0-2.83,0A2,2,0,0,0,61.9,26ZM28,26a2,2,0,1,0-2.82,0A2,2,0,0,0,28,26Zm-8.48,8.48a2,2,0,1,0-2.83,0A2,2,0,0,0,19.47,34.44ZM50.58,85.36a2,2,0,1,0,0-2.83A2,2,0,0,0,50.58,85.36Zm2.83-50.92a2,2,0,1,0-2.83,0A2,2,0,0,0,53.41,34.44ZM50.58,68.38a2,2,0,1,0,0-2.82A2,2,0,0,0,50.58,68.38Zm0-17a2,2,0,1,0,0-2.82A2,2,0,0,0,50.58,51.41Zm0-36.76a2,2,0,1,0,2.83,0A2,2,0,0,0,50.58,14.65Zm-14.14,17a2,2,0,1,0,0,2.82A2,2,0,0,0,36.44,31.62Zm0,17a2,2,0,1,0,0,2.82A2,2,0,0,0,36.44,48.59Zm0,36.77a2,2,0,1,0-2.83,0A2,2,0,0,0,36.44,85.36Zm-2.83-19.8a2,2,0,1,0,2.83,0A2,2,0,0,0,33.61,65.56Zm2.83-50.91a2,2,0,1,0,0,2.82A2,2,0,0,0,36.44,14.65Z"/></g></g></svg>