<svg xmlns="http://www.w3.org/2000/svg" viewBox="0 0 96.13 92.65"><defs><style>.cls-1{fill:#fff;}.cls-2{fill:#b4e6a5;}.cls-3{fill:none;}.cls-4{fill:#032530;}</style></defs><g id="Layer_2" data-name="Layer 2"><g id="Layer_1-2" data-name="Layer 1"><path class="cls-1" d="M78.21,84.93A4,4,0,0,1,74,88.65H22.18a4,4,0,0,1-4.26-3.72V38.88h0L46,16.41a3,3,0,0,1,3.82,0L78.21,39.09Z"/><path class="cls-2" d="M88.78,43.23A6,6,0,0,1,85,42L51.09,14.84a5.08,5.08,0,0,0-6.32,0L11.12,41.76a6.32,6.32,0,0,1-7.55,0,3.7,3.7,0,0,1,0-6L44.15,3.25a6.34,6.34,0,0,1,7.56,0L92.56,35.93a3.69,3.69,0,0,1,0,6A6,6,0,0,1,88.78,43.23Z"/><path class="cls-3" d="M17.92,38.88h0L46,16.41a3,3,0,0,1,3.82,0L78.21,39.09V84.93A4,4,0,0,1,74,88.65H22.18a4,4,0,0,1-4.26-3.72V38.88"/><path class="cls-2" d="M32.51,39.29a2,2,0,1,0,0,2.83A2,2,0,0,0,32.51,39.29Z"/><path class="cls-2" d="M21.19,64.75a2,2,0,1,0,2.83,0A2,2,0,0,0,21.19,64.75Z"/><path class="cls-2" d="M24,47.77a2,2,0,1,0,0,2.83A2,2,0,0,0,24,47.77Z"/><path class="cls-2" d="M24,84.54a2,2,0,1,0-2.83,0A2,2,0,0,0,24,84.54Z"/><path class="cls-2" d="M46.65,56.26a2,2,0,1,0,2.83,0A2,2,0,0,0,46.65,56.26Z"/><circle class="cls-2" cx="48.06" cy="40.7" r="2"/><path class="cls-2" d="M38.16,81.72a2,2,0,1,0,2.83,0A2,2,0,0,0,38.16,81.72Z"/><path class="cls-2" d="M41,47.77a2,2,0,1,0,0,2.83A2,2,0,0,0,41,47.77Z"/><circle class="cls-2" cx="39.58" cy="66.16" r="2"/><path class="cls-2" d="M29.68,73.23a2,2,0,1,0,2.83,0A2,2,0,0,0,29.68,73.23Z"/><path class="cls-2" d="M32.51,56.26a2,2,0,1,0,0,2.83A2,2,0,0,0,32.51,56.26Z"/><path class="cls-2" d="M41,30.8a2,2,0,1,0,0,2.83A2,2,0,0,0,41,30.8Z"/><path class="cls-2" d="M55.13,84.54a2,2,0,1,0,0-2.82A2,2,0,0,0,55.13,84.54Z"/><path class="cls-2" d="M72.11,84.54a2,2,0,1,0,0-2.82A2,2,0,0,0,72.11,84.54Z"/><circle class="cls-2" cx="65.03" cy="74.64" r="2"/><circle class="cls-2" cx="65.03" cy="40.7" r="2"/><circle class="cls-2" cx="73.52" cy="66.16" r="2"/><circle class="cls-2" cx="48.06" cy="23.73" r="2"/><path class="cls-2" d="M72.11,47.77a2,2,0,1,0,2.82,0A2,2,0,0,0,72.11,47.77Z"/><path class="cls-2" d="M55.13,50.6a2,2,0,1,0,0-2.83A2,2,0,0,0,55.13,50.6Z"/><circle class="cls-2" cx="48.06" cy="74.64" r="2"/><path class="cls-2" d="M63.62,59.09a2,2,0,1,0,0-2.83A2,2,0,0,0,63.62,59.09Z"/><path class="cls-2" d="M58,33.63a2,2,0,1,0-2.83,0A2,2,0,0,0,58,33.63Z"/><circle class="cls-2" cx="56.55" cy="66.16" r="2"/><path class="cls-4" d="M93.81,34.37,53,1.69a8.33,8.33,0,0,0-10.06,0L2.32,34.15a5.69,5.69,0,0,0,0,9.17,8.3,8.3,0,0,0,10,0l1.55-1.24V84.93a8,8,0,0,0,8.26,7.72H74a8,8,0,0,0,8.26-7.72V42.29l1.55,1.25a8.32,8.32,0,0,0,10,0,5.69,5.69,0,0,0,0-9.17ZM78.21,84.93A4,4,0,0,1,74,88.65H22.18a4,4,0,0,1-4.26-3.72V38.88h0L46,16.41a3,3,0,0,1,3.82,0L78.21,39.09Zm13.1-44.52a4.48,4.48,0,0,1-5,0L52.34,13.28a7,7,0,0,0-8.82,0L13.92,37h0L9.87,40.19a4.36,4.36,0,0,1-5.06,0,1.71,1.71,0,0,1,0-2.91L45.4,4.81a4.53,4.53,0,0,1,5.06,0L91.31,37.49a1.71,1.71,0,0,1,0,2.92Z"/><path class="cls-4" d="M32.22,85.17a2.06,2.06,0,0,1-1-.14l-8.34-3.54a2,2,0,0,1-1.06-2.62l10.08-24a2,2,0,0,1,2.61-1.07l9.64,4,7.61-18.17-2.38-1a2,2,0,0,1,0-3.69l12.45-5.08A2,2,0,0,1,64.47,31l4.94,12.11a2,2,0,0,1-2.56,2.62L64,44.62,51.46,74.15a2,2,0,0,1-2.61,1.06l-9.64-4L33.83,84A2,2,0,0,1,32.74,85,1.89,1.89,0,0,1,32.22,85.17Zm-5.95-6.59,4.66,2L36.3,67.77a2,2,0,0,1,1.09-1.08,2,2,0,0,1,1.53,0l9.64,4L61.12,41.28a2,2,0,0,1,2.55-1.08l.3.11-2.45-6-6.2,2.53a2,2,0,0,1,.88,2.53L47.05,61.22A2,2,0,0,1,46,62.29a2,2,0,0,1-1.54,0l-9.63-4Z"/><path class="cls-2" d="M26.27,78.58l4.66,2L36.3,67.77a2,2,0,0,1,1.09-1.08,2,2,0,0,1,1.53,0l9.64,4L61.12,41.28a2,2,0,0,1,2.55-1.08l.3.11-2.45-6-6.2,2.53a2,2,0,0,1,.88,2.53L47.05,61.22A2,2,0,0,1,46,62.29a2,2,0,0,1-1.54,0l-9.63-4Z"/></g></g></svg>