<svg xmlns="http://www.w3.org/2000/svg" viewBox="0 0 98.12 87.43"><defs><style>.cls-1,.cls-4{fill:#002531;}.cls-2{fill:#fff;}.cls-3{fill:#b4e6a5;}.cls-4{fill-rule:evenodd;}</style></defs><g id="Layer_2" data-name="Layer 2"><g id="Layer_1-2" data-name="Layer 1"><path class="cls-1" d="M49.06,4a5.09,5.09,0,0,1,4.53,2.61L73.5,41.1,93.41,75.58a5.24,5.24,0,0,1-4.53,7.85H9.24a5.24,5.24,0,0,1-4.53-7.85L24.63,41.1,44.54,6.61A5.08,5.08,0,0,1,49.06,4m0-4a9.12,9.12,0,0,0-8,4.61L21.17,39.1,1.25,73.58a9.24,9.24,0,0,0,8,13.85H88.88a9.24,9.24,0,0,0,8-13.85L77,39.1,57.05,4.61a9.12,9.12,0,0,0-8-4.61Z"/><path class="cls-2" d="M49.06,4a5.09,5.09,0,0,1,4.53,2.61L73.5,41.1,93.41,75.58a5.24,5.24,0,0,1-4.53,7.85H9.24a5.24,5.24,0,0,1-4.53-7.85L24.63,41.1,44.54,6.61A5.08,5.08,0,0,1,49.06,4"/><path class="cls-3" d="M46.58,49.91l-1.34-1.34L43.9,49.91l-1.13-1.13,1.34-1.35-1.34-1.34L43.9,45l1.34,1.34L46.58,45l1.13,1.13-1.34,1.34,1.34,1.35Zm8.19-3.82,1.34,1.34-1.34,1.35,1.13,1.13,1.34-1.34,1.34,1.34,1.13-1.13-1.34-1.35,1.34-1.34L58.58,45,57.24,46.3,55.9,45ZM65.5,71.91l1.34-1.34,1.34,1.34,1.13-1.13L68,69.43l1.34-1.34L68.18,67,66.84,68.3,65.5,67l-1.13,1.13,1.34,1.34-1.34,1.35Zm-1-12.13-1.34-1.35,1.34-1.34L63.38,56,62,57.3,60.7,56l-1.13,1.13,1.34,1.34-1.34,1.35,1.13,1.13L62,59.57l1.34,1.34ZM65.78,34,64.44,35.3,63.1,34,62,35.09l1.34,1.34L62,37.78l1.13,1.13,1.34-1.34,1.34,1.34,1.13-1.13-1.34-1.35,1.34-1.34ZM53.5,71.91l1.34-1.34,1.34,1.34,1.13-1.13L56,69.43l1.34-1.34L56.18,67,54.84,68.3,53.5,67l-1.13,1.13,1.34,1.34-1.34,1.35ZM40.37,15.78l1.13,1.13,1.34-1.34,1.34,1.34,1.13-1.13L44,14.43l1.34-1.34L44.18,12,42.84,13.3,41.5,12l-.12.12-.74,1.28,1.07,1.07ZM48.7,60.91,50,59.57l1.34,1.34,1.13-1.13-1.34-1.35,1.34-1.34L51.38,56,50,57.3,48.7,56l-1.13,1.13,1.34,1.34-1.34,1.35Zm9.6-33,1.34-1.34L61,27.91l1.13-1.13-1.34-1.35,1.34-1.34L61,23,59.64,24.3,58.3,23l-1.13,1.13,1.34,1.34-1.34,1.35ZM70.58,45,69.24,46.3,67.9,45l-1.13,1.13,1.34,1.34-1.34,1.35,1.13,1.13,1.34-1.34,1.34,1.34,1.13-1.13-1.34-1.35,1.34-1.34Zm5.93,14.82-1.34-1.35,1.34-1.34L75.38,56,74,57.3,72.7,56l-1.13,1.13,1.34,1.34-1.34,1.35,1.13,1.13L74,59.57l1.34,1.34Zm-42-34.35-1.34,1.35,1.13,1.13,1.34-1.34L37,27.91l1.13-1.13-1.34-1.35,1.34-1.34L37,23,35.64,24.3l-.83-.83L34,24.9Zm12,0-1.34,1.35,1.13,1.13,1.34-1.34L49,27.91l1.13-1.13-1.34-1.35,1.34-1.34L49,23,47.64,24.3,46.3,23l-1.13,1.13Zm2.26,55,1.34-1.34L49,78,47.64,79.3,46.3,78l-1.13,1.13,1.34,1.34-1.34,1.35,1.13,1.13,1.34-1.34L49,82.91l1.13-1.13Zm3.6-67.34,1.34,1.34-1.34,1.35,1.13,1.13,1.34-1.34,1.34,1.34,1.13-1.13L56,14.43l1.34-1.34L56.18,12,54.84,13.3,53.5,12Zm31.2,46.69,1.13,1.13.15-.15L84,59.32ZM89.5,71.91l1.13-1.14-1.81-3.13-.45.45,1.34,1.34-1.34,1.35Zm4.36,7.87a4.91,4.91,0,0,0,.26-1.65l-1,1ZM77.5,71.91l1.34-1.34,1.34,1.34,1.13-1.13L80,69.43l1.34-1.34L80.18,67,78.84,68.3,77.5,67l-1.13,1.13,1.34,1.34-1.34,1.35Zm-38.4-33,1.34-1.34,1.34,1.34,1.13-1.13-1.34-1.35,1.34-1.34L41.78,34,40.44,35.3,39.1,34,38,35.09l1.34,1.34L38,37.78Zm12,0,1.34-1.34,1.34,1.34,1.13-1.13-1.34-1.35,1.34-1.34L53.78,34,52.44,35.3,51.1,34,50,35.09l1.34,1.34L50,37.78ZM25,78,23.64,79.3,22.3,78l-1.13,1.13,1.34,1.34-1.34,1.35,1.13,1.13,1.34-1.34L25,82.91l1.13-1.13-1.34-1.35,1.34-1.34Zm19.2-11L42.84,68.3,41.5,67l-1.13,1.13,1.34,1.34-1.34,1.35,1.13,1.13,1.34-1.34,1.34,1.34,1.13-1.13L44,69.43l1.34-1.34ZM37,78,35.64,79.3,34.3,78l-1.13,1.13,1.34,1.34-1.34,1.35,1.13,1.13,1.34-1.34L37,82.91l1.13-1.13-1.34-1.35,1.34-1.34ZM13,78,11.64,79.3,10.3,78,9.17,79.09l1.34,1.34L9.17,81.78l1.13,1.13,1.34-1.34L13,82.91l1.13-1.13-1.34-1.35,1.34-1.34Zm60,0L71.64,79.3,70.3,78l-1.13,1.13,1.34,1.34-1.34,1.35,1.13,1.13,1.34-1.34L73,82.91l1.13-1.13-1.34-1.35,1.34-1.34ZM48.7,5.91,50,4.57l1.34,1.34.86-.86a5.17,5.17,0,0,0-3.18-1,4.9,4.9,0,0,0-.77.06l-.72.72ZM61,78,59.64,79.3,58.3,78l-1.13,1.13,1.34,1.34-1.34,1.35,1.13,1.13,1.34-1.34L61,82.91l1.13-1.13-1.34-1.35,1.34-1.34Zm24,0L83.64,79.3,82.3,78l-1.13,1.13,1.34,1.34-1.34,1.35,1.13,1.13,1.34-1.34L85,82.91l1.13-1.13-1.34-1.35,1.34-1.34ZM34.58,45,33.24,46.3,31.9,45l-1.13,1.13,1.34,1.34-1.34,1.35,1.13,1.13,1.34-1.34,1.34,1.34,1.13-1.13-1.34-1.35,1.34-1.34ZM19.9,49.91l1.34-1.34,1.34,1.34,1.13-1.13-1.34-1.35,1.34-1.34L22.58,45l-.42.43-2.49,4.3Zm7.2-11,1.34-1.34,1.34,1.34,1.13-1.13-1.34-1.35,1.34-1.34L29.78,34,28.44,35.3,28.15,35l-1.81,3.14Zm1.41,20.87-1.34-1.35,1.34-1.34L27.38,56,26,57.3,24.7,56l-1.13,1.13,1.34,1.34-1.34,1.35,1.13,1.13L26,59.57l1.34,1.34Zm1,12.13,1.34-1.34,1.34,1.34,1.13-1.13L32,69.43l1.34-1.34L32.18,67,30.84,68.3,29.5,67l-1.13,1.13,1.34,1.34-1.34,1.35Zm-13-12.13-1.34-1.35,1.34-1.34-.7-.71-2,3.36.18-.17,1.34,1.34Zm1,12.13,1.34-1.34,1.34,1.34,1.13-1.13L20,69.43l1.34-1.34L20.18,67,18.84,68.3,17.5,67l-1.13,1.13,1.34,1.34-1.34,1.35ZM9.31,70.78,8.16,69.62l-.83,1.44.85.85Zm31.2-11-1.34-1.35,1.34-1.34L39.38,56,38,57.3,36.7,56l-1.13,1.13,1.34,1.34-1.34,1.35,1.13,1.13L38,59.57l1.34,1.34ZM9.31,68.09l-.17-.17-.47.82Z"/><path class="cls-4" d="M46,57a3.55,3.55,0,0,0,6.18,0C54,52.9,54.89,31.94,54.89,25.37a7,7,0,0,0-1.68-5,5.73,5.73,0,0,0-8.3,0,7.08,7.08,0,0,0-1.66,5c0,6.57.88,27.52,2.73,31.64ZM55.65,71.3a6.58,6.58,0,1,0-6.59,6.59,6.59,6.59,0,0,0,6.59-6.59Z"/></g></g></svg>