<svg xmlns="http://www.w3.org/2000/svg" viewBox="0 0 71.78 96.18"><defs><style>.cls-1{fill:#fff;}.cls-2{fill:#b3e6a6;}.cls-3{fill:#00313c;}</style></defs><g id="Layer_2" data-name="Layer 2"><g id="Layer_1-2" data-name="Layer 1"><path class="cls-1" d="M65.85,57.33V50.81H57.66a2,2,0,0,1,0-4h5.5A14.72,14.72,0,0,0,48.57,33.19H43.21l-.58-1A10.64,10.64,0,0,0,37.92,28l-1.16-.53V16.9l-6.53-.06-.06,10.64L29,28a10.75,10.75,0,0,0-4.71,4.22l-.58,1H14.5V38.5a2,2,0,1,1-4,0v-8H4V44.93h6.51v-.65a2,2,0,0,1,2-2h11.2l.58,1a10.7,10.7,0,0,0,18.34,0l.58-1h5.36a5.55,5.55,0,0,1,5.48,4.8,5.84,5.84,0,0,1,.05.73v1a2,2,0,0,1-2,2h-.65v6.52Z"/><path class="cls-2" d="M39.72,7.1c4.81,1.16,10.77,2.46,12.45,2.46,1.41,0,3.77-.36,3.77-2.78S53.58,4,52.17,4c-1.68,0-7.64,1.29-12.45,2.45ZM14.75,4C13.35,4,11,4.36,11,6.78s2.36,2.78,3.76,2.78c1.68,0,7.65-1.3,12.45-2.46V6.45C22.4,5.29,16.43,4,14.75,4Zm18.71.51a2.27,2.27,0,1,0,2.27,2.27A2.27,2.27,0,0,0,33.46,4.51ZM58.65,69.13c-.65.8-1.42,1.66-2.23,2.55-3.07,3.39-6.9,7.61-6.9,12,0,4.84,3.93,8.49,9.13,8.49s9.13-3.65,9.13-8.49c0-4-3.79-8.37-6.84-11.86C60.08,70.84,59.3,70,58.65,69.13Zm3.68-26.21a14.23,14.23,0,0,1,.79,3.57L49.38,33.23a14.32,14.32,0,0,1,3.6.66ZM36.76,18.23l-1.39-1.34-2.91,0L36.76,21Zm-6.59,9.25-.13.06,7.42,7.16h0l7.85,7.57h2.9l-18-17.39Zm-19.66,5.8L7.67,30.54H4.79l5.72,5.52ZM54.1,48.82a2,2,0,0,1-.59,1.41l7.35,7.1h2.88L61,54.71h0l-4.22-4.07a2,2,0,0,1-.94-.91L54.1,48ZM4,41.57l3.58,3.36H10.5L4,38.82ZM14.5,38.5a2,2,0,0,1-.33,1.1L17,42.28h2.88L14.5,37.14Zm9.79-6.27-.58,1H22.53l9.63,9.3-.06.06,5.32,5.13a10.87,10.87,0,0,0,1.94-1l-15-14.5Z"/><path class="cls-3" d="M49.46,61.32a2,2,0,0,1-2-2V48.82a2,2,0,0,1,2-2h.28a1.53,1.53,0,0,0-1.17-.54H45.42a14.7,14.7,0,0,1-23.92,0h-7v.65a2,2,0,0,1-2,2H2a2,2,0,0,1-2-2V28.54a2,2,0,0,1,2-2H12.51a2,2,0,0,1,2,2v.66h7A14.74,14.74,0,0,1,26.17,25V16.9a4.06,4.06,0,0,1,4.06-4.06h6.46a4.06,4.06,0,0,1,4.06,4.06V25a14.74,14.74,0,0,1,4.67,4.22h3.15A18.71,18.71,0,0,1,67.16,46.82h.68a2,2,0,0,1,2,2v10.5a2,2,0,0,1-2,2Zm16.39-4V50.81H57.66a2,2,0,0,1,0-4h5.5A14.72,14.72,0,0,0,48.57,33.19H43.21l-.58-1A10.64,10.64,0,0,0,37.92,28l-1.16-.53V16.9l-6.53-.06-.06,10.64L29,28a10.75,10.75,0,0,0-4.71,4.22l-.58,1H14.5V38.5a2,2,0,1,1-4,0v-8H4V44.93h6.51v-.65a2,2,0,0,1,2-2h11.2l.58,1a10.7,10.7,0,0,0,18.34,0l.58-1h5.36a5.55,5.55,0,0,1,5.48,4.8,5.84,5.84,0,0,1,.05.73v1a2,2,0,0,1-2,2h-.65v6.52ZM52.17,13.56c-2.63,0-10.9-2-14-2.71a6.25,6.25,0,0,1-9.5,0c-3.05.74-11.33,2.71-14,2.71C9.39,13.56,7,10.15,7,6.78S9.39,0,14.75,0c2.63,0,10.91,2,14,2.71a6.25,6.25,0,0,1,9.5,0C41.27,2,49.55,0,52.17,0c5.36,0,7.76,3.4,7.76,6.78S57.53,13.56,52.17,13.56ZM39.72,7.1c4.81,1.16,10.77,2.46,12.45,2.46,1.41,0,3.77-.36,3.77-2.78S53.58,4,52.17,4c-1.68,0-7.64,1.29-12.45,2.45ZM14.75,4C13.35,4,11,4.36,11,6.78s2.36,2.78,3.76,2.78c1.68,0,7.65-1.3,12.45-2.46V6.45C22.4,5.29,16.43,4,14.75,4Zm18.71.51a2.27,2.27,0,1,0,2.27,2.27A2.27,2.27,0,0,0,33.46,4.51Zm2.21,41.05a2,2,0,0,0-2-2,5.83,5.83,0,0,1-5.82-5.82,2,2,0,0,0-4,0,9.83,9.83,0,0,0,9.82,9.82A2,2,0,0,0,35.67,45.56Zm23,50.62a13.5,13.5,0,0,1-9.22-3.47,12.11,12.11,0,0,1-3.9-9c0-5.94,4.58-11,7.93-14.7,1.36-1.5,3-3.37,3.25-4.17A2,2,0,0,1,58.6,63.3h0a2,2,0,0,1,2,1.43c.26.9,1.85,2.71,3.38,4.47,3.49,4,7.83,9,7.83,14.49a12.12,12.12,0,0,1-3.91,9A13.5,13.5,0,0,1,58.65,96.18Zm0-27.05c-.65.8-1.42,1.66-2.23,2.55-3.07,3.39-6.9,7.61-6.9,12,0,4.84,3.93,8.49,9.13,8.49s9.13-3.65,9.13-8.49c0-4-3.79-8.37-6.84-11.86C60.08,70.84,59.3,70,58.65,69.13ZM60.3,89.39a2,2,0,0,0-2-2,4.06,4.06,0,0,1-4-4.05,2,2,0,1,0-4,0,8,8,0,0,0,8,8A2,2,0,0,0,60.3,89.39Z"/></g></g></svg>