<svg id="Layer_1" data-name="Layer 1" xmlns="http://www.w3.org/2000/svg" viewBox="0 0 212.68 535.83"><path d="M51,174.24l19,9.25,2.37-16.3s-16-9.72-16.66-10.19c-9.52-6.45-6.91-19.77-12.81-18.26-7.41,1.89,2.25,13.19-7.62,16.55-1.59.54-8.56-4.15-11.18-4.15-12.43,0-.25,11.34,11.46,22.36C41.73,179.31,51,174.24,51,174.24Z" style="fill:#f68357"/><path d="M.73,132.07c7.12,5.65,38.1,31.18,46.77,38.33a2.4,2.4,0,0,0,3.65-.73L53,166.11a2.41,2.41,0,0,0-.63-3L5.24,126a1.94,1.94,0,0,0-2.81.43l-2.09,3A2,2,0,0,0,.73,132.07Z" style="fill:#002d37"/><path d="M22.93,151.44c2.49-2.73,33.12,14,28,22.8Z" style="fill:#f68357"/><path d="M120.05,405.94c4.66,16.49,5.12,108.31,5.12,108.31H105.45s-32.62-88.07-36-108.37,3.36-163.26,3.36-163.26l89.05,6.5v0C161.23,251.32,115.82,390.93,120.05,405.94Z" style="fill:#002d37"/><path d="M208.67,498.56,192,504.67s-70.77-79.56-81.48-112.62c-11.26-34.81-6.76-147.17-6.76-147.17l54,6c5.92,7.67,8.12,17.56,8.22,29.14h0c0,.77,0,1.55,0,2.33a236.79,236.79,0,0,1-1.85,25.52c-2.65,22.89-7.07,48.34-5.75,78.73.91,20.89,27.58,14.29,33.4,46,.37,2,.65,4.22.85,6.59C195.41,474.41,208.67,498.56,208.67,498.56Z" style="fill:#19424b"/><path d="M195.44,501.88l-5,1.45s-15.77,11.8-20.31,17.44c-3,3.76-4.15,9,2.75,8.1,17.29-2.3,40.47-15.73,39.82-18l-3.76-13c0-.05-1.65.48-1.7.49S198.31,501,195.44,501.88Z" style="fill:#773c34"/><path d="M110.87,514.13l-5.45.16s-19,7.77-25,12.27c-4,3-6.53,8,.67,8.88,18,2.18,44.86-5.31,44.79-7.72l-.39-14.09s-1.79,0-1.85,0S114,514,110.87,514.13Z" style="fill:#773c34"/><path d="M191.75,432.55c-14.46-30.51-30.28-14.33-30.08-22.72.21-9.8-13.83-7.09-19-13.09C133.28,385.84,161,354,159.4,276.59c3.06.47,5.17,2.51,6.55,5.73a236.79,236.79,0,0,1-1.85,25.52c-2.65,22.89-7.07,48.34-5.75,78.73C159.26,407.46,185.93,400.86,191.75,432.55Z" style="fill:#002d37"/><path d="M56.36,184.61c0,2,27.71,31.06,27.71,31.06s20.12-30.9,18.78-31.07-39.07-25.9-39.07-25.9S56.38,180.08,56.36,184.61Z" style="fill:#46003c"/><path d="M124.3,54.44l17.8,25.45c4.49,7.61,10.13,30,3.42,35s-35.37,8.77-41.78-.46c-6.1-8.79,0-32.76,0-32.76l-1.79-3C94.26,80,79.6,71.33,79.6,71.33S78.07,68.78,76.07,65l-.78-1.51c-4.06-7.92-8.12-14-12.34-26.69C59.46,26.24,85.4,14.2,85.4,14.2L102,29.44l4.54-12.63s12.3,3.57,13,4.72S119.56,48.26,124.3,54.44Z" style="fill:#f59664"/><path d="M93.32,1.74s-16-6.66-28.2,7.2C56.88,18.33,59.3,26.1,63,36.77h0c10.9-5.85,28.86-18.33,28.9-15.19S90.74,38.22,96,37.71c1.7-.16,3.08,1.57,4.17,4a18.59,18.59,0,0,1-2.84,19.45c-3.09,3.89-19.63.31-21.3,3.81,0,0,8.12,24.57,20.22,17.45C112.25,73,116.24,62,113,53.28s-10.1-23.56-9.09-25.6,5.73-5.74,9.07.39a6.85,6.85,0,0,1-.41,7.7,4.34,4.34,0,0,0,.2,5.39L124.3,54.44C134.4,36.68,110.29-9.5,93.32,1.74Z" style="fill:#5c2e28"/><path d="M76.33,56.31c-2-1.38-2-4.24-.4-4.86s6.74.21,8.14.57C81.71,53.43,78.15,54.09,76.33,56.31Z" style="fill:#f59664"/><path d="M106.11,30.76c-.14-1.06.53-4.7,3.49-3.53A9.06,9.06,0,0,0,106.11,30.76Z" style="fill:#f59664"/><path d="M110,31.22c-.23-1.2-2.22-1.67-2.57-.41C107.4,30.81,109.14,30.47,110,31.22Z" style="fill:#f59664"/><path d="M101.45,98.28c16.49,19.81,44-6.73,44-6.73l.42,126.79,9.88,40.93L77.91,252.5S79.21,124.73,101.45,98.28Z" style="fill:#fff"/><path d="M143.82,74.63,122.49,85.38l10.32,21.53s-22.67,187.9-14,194.11,51.84-14.39,56.35-22.29,4.2-156.54,4.2-156.54Z" style="fill:#6b3363"/><path d="M101.45,81.09l2.29.62S86.48,288.19,80.47,288.12c-12.15-.16-19-25.46-17.9-35.05S79.5,129,79.5,129Z" style="fill:#46003c"/><path d="M150.9,255.89c-2.81,10.25,10.27,21.77,17.39,18.48Z" style="fill:#58194f"/><path d="M179.34,122.19c7.9,10.72,32.72,79,28.21,88.57s-39.26,63.61-39.26,63.61a37.15,37.15,0,0,1-17.39-18.48c1.69-4.7,23.82-55.88,24.2-61.73S165.24,178,165.24,178" style="fill:#46003c"/></svg>