<svg id="Layer_1" data-name="Layer 1" xmlns="http://www.w3.org/2000/svg" viewBox="0 0 245.16 508.89"><path d="M39,125.26c6.87,5.92,40.54,36.06,40.54,36.06l3.89-6.64L43.09,120.2a1.67,1.67,0,0,0-2.42.27L38.78,123A1.66,1.66,0,0,0,39,125.26Z" style="fill:#002d37"/><path d="M80.51,163.05l16,8.56,2.59-13.86s-13.57-8.65-13.9-9.28c-11-21.49-8.88,3.61-22.41-2.61-2.41-1.11-5,6.2,4.62,16C72.45,167.06,80.51,163.05,80.51,163.05Z" style="fill:#f59664"/><path d="M160.22,258c-15.15,10.17-80.8,75-84.78,93.28S43.22,477.87,43.22,477.87s12.44,10.23,15.19,1.05,48.18-77.24,42.31-110.35c0,0,63.31-46.13,70.94-64.25l18.23-31.67C174.05,264.93,160.22,258,160.22,258Z" style="fill:#f59664"/><path d="M211.84,371.77s6.51-148.57-13-129.08c-1.52,1.53-27.66,1.34-50.27.88L144.66,269l37.23,109.79,41.82,101.73,11.12-.3S226.75,393.15,211.84,371.77Z" style="fill:#f59664"/><path d="M109.37,273.19c-12.88-3.39-31.85-14.91-31.85-14.91s61.66-142.1,31.85-164.23L127,77.34l10.78,152.48Z" style="fill:#b4e6a5"/><path d="M203,390c-8.3,3.27-27.92,3-49.81,1.22C113.32,388,65.86,380,65.86,380a193,193,0,0,1,8.69-29.88c11.9-31.24,30.9-84.61,43.56-109.51l30.13-2.69,54.33-4.85c19,38.25,8.24,134.89,11.36,138.67,2.27,2.76,4.87,10.48,4.87,10.48S219.71,383.42,203,390Z" style="fill:#002d37"/><path d="M125.61,84.6c1.61,11.49-23.52,47.75-20.26,64.64,2,10.48,12.76,91.39,12.76,91.39l84.45-7.55L148.67,77.34Z" style="fill:#e8f7e4"/><path d="M153.28,75.39c-14.23-18.3-45.93-68.45-45.93-68.45S70.92,4.41,68.88,28.81s20.78,46.88,33,51.62S118,71.32,118,71.32l16.31,31.17Z" style="fill:#f59664"/><path d="M59.4,477.8c1.69,1.35-1.15,18.1-6,20L10.64,478.05s-19.78-10.83-5.4-11.38,36.52.32,40,2.75-1.49,7.86,2.66,10.43S57.11,476,59.4,477.8Z" style="fill:#773c34"/><path d="M234.44,469.22c2-.8,11.15,8.22,10.71,12.27,0,0-19.06,21.3-27.36,25.65-4.73,2.47-20.68,2.19-26.21,0-4.75-1.9,6.36-9.93,11.48-11.3,2.7-.72,14.95-18.77,17.77-20.08,3.82-1.78,6.1,5.18,10.38,2.84S231.72,470.31,234.44,469.22Z" style="fill:#773c34"/><path d="M203,390c-5.53,2.18-15.54,2.51-15.54,2.51-35-27.37-14.72-53.41-21.66-75.2-10.08-31.62-41.48-32.79-32.12-76.65l68.85-7.54c19,38.25,8.24,134.89,11.36,138.67,2.27,2.76,4.87,10.48,4.87,10.48S219.71,383.42,203,390Z" style="fill:#19424b"/><path d="M148.6,66.88c-14.54,6.78-30,23.27-30,23.27L129,98.35s27.78,122,25.75,180.26c0,0,41.67,8.81,64-5.42C218.81,273.19,203.49,119.06,148.6,66.88Z" style="fill:#c3ebb7"/><path d="M152.93,160.26c-4,10.42-34.58,5.89-58.3-8.34l-10.3,16s26.79,42,84.39,29.79c0,0,13.83-11.9,6.38-32.23" style="fill:#c3ebb7"/><path d="M73.22,56.19c8.4-1.51,23-11.66,27.68-19C122,49.86,130.82,66.88,137.77,95.72c0,0,30.22-25.11,26.14-42.1-2.61-10.87-16.7-32.12-36.39-46.75C99-14.32,46.46,16.72,73.22,56.19Z" style="fill:#773c34"/><path d="M172.69,198.54c3.39-9.87,5.61-39.31,3.53-60.3,0,0,8.42,56.24,2,67.27-2.84,4.88-19.45.58-24.77-5.62C153.47,199.89,161.85,202.87,172.69,198.54Z" style="fill:#b4e6a5"/></svg>