<svg id="Layer_1" data-name="Layer 1" xmlns="http://www.w3.org/2000/svg" xmlns:xlink="http://www.w3.org/1999/xlink" viewBox="0 0 250.94 528.67"><defs><clipPath id="clip-path"><path d="M245.45,132.34c-34.59,27.51-62.93-67.09-89.2-48.57-6.74-6.35-13.56-10.86-14.17-7.82-3.66,18.28-26.12,25-27.65,31.5-1.9,8.06-.4,24.32,5.72,23.71,8.33-.84,34.83-12.81,45.42-21.9,29.06,20.51,40.92,80.81,84.55,52C253.47,159.09,245.45,132.34,245.45,132.34Z" style="fill:none"/></clipPath></defs><path d="M75.57,218.82l16.7,8.12,2.08-14.3s-14-8.52-14.61-8.93c-8.34-5.66-18.11-13.93-20.6-8.62-2.85,6.07,11.34,4.17,2.69,7.11-1.39.48-7.5-3.63-9.8-3.63-10.9,0-.22,9.94,10,19.61C67.48,223.27,75.57,218.82,75.57,218.82Z" style="fill:#f68357"/><path d="M37.53,186.53c6,4.78,27.34,22.52,34.58,28.55a2.56,2.56,0,0,0,3.9-.77L77.22,212a2.56,2.56,0,0,0-.67-3.22L41.47,181.17a1.71,1.71,0,0,0-2.46.38l-1.83,2.68A1.69,1.69,0,0,0,37.53,186.53Z" style="fill:#002d37"/><path d="M51,198.83c2.19-2.39,18-1.8,20.64,16.8Z" style="fill:#f68357"/><polygon points="86.59 206.1 78.23 224.58 101.24 238.6 105.63 212.04 86.59 206.1" style="fill:#ffc04c"/><path d="M122.28,263.23,33.65,508.78,45,515.09s65.52-102.38,55.51-126.16c-8.94-21.22,55.82-108,55.82-108Z" style="fill:#f59664"/><path d="M200.18,243.85s-24.9,98.23-24,131.67c16.66,15.3,30.28,126.07,30.28,126.07l-15.14,4.67L147.19,379.47l15.14-118Z" style="fill:#f59664"/><path d="M127.5,115.15c-19.32,70.93-51.4,180.22-66.09,229-3.95,13.1,16.07,7.18,32.8,17.66,10.5,6.58,41-115.93,36-140.71S127.5,115.15,127.5,115.15Z" style="fill:orange"/><path d="M198.6,403.43c-.12,11.26-13.23,27.14-36.27,19.52A26.77,26.77,0,0,0,152,421.7a44.58,44.58,0,0,0-8.68,1.53c-.73.2-1.45.41-2.18.63-4.6,1.38-9.32,3.24-14.19,5h0l-.48.17a89.78,89.78,0,0,1-14.6,4,50.66,50.66,0,0,1-8.6.75h-.39a42,42,0,0,1-4.72-.31c-13.67-1.58-29.06-9.91-47.12-32.87,0,0,50.15-89.16,53.94-112.24s11.67-38.1,11.67-38.1h78.25C220.5,294.47,172.11,362.75,198.6,403.43Z" style="fill:#4bcbeb"/><path d="M153,97.16c-13.68-17.59-44.15-65.79-44.15-65.79s-35-2.43-37,21,20,45.06,31.7,49.62,15.56-8.76,15.56-8.76l15.67,30Z" style="fill:#f59664"/><path d="M76,78.7c8.08-1.44,24.95-13.45,29.41-20.48C104,47,121.09,47.93,118.06,62.65c7.61,3.24,7.16,17.19,18.41,11.16-.39-25.64.48-42.51-14.46-50.9C96.2,8.41,44,32.36,76,78.7Z" style="fill:#773c34"/><path d="M82.93,29.08c-3.69-7.29-6.4-30.58,22.75-29,18.57,1,26.93,17.32,17.37,31.22C100.22,64.51,82.93,29.08,82.93,29.08Z" style="fill:#773c34"/><path d="M112.38,256.17c-8.73.23,4.54-66.42,7.09-86.37,1.29-10.06,7.34-39.26,7.34-39.26L175,152.46,194.85,260C137.34,267.15,124.45,255.86,112.38,256.17Z" style="fill:#f7f7f7"/><path d="M160.91,94.46c7.57,15.14,61.66,219.12,68,269.58-10.51,18.44-34,8-61.5,26.78-21.28,14.53-7.44-128.91-29.65-173.47-27.31-54.79-7.69-115.43-5.79-115.43.67,0-9.76,4.51-5.14-.57C135.06,92.29,160.91,94.46,160.91,94.46Z" style="fill:#ffc04c"/><path d="M164.11,261.81c0,6.54,24.31,16.79,29.92,9l-27-7.56Z" style="fill:#ffae19"/><path d="M162.21,123.82c16.45,4.58,41.85,69.26,40.41,78.25-3.31,20.67-11.93,62.56-12.76,67.09-.91,4.93-22.84-5.93-22.84-5.93s7.93-51.42,9.82-59.46-39.6-57.44-39.5-73.23C137.39,122.17,154.15,121.57,162.21,123.82Z" style="fill:orange"/><path d="M142.08,76c-3.66,18.28-26.12,25-27.65,31.5-1.9,8.06-.4,24.32,5.72,23.71C130.63,130.1,169.92,111.41,170,103S143.32,69.79,142.08,76Z" style="fill:#19424b"/><path d="M153.07,86.57c27.17-29.19,56.39,74.39,92.38,45.77,0,0,8,26.75,4.67,29-48.36,31.88-57.68-45.65-94.67-57.15Z" style="fill:#19424b"/><g style="clip-path:url(#clip-path)"><path d="M121.57,90.87c-.86,3.95,1.7,41.14,5.21,47.4" style="fill:none;stroke:#fff;stroke-miterlimit:10;stroke-width:2.01555px"/><path d="M130.71,85c6.63,5.85,11.12,43.84,8.85,46.76" style="fill:none;stroke:#fff;stroke-miterlimit:10;stroke-width:2.01555px"/><path d="M141.83,73.66c11.24,11,15.13,45,12,51.66" style="fill:none;stroke:#fff;stroke-miterlimit:10;stroke-width:2.01555px"/><path d="M161,79c12.45,3.73,6.41,31.59,4.53,37.16" style="fill:none;stroke:#fff;stroke-miterlimit:10;stroke-width:2.01555px"/><path d="M179.51,88.16c4,10.74-5.32,25.78-9.5,28" style="fill:none;stroke:#fff;stroke-miterlimit:10;stroke-width:2.01555px"/><path d="M192.6,100.12c0,12-8.24,24.07-16.49,24.07" style="fill:none;stroke:#fff;stroke-miterlimit:10;stroke-width:2.01555px"/><path d="M201.12,110.58C202,116,192.6,135.11,184,132.73" style="fill:none;stroke:#fff;stroke-miterlimit:10;stroke-width:2.01555px"/><path d="M189.89,143c9.3,1.79,21.55-12.49,18.13-24.41" style="fill:none;stroke:#fff;stroke-miterlimit:10;stroke-width:2.01555px"/><path d="M201.12,154.75c9.28.51,19.29-16.11,15.64-27.63" style="fill:none;stroke:#fff;stroke-miterlimit:10;stroke-width:2.01555px"/><path d="M213.33,168.57c7.63-2.69,18.5-25.54,12.28-36.79" style="fill:none;stroke:#fff;stroke-miterlimit:10;stroke-width:2.01555px"/><path d="M236.64,133.82c1.49,10.65,4.22,24.55-5,38.65" style="fill:none;stroke:#fff;stroke-miterlimit:10;stroke-width:2.01555px"/><path d="M247.65,128.86c3.32,3.71,13.7,30.14,6.4,39.71" style="fill:none;stroke:#fff;stroke-miterlimit:10;stroke-width:2.01555px"/></g><path d="M141.1,423.86c-4.6,1.38-9.32,3.24-14.19,5h0l-.48.17a89.78,89.78,0,0,1-14.6,4,50.66,50.66,0,0,1-8.6.75C107,384,134.06,351,137.34,327.07c-5.33,29.67,10.31,37.24,0,58.76C129.89,401.36,141.92,402.16,141.1,423.86Z" style="fill:#1ebee6"/><polygon points="26.67 520.83 27.34 519.37 34.87 523.13 34.51 524.31 44.27 528.67 45.86 525.16 1.27 504.98 0 508.52 26.67 520.83" style="fill:#773c34"/><path d="M60.24,493.53,45.86,525.16,1.26,505c3.79-13.6,25.13-3.4,25.13-3.4l13.43-18.33,6,3L55,490.89Z" style="fill:#ffae19"/><path d="M55,490.89a4.79,4.79,0,0,1-.31.65l-6.92,12a5.15,5.15,0,1,1-8.91-5.16l6.91-12a.41.41,0,0,1,.07-.11Z" style="fill:#773c34"/><polygon points="202.03 521.28 201.46 519.78 209.4 517.01 210 518.08 219.93 514.13 218.53 510.54 169.91 525.03 171.56 528.41 186.79 527.6 202.03 521.28" style="fill:#773c34"/><path d="M218.53,510.54,186,524.24l-16.05.79c-2.6-13.39,18.14-17,18.14-17l-5.6-21.76,5.47-1.89,9.74-3.37,6.85-2.37Z" style="fill:#ffae19"/><path d="M199.12,499.73a5.17,5.17,0,0,1-6.62-3l-4.58-12.31,9.74-3.37,4.5,12.09A5.16,5.16,0,0,1,199.12,499.73Z" style="fill:#773c34"/></svg>