<svg width="1060" height="863" viewBox="0 0 1060 863" fill="none" xmlns="http://www.w3.org/2000/svg">
<path opacity="0.6" d="M401.051 654.156H367.117V862.591H401.051V654.156Z" fill="url(#paint0_linear_369_532)"/>
<path opacity="0.6" d="M43.2128 442.305H9.27881V650.739H43.2128V442.305Z" fill="url(#paint1_linear_369_532)"/>
<path opacity="0.6" d="M1046.39 295.847H1012.45V504.281H1046.39V295.847Z" fill="url(#paint2_linear_369_532)"/>
<path d="M1059.11 300.678C1058.88 304.919 1056.17 308.808 1050.98 311.871L414.13 665.585C402.112 672.537 381.139 671.712 367.235 663.582L11.5179 458.211C3.38784 453.498 -0.500655 447.489 0.0884758 441.833V430.169H9.75046L645.069 77.279C657.088 70.3273 678.061 71.152 691.964 79.282L1047.68 284.653C1048.98 285.36 1050.16 286.185 1051.22 286.892H1059.23V299.381C1059.11 299.971 1059.11 300.324 1059.11 300.678Z" fill="#C1DFF6"/>
<path d="M414.13 652.625L1050.98 298.911C1063 291.959 1061.47 279.823 1047.56 271.811L691.846 66.4395C677.943 58.4274 656.97 57.6026 644.951 64.4366L8.10055 418.151C-3.91772 425.103 -2.38581 437.239 11.5177 445.251L367.235 650.622C381.139 658.634 402.112 659.577 414.13 652.625Z" fill="#E7F3FE"/>
<path opacity="0.1" fill-rule="evenodd" clip-rule="evenodd" d="M729.786 307.158L591.93 227.979C587.57 225.505 579.912 225.858 574.727 228.804L326.349 373.141H314.449V382.803C314.331 384.57 315.274 386.22 317.395 387.398L467.269 473.883C471.629 476.357 479.288 476.003 484.472 473.058L729.197 331.784C740.037 325.421 741.216 312.814 729.786 307.158Z" fill="#447489"/>
<path fill-rule="evenodd" clip-rule="evenodd" d="M307.144 145.265L556.935 1.3993C562.002 -1.54635 566.126 0.221041 566.126 6.11235V208.302C566.126 214.193 562.002 221.263 556.935 224.209L307.144 368.074C302.077 371.02 297.953 368.664 297.953 362.772V160.582C297.953 154.691 302.077 148.211 307.144 145.265Z" fill="#B8CAE8"/>
<path fill-rule="evenodd" clip-rule="evenodd" d="M726.487 306.687L576.377 229.982C572.017 227.508 564.358 227.861 559.174 230.807L317.748 370.195H305.847V379.857C305.73 381.624 306.672 383.274 308.793 384.452L458.668 470.937C463.028 473.411 470.686 473.057 475.871 470.112L725.073 326.246C730.022 323.536 732.614 309.75 726.487 306.687Z" fill="#B8CAE8"/>
<path fill-rule="evenodd" clip-rule="evenodd" d="M308.793 147.032L557.996 3.16658C563.062 0.220924 567.186 2.57745 567.186 8.46876V209.48C567.186 215.371 563.062 222.441 557.996 225.387L308.793 369.253C303.727 372.198 299.603 369.842 299.603 363.95V162.939C299.603 157.165 303.727 149.978 308.793 147.032Z" fill="#F0F4FA"/>
<path fill-rule="evenodd" clip-rule="evenodd" d="M309.618 345.569V159.403C309.618 158.225 310.443 156.811 311.503 156.222L555.286 15.4197C556.346 14.8305 557.171 15.3017 557.171 16.48V202.645C557.171 203.824 556.346 205.238 555.286 205.827L311.503 346.629C310.443 347.218 309.618 346.747 309.618 345.569Z" fill="#BACBFC"/>
<path fill-rule="evenodd" clip-rule="evenodd" d="M310.089 364.539L559.292 220.673C564.358 217.727 572.017 217.374 576.495 219.848L726.369 306.333C730.729 308.807 730.14 313.284 725.073 316.23L475.871 460.096C470.804 463.041 463.146 463.395 458.668 460.921L308.793 374.436C304.316 371.844 304.905 367.485 310.089 364.539Z" fill="white"/>
<path fill-rule="evenodd" clip-rule="evenodd" d="M626.335 355.82L544.21 403.304C542.325 404.365 538.908 404.247 536.669 402.951L498.965 381.153C496.726 379.857 496.49 377.854 498.376 376.794L580.5 329.31C582.386 328.249 585.803 328.367 588.041 329.663L625.746 351.461C627.984 352.757 628.22 354.76 626.335 355.82Z" fill="#DCE4F5"/>
<path d="M631.755 370.077C631.283 370.077 630.694 370.077 630.223 370.077C628.691 370.195 627.042 370.666 625.628 371.491L567.657 404.954C565.772 406.014 564.947 407.428 565.183 408.489C565.654 408.489 566.243 408.489 566.715 408.489C568.246 408.371 569.896 407.899 571.31 407.074L629.28 373.612C631.048 372.551 631.99 371.138 631.755 370.077Z" fill="#DEE6F7"/>
<path fill-rule="evenodd" clip-rule="evenodd" d="M642.83 277.465L630.93 284.299C630.223 284.652 629.163 284.77 628.574 284.417L625.392 282.531C624.803 282.178 624.803 281.589 625.51 281.118L637.411 274.284C638.118 273.93 639.178 273.813 639.767 274.166L642.948 276.051C643.655 276.405 643.537 276.994 642.83 277.465ZM625.864 270.16L596.525 287.127C595.818 287.48 594.758 287.598 594.168 287.245L584.506 281.589C583.917 281.235 583.917 280.646 584.624 280.175L613.963 263.208C614.67 262.855 615.73 262.737 616.319 263.09L625.981 268.746C626.571 269.099 626.57 269.688 625.864 270.16ZM610.9 261.441L589.573 273.695C588.866 274.048 587.806 274.166 587.216 273.812L577.555 268.157C576.966 267.803 576.966 267.214 577.673 266.743L598.999 254.489C599.706 254.135 600.766 254.018 601.356 254.371L611.017 260.027C611.724 260.498 611.607 261.087 610.9 261.441ZM596.053 252.839L584.978 259.202C584.271 259.555 583.21 259.673 582.621 259.32L572.96 253.664C572.371 253.311 572.37 252.722 573.077 252.25L584.153 245.888C584.86 245.534 585.921 245.416 586.51 245.77L596.171 251.425C596.76 251.779 596.76 252.368 596.053 252.839ZM579.44 262.383L568.482 268.746C567.775 269.099 566.715 269.217 566.126 268.864L556.464 263.208C555.875 262.855 555.875 262.266 556.582 261.794L567.54 255.431C568.246 255.078 569.307 254.96 569.896 255.314L579.558 260.969C580.265 261.323 580.147 261.912 579.44 262.383ZM562.944 271.927L551.987 278.29C551.28 278.643 550.219 278.761 549.63 278.408L539.968 272.752C539.379 272.398 539.379 271.809 540.086 271.338L551.044 264.975C551.751 264.622 552.811 264.504 553.4 264.858L563.062 270.513C563.651 270.985 563.534 271.574 562.944 271.927ZM546.331 281.471L535.373 287.834C534.666 288.187 533.606 288.305 533.016 287.952L523.355 282.296C522.766 281.942 522.766 281.353 523.473 280.882L534.43 274.519C535.137 274.166 536.198 274.048 536.787 274.402L546.449 280.057C547.156 280.529 547.038 281.118 546.331 281.471ZM529.835 291.015L518.877 297.378C518.17 297.731 517.11 297.849 516.521 297.495L506.859 291.84C506.27 291.486 506.27 290.897 506.977 290.426L517.935 284.063C518.642 283.71 519.702 283.592 520.291 283.945L529.953 289.601C530.66 290.072 530.542 290.661 529.835 291.015ZM513.339 300.559L502.382 306.921C501.675 307.275 500.614 307.393 500.025 307.039L490.363 301.502C489.774 301.148 489.774 300.559 490.481 300.088L501.439 293.725C502.146 293.371 503.206 293.254 503.795 293.607L513.457 299.263C514.164 299.498 514.046 300.205 513.339 300.559ZM496.962 310.103L486.004 316.465C485.297 316.819 484.236 316.937 483.647 316.583L473.986 311.045C473.396 310.692 473.396 310.103 474.103 309.632L485.061 303.269C485.768 302.916 486.829 302.798 487.418 303.151L497.079 308.689C497.669 309.042 497.669 309.632 496.962 310.103ZM480.466 319.529L469.626 325.774C468.919 326.127 467.858 326.245 467.269 325.892L457.608 320.354C457.018 320 457.019 319.411 457.726 318.94L468.565 312.695C469.272 312.342 470.333 312.224 470.922 312.577L480.584 318.115C481.291 318.586 481.173 319.176 480.466 319.529ZM464.088 329.073L453.248 335.318C452.541 335.671 451.481 335.789 450.892 335.436L441.23 329.898C440.641 329.544 440.641 328.955 441.347 328.484L452.188 322.239C452.895 321.885 453.955 321.768 454.544 322.121L464.206 327.659C464.913 328.012 464.795 328.602 464.088 329.073ZM447.828 337.085C448.417 337.439 448.417 338.028 447.71 338.499L436.87 344.744C436.163 345.097 435.103 345.215 434.514 344.862L424.852 339.324C424.263 338.97 424.263 338.381 424.97 337.91L435.81 331.665C436.517 331.311 437.577 331.194 438.166 331.547L447.828 337.085ZM431.568 346.629C432.157 346.983 432.157 347.572 431.45 348.043L420.61 354.288C419.903 354.641 418.843 354.759 418.254 354.405L408.592 348.868C408.003 348.514 408.003 347.925 408.71 347.454L419.55 341.209C420.257 340.856 421.317 340.738 421.906 341.091L431.568 346.629ZM415.19 356.055C415.779 356.409 415.779 356.998 415.072 357.469L404.232 363.714C403.525 364.067 402.465 364.185 401.876 363.832L392.214 358.294C391.625 357.94 391.625 357.351 392.332 356.88L403.172 350.635C403.879 350.282 404.939 350.164 405.528 350.517L415.19 356.055ZM398.93 365.481C399.519 365.835 399.519 366.424 398.812 366.895L387.972 373.14C387.265 373.494 386.205 373.611 385.616 373.258L375.954 367.72C375.365 367.366 375.365 366.777 376.072 366.424L386.912 360.179C387.619 359.826 388.679 359.708 389.268 360.061L398.93 365.481ZM382.67 374.789C383.259 375.143 383.259 375.732 382.552 376.086L365.821 385.747C365.114 386.101 364.054 386.219 363.465 385.865L353.803 380.327C353.214 379.974 353.214 379.385 353.92 379.031L370.652 369.369C371.359 369.016 372.419 368.898 373.008 369.252L382.67 374.789ZM581.207 244.238L570.132 250.601C569.425 250.954 568.364 251.072 567.775 250.718L562.237 247.419C561.648 247.066 561.648 246.477 562.355 246.005L573.431 239.643C574.138 239.289 575.198 239.171 575.787 239.525L581.325 242.824C582.032 243.178 581.914 243.884 581.207 244.238ZM564.712 253.782L553.754 260.144C553.047 260.498 551.987 260.616 551.397 260.262L545.86 256.963C545.27 256.61 545.27 256.021 545.977 255.549L556.935 249.187C557.642 248.833 558.703 248.715 559.292 249.069L564.829 252.368C565.419 252.839 565.419 253.429 564.712 253.782ZM548.098 263.444L537.14 269.806C536.433 270.16 535.373 270.278 534.784 269.924L529.246 266.625C528.657 266.271 528.657 265.682 529.364 265.211L540.322 258.849C541.029 258.495 542.089 258.377 542.678 258.731L548.216 262.03C548.923 262.383 548.805 262.972 548.098 263.444ZM531.603 272.988L520.645 279.35C519.938 279.704 518.877 279.822 518.288 279.468L512.75 276.169C512.161 275.816 512.161 275.226 512.868 274.755L523.826 268.392C524.533 268.039 525.593 267.921 526.182 268.275L531.72 271.574C532.31 271.927 532.309 272.516 531.603 272.988ZM515.107 282.531L504.149 288.894C503.442 289.248 502.382 289.365 501.792 289.012L496.255 285.831C495.666 285.477 495.666 284.888 496.373 284.417L507.33 278.054C508.037 277.701 509.098 277.583 509.687 277.936L515.225 281.118C515.814 281.471 515.814 282.06 515.107 282.531ZM498.611 292.076L487.653 298.438C486.946 298.792 485.886 298.909 485.297 298.556L479.759 295.375C479.17 295.021 479.17 294.432 479.877 293.961L490.835 287.598C491.541 287.245 492.602 287.127 493.191 287.48L498.729 290.662C499.318 291.015 499.318 291.604 498.611 292.076ZM482.115 301.502L471.158 307.864C470.451 308.218 469.39 308.336 468.801 307.982L463.263 304.801C462.674 304.447 462.674 303.858 463.381 303.387L474.339 297.024C475.046 296.671 476.106 296.553 476.695 296.906L482.233 300.088C482.94 300.559 482.822 301.148 482.115 301.502ZM465.738 311.045L454.898 317.29C454.191 317.644 453.13 317.762 452.541 317.408L447.003 314.227C446.414 313.873 446.414 313.284 447.121 312.813L457.961 306.568C458.668 306.215 459.729 306.097 460.318 306.45L465.855 309.632C466.445 309.985 466.445 310.574 465.738 311.045ZM449.36 320.471L438.52 326.716C437.813 327.07 436.752 327.188 436.163 326.834L430.625 323.653C430.036 323.3 430.036 322.71 430.743 322.239L441.583 315.994C442.29 315.641 443.351 315.523 443.94 315.876L449.478 319.058C450.067 319.529 450.067 320.118 449.36 320.471ZM433.1 328.602C433.689 328.955 433.689 329.544 432.982 330.016L422.142 336.26C421.435 336.614 420.375 336.731 419.786 336.378L414.247 333.197C413.658 332.843 413.658 332.254 414.365 331.783L425.205 325.538C425.912 325.185 426.973 325.067 427.562 325.42L433.1 328.602ZM416.722 338.028C417.311 338.381 417.311 338.97 416.604 339.442L405.764 345.686C405.057 346.04 403.997 346.158 403.408 345.804L397.87 342.623C397.281 342.269 397.281 341.68 397.988 341.209L408.828 334.964C409.535 334.611 410.595 334.493 411.184 334.847L416.722 338.028ZM400.462 347.454C401.051 347.807 401.051 348.396 400.344 348.868L389.504 355.113C388.797 355.466 387.737 355.584 387.147 355.23L381.61 352.049C381.021 351.695 381.021 351.106 381.728 350.635L392.568 344.39C393.275 344.037 394.335 343.919 394.924 344.273L400.462 347.454ZM384.202 356.88C384.791 357.233 384.791 357.823 384.084 358.294L373.244 364.539C372.537 364.892 371.477 365.01 370.888 364.656L365.35 361.475C364.76 361.122 364.761 360.533 365.468 360.179L376.307 353.934C377.014 353.581 378.075 353.463 378.664 353.816L384.202 356.88ZM367.942 366.306C368.531 366.66 368.531 367.248 367.824 367.602L351.093 377.264C350.386 377.617 349.325 377.735 348.736 377.382L343.198 374.2C342.609 373.847 342.609 373.258 343.316 372.904L360.047 363.242C360.754 362.889 361.815 362.771 362.404 363.125L367.942 366.306ZM391.743 374.318C392.45 373.965 393.51 373.847 394.099 374.2L403.761 379.738C404.35 380.092 404.35 380.681 403.643 381.034L380.667 394.231C379.96 394.584 378.9 394.702 378.31 394.349L368.649 388.811C368.06 388.457 368.06 387.868 368.767 387.515L391.743 374.318ZM414.955 378.089C415.661 377.735 416.722 377.617 417.311 377.971L426.973 383.509C427.562 383.862 427.562 384.451 426.855 384.805L395.631 402.832C394.924 403.186 393.864 403.303 393.275 402.95L383.613 397.412C383.024 397.059 383.024 396.47 383.731 396.116L414.955 378.089ZM409.181 398.237C409.888 397.883 410.949 397.766 411.538 398.119L421.199 403.657C421.789 404.01 421.788 404.6 421.081 404.953L410.359 411.198C409.652 411.551 408.592 411.669 408.003 411.316L398.341 405.778C397.752 405.424 397.752 404.835 398.459 404.482L409.181 398.237ZM414.483 396.469C413.894 396.116 413.894 395.527 414.601 395.173L425.441 388.929C426.148 388.575 427.208 388.457 427.797 388.811L437.459 394.349C438.049 394.702 438.048 395.291 437.342 395.645L426.502 401.89C425.795 402.243 424.734 402.361 424.145 402.007L414.483 396.469ZM430.743 387.161C430.154 386.808 430.154 386.219 430.861 385.865L444.765 377.853C445.472 377.5 446.532 377.382 447.121 377.735L456.783 383.273C457.372 383.626 457.372 384.216 456.665 384.569L442.762 392.581C442.055 392.935 440.994 393.052 440.405 392.699L430.743 387.161ZM419.903 371.726L409.063 377.971C408.356 378.324 407.296 378.442 406.707 378.089L397.045 372.551C396.456 372.197 396.456 371.608 397.163 371.255L408.003 365.01C408.71 364.656 409.77 364.539 410.359 364.892L420.021 370.43C420.61 370.783 420.61 371.372 419.903 371.726ZM429.918 381.741L420.257 376.203C419.668 375.85 419.668 375.261 420.375 374.907L431.215 368.663C431.922 368.309 432.982 368.191 433.571 368.545L443.233 374.082C443.822 374.436 443.822 375.025 443.115 375.379L432.275 381.623C431.568 382.095 430.508 382.095 429.918 381.741ZM450.184 375.968C449.595 375.614 449.595 375.025 450.302 374.672L466.091 365.599C466.798 365.245 467.858 365.128 468.448 365.481L478.11 371.019C478.699 371.373 478.699 371.962 477.992 372.315L462.203 381.388C461.496 381.741 460.436 381.859 459.846 381.506L450.184 375.968ZM429.683 353.699C429.094 353.345 429.094 352.756 429.801 352.285L440.641 346.04C441.348 345.687 442.408 345.569 442.997 345.922L452.659 351.46C453.248 351.813 453.248 352.402 452.541 352.874L441.701 359.119C440.994 359.472 439.934 359.59 439.345 359.236L429.683 353.699ZM436.163 362.3L425.323 368.545C424.616 368.898 423.556 369.016 422.967 368.663L413.305 363.125C412.716 362.771 412.716 362.182 413.423 361.711L424.263 355.466C424.97 355.113 426.03 354.995 426.619 355.348L436.281 360.886C436.988 361.357 436.87 361.946 436.163 362.3ZM449.831 359.119L459.493 364.656C460.082 365.01 460.082 365.599 459.375 366.07L448.535 372.315C447.828 372.668 446.768 372.786 446.178 372.433L436.517 366.895C435.928 366.542 435.927 365.953 436.634 365.481L447.475 359.236C448.182 358.883 449.242 358.765 449.831 359.119ZM462.556 363.007L452.895 357.469C452.305 357.116 452.306 356.527 453.012 356.055L463.852 349.81C464.559 349.457 465.62 349.339 466.209 349.692L475.871 355.23C476.46 355.584 476.46 356.173 475.753 356.644L464.913 362.889C464.206 363.242 463.145 363.36 462.556 363.007ZM471.511 363.714C470.922 363.36 470.922 362.771 471.629 362.3L541.382 322.121C542.089 321.768 543.15 321.65 543.739 322.003L553.4 327.541C553.99 327.895 553.989 328.484 553.282 328.955L483.529 369.134C482.822 369.487 481.762 369.605 481.173 369.252L471.511 363.714ZM495.312 314.463L506.27 308.1C506.977 307.746 508.037 307.629 508.626 307.982L518.288 313.52C518.877 313.873 518.877 314.462 518.17 314.934L507.213 321.179C506.506 321.532 505.445 321.65 504.856 321.296L495.194 315.758C494.487 315.523 494.605 314.934 495.312 314.463ZM515.46 321.296L525.122 326.834C525.711 327.188 525.711 327.777 525.004 328.248L514.047 334.493C513.34 334.846 512.279 334.964 511.69 334.611L502.028 329.073C501.439 328.719 501.439 328.13 502.146 327.659L513.104 321.414C513.693 321.061 514.753 320.943 515.46 321.296ZM478.816 324.006L489.656 317.762C490.363 317.408 491.424 317.29 492.013 317.644L501.675 323.182C502.264 323.535 502.264 324.124 501.557 324.595L490.599 330.84C489.892 331.194 488.832 331.312 488.242 330.958L478.581 325.42C478.109 324.949 478.227 324.36 478.816 324.006ZM498.965 330.84L508.626 336.378C509.216 336.731 509.215 337.321 508.508 337.792L497.669 344.037C496.962 344.39 495.901 344.508 495.312 344.155L485.65 338.617C485.061 338.263 485.061 337.674 485.768 337.203L496.608 330.958C497.315 330.487 498.376 330.487 498.965 330.84ZM462.321 334.847C461.731 334.493 461.732 333.904 462.439 333.432L473.279 327.188C473.985 326.834 475.046 326.716 475.635 327.07L485.297 332.608C485.886 332.961 485.886 333.55 485.179 334.021L474.339 340.266C473.632 340.62 472.571 340.738 471.982 340.384L462.321 334.847ZM468.919 343.448L458.079 349.692C457.372 350.046 456.312 350.164 455.723 349.81L446.061 344.273C445.471 343.919 445.472 343.33 446.178 342.858L457.018 336.614C457.725 336.26 458.786 336.142 459.375 336.496L469.037 342.034C469.626 342.505 469.508 343.094 468.919 343.448ZM482.587 340.266L492.249 345.804C492.838 346.158 492.838 346.747 492.131 347.218L481.291 353.463C480.584 353.816 479.523 353.934 478.934 353.581L469.273 348.043C468.683 347.69 468.683 347.1 469.39 346.629L480.23 340.384C480.937 339.913 481.998 339.913 482.587 340.266ZM528.068 325.185L518.406 319.647C517.817 319.293 517.817 318.704 518.524 318.233L529.482 311.87C530.189 311.517 531.249 311.399 531.838 311.752L541.5 317.29C542.089 317.644 542.089 318.233 541.382 318.704L530.424 324.949C529.717 325.538 528.657 325.538 528.068 325.185ZM546.92 318.94L562.709 309.867C563.415 309.514 564.476 309.396 565.065 309.749L574.727 315.287C575.316 315.641 575.316 316.23 574.609 316.701L558.82 325.774C558.114 326.127 557.053 326.245 556.464 325.892L546.802 320.354C546.095 320 546.213 319.411 546.92 318.94ZM528.186 295.492L539.143 289.13C539.85 288.776 540.911 288.658 541.5 289.012L551.162 294.668C551.751 295.021 551.751 295.61 551.044 296.082L540.086 302.444C539.379 302.798 538.319 302.915 537.729 302.562L528.068 296.906C527.479 296.435 527.479 295.846 528.186 295.492ZM523.59 311.87C522.883 312.224 521.823 312.342 521.234 311.988L511.572 306.45C510.983 306.097 510.983 305.508 511.69 305.036L522.648 298.674C523.355 298.32 524.415 298.202 525.004 298.556L534.666 304.212C535.255 304.565 535.255 305.154 534.548 305.626L523.59 311.87ZM548.334 302.326L557.995 307.982C558.585 308.336 558.585 308.925 557.878 309.396L546.92 315.758C546.213 316.112 545.153 316.23 544.563 315.876L534.902 310.339C534.313 309.985 534.312 309.396 535.019 308.925L545.977 302.562C546.684 301.973 547.745 301.973 548.334 302.326ZM551.397 300.559C550.808 300.205 550.808 299.616 551.515 299.145L562.473 292.782C563.18 292.429 564.24 292.311 564.829 292.665L574.491 298.32C575.08 298.674 575.08 299.263 574.374 299.734L563.416 306.097C562.709 306.45 561.648 306.568 561.059 306.215L551.397 300.559ZM568.129 306.686L580.029 299.852C580.736 299.498 581.797 299.381 582.386 299.734L592.047 305.39C592.637 305.743 592.636 306.333 591.93 306.804L580.029 313.638C579.322 313.991 578.262 314.109 577.673 313.755L568.011 308.218C567.422 307.746 567.422 307.157 568.129 306.686ZM556.582 292.9C555.875 293.254 554.814 293.372 554.225 293.018L544.563 287.362C543.974 287.009 543.974 286.42 544.681 285.949L555.639 279.586C556.346 279.232 557.406 279.115 557.995 279.468L567.657 285.124C568.247 285.477 568.246 286.066 567.54 286.538L556.582 292.9ZM570.721 283.356L561.059 277.701C560.47 277.347 560.47 276.758 561.177 276.287L572.135 269.924C572.842 269.571 573.902 269.453 574.491 269.806L584.153 275.462C584.742 275.815 584.742 276.404 584.035 276.876L573.077 283.239C572.37 283.71 571.31 283.71 570.721 283.356ZM590.869 290.308L579.911 296.671C579.204 297.024 578.144 297.142 577.555 296.789L567.893 291.133C567.304 290.779 567.304 290.19 568.011 289.719L578.969 283.356C579.676 283.003 580.736 282.885 581.325 283.239L590.987 288.894C591.694 289.248 591.576 289.837 590.869 290.308ZM591.93 300.441L603.83 293.607C604.537 293.254 605.597 293.136 606.187 293.489L609.368 295.375C609.957 295.728 609.957 296.317 609.25 296.789L597.35 303.623C596.643 303.976 595.582 304.094 594.993 303.74L591.812 301.855C591.105 301.502 591.223 300.912 591.93 300.441ZM602.063 286.773L613.963 279.939C614.67 279.586 615.73 279.468 616.319 279.821L619.147 281.471C619.737 281.825 619.736 282.414 619.03 282.885L607.129 289.719C606.422 290.072 605.362 290.19 604.773 289.837L601.945 288.187C601.238 287.834 601.356 287.245 602.063 286.773ZM609.014 290.897L620.915 284.063C621.622 283.71 622.682 283.592 623.271 283.945L626.217 285.713C626.806 286.066 626.806 286.656 626.099 287.127L614.199 293.961C613.492 294.314 612.431 294.432 611.842 294.079L608.897 292.311C608.308 291.84 608.307 291.251 609.014 290.897Z" fill="#DCE4F5"/>
<path d="M321.636 389.636L315.981 386.337C315.038 385.747 314.213 384.215 314.213 382.919C314.213 381.623 315.038 381.034 315.981 381.623L321.636 384.923C322.579 385.512 323.404 387.043 323.404 388.34C323.404 389.636 322.579 390.225 321.636 389.636Z" fill="#849BCF"/>
<path d="M337.543 399.181L331.887 395.881C330.945 395.292 330.12 393.761 330.12 392.465C330.12 391.168 330.945 390.579 331.887 391.168L337.543 394.468C338.485 395.057 339.31 396.589 339.31 397.885C339.31 399.181 338.485 399.77 337.543 399.181Z" fill="#849BCF"/>
<path d="M557.406 15.7735V202.882C557.406 204.06 556.582 205.474 555.521 206.063L311.032 347.336C309.972 347.926 309.147 347.454 309.147 346.276V159.168C309.147 157.99 309.972 156.576 311.032 155.987L555.521 14.7129C556.582 14.2416 557.406 14.7131 557.406 15.7735Z" fill="#DEE7F7"/>
<path fill-rule="evenodd" clip-rule="evenodd" d="M380.314 116.162V307.512L311.15 347.455C310.089 348.044 309.265 347.573 309.265 346.394V159.287C309.265 158.108 310.089 156.694 311.15 156.105L380.314 116.162Z" fill="url(#paint3_linear_369_532)"/>
<path opacity="0.3" d="M355.553 192.14C362.57 180.872 362.975 168.448 356.457 164.389C349.939 160.33 338.967 166.174 331.95 177.441C324.933 188.709 324.528 201.134 331.045 205.193C337.563 209.252 348.535 203.408 355.553 192.14Z" fill="white"/>
<path opacity="0.2" d="M365.35 208.656L322.815 233.163C320.929 234.224 319.515 233.163 319.515 230.807C319.515 228.45 321.047 225.623 322.815 224.562L365.35 200.054C367.235 198.994 368.649 200.054 368.649 202.411C368.649 204.767 367.117 207.477 365.35 208.656Z" fill="white"/>
<path opacity="0.1" d="M361.226 222.323L326.821 242.235C325.642 242.942 324.7 242.235 324.7 240.704C324.7 239.172 325.642 237.405 326.821 236.698L361.226 216.785C362.404 216.078 363.347 216.785 363.347 218.317C363.347 219.848 362.404 221.616 361.226 222.323Z" fill="white"/>
<path d="M546.213 39.4568V194.752C546.213 196.166 545.388 197.698 544.328 198.287L396.927 282.768C395.867 283.357 395.042 282.768 395.042 281.354V126.177C395.042 124.763 395.867 123.231 396.927 122.642L544.328 38.1609C545.388 37.454 546.213 38.0429 546.213 39.4568Z" fill="white"/>
<path d="M500.261 133.953L440.169 168.123C439.462 168.476 438.873 168.123 438.873 167.18C438.873 166.238 439.462 165.177 440.169 164.824L500.261 130.654C500.968 130.3 501.557 130.654 501.557 131.597C501.557 132.539 500.968 133.6 500.261 133.953Z" fill="#DCE4F5"/>
<path d="M466.916 161.525L440.169 176.372C439.462 176.725 438.873 176.372 438.873 175.429C438.873 174.486 439.462 173.426 440.169 173.072L466.916 158.226C467.623 157.873 468.212 158.226 468.212 159.169C468.212 160.112 467.623 161.172 466.916 161.525Z" fill="#DCE4F5"/>
<path d="M428.858 185.561L417.076 192.277C416.133 192.866 415.426 192.277 415.426 191.099V178.727C415.426 177.549 416.133 176.135 417.076 175.546L428.858 168.83C429.801 168.241 430.508 168.83 430.508 170.008V182.38C430.508 183.676 429.801 185.09 428.858 185.561Z" fill="#DCE4F5"/>
<path d="M500.261 163.763L440.169 197.933C439.462 198.287 438.873 197.933 438.873 196.991C438.873 196.048 439.462 194.988 440.169 194.634L500.261 160.465C500.968 160.111 501.557 160.464 501.557 161.407C501.557 162.35 500.968 163.41 500.261 163.763Z" fill="#DCE4F5"/>
<path d="M466.916 191.453L440.169 206.299C439.462 206.653 438.873 206.299 438.873 205.356C438.873 204.414 439.462 203.353 440.169 203L466.916 188.154C467.623 187.801 468.212 188.154 468.212 189.096C468.212 189.921 467.623 190.982 466.916 191.453Z" fill="#DCE4F5"/>
<path d="M428.858 215.49L417.076 222.206C416.133 222.795 415.426 222.206 415.426 221.028V208.656C415.426 207.477 416.133 206.064 417.076 205.475L428.858 198.758C429.801 198.169 430.508 198.758 430.508 199.937V212.308C430.508 213.487 429.801 214.901 428.858 215.49Z" fill="#DCE4F5"/>
<path d="M500.261 194.28L440.169 228.45C439.462 228.803 438.873 228.45 438.873 227.507C438.873 226.565 439.462 225.504 440.169 225.151L500.261 190.981C500.968 190.628 501.557 190.981 501.557 191.924C501.557 192.749 500.968 193.809 500.261 194.28Z" fill="#DCE4F5"/>
<path d="M466.916 221.852L440.169 236.698C439.462 237.051 438.873 236.698 438.873 235.755C438.873 234.813 439.462 233.752 440.169 233.399L466.916 218.552C467.623 218.199 468.212 218.552 468.212 219.495C468.212 220.438 467.623 221.498 466.916 221.852Z" fill="#DCE4F5"/>
<path d="M428.858 245.888L417.076 252.604C416.133 253.194 415.426 252.604 415.426 251.426V239.054C415.426 237.876 416.133 236.462 417.076 235.873L428.858 229.157C429.801 228.568 430.508 229.157 430.508 230.335V242.707C430.508 243.885 429.801 245.299 428.858 245.888Z" fill="#DCE4F5"/>
<path d="M546.331 69.6199L546.213 85.5265L394.924 172.836V126.177C394.924 124.763 395.749 123.231 396.81 122.642L544.21 38.1604C545.27 37.5713 546.095 38.1603 546.095 39.5742V69.7379L546.331 69.6199Z" fill="url(#paint4_linear_369_532)"/>
<path d="M546.331 69.6202L546.213 85.5267L395.042 172.836V165.059L406.942 147.857L409.063 144.793L416.015 147.385L418.843 143.38L422.731 139.02L422.967 138.784L434.514 139.373H434.985L447.946 121.699V121.582L453.248 119.225L468.684 118.989L476.342 104.85L484.943 86.4694L494.134 90.4753H494.369L500.025 87.5297L500.143 87.412L509.687 91.1824H509.805L524.18 68.324L524.415 68.4419L534.195 73.7441V73.6261L537.847 69.2666L538.908 67.9707L546.213 69.6202H546.331Z" fill="#001E2B"/>
<path opacity="0.4" d="M418.607 151.039L412.716 148.8L408.003 149.035L406.942 147.739L409.063 144.676L416.133 147.268C418.489 149.742 418.607 151.039 418.607 151.039Z" fill="#BDC9FF"/>
<path opacity="0.4" d="M436.753 141.376L431.804 141.14L425.441 141.729L424.499 141.258L422.731 141.022V139.019L422.849 138.901L434.396 139.373L434.514 139.49L436.753 141.376Z" fill="#BDC9FF"/>
<path opacity="0.4" d="M472.218 119.696L456.547 123.349L453.484 123.938L449.006 125.823L447.71 123.231L447.946 121.699V121.582L453.13 119.225L468.684 118.989L472.218 119.696Z" fill="#BDC9FF"/>
<path opacity="0.4" d="M499.436 96.2494L488.125 93.657C488.125 93.657 486.004 90.4758 484.943 86.4697L494.134 90.4757L494.252 90.358C497.197 93.0681 499.436 96.2494 499.436 96.2494Z" fill="#BDC9FF"/>
<path opacity="0.4" d="M511.337 93.539L503.678 92.5963C503.678 92.5963 502.028 89.533 500.143 87.4121H500.261L509.805 91.1825C510.512 92.9499 511.337 93.539 511.337 93.539Z" fill="#BDC9FF"/>
<path opacity="0.4" d="M536.669 76.219C536.551 76.219 529.246 74.098 528.892 73.7446C528.539 73.3911 524.769 73.391 524.769 73.391C524.769 73.391 524.415 71.1524 524.415 68.4424L534.195 73.7446C535.255 75.1585 536.669 76.219 536.669 76.219Z" fill="#BDC9FF"/>
<path opacity="0.4" d="M546.331 69.6202H546.213H540.675L540.793 70.7984L537.847 69.2666L538.908 67.9707L546.213 69.6202H546.331Z" fill="#BDC9FF"/>
<path d="M516.335 74.4528C518.527 70.912 518.555 66.9586 516.397 65.6227C514.24 64.2867 510.713 66.0741 508.521 69.615C506.329 73.1558 506.3 77.1093 508.458 78.4452C510.616 79.7812 514.142 77.9937 516.335 74.4528Z" fill="white"/>
<path opacity="0.1" d="M185.629 449.232C210.718 448.001 230.494 435.569 229.802 421.465C229.11 407.361 208.211 396.925 183.122 398.157C158.034 399.388 138.257 411.82 138.949 425.924C139.642 440.028 160.541 450.464 185.629 449.232Z" fill="#447489"/>
<path d="M122.746 376.439L138.652 428.283C139.595 432.407 142.894 436.295 148.314 439.476C161.746 447.253 183.544 447.135 196.976 439.359C202.278 436.295 205.46 432.525 206.638 428.636L222.662 375.85C222.662 375.85 156.68 366.896 155.973 366.896C155.266 366.896 133.939 370.312 133.232 370.312C132.525 370.548 122.746 376.439 122.746 376.439Z" fill="url(#paint5_linear_369_532)"/>
<path d="M121.921 382.213C121.921 389.754 126.752 397.177 136.649 402.95C156.444 414.38 188.61 414.262 208.523 402.833C219.127 396.706 224.076 388.576 223.487 380.563V370.548H219.952V371.137C217.478 367.603 213.825 364.304 208.759 361.358C188.964 349.929 156.797 350.046 136.885 361.476C131.7 364.539 127.812 368.074 125.338 371.726V370.666H121.921V382.213V382.213Z" fill="#C4E3FF"/>
<path d="M172.918 400.285C200.965 400.133 223.63 386.874 223.542 370.671C223.454 354.467 200.647 341.455 172.6 341.607C144.553 341.76 121.888 355.018 121.976 371.221C122.064 387.425 144.871 400.437 172.918 400.285Z" fill="white"/>
<path d="M125.809 371.138C125.809 374.083 126.87 377.029 128.755 379.857C128.873 379.975 128.873 380.093 128.99 380.21C131.229 383.274 134.41 385.984 138.534 388.34C143.011 390.932 148.314 392.936 154.205 394.35C159.979 395.646 166.106 396.353 172.35 396.353C178.713 396.353 184.84 395.646 190.614 394.35C196.623 392.936 201.925 390.932 206.52 388.222C210.762 385.748 214.061 382.92 216.299 379.857C216.417 379.739 216.417 379.739 216.535 379.621C218.538 376.793 219.599 373.848 219.599 370.784C219.599 367.839 218.538 364.893 216.653 362.065C214.414 358.884 211.115 356.056 206.873 353.582C202.396 350.989 197.094 348.986 191.203 347.572C185.429 346.276 179.302 345.569 173.057 345.569C166.695 345.569 160.568 346.276 154.794 347.572C148.785 348.986 143.483 350.99 138.888 353.7C134.528 356.174 131.111 359.119 128.872 362.301C126.869 365.128 125.809 368.074 125.809 371.138Z" fill="#C4E3FF"/>
<path d="M128.99 380.21C131.229 383.273 134.41 385.983 138.534 388.339C143.012 390.932 148.314 392.935 154.205 394.349C159.979 395.645 166.106 396.352 172.35 396.352C178.713 396.352 184.84 395.645 190.614 394.349C196.623 392.935 201.925 390.931 206.52 388.221C210.762 385.747 214.061 382.919 216.299 379.856C214.061 376.793 210.88 374.082 206.756 371.726C202.278 369.134 196.976 367.131 191.085 365.717C185.311 364.421 179.184 363.714 172.94 363.714C166.577 363.714 160.45 364.421 154.677 365.717C148.667 367.131 143.365 369.134 138.77 371.844C134.528 374.318 131.229 377.146 128.99 380.21Z" fill="#323B70"/>
<path d="M171.29 328.161L189.435 338.765V338.648L227.493 316.496V294.463L171.29 306.128V328.161Z" fill="#AAD0A1"/>
<path d="M171.29 328.161L189.435 338.766V338.648V306.128H171.29V328.161Z" fill="#595959"/>
<path d="M189.435 316.615L227.493 294.463L209.348 283.977L171.29 306.128L189.435 316.615Z" fill="#CDECC6"/>
<path d="M153.145 376.941L171.29 387.428L189.435 376.941V233.075H153.145V376.941Z" fill="#AAD0A1"/>
<path d="M153.145 376.941L171.29 387.428V233.075H153.145V376.941Z" fill="#8BBF7F"/>
<path d="M171.29 243.562L189.435 233.075L171.29 222.589L153.145 233.075L171.29 243.562Z" fill="#CDECC6"/>
<path d="M115.087 322.741L133.114 333.228L171.29 311.076V289.043L115.087 300.708V322.741Z" fill="#AAD0A1"/>
<path d="M115.087 322.74L133.114 333.227V300.707H115.087V322.74Z" fill="#8BBF7F"/>
<path d="M133.114 311.194L171.29 289.043L153.027 278.557L115.087 300.708L133.114 311.194Z" fill="#CDECC6"/>
<path d="M115.087 300.708L133.114 311.194L151.259 300.708V273.019H115.087V300.708Z" fill="#AAD0A1"/>
<path d="M115.087 300.708L133.114 311.194V273.019H115.087V300.708Z" fill="#8BBF7F"/>
<path d="M133.114 283.505L151.259 273.019L133.114 262.532L115.087 273.019L133.114 283.505Z" fill="#CDECC6"/>
<path d="M191.203 294.58L209.348 305.066L227.493 294.58V266.891H191.203V294.58Z" fill="#AAD0A1"/>
<path d="M191.203 294.462L209.348 305.066V304.949V266.891H191.203V294.462Z" fill="#8BBF7F"/>
<path d="M209.348 277.378L227.493 266.892L209.348 256.405L191.203 266.892L209.348 277.378Z" fill="#CDECC6"/>
<path opacity="0.1" fill-rule="evenodd" clip-rule="evenodd" d="M808.259 191.923L806.609 192.866L805.902 193.337L805.549 193.572L724.956 240.114H724.838C724.484 240.349 724.013 240.467 723.659 240.585C723.542 240.585 723.542 240.585 723.424 240.703C722.363 241.056 721.185 240.938 720.243 240.349L608.308 175.781H608.425C607.365 174.956 606.658 173.424 606.658 171.303C606.658 168.475 607.836 165.294 609.721 162.584C610.9 161.052 612.196 159.639 613.61 158.696L614.434 158.224L642.713 155.986L694.321 126.176L786.814 179.551L796.122 184.971L800.246 187.327L806.138 190.745L808.023 191.805L808.259 191.923Z" fill="#447489"/>
<path fill-rule="evenodd" clip-rule="evenodd" d="M796.947 187.563L795.298 188.506L794.591 188.977L794.237 189.213L713.644 235.754H713.526C713.173 235.99 712.701 236.107 712.348 236.225C711.287 236.579 710.345 236.579 709.52 236.225L708.931 235.872L596.996 171.303H597.114C596.054 170.478 595.347 168.947 595.347 166.826C595.347 163.998 596.525 160.817 598.41 158.107C599.588 156.575 600.884 155.161 602.298 154.218L603.123 153.747L631.401 151.508L683.009 121.698L775.503 175.074L784.811 180.494L788.935 182.85L794.826 186.267L796.712 187.327L796.947 187.563Z" fill="#5BBDEC"/>
<path fill-rule="evenodd" clip-rule="evenodd" d="M788.817 182.85C788.582 183.675 788.464 184.499 788.464 185.324C788.464 188.977 790.938 190.626 794.002 189.095L713.409 235.636H713.291C712.937 235.872 712.466 235.99 712.112 236.107C711.052 236.461 710.109 236.461 709.285 236.107C709.049 235.99 708.931 235.872 708.695 235.754C707.753 235.047 707.164 233.751 707.164 231.983C707.164 229.038 708.813 225.503 711.052 223.147C711.288 222.911 711.523 222.675 711.759 222.557L711.877 222.439L711.995 222.322L712.112 222.204C712.112 222.204 712.23 222.204 712.23 222.086C712.23 222.086 712.348 222.086 712.348 221.968C712.466 221.85 712.584 221.85 712.701 221.733L712.819 221.615C712.819 221.615 712.937 221.615 712.937 221.497C713.055 221.379 713.173 221.379 713.173 221.261C713.173 221.261 713.291 221.261 713.291 221.144C713.291 221.144 713.409 221.143 713.409 221.026C713.526 221.026 713.644 220.908 713.762 220.908C714.351 220.672 715.529 219.965 715.529 219.965L715.883 218.198C715.883 218.198 733.792 199.817 740.626 198.639C745.928 197.696 766.077 182.025 775.149 174.72C777.859 172.481 779.627 171.067 779.627 171.067C780.098 171.067 793.412 172.835 793.412 172.835L794.591 174.249L794.473 174.366C794.237 174.484 794.002 174.602 793.766 174.838C791.645 176.841 789.642 179.904 788.817 182.85Z" fill="white"/>
<path fill-rule="evenodd" clip-rule="evenodd" d="M796.947 173.425L785.989 179.787L780.923 182.733L714.115 221.262C713.88 221.38 713.762 221.498 713.526 221.616C712.701 222.087 711.995 222.676 711.288 223.383L709.991 222.558L619.148 170.715L598.174 158.461C598.292 158.343 598.41 158.225 598.41 158.107C599.588 156.576 600.884 155.162 602.298 154.219L603.123 153.748L683.009 107.678L796.947 173.425Z" fill="#91D5F5"/>
<path fill-rule="evenodd" clip-rule="evenodd" d="M782.337 177.313L781.041 178.02L780.452 178.256L780.098 178.374L715.647 210.54C715.647 210.54 715.647 210.54 715.529 210.54C715.176 210.658 714.94 210.776 714.587 210.893C713.762 211.129 713.055 211.011 712.466 210.776L712.112 210.54L628.691 155.279L697.384 120.992L766.312 166.591L773.264 171.186L776.328 173.189L780.687 176.135L782.101 177.077L782.337 177.313Z" fill="#5C3980"/>
<path fill-rule="evenodd" clip-rule="evenodd" d="M725.662 171.54L709.638 168.594L716.708 199.464C716.708 199.464 716.59 199.464 716.59 199.582H716.472H716.354C716.236 199.582 716.236 199.7 716.119 199.7C716.119 199.7 716.001 199.7 716.001 199.818C716.001 199.818 715.883 199.818 715.883 199.936C715.765 199.936 715.647 200.053 715.647 200.053C715.647 200.053 715.647 200.053 715.529 200.053C715.529 200.053 715.529 200.054 715.411 200.171C715.411 200.171 715.294 200.171 715.294 200.289C715.294 200.289 715.176 200.289 715.176 200.407C715.176 200.407 715.058 200.407 715.058 200.525C714.822 200.643 714.704 200.761 714.469 200.996L714.351 201.114C712.584 202.882 711.17 205.356 711.052 207.595C710.934 209.008 711.405 209.951 711.995 210.54L667.574 181.084L642.83 164.706L629.634 155.987C628.22 155.515 627.395 154.101 627.513 151.863C627.631 149.624 628.691 147.267 630.341 145.264C631.284 144.086 632.344 143.144 633.522 142.437L634.229 142.083L665.335 137.016L671.698 135.956L681.831 133.6H694.321L710.227 139.609L725.191 149.506L746.517 163.645L725.662 171.54Z" fill="#001E2B"/>
<path fill-rule="evenodd" clip-rule="evenodd" d="M782.337 177.313L781.041 178.02L780.452 178.255L780.098 178.373L715.647 210.54C715.647 210.54 715.647 210.54 715.529 210.54C715.176 210.658 714.94 210.775 714.587 210.893C713.762 211.129 713.055 211.011 712.466 210.775L712.112 210.54C711.405 209.951 711.052 208.89 711.17 207.594C711.287 205.356 712.701 202.763 714.469 201.114L714.587 200.996C714.822 200.878 714.94 200.642 715.176 200.525L715.294 200.407C715.294 200.407 715.411 200.407 715.411 200.289C715.411 200.289 715.529 200.289 715.529 200.171C715.529 200.171 715.647 200.171 715.647 200.053C715.647 200.053 715.647 200.053 715.765 200.053C715.883 199.935 716.001 199.935 716.001 199.818C716.001 199.818 716.119 199.817 716.119 199.7C716.119 199.7 716.236 199.7 716.236 199.582C716.354 199.582 716.354 199.464 716.472 199.464H716.59H716.708C716.826 199.464 716.825 199.464 716.943 199.346L709.874 168.476L725.898 171.421L746.753 163.527L710.463 139.491L694.556 133.481H682.067L671.934 135.838L665.571 136.899L688.901 125.234L692.435 123.466L697.738 120.874L746.282 153.041L756.533 159.757L766.666 166.473L773.618 171.068L776.681 173.071L781.041 176.017L782.455 176.959L782.337 177.313Z" fill="#001E2B"/>
<path opacity="0.1" fill-rule="evenodd" clip-rule="evenodd" d="M785.872 179.787L780.805 182.733L719.535 213.249C719.535 213.249 719.535 213.249 719.418 213.249C719.064 213.367 718.829 213.485 718.475 213.603C717.65 213.839 716.943 213.721 716.354 213.485L716.001 213.249C715.294 212.66 710.934 208.772 710.698 207.24L714.587 208.536L775.032 176.606L775.974 173.188L777.152 174.013L780.216 176.016L784.575 178.844L785.872 179.787Z" fill="#001E2B"/>
<path fill-rule="evenodd" clip-rule="evenodd" d="M781.276 167.179C781.276 167.179 781.158 167.179 781.158 167.297C781.041 167.415 780.805 167.533 780.687 167.65C778.684 168.829 777.034 171.068 776.328 173.306C776.092 173.895 775.974 174.602 775.974 175.192C775.738 178.019 777.624 179.433 780.098 178.373L715.647 210.539C715.647 210.539 715.647 210.539 715.529 210.539C715.176 210.657 714.94 210.775 714.587 210.893C713.762 211.128 713.055 211.011 712.466 210.775L712.112 210.539C711.405 209.95 711.052 208.89 711.17 207.594C711.287 205.355 712.701 202.763 714.469 201.113L714.587 200.995C714.822 200.878 714.94 200.642 715.176 200.524L715.293 200.406C715.293 200.406 715.411 200.406 715.411 200.288C715.411 200.288 715.529 200.288 715.529 200.171C715.529 200.171 715.647 200.171 715.647 200.053C715.647 200.053 715.647 200.053 715.765 200.053C715.883 199.935 716.001 199.935 716.001 199.817C716.001 199.817 716.118 199.817 716.118 199.699C716.118 199.699 716.236 199.699 716.236 199.582C716.354 199.582 716.354 199.464 716.472 199.464H716.59H716.708C716.825 199.464 716.825 199.464 716.943 199.346C716.943 199.346 716.943 199.346 717.061 199.346C717.532 199.228 718.475 198.639 718.475 198.639L718.828 197.343C718.828 197.343 733.557 184.029 738.859 183.439C741.804 183.086 751.349 177.077 759.125 171.774C760.185 171.067 761.128 170.361 762.188 169.771C763.838 168.593 765.37 167.533 766.666 166.59C768.905 165.058 770.319 163.998 770.319 163.998C770.672 163.998 780.805 166.001 780.805 166.001L781.276 167.179Z" fill="#5C3980"/>
<path fill-rule="evenodd" clip-rule="evenodd" d="M716.708 199.464V199.699C716.59 199.817 716.354 199.818 716.236 199.935C715.647 200.289 714.94 200.642 714.469 201.231L714.351 201.114L714.469 200.996C714.705 200.878 714.822 200.642 715.058 200.524L715.176 200.407C715.176 200.407 715.294 200.406 715.294 200.289C715.294 200.289 715.412 200.289 715.412 200.171C715.412 200.171 715.529 200.171 715.529 200.053C715.529 200.053 715.529 200.053 715.647 200.053C715.765 199.935 715.883 199.935 715.883 199.817C715.883 199.817 716.001 199.817 716.001 199.699C716.001 199.699 716.119 199.7 716.119 199.582C716.236 199.582 716.236 199.464 716.354 199.464H716.472H716.59C716.59 199.464 716.59 199.464 716.708 199.464Z" fill="#5C3980"/>
<path fill-rule="evenodd" clip-rule="evenodd" d="M760.068 158.461L756.18 159.992L750.288 162.231L746.4 163.645L710.227 139.608L724.484 145.029L746.046 153.158L760.068 158.461Z" fill="#5C3980"/>
<path opacity="0.3" d="M767.962 173.895L764.545 175.663L758.772 171.892L746.4 163.645L710.227 139.608L688.665 125.351L679.592 119.342L683.127 117.692L692.2 123.701L724.484 145.028L750.288 162.231L761.835 169.772L767.962 173.895Z" fill="#5C3980"/>
<path fill-rule="evenodd" clip-rule="evenodd" d="M776.328 173.306C776.092 173.895 775.974 174.602 775.974 175.192C775.856 178.019 777.624 179.433 780.098 178.373L715.647 210.539C715.647 210.539 715.647 210.539 715.529 210.539C715.176 210.657 714.94 210.775 714.587 210.893C713.762 211.128 713.055 211.011 712.466 210.775C712.348 210.657 712.23 210.657 712.112 210.539C711.405 209.95 711.052 208.89 711.17 207.594C711.287 205.237 712.701 202.645 714.587 200.995C714.822 200.878 714.94 200.642 715.176 200.524C715.176 200.524 715.293 200.524 715.293 200.406C715.293 200.406 715.411 200.406 715.411 200.288C715.411 200.288 715.529 200.288 715.529 200.171C715.529 200.171 715.529 200.171 715.647 200.053C715.647 200.053 715.647 200.053 715.765 200.053C715.883 199.935 716.001 199.935 716.001 199.817C716.001 199.817 716.118 199.817 716.118 199.699C716.118 199.699 716.236 199.699 716.236 199.582C716.354 199.582 716.354 199.464 716.472 199.464H716.59H716.708C716.825 199.464 716.825 199.346 716.943 199.346C717.415 199.228 718.357 198.639 718.357 198.639L718.711 197.343C718.711 197.343 733.439 184.029 738.741 183.439C742.865 182.968 759.125 171.775 766.548 166.59C768.787 165.058 770.201 163.998 770.201 163.998C770.554 163.998 780.687 166.001 780.687 166.001L781.512 167.179C781.512 167.179 781.394 167.179 781.394 167.297C781.158 167.415 781.041 167.533 780.923 167.533C778.684 168.711 777.034 171.068 776.328 173.306Z" fill="white"/>
<path fill-rule="evenodd" clip-rule="evenodd" d="M782.926 166.591L767.962 174.131L764.427 175.899L716.708 199.7C716.59 199.817 716.354 199.818 716.236 199.935C715.647 200.289 714.94 200.642 714.469 201.231L713.526 200.525L672.051 173.307L646.954 156.811L646.719 156.693L630.223 145.735C630.341 145.618 630.341 145.5 630.459 145.382C631.401 144.204 632.462 143.261 633.64 142.554L634.347 142.201L679.71 119.578L683.245 117.81L698.209 110.27L717.061 122.759L744.868 141.258L782.926 166.591Z" fill="#001E2B"/>
<path d="M744.75 141.14C740.155 143.143 733.203 146.088 725.191 149.623C704.454 158.578 677.354 170.36 672.051 173.306C668.163 175.427 667.338 178.373 667.692 181.083L642.948 164.705C642.948 161.995 643.891 159.167 646.954 156.81C647.661 156.221 648.368 155.75 649.311 155.279C657.323 150.801 670.048 145.028 694.085 133.716C700.801 130.535 708.46 126.883 717.061 122.759L744.75 141.14Z" fill="#44538F"/>
<path d="M767.962 173.895V184.5L764.663 186.149L764.545 175.663L679.592 119.342L683.127 117.692L767.962 173.895Z" fill="#9BA5C9"/>
<path opacity="0.1" d="M895.618 268.853C895.662 260.003 882.827 252.764 866.949 252.684C851.071 252.604 838.163 259.713 838.119 268.563C838.074 277.413 850.91 284.653 866.787 284.733C882.665 284.813 895.573 277.703 895.618 268.853Z" fill="#447489"/>
<path d="M891.562 204.178C891.798 199.583 888.734 194.988 882.372 191.453C870.235 184.737 850.558 184.619 838.422 191.335C832.413 194.634 829.468 198.994 829.35 203.471L836.773 268.982C837.244 274.52 838.54 279.233 844.432 281.59C856.803 286.303 866.229 285.949 876.009 281.119C881.9 278.291 883.55 273.931 884.139 268.865L891.562 204.178Z" fill="white"/>
<path d="M860.338 253.784C869.058 253.784 876.126 246.715 876.126 237.995C876.126 229.275 869.058 222.206 860.338 222.206C851.618 222.206 844.549 229.275 844.549 237.995C844.549 246.715 851.618 253.784 860.338 253.784Z" fill="url(#paint6_linear_369_532)"/>
<path d="M860.338 249.894C853.858 249.894 848.555 244.592 848.555 238.112C848.555 231.631 853.858 226.329 860.338 226.329C866.818 226.329 872.121 231.631 872.121 238.112C872.121 244.592 866.818 249.894 860.338 249.894ZM860.338 228.214C854.918 228.214 850.441 232.574 850.441 238.112C850.441 243.65 854.8 248.009 860.338 248.009C865.758 248.009 870.235 243.65 870.235 238.112C870.235 232.574 865.758 228.214 860.338 228.214Z" fill="white"/>
<path d="M895.568 190.628C895.803 185.443 892.387 180.259 885.199 176.253C871.414 168.594 849.262 168.594 835.594 176.135C828.76 179.906 825.461 184.854 825.344 189.803V197.108C825.344 202.175 828.761 207.241 835.712 211.012C849.498 218.67 871.649 218.671 885.317 211.13C892.269 207.241 895.686 202.057 895.568 196.991V190.628Z" fill="#4E5F96"/>
<path d="M895.636 190.164C895.69 179.362 880.014 170.526 860.622 170.428C841.23 170.33 825.466 179.008 825.411 189.81C825.357 200.612 841.033 209.448 860.425 209.546C879.817 209.644 895.581 200.966 895.636 190.164Z" fill="#444D89"/>
<path d="M889.323 178.138C889.441 173.896 886.613 169.654 880.84 166.355C869.528 160.11 851.383 159.993 840.072 166.237C834.534 169.301 831.706 173.425 831.706 177.431V183.44C831.706 187.564 834.534 191.688 840.189 194.869C851.501 201.114 869.646 201.232 880.957 194.987C886.731 191.806 889.441 187.564 889.323 183.322V178.138Z" fill="#4E5F96"/>
<path d="M889.237 177.796C889.281 168.946 876.446 161.707 860.568 161.627C844.69 161.546 831.782 168.656 831.737 177.506C831.693 186.356 844.528 193.595 860.406 193.675C876.284 193.755 889.192 186.646 889.237 177.796Z" fill="#444D89"/>
<path d="M870.707 187.447L879.661 182.262C880.839 181.555 880.722 180.377 879.308 179.552C877.894 178.728 875.773 178.61 874.595 179.317L865.64 184.501C864.462 185.208 864.58 186.386 865.994 187.211C867.407 188.154 869.528 188.154 870.707 187.447Z" fill="#262F42"/>
<path d="M788.062 271.563C788.905 271.071 788.896 269.487 788.042 268.027C787.188 266.566 785.813 265.781 784.97 266.274C784.127 266.767 784.136 268.35 784.99 269.811C785.844 271.271 787.219 272.056 788.062 271.563Z" fill="white"/>
<path d="M767.844 265.567L754.059 257.672C751.466 256.141 753.234 255.08 750.995 253.784C748.638 252.488 746.4 253.195 744.75 252.252L740.273 249.66C736.974 247.775 731.554 247.775 728.372 249.66C727.312 250.249 726.605 251.074 726.134 251.899H725.898V252.959V253.077C725.898 254.373 726.723 255.551 728.372 256.494L733.085 259.204C734.499 260.146 733.321 261.442 735.56 262.739C737.681 264.035 739.566 263.092 741.922 264.388L755.944 272.518C760.303 274.993 760.657 276.407 761.01 277.585L776.563 268.63C774.678 268.276 772.204 268.159 767.844 265.567ZM748.638 255.551L738.506 261.443C738.152 261.678 737.563 261.678 737.209 261.443C736.974 261.325 736.974 261.207 736.974 261.089C736.974 260.971 737.092 260.853 737.209 260.736L747.343 254.844C747.696 254.609 748.285 254.609 748.638 254.844C748.874 254.962 748.874 255.08 748.874 255.198C748.874 255.316 748.874 255.433 748.638 255.551Z" fill="#D1DCF0"/>
<path d="M754.059 256.375C751.466 254.844 753.234 253.783 750.995 252.487C748.638 251.191 746.4 251.898 744.75 250.955L740.273 248.363C736.974 246.478 731.554 246.478 728.372 248.363C726.723 249.306 725.898 250.602 725.898 251.78C725.898 253.076 726.723 254.255 728.372 255.197L733.085 257.907C734.499 258.85 733.321 260.146 735.56 261.442C737.681 262.738 739.566 261.795 741.922 263.091L755.944 271.222C760.303 273.696 760.657 275.11 761.01 276.288L776.563 267.333C774.678 267.098 772.204 266.98 767.844 264.388L754.059 256.375ZM748.874 253.901C748.874 254.019 748.756 254.137 748.638 254.254L738.506 260.146C738.152 260.381 737.563 260.381 737.209 260.146C736.974 260.028 736.974 259.91 736.974 259.792C736.974 259.674 737.092 259.557 737.209 259.439L747.343 253.548C747.696 253.312 748.285 253.312 748.638 253.548C748.874 253.665 748.874 253.783 748.874 253.901Z" fill="white"/>
<path d="M800.6 280.648V276.759L799.539 276.524V277.702C799.421 277.702 799.421 277.584 799.304 277.584L780.569 266.744C778.684 265.684 775.503 265.802 773.382 267.098L759.361 275.228C759.125 275.345 758.889 275.581 758.654 275.699V274.756H757.593V277.113C757.593 278.762 758.889 280.53 759.832 281.119L776.799 290.898C779.509 292.312 783.162 291.959 785.282 290.781L798.715 283.004C799.893 282.415 800.482 281.59 800.6 280.648C800.6 280.765 800.6 280.765 800.6 280.648Z" fill="#B8CAE8"/>
<path d="M798.715 278.998L784.693 287.128C782.572 288.306 779.273 288.542 777.506 287.481L758.772 276.524C756.886 275.463 757.357 274.049 759.478 272.871L773.382 264.505C775.503 263.327 778.802 263.091 780.569 264.152L797.772 274.049C799.657 275.11 802.485 276.995 798.715 278.998Z" fill="#D1DCF0"/>
<path d="M863.99 321.416H863.754C863.401 320.591 862.694 319.884 861.516 319.177L804.959 286.539C800.6 284.065 800.246 282.651 799.893 281.473L784.34 289.249V290.545C786.225 290.781 788.699 290.899 793.059 293.491L849.615 326.129C851.265 327.071 853.386 327.543 855.624 327.543C857.745 327.543 859.984 327.071 861.634 326.129C863.283 325.186 864.108 323.89 864.108 322.712V321.416H863.99ZM825.461 305.391C824.99 305.627 824.165 305.627 823.693 305.391C823.222 305.156 823.222 304.684 823.693 304.331C824.165 304.095 824.99 304.095 825.461 304.331C825.932 304.684 825.932 305.156 825.461 305.391ZM828.76 307.394C828.289 307.63 827.464 307.63 826.993 307.394C826.521 307.159 826.521 306.687 826.993 306.334C827.464 306.098 828.289 306.098 828.76 306.334C829.231 306.569 829.231 307.041 828.76 307.394ZM832.059 309.279C831.588 309.515 830.763 309.515 830.292 309.279C829.821 309.044 829.821 308.573 830.292 308.219C830.763 307.984 831.588 307.984 832.059 308.219C832.531 308.455 832.531 308.926 832.059 309.279ZM835.358 311.165C834.887 311.4 834.062 311.4 833.591 311.165C833.12 310.929 833.12 310.458 833.591 310.104C834.062 309.751 834.887 309.869 835.358 310.104C835.83 310.34 835.83 310.811 835.358 311.165ZM838.54 313.05C838.068 313.286 837.244 313.286 836.772 313.05C836.301 312.814 836.301 312.343 836.772 311.99C837.244 311.754 838.068 311.754 838.54 311.99C839.011 312.225 839.011 312.697 838.54 313.05ZM841.839 314.935C841.368 315.171 840.543 315.171 840.071 314.935C839.6 314.7 839.6 314.228 840.071 313.875C840.543 313.639 841.368 313.639 841.839 313.875C842.31 314.228 842.31 314.582 841.839 314.935Z" fill="#D1DCF0"/>
<path d="M784.222 289.249C786.107 289.485 788.582 289.603 792.941 292.195L849.498 324.833C851.147 325.776 853.268 326.247 855.507 326.247C857.628 326.247 859.866 325.776 861.516 324.833C864.815 322.948 864.815 319.884 861.516 317.881L804.959 285.243C800.6 282.769 800.246 281.355 799.893 280.177L784.222 289.249ZM841.839 313.64C841.368 313.875 840.543 313.875 840.072 313.64C839.6 313.404 839.6 312.932 840.072 312.579C840.543 312.225 841.368 312.343 841.839 312.579C842.31 312.932 842.31 313.404 841.839 313.64ZM838.54 311.754C838.069 311.99 837.244 311.99 836.772 311.754C836.301 311.519 836.301 311.047 836.772 310.694C837.244 310.34 838.069 310.458 838.54 310.694C839.011 311.047 839.011 311.519 838.54 311.754ZM835.359 309.869C834.887 310.105 834.062 310.105 833.591 309.869C833.12 309.633 833.12 309.162 833.591 308.809C834.062 308.455 834.887 308.573 835.359 308.809C835.83 309.162 835.83 309.633 835.359 309.869ZM832.059 307.984C831.588 308.22 830.763 308.22 830.292 307.984C829.821 307.748 829.821 307.277 830.292 306.923C830.763 306.688 831.588 306.688 832.059 306.923C832.531 307.277 832.531 307.748 832.059 307.984ZM828.76 306.099C828.289 306.334 827.464 306.334 826.993 306.099C826.521 305.863 826.521 305.392 826.993 305.038C827.464 304.685 828.289 304.803 828.76 305.038C829.231 305.392 829.231 305.745 828.76 306.099ZM825.461 304.213C824.99 304.449 824.165 304.449 823.694 304.213C823.222 303.978 823.222 303.506 823.694 303.153C824.165 302.917 824.99 302.917 825.461 303.153C825.932 303.506 825.932 303.86 825.461 304.213Z" fill="white"/>
<path d="M797.536 278.409L784.34 286.068C782.572 287.128 779.745 287.246 778.213 286.303L760.185 275.935C758.654 274.992 758.771 273.46 760.656 272.4L773.853 264.741C775.621 263.681 778.448 263.563 779.98 264.505L798.008 274.874C799.539 275.699 799.304 277.348 797.536 278.409Z" fill="#444D89"/>
<path opacity="0.1" d="M311.15 450.907C306.436 448.197 298.778 448.197 294.065 450.907L253.179 474.472C248.466 477.182 248.466 481.541 253.179 484.369L260.484 488.611L264.962 491.203L354.274 542.693C358.987 545.403 366.646 545.403 371.359 542.693L412.245 519.128C416.958 516.418 416.958 512.058 412.245 509.231L311.15 450.907Z" fill="black"/>
<path d="M411.066 509.348C411.066 507.581 409.888 505.813 407.531 504.399L306.437 446.075C301.723 443.365 294.065 443.365 289.352 446.075L248.466 469.641C246.11 471.055 244.931 472.822 244.931 474.589V476.828V477.064V479.42V478.006C244.931 479.774 245.52 482.484 248.466 484.251L255.771 488.493L260.249 491.085L349.561 542.575C354.274 545.285 361.933 545.285 366.646 542.575L407.531 519.01C410.477 517.242 410.948 514.768 411.066 513.001V512.883C411.066 512.883 411.066 512.883 411.066 512.765V509.348Z" fill="#262F42"/>
<path d="M306.437 446.075C301.723 443.365 294.065 443.365 289.352 446.075L248.466 469.641C243.753 472.351 243.753 476.71 248.466 479.538L255.771 483.78L260.249 486.372L349.561 537.862C354.274 540.572 361.933 540.572 366.646 537.862L407.531 514.297C412.245 511.587 412.245 507.227 407.531 504.399L306.437 446.075Z" fill="#444D89"/>
<path d="M404.35 506.403C407.414 508.171 407.414 510.999 404.35 512.766L363.818 536.096C360.755 537.863 355.924 537.863 352.86 536.096L252.001 477.89C248.937 476.122 248.937 473.294 252.001 471.527L257.186 468.463C257.539 468.228 258.246 468.228 258.599 468.463L259.071 468.699C260.602 469.642 263.195 469.642 264.844 468.699L287.702 455.503C289.234 454.56 289.234 453.146 287.702 452.203L287.231 451.968C286.878 451.732 286.76 451.379 287.231 451.143L292.533 448.079C295.597 446.312 300.428 446.312 303.491 448.079L404.35 506.403Z" fill="#323B70"/>
<path d="M283.329 454.921C283.331 454.466 282.647 454.093 281.801 454.088C280.956 454.084 280.268 454.449 280.265 454.905C280.263 455.36 280.947 455.733 281.793 455.738C282.638 455.742 283.326 455.377 283.329 454.921Z" fill="#6D76C2"/>
<path d="M277.569 457.387C277.922 457.505 277.922 457.859 277.569 457.976L268.968 462.925C268.614 463.043 268.143 463.043 267.907 462.925C267.554 462.807 267.554 462.454 267.907 462.336L276.509 457.387C276.744 457.269 277.216 457.269 277.569 457.387Z" fill="#6D76C2"/>
<path d="M404.35 512.647L402.347 513.825L393.51 518.892L374.187 529.967L363.818 535.976C362.993 536.448 361.933 536.801 360.873 537.037C358.163 537.626 355.099 537.273 352.86 535.976L252.001 477.77C248.937 476.003 248.937 473.175 252.001 471.408L257.186 468.344C257.657 468.108 258.246 468.108 258.599 468.344L259.071 468.58C260.602 469.523 263.195 469.523 264.844 468.58L287.702 455.383C289.234 454.441 289.234 453.027 287.702 452.084L287.231 451.848C286.878 451.613 286.878 451.259 287.231 451.024L292.533 447.96C295.597 446.193 300.428 446.193 303.491 447.96L404.35 506.166C407.414 508.169 407.414 510.997 404.35 512.647Z" fill="url(#paint7_linear_369_532)"/>
<path opacity="0.6" d="M337.425 476.945L319.633 487.196C319.044 487.549 317.866 487.549 317.159 487.078C316.452 486.725 316.452 486.018 317.041 485.664L334.833 475.413C335.422 475.06 336.6 475.06 337.307 475.531C338.014 476.002 338.014 476.591 337.425 476.945Z" fill="white"/>
<path opacity="0.3" d="M338.132 484.014L325.996 490.966C325.407 491.32 324.228 491.319 323.521 490.848C322.814 490.495 322.815 489.788 323.404 489.434L335.54 482.482C336.129 482.129 337.307 482.129 338.014 482.6C338.721 482.954 338.839 483.661 338.132 484.014Z" fill="white"/>
<path d="M316.923 498.626L307.026 504.399C306.201 504.87 304.787 504.752 303.845 504.281L294.183 498.743C293.24 498.154 293.122 497.447 293.947 496.976L303.845 491.202C304.669 490.731 306.083 490.849 307.026 491.32L316.688 496.858C317.513 497.329 317.63 498.154 316.923 498.626Z" fill="#5BBDEC"/>
<path opacity="0.6" d="M359.223 489.552L341.431 499.803C340.842 500.157 339.664 500.157 338.957 499.685C338.25 499.332 338.25 498.625 338.839 498.271L356.631 488.021C357.22 487.667 358.398 487.667 359.105 488.138C359.812 488.61 359.93 489.199 359.223 489.552Z" fill="white"/>
<path opacity="0.3" d="M360.047 496.622L347.912 503.574C347.322 503.928 346.144 503.928 345.437 503.456C344.73 503.103 344.73 502.396 345.319 502.043L357.455 495.091C358.044 494.737 359.223 494.737 359.93 495.209C360.637 495.562 360.637 496.269 360.047 496.622Z" fill="white"/>
<path d="M338.721 511.232L328.824 517.005C327.999 517.477 326.585 517.359 325.642 516.888L315.981 511.35C315.038 510.76 314.92 510.053 315.745 509.582L325.642 503.809C326.467 503.337 327.881 503.455 328.824 503.927L338.486 509.464C339.428 509.936 339.546 510.761 338.721 511.232Z" fill="#5BBDEC"/>
<path opacity="0.6" d="M381.61 502.396L363.818 512.647C363.229 513 362.051 513 361.344 512.529C360.637 512.175 360.637 511.469 361.226 511.115L379.018 500.864C379.607 500.511 380.785 500.511 381.492 500.982C382.199 501.453 382.199 502.043 381.61 502.396Z" fill="white"/>
<path opacity="0.3" d="M382.317 509.465L370.18 516.417C369.591 516.77 368.413 516.771 367.706 516.299C366.999 515.946 366.999 515.239 367.588 514.885L379.725 507.934C380.314 507.58 381.492 507.58 382.199 508.051C382.906 508.523 383.024 509.112 382.317 509.465Z" fill="white"/>
<path d="M360.99 524.076L351.093 529.849C350.268 530.321 348.854 530.203 347.912 529.731L338.25 524.194C337.307 523.604 337.189 522.897 338.014 522.426L347.912 516.653C348.736 516.181 350.15 516.299 351.093 516.77L360.755 522.308C361.697 522.78 361.815 523.604 360.99 524.076Z" fill="#5BBDEC"/>
<path opacity="0.6" d="M402.465 513.824L393.628 518.891L383.142 524.9L383.024 524.547C383.024 524.311 383.142 524.075 383.495 523.84L401.287 513.589C401.404 513.589 401.994 513.707 402.465 513.824Z" fill="white"/>
<path d="M374.305 530.084L363.936 536.093C363.111 536.564 362.051 536.918 360.99 537.154C360.283 536.565 360.166 535.857 360.873 535.504L370.77 529.731C371.595 529.259 372.891 529.377 373.834 529.849L374.305 530.084Z" fill="#5BBDEC"/>
<path opacity="0.6" d="M325.407 466.577L283.696 490.614C282.872 491.085 281.457 490.967 280.515 490.378C279.572 489.789 279.455 488.964 280.162 488.611L321.872 464.574C322.697 464.103 324.111 464.221 325.053 464.81C326.114 465.281 326.232 466.106 325.407 466.577Z" fill="white"/>
<path d="M305.376 453.145L318.926 460.332L273.681 486.371L260.131 479.184L305.376 453.145Z" fill="url(#paint8_linear_369_532)"/>
<path d="M314.684 457.976H314.567L318.926 460.332L273.681 486.372L271.796 485.429L272.738 481.541L272.856 480.952L276.627 480.716L276.862 479.891L277.569 478.831L282.754 477.888H283.107L284.285 474.118L285.935 473.293L292.769 471.997L292.533 469.169L291.591 465.752H291.708L296.775 465.516H296.893L298.66 464.574L303.962 464.338L304.434 459.743H304.552L310.325 459.625L310.796 458.682L310.914 458.447L314.567 457.976H314.684Z" fill="#5BBDEC"/>
<path opacity="0.4" d="M278.747 481.07L275.566 481.305L273.445 481.777L272.62 481.659L272.738 481.07L276.509 480.834C278.394 480.834 278.747 481.07 278.747 481.07Z" fill="#ECA741"/>
<path opacity="0.4" d="M284.403 478.006L282.165 478.36L279.455 478.949H278.865L278.041 479.067L277.569 478.713L282.871 477.771L284.403 478.006Z" fill="#ECA741"/>
<path opacity="0.4" d="M294.536 471.761L288.527 473.646L287.349 473.999L285.817 474.706L284.521 474.353L284.285 474.117L285.935 473.293L292.769 471.996L294.536 471.761Z" fill="#ECA741"/>
<path opacity="0.4" d="M300.663 465.988L295.007 466.577C295.007 466.577 293.24 466.224 291.708 465.752L296.893 465.517C298.896 465.634 300.663 465.988 300.663 465.988Z" fill="#ECA741"/>
<path opacity="0.4" d="M305.258 464.573L301.606 465.045C301.606 465.045 300.074 464.691 298.66 464.573L303.844 464.338C304.787 464.574 305.258 464.573 305.258 464.573Z" fill="#ECA741"/>
<path opacity="0.4" d="M312.092 459.861C311.974 459.861 308.204 460.214 307.968 460.096C307.733 460.096 305.965 460.332 305.965 460.332C305.965 460.332 305.258 459.978 304.552 459.625H310.325C311.15 459.743 312.092 459.861 312.092 459.861Z" fill="#ECA741"/>
<path opacity="0.4" d="M314.684 457.976H314.567L312.21 458.447L312.446 458.682H310.796L310.914 458.447L314.567 457.976H314.684Z" fill="#ECA741"/>
<path d="M300.297 462.631C301.598 462.604 302.641 462.001 302.626 461.286C302.611 460.57 301.544 460.012 300.242 460.039C298.941 460.067 297.899 460.669 297.914 461.385C297.929 462.1 298.996 462.658 300.297 462.631Z" fill="#5BBDEC"/>
<path opacity="0.3" d="M314.213 478.477L287.938 493.676C287.467 493.912 286.524 493.912 285.935 493.559C285.346 493.205 285.228 492.734 285.699 492.381L311.975 477.181C312.446 476.945 313.388 476.945 313.978 477.299C314.685 477.77 314.802 478.241 314.213 478.477Z" fill="white"/>
<defs>
<linearGradient id="paint0_linear_369_532" x1="384.068" y1="870.722" x2="384.068" y2="578.423" gradientUnits="userSpaceOnUse">
<stop stop-color="#EBF4FF" stop-opacity="0"/>
<stop offset="1" stop-color="#C9E6FF"/>
</linearGradient>
<linearGradient id="paint1_linear_369_532" x1="26.2701" y1="633.101" x2="26.2701" y2="405.983" gradientUnits="userSpaceOnUse">
<stop stop-color="#EBF4FF" stop-opacity="0"/>
<stop offset="1" stop-color="#C9E6FF"/>
</linearGradient>
<linearGradient id="paint2_linear_369_532" x1="1029.38" y1="483.44" x2="1029.38" y2="282.561" gradientUnits="userSpaceOnUse">
<stop stop-color="#EBF4FF" stop-opacity="0"/>
<stop offset="1" stop-color="#C9E6FF"/>
</linearGradient>
<linearGradient id="paint3_linear_369_532" x1="344.789" y1="116.162" x2="344.789" y2="347.709" gradientUnits="userSpaceOnUse">
<stop stop-color="#001E2B"/>
<stop offset="1" stop-color="#5BBDEC"/>
</linearGradient>
<linearGradient id="paint4_linear_369_532" x1="470.628" y1="37.9336" x2="470.628" y2="172.836" gradientUnits="userSpaceOnUse">
<stop stop-color="#001E2B"/>
<stop offset="1" stop-color="#5BBDEC"/>
</linearGradient>
<linearGradient id="paint5_linear_369_532" x1="122.73" y1="406.211" x2="222.675" y2="406.211" gradientUnits="userSpaceOnUse">
<stop stop-color="#EBF4FF"/>
<stop offset="1" stop-color="#C9E6FF"/>
</linearGradient>
<linearGradient id="paint6_linear_369_532" x1="860.338" y1="222.206" x2="860.338" y2="253.784" gradientUnits="userSpaceOnUse">
<stop stop-color="#001E2B"/>
<stop offset="1" stop-color="#5BBDEC"/>
</linearGradient>
<linearGradient id="paint7_linear_369_532" x1="328.176" y1="446.635" x2="328.176" y2="537.313" gradientUnits="userSpaceOnUse">
<stop stop-color="#5BBDEC"/>
<stop offset="1" stop-color="white"/>
</linearGradient>
<linearGradient id="paint8_linear_369_532" x1="289.529" y1="453.145" x2="289.529" y2="486.371" gradientUnits="userSpaceOnUse">
<stop stop-color="#5BBDEC"/>
<stop offset="1" stop-color="white"/>
</linearGradient>
</defs>
</svg>
